<svg width="626" height="503" viewBox="0 0 626 503" fill="none" xmlns="http://www.w3.org/2000/svg">
<rect width="626" height="370" rx="20" fill="#21D99A"/>
<path d="M196.034 43.16H190.214L189.214 46H186.834L191.814 32.08H194.454L199.434 46H197.034L196.034 43.16ZM195.394 41.3L193.134 34.84L190.854 41.3H195.394ZM211.32 36.24C211.32 36.9467 211.153 37.6133 210.82 38.24C210.486 38.8667 209.953 39.38 209.22 39.78C208.486 40.1667 207.546 40.36 206.4 40.36H203.88V46H201.6V32.1H206.4C207.466 32.1 208.366 32.2867 209.1 32.66C209.846 33.02 210.4 33.5133 210.76 34.14C211.133 34.7667 211.32 35.4667 211.32 36.24ZM206.4 38.5C207.266 38.5 207.913 38.3067 208.34 37.92C208.766 37.52 208.98 36.96 208.98 36.24C208.98 34.72 208.12 33.96 206.4 33.96H203.88V38.5H206.4ZM215.774 32.1V46H213.494V32.1H215.774ZM235.063 32.1V46H232.783V39.92H226.243V46H223.963V32.1H226.243V38.06H232.783V32.1H235.063ZM237.304 40.44C237.304 39.3333 237.531 38.3533 237.984 37.5C238.451 36.6467 239.078 35.9867 239.864 35.52C240.664 35.04 241.544 34.8 242.504 34.8C243.371 34.8 244.124 34.9733 244.764 35.32C245.418 35.6533 245.938 36.0733 246.324 36.58V34.98H248.624V46H246.324V44.36C245.938 44.88 245.411 45.3133 244.744 45.66C244.078 46.0067 243.318 46.18 242.464 46.18C241.518 46.18 240.651 45.94 239.864 45.46C239.078 44.9667 238.451 44.2867 237.984 43.42C237.531 42.54 237.304 41.5467 237.304 40.44ZM246.324 40.48C246.324 39.72 246.164 39.06 245.844 38.5C245.538 37.94 245.131 37.5133 244.624 37.22C244.118 36.9267 243.571 36.78 242.984 36.78C242.398 36.78 241.851 36.9267 241.344 37.22C240.838 37.5 240.424 37.92 240.104 38.48C239.798 39.0267 239.644 39.68 239.644 40.44C239.644 41.2 239.798 41.8667 240.104 42.44C240.424 43.0133 240.838 43.4533 241.344 43.76C241.864 44.0533 242.411 44.2 242.984 44.2C243.571 44.2 244.118 44.0533 244.624 43.76C245.131 43.4667 245.538 43.04 245.844 42.48C246.164 41.9067 246.324 41.24 246.324 40.48ZM253.899 36.58C254.232 36.02 254.672 35.5867 255.219 35.28C255.779 34.96 256.439 34.8 257.199 34.8V37.16H256.619C255.726 37.16 255.046 37.3867 254.579 37.84C254.126 38.2933 253.899 39.08 253.899 40.2V46H251.619V34.98H253.899V36.58ZM272.635 34.8C273.502 34.8 274.275 34.98 274.955 35.34C275.648 35.7 276.188 36.2333 276.575 36.94C276.975 37.6467 277.175 38.5 277.175 39.5V46H274.915V39.84C274.915 38.8533 274.668 38.1 274.175 37.58C273.682 37.0467 273.008 36.78 272.155 36.78C271.302 36.78 270.622 37.0467 270.115 37.58C269.622 38.1 269.375 38.8533 269.375 39.84V46H267.115V39.84C267.115 38.8533 266.868 38.1 266.375 37.58C265.882 37.0467 265.208 36.78 264.355 36.78C263.502 36.78 262.822 37.0467 262.315 37.58C261.822 38.1 261.575 38.8533 261.575 39.84V46H259.295V34.98H261.575V36.24C261.948 35.7867 262.422 35.4333 262.995 35.18C263.568 34.9267 264.182 34.8 264.835 34.8C265.715 34.8 266.502 34.9867 267.195 35.36C267.888 35.7333 268.422 36.2733 268.795 36.98C269.128 36.3133 269.648 35.7867 270.355 35.4C271.062 35 271.822 34.8 272.635 34.8ZM284.856 46.18C283.816 46.18 282.876 45.9467 282.036 45.48C281.196 45 280.536 44.3333 280.056 43.48C279.576 42.6133 279.336 41.6133 279.336 40.48C279.336 39.36 279.583 38.3667 280.076 37.5C280.57 36.6333 281.243 35.9667 282.096 35.5C282.95 35.0333 283.903 34.8 284.956 34.8C286.01 34.8 286.963 35.0333 287.816 35.5C288.67 35.9667 289.343 36.6333 289.836 37.5C290.33 38.3667 290.576 39.36 290.576 40.48C290.576 41.6 290.323 42.5933 289.816 43.46C289.31 44.3267 288.616 45 287.736 45.48C286.87 45.9467 285.91 46.18 284.856 46.18ZM284.856 44.2C285.443 44.2 285.99 44.06 286.496 43.78C287.016 43.5 287.436 43.08 287.756 42.52C288.076 41.96 288.236 41.28 288.236 40.48C288.236 39.68 288.083 39.0067 287.776 38.46C287.47 37.9 287.063 37.48 286.556 37.2C286.05 36.92 285.503 36.78 284.916 36.78C284.33 36.78 283.783 36.92 283.276 37.2C282.783 37.48 282.39 37.9 282.096 38.46C281.803 39.0067 281.656 39.68 281.656 40.48C281.656 41.6667 281.956 42.5867 282.556 43.24C283.17 43.88 283.936 44.2 284.856 44.2ZM298.39 34.8C299.257 34.8 300.03 34.98 300.71 35.34C301.403 35.7 301.943 36.2333 302.33 36.94C302.717 37.6467 302.91 38.5 302.91 39.5V46H300.65V39.84C300.65 38.8533 300.403 38.1 299.91 37.58C299.417 37.0467 298.743 36.78 297.89 36.78C297.037 36.78 296.357 37.0467 295.85 37.58C295.357 38.1 295.11 38.8533 295.11 39.84V46H292.83V34.98H295.11V36.24C295.483 35.7867 295.957 35.4333 296.53 35.18C297.117 34.9267 297.737 34.8 298.39 34.8ZM306.978 33.52C306.565 33.52 306.218 33.38 305.938 33.1C305.658 32.82 305.518 32.4733 305.518 32.06C305.518 31.6467 305.658 31.3 305.938 31.02C306.218 30.74 306.565 30.6 306.978 30.6C307.378 30.6 307.718 30.74 307.998 31.02C308.278 31.3 308.418 31.6467 308.418 32.06C308.418 32.4733 308.278 32.82 307.998 33.1C307.718 33.38 307.378 33.52 306.978 33.52ZM308.098 34.98V46H305.818V34.98H308.098ZM313.112 44.14H318.112V46H310.472V44.14L315.492 36.84H310.472V34.98H318.112V36.84L313.112 44.14ZM319.746 40.44C319.746 39.3333 319.973 38.3533 320.426 37.5C320.893 36.6467 321.519 35.9867 322.306 35.52C323.106 35.04 323.986 34.8 324.946 34.8C325.813 34.8 326.566 34.9733 327.206 35.32C327.859 35.6533 328.379 36.0733 328.766 36.58V34.98H331.066V46H328.766V44.36C328.379 44.88 327.853 45.3133 327.186 45.66C326.519 46.0067 325.759 46.18 324.906 46.18C323.959 46.18 323.093 45.94 322.306 45.46C321.519 44.9667 320.893 44.2867 320.426 43.42C319.973 42.54 319.746 41.5467 319.746 40.44ZM328.766 40.48C328.766 39.72 328.606 39.06 328.286 38.5C327.979 37.94 327.573 37.5133 327.066 37.22C326.559 36.9267 326.013 36.78 325.426 36.78C324.839 36.78 324.293 36.9267 323.786 37.22C323.279 37.5 322.866 37.92 322.546 38.48C322.239 39.0267 322.086 39.68 322.086 40.44C322.086 41.2 322.239 41.8667 322.546 42.44C322.866 43.0133 323.279 43.4533 323.786 43.76C324.306 44.0533 324.853 44.2 325.426 44.2C326.013 44.2 326.559 44.0533 327.066 43.76C327.573 43.4667 327.979 43.04 328.286 42.48C328.606 41.9067 328.766 41.24 328.766 40.48ZM336.721 36.84V42.94C336.721 43.3533 336.814 43.6533 337.001 43.84C337.201 44.0133 337.534 44.1 338.001 44.1H339.401V46H337.601C336.574 46 335.787 45.76 335.241 45.28C334.694 44.8 334.421 44.02 334.421 42.94V36.84H333.121V34.98H334.421V32.24H336.721V34.98H339.401V36.84H336.721ZM342.662 33.52C342.249 33.52 341.902 33.38 341.622 33.1C341.342 32.82 341.202 32.4733 341.202 32.06C341.202 31.6467 341.342 31.3 341.622 31.02C341.902 30.74 342.249 30.6 342.662 30.6C343.062 30.6 343.402 30.74 343.682 31.02C343.962 31.3 344.102 31.6467 344.102 32.06C344.102 32.4733 343.962 32.82 343.682 33.1C343.402 33.38 343.062 33.52 342.662 33.52ZM343.782 34.98V46H341.502V34.98H343.782ZM351.555 46.18C350.515 46.18 349.575 45.9467 348.735 45.48C347.895 45 347.235 44.3333 346.755 43.48C346.275 42.6133 346.035 41.6133 346.035 40.48C346.035 39.36 346.282 38.3667 346.775 37.5C347.269 36.6333 347.942 35.9667 348.795 35.5C349.649 35.0333 350.602 34.8 351.655 34.8C352.709 34.8 353.662 35.0333 354.515 35.5C355.369 35.9667 356.042 36.6333 356.535 37.5C357.029 38.3667 357.275 39.36 357.275 40.48C357.275 41.6 357.022 42.5933 356.515 43.46C356.009 44.3267 355.315 45 354.435 45.48C353.569 45.9467 352.609 46.18 351.555 46.18ZM351.555 44.2C352.142 44.2 352.689 44.06 353.195 43.78C353.715 43.5 354.135 43.08 354.455 42.52C354.775 41.96 354.935 41.28 354.935 40.48C354.935 39.68 354.782 39.0067 354.475 38.46C354.169 37.9 353.762 37.48 353.255 37.2C352.749 36.92 352.202 36.78 351.615 36.78C351.029 36.78 350.482 36.92 349.975 37.2C349.482 37.48 349.089 37.9 348.795 38.46C348.502 39.0067 348.355 39.68 348.355 40.48C348.355 41.6667 348.655 42.5867 349.255 43.24C349.869 43.88 350.635 44.2 351.555 44.2ZM365.089 34.8C365.956 34.8 366.729 34.98 367.409 35.34C368.103 35.7 368.643 36.2333 369.029 36.94C369.416 37.6467 369.609 38.5 369.609 39.5V46H367.349V39.84C367.349 38.8533 367.103 38.1 366.609 37.58C366.116 37.0467 365.443 36.78 364.589 36.78C363.736 36.78 363.056 37.0467 362.549 37.58C362.056 38.1 361.809 38.8533 361.809 39.84V46H359.529V34.98H361.809V36.24C362.183 35.7867 362.656 35.4333 363.229 35.18C363.816 34.9267 364.436 34.8 365.089 34.8ZM382.293 46.14C381.36 46.14 380.52 45.98 379.773 45.66C379.026 45.3267 378.44 44.86 378.013 44.26C377.586 43.66 377.373 42.96 377.373 42.16H379.813C379.866 42.76 380.1 43.2533 380.513 43.64C380.94 44.0267 381.533 44.22 382.293 44.22C383.08 44.22 383.693 44.0333 384.133 43.66C384.573 43.2733 384.793 42.78 384.793 42.18C384.793 41.7133 384.653 41.3333 384.373 41.04C384.106 40.7467 383.766 40.52 383.353 40.36C382.953 40.2 382.393 40.0267 381.673 39.84C380.766 39.6 380.026 39.36 379.453 39.12C378.893 38.8667 378.413 38.48 378.013 37.96C377.613 37.44 377.413 36.7467 377.413 35.88C377.413 35.08 377.613 34.38 378.013 33.78C378.413 33.18 378.973 32.72 379.693 32.4C380.413 32.08 381.246 31.92 382.193 31.92C383.54 31.92 384.64 32.26 385.493 32.94C386.36 33.6067 386.84 34.5267 386.933 35.7H384.413C384.373 35.1933 384.133 34.76 383.693 34.4C383.253 34.04 382.673 33.86 381.953 33.86C381.3 33.86 380.766 34.0267 380.353 34.36C379.94 34.6933 379.733 35.1733 379.733 35.8C379.733 36.2267 379.86 36.58 380.113 36.86C380.38 37.1267 380.713 37.34 381.113 37.5C381.513 37.66 382.06 37.8333 382.753 38.02C383.673 38.2733 384.42 38.5267 384.993 38.78C385.58 39.0333 386.073 39.4267 386.473 39.96C386.886 40.48 387.093 41.18 387.093 42.06C387.093 42.7667 386.9 43.4333 386.513 44.06C386.14 44.6867 385.586 45.1933 384.853 45.58C384.133 45.9533 383.28 46.14 382.293 46.14ZM399.883 40.22C399.883 40.6333 399.857 41.0067 399.803 41.34H391.383C391.45 42.22 391.777 42.9267 392.363 43.46C392.95 43.9933 393.67 44.26 394.523 44.26C395.75 44.26 396.617 43.7467 397.123 42.72H399.583C399.25 43.7333 398.643 44.5667 397.763 45.22C396.897 45.86 395.817 46.18 394.523 46.18C393.47 46.18 392.523 45.9467 391.683 45.48C390.857 45 390.203 44.3333 389.723 43.48C389.257 42.6133 389.023 41.6133 389.023 40.48C389.023 39.3467 389.25 38.3533 389.703 37.5C390.17 36.6333 390.817 35.9667 391.643 35.5C392.483 35.0333 393.443 34.8 394.523 34.8C395.563 34.8 396.49 35.0267 397.303 35.48C398.117 35.9333 398.75 36.5733 399.203 37.4C399.657 38.2133 399.883 39.1533 399.883 40.22ZM397.503 39.5C397.49 38.66 397.19 37.9867 396.603 37.48C396.017 36.9733 395.29 36.72 394.423 36.72C393.637 36.72 392.963 36.9733 392.403 37.48C391.843 37.9733 391.51 38.6467 391.403 39.5H397.503ZM404.407 36.58C404.74 36.02 405.18 35.5867 405.727 35.28C406.287 34.96 406.947 34.8 407.707 34.8V37.16H407.127C406.234 37.16 405.554 37.3867 405.087 37.84C404.634 38.2933 404.407 39.08 404.407 40.2V46H402.127V34.98H404.407V36.58ZM414.063 43.96L417.183 34.98H419.603L415.403 46H412.683L408.503 34.98H410.943L414.063 43.96ZM431.426 40.22C431.426 40.6333 431.4 41.0067 431.346 41.34H422.926C422.993 42.22 423.32 42.9267 423.906 43.46C424.493 43.9933 425.213 44.26 426.066 44.26C427.293 44.26 428.16 43.7467 428.666 42.72H431.126C430.793 43.7333 430.186 44.5667 429.306 45.22C428.44 45.86 427.36 46.18 426.066 46.18C425.013 46.18 424.066 45.9467 423.226 45.48C422.4 45 421.746 44.3333 421.266 43.48C420.8 42.6133 420.566 41.6133 420.566 40.48C420.566 39.3467 420.793 38.3533 421.246 37.5C421.713 36.6333 422.36 35.9667 423.186 35.5C424.026 35.0333 424.986 34.8 426.066 34.8C427.106 34.8 428.033 35.0267 428.846 35.48C429.66 35.9333 430.293 36.5733 430.746 37.4C431.2 38.2133 431.426 39.1533 431.426 40.22ZM429.046 39.5C429.033 38.66 428.733 37.9867 428.146 37.48C427.56 36.9733 426.833 36.72 425.966 36.72C425.18 36.72 424.506 36.9733 423.946 37.48C423.386 37.9733 423.053 38.6467 422.946 39.5H429.046ZM435.95 36.58C436.283 36.02 436.723 35.5867 437.27 35.28C437.83 34.96 438.49 34.8 439.25 34.8V37.16H438.67C437.777 37.16 437.097 37.3867 436.63 37.84C436.177 38.2933 435.95 39.08 435.95 40.2V46H433.67V34.98H435.95V36.58Z" fill="#001A85"/>
<rect x="50" y="73" width="248" height="272" rx="8" fill="#4C5CE5"/>
<path d="M149.987 102.02C149.987 100.66 150.294 99.44 150.907 98.36C151.52 97.2667 152.354 96.4133 153.407 95.8C154.474 95.1867 155.654 94.88 156.947 94.88C158.467 94.88 159.794 95.2467 160.927 95.98C162.06 96.7133 162.887 97.7533 163.407 99.1H161.227C160.84 98.26 160.28 97.6133 159.547 97.16C158.827 96.7067 157.96 96.48 156.947 96.48C155.974 96.48 155.1 96.7067 154.327 97.16C153.554 97.6133 152.947 98.26 152.507 99.1C152.067 99.9267 151.847 100.9 151.847 102.02C151.847 103.127 152.067 104.1 152.507 104.94C152.947 105.767 153.554 106.407 154.327 106.86C155.1 107.313 155.974 107.54 156.947 107.54C157.96 107.54 158.827 107.32 159.547 106.88C160.28 106.427 160.84 105.78 161.227 104.94H163.407C162.887 106.273 162.06 107.307 160.927 108.04C159.794 108.76 158.467 109.12 156.947 109.12C155.654 109.12 154.474 108.82 153.407 108.22C152.354 107.607 151.52 106.76 150.907 105.68C150.294 104.6 149.987 103.38 149.987 102.02ZM180.256 95.16V109H178.436V98.68L173.836 109H172.556L167.936 98.66V109H166.116V95.16H168.076L173.196 106.6L178.316 95.16H180.256ZM187.763 109.14C186.843 109.14 186.016 108.98 185.283 108.66C184.563 108.327 183.996 107.873 183.583 107.3C183.169 106.713 182.956 106.04 182.943 105.28H184.883C184.949 105.933 185.216 106.487 185.683 106.94C186.163 107.38 186.856 107.6 187.763 107.6C188.629 107.6 189.309 107.387 189.803 106.96C190.309 106.52 190.563 105.96 190.563 105.28C190.563 104.747 190.416 104.313 190.123 103.98C189.829 103.647 189.463 103.393 189.023 103.22C188.583 103.047 187.989 102.86 187.243 102.66C186.323 102.42 185.583 102.18 185.023 101.94C184.476 101.7 184.003 101.327 183.603 100.82C183.216 100.3 183.023 99.6067 183.023 98.74C183.023 97.98 183.216 97.3067 183.603 96.72C183.989 96.1333 184.529 95.68 185.223 95.36C185.929 95.04 186.736 94.88 187.643 94.88C188.949 94.88 190.016 95.2067 190.843 95.86C191.683 96.5133 192.156 97.38 192.263 98.46H190.263C190.196 97.9267 189.916 97.46 189.423 97.06C188.929 96.6467 188.276 96.44 187.463 96.44C186.703 96.44 186.083 96.64 185.603 97.04C185.123 97.4267 184.883 97.9733 184.883 98.68C184.883 99.1867 185.023 99.6 185.303 99.92C185.596 100.24 185.949 100.487 186.363 100.66C186.789 100.82 187.383 101.007 188.143 101.22C189.063 101.473 189.803 101.727 190.363 101.98C190.923 102.22 191.403 102.6 191.803 103.12C192.203 103.627 192.403 104.32 192.403 105.2C192.403 105.88 192.223 106.52 191.863 107.12C191.503 107.72 190.969 108.207 190.263 108.58C189.556 108.953 188.723 109.14 187.763 109.14ZM152.854 123.16V137H151.034V126.68L146.434 137H145.154L140.534 126.66V137H138.714V123.16H140.674L145.794 134.6L150.914 123.16H152.854ZM160.72 137.18C159.694 137.18 158.76 136.947 157.92 136.48C157.094 136.013 156.44 135.353 155.96 134.5C155.494 133.633 155.26 132.633 155.26 131.5C155.26 130.38 155.5 129.393 155.98 128.54C156.474 127.673 157.14 127.013 157.98 126.56C158.82 126.093 159.76 125.86 160.8 125.86C161.84 125.86 162.78 126.093 163.62 126.56C164.46 127.013 165.12 127.667 165.6 128.52C166.094 129.373 166.34 130.367 166.34 131.5C166.34 132.633 166.087 133.633 165.58 134.5C165.087 135.353 164.414 136.013 163.56 136.48C162.707 136.947 161.76 137.18 160.72 137.18ZM160.72 135.58C161.374 135.58 161.987 135.427 162.56 135.12C163.134 134.813 163.594 134.353 163.94 133.74C164.3 133.127 164.48 132.38 164.48 131.5C164.48 130.62 164.307 129.873 163.96 129.26C163.614 128.647 163.16 128.193 162.6 127.9C162.04 127.593 161.434 127.44 160.78 127.44C160.114 127.44 159.5 127.593 158.94 127.9C158.394 128.193 157.954 128.647 157.62 129.26C157.287 129.873 157.12 130.62 157.12 131.5C157.12 132.393 157.28 133.147 157.6 133.76C157.934 134.373 158.374 134.833 158.92 135.14C159.467 135.433 160.067 135.58 160.72 135.58ZM168.053 131.48C168.053 130.36 168.28 129.38 168.733 128.54C169.187 127.687 169.807 127.027 170.593 126.56C171.393 126.093 172.287 125.86 173.273 125.86C174.127 125.86 174.92 126.06 175.653 126.46C176.387 126.847 176.947 127.36 177.333 128V122.2H179.173V137H177.333V134.94C176.973 135.593 176.44 136.133 175.733 136.56C175.027 136.973 174.2 137.18 173.253 137.18C172.28 137.18 171.393 136.94 170.593 136.46C169.807 135.98 169.187 135.307 168.733 134.44C168.28 133.573 168.053 132.587 168.053 131.48ZM177.333 131.5C177.333 130.673 177.167 129.953 176.833 129.34C176.5 128.727 176.047 128.26 175.473 127.94C174.913 127.607 174.293 127.44 173.613 127.44C172.933 127.44 172.313 127.6 171.753 127.92C171.193 128.24 170.747 128.707 170.413 129.32C170.08 129.933 169.913 130.653 169.913 131.48C169.913 132.32 170.08 133.053 170.413 133.68C170.747 134.293 171.193 134.767 171.753 135.1C172.313 135.42 172.933 135.58 173.613 135.58C174.293 135.58 174.913 135.42 175.473 135.1C176.047 134.767 176.5 134.293 176.833 133.68C177.167 133.053 177.333 132.327 177.333 131.5ZM191.969 126.04V137H190.149V135.38C189.802 135.94 189.316 136.38 188.689 136.7C188.076 137.007 187.396 137.16 186.649 137.16C185.796 137.16 185.029 136.987 184.349 136.64C183.669 136.28 183.129 135.747 182.729 135.04C182.342 134.333 182.149 133.473 182.149 132.46V126.04H183.949V132.22C183.949 133.3 184.222 134.133 184.769 134.72C185.316 135.293 186.062 135.58 187.009 135.58C187.982 135.58 188.749 135.28 189.309 134.68C189.869 134.08 190.149 133.207 190.149 132.06V126.04H191.969ZM196.862 122.2V137H195.042V122.2H196.862ZM209.964 131.1C209.964 131.447 209.944 131.813 209.904 132.2H201.144C201.21 133.28 201.577 134.127 202.244 134.74C202.924 135.34 203.744 135.64 204.704 135.64C205.49 135.64 206.144 135.46 206.664 135.1C207.197 134.727 207.57 134.233 207.784 133.62H209.744C209.45 134.673 208.864 135.533 207.984 136.2C207.104 136.853 206.01 137.18 204.704 137.18C203.664 137.18 202.73 136.947 201.904 136.48C201.09 136.013 200.45 135.353 199.984 134.5C199.517 133.633 199.284 132.633 199.284 131.5C199.284 130.367 199.51 129.373 199.964 128.52C200.417 127.667 201.05 127.013 201.864 126.56C202.69 126.093 203.637 125.86 204.704 125.86C205.744 125.86 206.664 126.087 207.464 126.54C208.264 126.993 208.877 127.62 209.304 128.42C209.744 129.207 209.964 130.1 209.964 131.1ZM208.084 130.72C208.084 130.027 207.93 129.433 207.624 128.94C207.317 128.433 206.897 128.053 206.364 127.8C205.844 127.533 205.264 127.4 204.624 127.4C203.704 127.4 202.917 127.693 202.264 128.28C201.624 128.867 201.257 129.68 201.164 130.72H208.084Z" fill="white"/>
<rect x="65" y="159" width="217" height="78" rx="8" fill="#C6CFFF"/>
<path d="M150.444 185.48C150.444 184.36 150.671 183.38 151.124 182.54C151.577 181.687 152.197 181.027 152.984 180.56C153.784 180.093 154.677 179.86 155.664 179.86C156.517 179.86 157.311 180.06 158.044 180.46C158.777 180.847 159.337 181.36 159.724 182V176.2H161.564V191H159.724V188.94C159.364 189.593 158.831 190.133 158.124 190.56C157.417 190.973 156.591 191.18 155.644 191.18C154.671 191.18 153.784 190.94 152.984 190.46C152.197 189.98 151.577 189.307 151.124 188.44C150.671 187.573 150.444 186.587 150.444 185.48ZM159.724 185.5C159.724 184.673 159.557 183.953 159.224 183.34C158.891 182.727 158.437 182.26 157.864 181.94C157.304 181.607 156.684 181.44 156.004 181.44C155.324 181.44 154.704 181.6 154.144 181.92C153.584 182.24 153.137 182.707 152.804 183.32C152.471 183.933 152.304 184.653 152.304 185.48C152.304 186.32 152.471 187.053 152.804 187.68C153.137 188.293 153.584 188.767 154.144 189.1C154.704 189.42 155.324 189.58 156.004 189.58C156.684 189.58 157.304 189.42 157.864 189.1C158.437 188.767 158.891 188.293 159.224 187.68C159.557 187.053 159.724 186.327 159.724 185.5ZM163.96 185.48C163.96 184.36 164.186 183.38 164.64 182.54C165.093 181.687 165.713 181.027 166.5 180.56C167.3 180.093 168.186 179.86 169.16 179.86C170.12 179.86 170.953 180.067 171.66 180.48C172.366 180.893 172.893 181.413 173.24 182.04V180.04H175.08V191H173.24V188.96C172.88 189.6 172.34 190.133 171.62 190.56C170.913 190.973 170.086 191.18 169.14 191.18C168.166 191.18 167.286 190.94 166.5 190.46C165.713 189.98 165.093 189.307 164.64 188.44C164.186 187.573 163.96 186.587 163.96 185.48ZM173.24 185.5C173.24 184.673 173.073 183.953 172.74 183.34C172.406 182.727 171.953 182.26 171.38 181.94C170.82 181.607 170.2 181.44 169.52 181.44C168.84 181.44 168.22 181.6 167.66 181.92C167.1 182.24 166.653 182.707 166.32 183.32C165.986 183.933 165.82 184.653 165.82 185.48C165.82 186.32 165.986 187.053 166.32 187.68C166.653 188.293 167.1 188.767 167.66 189.1C168.22 189.42 168.84 189.58 169.52 189.58C170.2 189.58 170.82 189.42 171.38 189.1C171.953 188.767 172.406 188.293 172.74 187.68C173.073 187.053 173.24 186.327 173.24 185.5ZM180.375 181.54V188C180.375 188.533 180.489 188.913 180.715 189.14C180.942 189.353 181.335 189.46 181.895 189.46H183.235V191H181.595C180.582 191 179.822 190.767 179.315 190.3C178.809 189.833 178.555 189.067 178.555 188V181.54H177.135V180.04H178.555V177.28H180.375V180.04H183.235V181.54H180.375ZM184.76 185.48C184.76 184.36 184.987 183.38 185.44 182.54C185.894 181.687 186.514 181.027 187.3 180.56C188.1 180.093 188.987 179.86 189.96 179.86C190.92 179.86 191.754 180.067 192.46 180.48C193.167 180.893 193.694 181.413 194.04 182.04V180.04H195.88V191H194.04V188.96C193.68 189.6 193.14 190.133 192.42 190.56C191.714 190.973 190.887 191.18 189.94 191.18C188.967 191.18 188.087 190.94 187.3 190.46C186.514 189.98 185.894 189.307 185.44 188.44C184.987 187.573 184.76 186.587 184.76 185.48ZM194.04 185.5C194.04 184.673 193.874 183.953 193.54 183.34C193.207 182.727 192.754 182.26 192.18 181.94C191.62 181.607 191 181.44 190.32 181.44C189.64 181.44 189.02 181.6 188.46 181.92C187.9 182.24 187.454 182.707 187.12 183.32C186.787 183.933 186.62 184.653 186.62 185.48C186.62 186.32 186.787 187.053 187.12 187.68C187.454 188.293 187.9 188.767 188.46 189.1C189.02 189.42 189.64 189.58 190.32 189.58C191 189.58 191.62 189.42 192.18 189.1C192.754 188.767 193.207 188.293 193.54 187.68C193.874 187.053 194.04 186.327 194.04 185.5ZM122.563 209.54V216C122.563 216.533 122.676 216.913 122.903 217.14C123.129 217.353 123.523 217.46 124.083 217.46H125.423V219H123.783C122.769 219 122.009 218.767 121.503 218.3C120.996 217.833 120.743 217.067 120.743 216V209.54H119.323V208.04H120.743V205.28H122.563V208.04H125.423V209.54H122.563ZM129.448 209.82C129.768 209.193 130.221 208.707 130.808 208.36C131.408 208.013 132.135 207.84 132.988 207.84V209.72H132.508C130.468 209.72 129.448 210.827 129.448 213.04V219H127.628V208.04H129.448V209.82ZM134.409 213.48C134.409 212.36 134.635 211.38 135.089 210.54C135.542 209.687 136.162 209.027 136.949 208.56C137.749 208.093 138.635 207.86 139.609 207.86C140.569 207.86 141.402 208.067 142.109 208.48C142.815 208.893 143.342 209.413 143.689 210.04V208.04H145.529V219H143.689V216.96C143.329 217.6 142.789 218.133 142.069 218.56C141.362 218.973 140.535 219.18 139.589 219.18C138.615 219.18 137.735 218.94 136.949 218.46C136.162 217.98 135.542 217.307 135.089 216.44C134.635 215.573 134.409 214.587 134.409 213.48ZM143.689 213.5C143.689 212.673 143.522 211.953 143.189 211.34C142.855 210.727 142.402 210.26 141.829 209.94C141.269 209.607 140.649 209.44 139.969 209.44C139.289 209.44 138.669 209.6 138.109 209.92C137.549 210.24 137.102 210.707 136.769 211.32C136.435 211.933 136.269 212.653 136.269 213.48C136.269 214.32 136.435 215.053 136.769 215.68C137.102 216.293 137.549 216.767 138.109 217.1C138.669 217.42 139.289 217.58 139.969 217.58C140.649 217.58 141.269 217.42 141.829 217.1C142.402 216.767 142.855 216.293 143.189 215.68C143.522 215.053 143.689 214.327 143.689 213.5ZM153.944 207.84C155.278 207.84 156.358 208.247 157.184 209.06C158.011 209.86 158.424 211.02 158.424 212.54V219H156.624V212.8C156.624 211.707 156.351 210.873 155.804 210.3C155.258 209.713 154.511 209.42 153.564 209.42C152.604 209.42 151.838 209.72 151.264 210.32C150.704 210.92 150.424 211.793 150.424 212.94V219H148.604V208.04H150.424V209.6C150.784 209.04 151.271 208.607 151.884 208.3C152.511 207.993 153.198 207.84 153.944 207.84ZM165.277 219.18C164.437 219.18 163.684 219.04 163.017 218.76C162.351 218.467 161.824 218.067 161.437 217.56C161.051 217.04 160.837 216.447 160.797 215.78H162.677C162.731 216.327 162.984 216.773 163.437 217.12C163.904 217.467 164.511 217.64 165.257 217.64C165.951 217.64 166.497 217.487 166.897 217.18C167.297 216.873 167.497 216.487 167.497 216.02C167.497 215.54 167.284 215.187 166.857 214.96C166.431 214.72 165.771 214.487 164.877 214.26C164.064 214.047 163.397 213.833 162.877 213.62C162.371 213.393 161.931 213.067 161.557 212.64C161.197 212.2 161.017 211.627 161.017 210.92C161.017 210.36 161.184 209.847 161.517 209.38C161.851 208.913 162.324 208.547 162.937 208.28C163.551 208 164.251 207.86 165.037 207.86C166.251 207.86 167.231 208.167 167.977 208.78C168.724 209.393 169.124 210.233 169.177 211.3H167.357C167.317 210.727 167.084 210.267 166.657 209.92C166.244 209.573 165.684 209.4 164.977 209.4C164.324 209.4 163.804 209.54 163.417 209.82C163.031 210.1 162.837 210.467 162.837 210.92C162.837 211.28 162.951 211.58 163.177 211.82C163.417 212.047 163.711 212.233 164.057 212.38C164.417 212.513 164.911 212.667 165.537 212.84C166.324 213.053 166.964 213.267 167.457 213.48C167.951 213.68 168.371 213.987 168.717 214.4C169.077 214.813 169.264 215.353 169.277 216.02C169.277 216.62 169.111 217.16 168.777 217.64C168.444 218.12 167.971 218.5 167.357 218.78C166.757 219.047 166.064 219.18 165.277 219.18ZM176.307 209.54H174.007V219H172.187V209.54H170.767V208.04H172.187V207.26C172.187 206.033 172.5 205.14 173.127 204.58C173.767 204.007 174.787 203.72 176.187 203.72V205.24C175.387 205.24 174.82 205.4 174.487 205.72C174.167 206.027 174.007 206.54 174.007 207.26V208.04H176.307V209.54ZM183.209 219.18C182.182 219.18 181.249 218.947 180.409 218.48C179.582 218.013 178.929 217.353 178.449 216.5C177.982 215.633 177.749 214.633 177.749 213.5C177.749 212.38 177.989 211.393 178.469 210.54C178.962 209.673 179.629 209.013 180.469 208.56C181.309 208.093 182.249 207.86 183.289 207.86C184.329 207.86 185.269 208.093 186.109 208.56C186.949 209.013 187.609 209.667 188.089 210.52C188.582 211.373 188.829 212.367 188.829 213.5C188.829 214.633 188.575 215.633 188.069 216.5C187.575 217.353 186.902 218.013 186.049 218.48C185.195 218.947 184.249 219.18 183.209 219.18ZM183.209 217.58C183.862 217.58 184.475 217.427 185.049 217.12C185.622 216.813 186.082 216.353 186.429 215.74C186.789 215.127 186.969 214.38 186.969 213.5C186.969 212.62 186.795 211.873 186.449 211.26C186.102 210.647 185.649 210.193 185.089 209.9C184.529 209.593 183.922 209.44 183.269 209.44C182.602 209.44 181.989 209.593 181.429 209.9C180.882 210.193 180.442 210.647 180.109 211.26C179.775 211.873 179.609 212.62 179.609 213.5C179.609 214.393 179.769 215.147 180.089 215.76C180.422 216.373 180.862 216.833 181.409 217.14C181.955 217.433 182.555 217.58 183.209 217.58ZM193.042 209.82C193.362 209.193 193.815 208.707 194.402 208.36C195.002 208.013 195.728 207.84 196.582 207.84V209.72H196.102C194.062 209.72 193.042 210.827 193.042 213.04V219H191.222V208.04H193.042V209.82ZM211.863 207.84C212.716 207.84 213.476 208.02 214.143 208.38C214.809 208.727 215.336 209.253 215.723 209.96C216.109 210.667 216.303 211.527 216.303 212.54V219H214.503V212.8C214.503 211.707 214.229 210.873 213.683 210.3C213.149 209.713 212.423 209.42 211.503 209.42C210.556 209.42 209.803 209.727 209.243 210.34C208.683 210.94 208.403 211.813 208.403 212.96V219H206.603V212.8C206.603 211.707 206.329 210.873 205.783 210.3C205.249 209.713 204.523 209.42 203.603 209.42C202.656 209.42 201.903 209.727 201.343 210.34C200.783 210.94 200.503 211.813 200.503 212.96V219H198.683V208.04H200.503V209.62C200.863 209.047 201.343 208.607 201.943 208.3C202.556 207.993 203.229 207.84 203.963 207.84C204.883 207.84 205.696 208.047 206.403 208.46C207.109 208.873 207.636 209.48 207.983 210.28C208.289 209.507 208.796 208.907 209.503 208.48C210.209 208.053 210.996 207.84 211.863 207.84ZM223.168 219.18C222.328 219.18 221.575 219.04 220.908 218.76C220.241 218.467 219.715 218.067 219.328 217.56C218.941 217.04 218.728 216.447 218.688 215.78H220.568C220.621 216.327 220.875 216.773 221.328 217.12C221.795 217.467 222.401 217.64 223.148 217.64C223.841 217.64 224.388 217.487 224.788 217.18C225.188 216.873 225.388 216.487 225.388 216.02C225.388 215.54 225.175 215.187 224.748 214.96C224.321 214.72 223.661 214.487 222.768 214.26C221.955 214.047 221.288 213.833 220.768 213.62C220.261 213.393 219.821 213.067 219.448 212.64C219.088 212.2 218.908 211.627 218.908 210.92C218.908 210.36 219.075 209.847 219.408 209.38C219.741 208.913 220.215 208.547 220.828 208.28C221.441 208 222.141 207.86 222.928 207.86C224.141 207.86 225.121 208.167 225.868 208.78C226.615 209.393 227.015 210.233 227.068 211.3H225.248C225.208 210.727 224.975 210.267 224.548 209.92C224.135 209.573 223.575 209.4 222.868 209.4C222.215 209.4 221.695 209.54 221.308 209.82C220.921 210.1 220.728 210.467 220.728 210.92C220.728 211.28 220.841 211.58 221.068 211.82C221.308 212.047 221.601 212.233 221.948 212.38C222.308 212.513 222.801 212.667 223.428 212.84C224.215 213.053 224.855 213.267 225.348 213.48C225.841 213.68 226.261 213.987 226.608 214.4C226.968 214.813 227.155 215.353 227.168 216.02C227.168 216.62 227.001 217.16 226.668 217.64C226.335 218.12 225.861 218.5 225.248 218.78C224.648 219.047 223.955 219.18 223.168 219.18Z" fill="#001A85"/>
<rect x="65" y="252" width="217" height="78" rx="8" fill="#C6CFFF"/>
<path d="M121.698 272.84C123.032 272.84 124.112 273.247 124.938 274.06C125.765 274.86 126.178 276.02 126.178 277.54V284H124.378V277.8C124.378 276.707 124.105 275.873 123.558 275.3C123.012 274.713 122.265 274.42 121.318 274.42C120.358 274.42 119.592 274.72 119.018 275.32C118.458 275.92 118.178 276.793 118.178 277.94V284H116.358V273.04H118.178V274.6C118.538 274.04 119.025 273.607 119.638 273.3C120.265 272.993 120.952 272.84 121.698 272.84ZM133.931 284.18C132.905 284.18 131.971 283.947 131.131 283.48C130.305 283.013 129.651 282.353 129.171 281.5C128.705 280.633 128.471 279.633 128.471 278.5C128.471 277.38 128.711 276.393 129.191 275.54C129.685 274.673 130.351 274.013 131.191 273.56C132.031 273.093 132.971 272.86 134.011 272.86C135.051 272.86 135.991 273.093 136.831 273.56C137.671 274.013 138.331 274.667 138.811 275.52C139.305 276.373 139.551 277.367 139.551 278.5C139.551 279.633 139.298 280.633 138.791 281.5C138.298 282.353 137.625 283.013 136.771 283.48C135.918 283.947 134.971 284.18 133.931 284.18ZM133.931 282.58C134.585 282.58 135.198 282.427 135.771 282.12C136.345 281.813 136.805 281.353 137.151 280.74C137.511 280.127 137.691 279.38 137.691 278.5C137.691 277.62 137.518 276.873 137.171 276.26C136.825 275.647 136.371 275.193 135.811 274.9C135.251 274.593 134.645 274.44 133.991 274.44C133.325 274.44 132.711 274.593 132.151 274.9C131.605 275.193 131.165 275.647 130.831 276.26C130.498 276.873 130.331 277.62 130.331 278.5C130.331 279.393 130.491 280.147 130.811 280.76C131.145 281.373 131.585 281.833 132.131 282.14C132.678 282.433 133.278 282.58 133.931 282.58ZM143.764 274.82C144.084 274.193 144.538 273.707 145.124 273.36C145.724 273.013 146.451 272.84 147.304 272.84V274.72H146.824C144.784 274.72 143.764 275.827 143.764 278.04V284H141.944V273.04H143.764V274.82ZM162.585 272.84C163.439 272.84 164.199 273.02 164.865 273.38C165.532 273.727 166.059 274.253 166.445 274.96C166.832 275.667 167.025 276.527 167.025 277.54V284H165.225V277.8C165.225 276.707 164.952 275.873 164.405 275.3C163.872 274.713 163.145 274.42 162.225 274.42C161.279 274.42 160.525 274.727 159.965 275.34C159.405 275.94 159.125 276.813 159.125 277.96V284H157.325V277.8C157.325 276.707 157.052 275.873 156.505 275.3C155.972 274.713 155.245 274.42 154.325 274.42C153.379 274.42 152.625 274.727 152.065 275.34C151.505 275.94 151.225 276.813 151.225 277.96V284H149.405V273.04H151.225V274.62C151.585 274.047 152.065 273.607 152.665 273.3C153.279 272.993 153.952 272.84 154.685 272.84C155.605 272.84 156.419 273.047 157.125 273.46C157.832 273.873 158.359 274.48 158.705 275.28C159.012 274.507 159.519 273.907 160.225 273.48C160.932 273.053 161.719 272.84 162.585 272.84ZM169.331 278.48C169.331 277.36 169.557 276.38 170.011 275.54C170.464 274.687 171.084 274.027 171.871 273.56C172.671 273.093 173.557 272.86 174.531 272.86C175.491 272.86 176.324 273.067 177.031 273.48C177.737 273.893 178.264 274.413 178.611 275.04V273.04H180.451V284H178.611V281.96C178.251 282.6 177.711 283.133 176.991 283.56C176.284 283.973 175.457 284.18 174.511 284.18C173.537 284.18 172.657 283.94 171.871 283.46C171.084 282.98 170.464 282.307 170.011 281.44C169.557 280.573 169.331 279.587 169.331 278.48ZM178.611 278.5C178.611 277.673 178.444 276.953 178.111 276.34C177.777 275.727 177.324 275.26 176.751 274.94C176.191 274.607 175.571 274.44 174.891 274.44C174.211 274.44 173.591 274.6 173.031 274.92C172.471 275.24 172.024 275.707 171.691 276.32C171.357 276.933 171.191 277.653 171.191 278.48C171.191 279.32 171.357 280.053 171.691 280.68C172.024 281.293 172.471 281.767 173.031 282.1C173.591 282.42 174.211 282.58 174.891 282.58C175.571 282.58 176.191 282.42 176.751 282.1C177.324 281.767 177.777 281.293 178.111 280.68C178.444 280.053 178.611 279.327 178.611 278.5ZM185.346 269.2V284H183.526V269.2H185.346ZM189.388 271.26C189.042 271.26 188.748 271.14 188.508 270.9C188.268 270.66 188.148 270.367 188.148 270.02C188.148 269.673 188.268 269.38 188.508 269.14C188.748 268.9 189.042 268.78 189.388 268.78C189.722 268.78 190.002 268.9 190.228 269.14C190.468 269.38 190.588 269.673 190.588 270.02C190.588 270.367 190.468 270.66 190.228 270.9C190.002 271.14 189.722 271.26 189.388 271.26ZM190.268 273.04V284H188.448V273.04H190.268ZM194.73 282.5H200.11V284H192.65V282.5L197.97 274.52H192.69V273.04H200.07V274.52L194.73 282.5ZM212.472 278.1C212.472 278.447 212.452 278.813 212.412 279.2H203.652C203.718 280.28 204.085 281.127 204.752 281.74C205.432 282.34 206.252 282.64 207.212 282.64C207.998 282.64 208.652 282.46 209.172 282.1C209.705 281.727 210.078 281.233 210.292 280.62H212.252C211.958 281.673 211.372 282.533 210.492 283.2C209.612 283.853 208.518 284.18 207.212 284.18C206.172 284.18 205.238 283.947 204.412 283.48C203.598 283.013 202.958 282.353 202.492 281.5C202.025 280.633 201.792 279.633 201.792 278.5C201.792 277.367 202.018 276.373 202.472 275.52C202.925 274.667 203.558 274.013 204.372 273.56C205.198 273.093 206.145 272.86 207.212 272.86C208.252 272.86 209.172 273.087 209.972 273.54C210.772 273.993 211.385 274.62 211.812 275.42C212.252 276.207 212.472 277.1 212.472 278.1ZM210.592 277.72C210.592 277.027 210.438 276.433 210.132 275.94C209.825 275.433 209.405 275.053 208.872 274.8C208.352 274.533 207.772 274.4 207.132 274.4C206.212 274.4 205.425 274.693 204.772 275.28C204.132 275.867 203.765 276.68 203.672 277.72H210.592ZM214.194 278.48C214.194 277.36 214.421 276.38 214.874 275.54C215.327 274.687 215.947 274.027 216.734 273.56C217.534 273.093 218.427 272.86 219.414 272.86C220.267 272.86 221.061 273.06 221.794 273.46C222.527 273.847 223.087 274.36 223.474 275V269.2H225.314V284H223.474V281.94C223.114 282.593 222.581 283.133 221.874 283.56C221.167 283.973 220.341 284.18 219.394 284.18C218.421 284.18 217.534 283.94 216.734 283.46C215.947 282.98 215.327 282.307 214.874 281.44C214.421 280.573 214.194 279.587 214.194 278.48ZM223.474 278.5C223.474 277.673 223.307 276.953 222.974 276.34C222.641 275.727 222.187 275.26 221.614 274.94C221.054 274.607 220.434 274.44 219.754 274.44C219.074 274.44 218.454 274.6 217.894 274.92C217.334 275.24 216.887 275.707 216.554 276.32C216.221 276.933 216.054 277.653 216.054 278.48C216.054 279.32 216.221 280.053 216.554 280.68C216.887 281.293 217.334 281.767 217.894 282.1C218.454 282.42 219.074 282.58 219.754 282.58C220.434 282.58 221.054 282.42 221.614 282.1C222.187 281.767 222.641 281.293 222.974 280.68C223.307 280.053 223.474 279.327 223.474 278.5ZM115.659 306.48C115.659 305.36 115.885 304.38 116.339 303.54C116.792 302.687 117.412 302.027 118.199 301.56C118.999 301.093 119.892 300.86 120.879 300.86C121.732 300.86 122.525 301.06 123.259 301.46C123.992 301.847 124.552 302.36 124.939 303V297.2H126.779V312H124.939V309.94C124.579 310.593 124.045 311.133 123.339 311.56C122.632 311.973 121.805 312.18 120.859 312.18C119.885 312.18 118.999 311.94 118.199 311.46C117.412 310.98 116.792 310.307 116.339 309.44C115.885 308.573 115.659 307.587 115.659 306.48ZM124.939 306.5C124.939 305.673 124.772 304.953 124.439 304.34C124.105 303.727 123.652 303.26 123.079 302.94C122.519 302.607 121.899 302.44 121.219 302.44C120.539 302.44 119.919 302.6 119.359 302.92C118.799 303.24 118.352 303.707 118.019 304.32C117.685 304.933 117.519 305.653 117.519 306.48C117.519 307.32 117.685 308.053 118.019 308.68C118.352 309.293 118.799 309.767 119.359 310.1C119.919 310.42 120.539 310.58 121.219 310.58C121.899 310.58 122.519 310.42 123.079 310.1C123.652 309.767 124.105 309.293 124.439 308.68C124.772 308.053 124.939 307.327 124.939 306.5ZM129.174 306.48C129.174 305.36 129.401 304.38 129.854 303.54C130.308 302.687 130.928 302.027 131.714 301.56C132.514 301.093 133.401 300.86 134.374 300.86C135.334 300.86 136.168 301.067 136.874 301.48C137.581 301.893 138.108 302.413 138.454 303.04V301.04H140.294V312H138.454V309.96C138.094 310.6 137.554 311.133 136.834 311.56C136.128 311.973 135.301 312.18 134.354 312.18C133.381 312.18 132.501 311.94 131.714 311.46C130.928 310.98 130.308 310.307 129.854 309.44C129.401 308.573 129.174 307.587 129.174 306.48ZM138.454 306.5C138.454 305.673 138.288 304.953 137.954 304.34C137.621 303.727 137.168 303.26 136.594 302.94C136.034 302.607 135.414 302.44 134.734 302.44C134.054 302.44 133.434 302.6 132.874 302.92C132.314 303.24 131.868 303.707 131.534 304.32C131.201 304.933 131.034 305.653 131.034 306.48C131.034 307.32 131.201 308.053 131.534 308.68C131.868 309.293 132.314 309.767 132.874 310.1C133.434 310.42 134.054 310.58 134.734 310.58C135.414 310.58 136.034 310.42 136.594 310.1C137.168 309.767 137.621 309.293 137.954 308.68C138.288 308.053 138.454 307.327 138.454 306.5ZM145.59 302.54V309C145.59 309.533 145.703 309.913 145.93 310.14C146.157 310.353 146.55 310.46 147.11 310.46H148.45V312H146.81C145.797 312 145.037 311.767 144.53 311.3C144.023 310.833 143.77 310.067 143.77 309V302.54H142.35V301.04H143.77V298.28H145.59V301.04H148.45V302.54H145.59ZM149.975 306.48C149.975 305.36 150.202 304.38 150.655 303.54C151.109 302.687 151.729 302.027 152.515 301.56C153.315 301.093 154.202 300.86 155.175 300.86C156.135 300.86 156.969 301.067 157.675 301.48C158.382 301.893 158.909 302.413 159.255 303.04V301.04H161.095V312H159.255V309.96C158.895 310.6 158.355 311.133 157.635 311.56C156.929 311.973 156.102 312.18 155.155 312.18C154.182 312.18 153.302 311.94 152.515 311.46C151.729 310.98 151.109 310.307 150.655 309.44C150.202 308.573 149.975 307.587 149.975 306.48ZM159.255 306.5C159.255 305.673 159.089 304.953 158.755 304.34C158.422 303.727 157.969 303.26 157.395 302.94C156.835 302.607 156.215 302.44 155.535 302.44C154.855 302.44 154.235 302.6 153.675 302.92C153.115 303.24 152.669 303.707 152.335 304.32C152.002 304.933 151.835 305.653 151.835 306.48C151.835 307.32 152.002 308.053 152.335 308.68C152.669 309.293 153.115 309.767 153.675 310.1C154.235 310.42 154.855 310.58 155.535 310.58C156.215 310.58 156.835 310.42 157.395 310.1C157.969 309.767 158.422 309.293 158.755 308.68C159.089 308.053 159.255 307.327 159.255 306.5ZM182.683 300.84C183.536 300.84 184.296 301.02 184.963 301.38C185.63 301.727 186.156 302.253 186.543 302.96C186.93 303.667 187.123 304.527 187.123 305.54V312H185.323V305.8C185.323 304.707 185.05 303.873 184.503 303.3C183.97 302.713 183.243 302.42 182.323 302.42C181.376 302.42 180.623 302.727 180.063 303.34C179.503 303.94 179.223 304.813 179.223 305.96V312H177.423V305.8C177.423 304.707 177.15 303.873 176.603 303.3C176.07 302.713 175.343 302.42 174.423 302.42C173.476 302.42 172.723 302.727 172.163 303.34C171.603 303.94 171.323 304.813 171.323 305.96V312H169.503V301.04H171.323V302.62C171.683 302.047 172.163 301.607 172.763 301.3C173.376 300.993 174.05 300.84 174.783 300.84C175.703 300.84 176.516 301.047 177.223 301.46C177.93 301.873 178.456 302.48 178.803 303.28C179.11 302.507 179.616 301.907 180.323 301.48C181.03 301.053 181.816 300.84 182.683 300.84ZM194.888 312.18C193.862 312.18 192.928 311.947 192.088 311.48C191.262 311.013 190.608 310.353 190.128 309.5C189.662 308.633 189.428 307.633 189.428 306.5C189.428 305.38 189.668 304.393 190.148 303.54C190.642 302.673 191.308 302.013 192.148 301.56C192.988 301.093 193.928 300.86 194.968 300.86C196.008 300.86 196.948 301.093 197.788 301.56C198.628 302.013 199.288 302.667 199.768 303.52C200.262 304.373 200.508 305.367 200.508 306.5C200.508 307.633 200.255 308.633 199.748 309.5C199.255 310.353 198.582 311.013 197.728 311.48C196.875 311.947 195.928 312.18 194.888 312.18ZM194.888 310.58C195.542 310.58 196.155 310.427 196.728 310.12C197.302 309.813 197.762 309.353 198.108 308.74C198.468 308.127 198.648 307.38 198.648 306.5C198.648 305.62 198.475 304.873 198.128 304.26C197.782 303.647 197.328 303.193 196.768 302.9C196.208 302.593 195.602 302.44 194.948 302.44C194.282 302.44 193.668 302.593 193.108 302.9C192.562 303.193 192.122 303.647 191.788 304.26C191.455 304.873 191.288 305.62 191.288 306.5C191.288 307.393 191.448 308.147 191.768 308.76C192.102 309.373 192.542 309.833 193.088 310.14C193.635 310.433 194.235 310.58 194.888 310.58ZM202.221 306.48C202.221 305.36 202.448 304.38 202.901 303.54C203.355 302.687 203.975 302.027 204.761 301.56C205.561 301.093 206.455 300.86 207.441 300.86C208.295 300.86 209.088 301.06 209.821 301.46C210.555 301.847 211.115 302.36 211.501 303V297.2H213.341V312H211.501V309.94C211.141 310.593 210.608 311.133 209.901 311.56C209.195 311.973 208.368 312.18 207.421 312.18C206.448 312.18 205.561 311.94 204.761 311.46C203.975 310.98 203.355 310.307 202.901 309.44C202.448 308.573 202.221 307.587 202.221 306.48ZM211.501 306.5C211.501 305.673 211.335 304.953 211.001 304.34C210.668 303.727 210.215 303.26 209.641 302.94C209.081 302.607 208.461 302.44 207.781 302.44C207.101 302.44 206.481 302.6 205.921 302.92C205.361 303.24 204.915 303.707 204.581 304.32C204.248 304.933 204.081 305.653 204.081 306.48C204.081 307.32 204.248 308.053 204.581 308.68C204.915 309.293 205.361 309.767 205.921 310.1C206.481 310.42 207.101 310.58 207.781 310.58C208.461 310.58 209.081 310.42 209.641 310.1C210.215 309.767 210.668 309.293 211.001 308.68C211.335 308.053 211.501 307.327 211.501 306.5ZM226.417 306.1C226.417 306.447 226.397 306.813 226.357 307.2H217.597C217.664 308.28 218.03 309.127 218.697 309.74C219.377 310.34 220.197 310.64 221.157 310.64C221.944 310.64 222.597 310.46 223.117 310.1C223.65 309.727 224.024 309.233 224.237 308.62H226.197C225.904 309.673 225.317 310.533 224.437 311.2C223.557 311.853 222.464 312.18 221.157 312.18C220.117 312.18 219.184 311.947 218.357 311.48C217.544 311.013 216.904 310.353 216.437 309.5C215.97 308.633 215.737 307.633 215.737 306.5C215.737 305.367 215.964 304.373 216.417 303.52C216.87 302.667 217.504 302.013 218.317 301.56C219.144 301.093 220.09 300.86 221.157 300.86C222.197 300.86 223.117 301.087 223.917 301.54C224.717 301.993 225.33 302.62 225.757 303.42C226.197 304.207 226.417 305.1 226.417 306.1ZM224.537 305.72C224.537 305.027 224.384 304.433 224.077 303.94C223.77 303.433 223.35 303.053 222.817 302.8C222.297 302.533 221.717 302.4 221.077 302.4C220.157 302.4 219.37 302.693 218.717 303.28C218.077 303.867 217.71 304.68 217.617 305.72H224.537ZM230.639 297.2V312H228.819V297.2H230.639Z" fill="#001A85"/>
<rect x="328" y="73" width="248" height="272" rx="8" fill="#4C5CE5"/>
<path d="M402.264 109H400.444L393.124 97.9V109H391.304V95.04H393.124L400.444 106.12V95.04H402.264V109ZM410.146 109.18C409.12 109.18 408.186 108.947 407.346 108.48C406.52 108.013 405.866 107.353 405.386 106.5C404.92 105.633 404.686 104.633 404.686 103.5C404.686 102.38 404.926 101.393 405.406 100.54C405.9 99.6733 406.566 99.0133 407.406 98.56C408.246 98.0933 409.186 97.86 410.226 97.86C411.266 97.86 412.206 98.0933 413.046 98.56C413.886 99.0133 414.546 99.6667 415.026 100.52C415.52 101.373 415.766 102.367 415.766 103.5C415.766 104.633 415.513 105.633 415.006 106.5C414.513 107.353 413.84 108.013 412.986 108.48C412.133 108.947 411.186 109.18 410.146 109.18ZM410.146 107.58C410.8 107.58 411.413 107.427 411.986 107.12C412.56 106.813 413.02 106.353 413.366 105.74C413.726 105.127 413.906 104.38 413.906 103.5C413.906 102.62 413.733 101.873 413.386 101.26C413.04 100.647 412.586 100.193 412.026 99.9C411.466 99.5933 410.86 99.44 410.206 99.44C409.54 99.44 408.926 99.5933 408.366 99.9C407.82 100.193 407.38 100.647 407.046 101.26C406.713 101.873 406.546 102.62 406.546 103.5C406.546 104.393 406.706 105.147 407.026 105.76C407.36 106.373 407.8 106.833 408.346 107.14C408.893 107.433 409.493 107.58 410.146 107.58ZM420.379 99.54V106C420.379 106.533 420.492 106.913 420.719 107.14C420.946 107.353 421.339 107.46 421.899 107.46H423.239V109H421.599C420.586 109 419.826 108.767 419.319 108.3C418.812 107.833 418.559 107.067 418.559 106V99.54H417.139V98.04H418.559V95.28H420.379V98.04H423.239V99.54H420.379ZM426.384 96.26C426.038 96.26 425.744 96.14 425.504 95.9C425.264 95.66 425.144 95.3667 425.144 95.02C425.144 94.6733 425.264 94.38 425.504 94.14C425.744 93.9 426.038 93.78 426.384 93.78C426.718 93.78 426.998 93.9 427.224 94.14C427.464 94.38 427.584 94.6733 427.584 95.02C427.584 95.3667 427.464 95.66 427.224 95.9C426.998 96.14 426.718 96.26 426.384 96.26ZM427.264 98.04V109H425.444V98.04H427.264ZM434.826 99.54H432.526V109H430.706V99.54H429.286V98.04H430.706V97.26C430.706 96.0333 431.02 95.14 431.646 94.58C432.286 94.0067 433.306 93.72 434.706 93.72V95.24C433.906 95.24 433.34 95.4 433.006 95.72C432.686 96.0267 432.526 96.54 432.526 97.26V98.04H434.826V99.54ZM437.888 96.26C437.542 96.26 437.248 96.14 437.008 95.9C436.768 95.66 436.648 95.3667 436.648 95.02C436.648 94.6733 436.768 94.38 437.008 94.14C437.248 93.9 437.542 93.78 437.888 93.78C438.222 93.78 438.502 93.9 438.728 94.14C438.968 94.38 439.088 94.6733 439.088 95.02C439.088 95.3667 438.968 95.66 438.728 95.9C438.502 96.14 438.222 96.26 437.888 96.26ZM438.768 98.04V109H436.948V98.04H438.768ZM441.19 103.5C441.19 102.367 441.417 101.38 441.87 100.54C442.323 99.6867 442.95 99.0267 443.75 98.56C444.563 98.0933 445.49 97.86 446.53 97.86C447.877 97.86 448.983 98.1867 449.85 98.84C450.73 99.4933 451.31 100.4 451.59 101.56H449.63C449.443 100.893 449.077 100.367 448.53 99.98C447.997 99.5933 447.33 99.4 446.53 99.4C445.49 99.4 444.65 99.76 444.01 100.48C443.37 101.187 443.05 102.193 443.05 103.5C443.05 104.82 443.37 105.84 444.01 106.56C444.65 107.28 445.49 107.64 446.53 107.64C447.33 107.64 447.997 107.453 448.53 107.08C449.063 106.707 449.43 106.173 449.63 105.48H451.59C451.297 106.6 450.71 107.5 449.83 108.18C448.95 108.847 447.85 109.18 446.53 109.18C445.49 109.18 444.563 108.947 443.75 108.48C442.95 108.013 442.323 107.353 441.87 106.5C441.417 105.647 441.19 104.647 441.19 103.5ZM453.339 103.48C453.339 102.36 453.565 101.38 454.019 100.54C454.472 99.6867 455.092 99.0267 455.879 98.56C456.679 98.0933 457.565 97.86 458.539 97.86C459.499 97.86 460.332 98.0667 461.039 98.48C461.745 98.8933 462.272 99.4133 462.619 100.04V98.04H464.459V109H462.619V106.96C462.259 107.6 461.719 108.133 460.999 108.56C460.292 108.973 459.465 109.18 458.519 109.18C457.545 109.18 456.665 108.94 455.879 108.46C455.092 107.98 454.472 107.307 454.019 106.44C453.565 105.573 453.339 104.587 453.339 103.48ZM462.619 103.5C462.619 102.673 462.452 101.953 462.119 101.34C461.785 100.727 461.332 100.26 460.759 99.94C460.199 99.6067 459.579 99.44 458.899 99.44C458.219 99.44 457.599 99.6 457.039 99.92C456.479 100.24 456.032 100.707 455.699 101.32C455.365 101.933 455.199 102.653 455.199 103.48C455.199 104.32 455.365 105.053 455.699 105.68C456.032 106.293 456.479 106.767 457.039 107.1C457.599 107.42 458.219 107.58 458.899 107.58C459.579 107.58 460.199 107.42 460.759 107.1C461.332 106.767 461.785 106.293 462.119 105.68C462.452 105.053 462.619 104.327 462.619 103.5ZM469.754 99.54V106C469.754 106.533 469.867 106.913 470.094 107.14C470.321 107.353 470.714 107.46 471.274 107.46H472.614V109H470.974C469.961 109 469.201 108.767 468.694 108.3C468.187 107.833 467.934 107.067 467.934 106V99.54H466.514V98.04H467.934V95.28H469.754V98.04H472.614V99.54H469.754ZM475.759 96.26C475.413 96.26 475.119 96.14 474.879 95.9C474.639 95.66 474.519 95.3667 474.519 95.02C474.519 94.6733 474.639 94.38 474.879 94.14C475.119 93.9 475.413 93.78 475.759 93.78C476.093 93.78 476.373 93.9 476.599 94.14C476.839 94.38 476.959 94.6733 476.959 95.02C476.959 95.3667 476.839 95.66 476.599 95.9C476.373 96.14 476.093 96.26 475.759 96.26ZM476.639 98.04V109H474.819V98.04H476.639ZM484.521 109.18C483.495 109.18 482.561 108.947 481.721 108.48C480.895 108.013 480.241 107.353 479.761 106.5C479.295 105.633 479.061 104.633 479.061 103.5C479.061 102.38 479.301 101.393 479.781 100.54C480.275 99.6733 480.941 99.0133 481.781 98.56C482.621 98.0933 483.561 97.86 484.601 97.86C485.641 97.86 486.581 98.0933 487.421 98.56C488.261 99.0133 488.921 99.6667 489.401 100.52C489.895 101.373 490.141 102.367 490.141 103.5C490.141 104.633 489.888 105.633 489.381 106.5C488.888 107.353 488.215 108.013 487.361 108.48C486.508 108.947 485.561 109.18 484.521 109.18ZM484.521 107.58C485.175 107.58 485.788 107.427 486.361 107.12C486.935 106.813 487.395 106.353 487.741 105.74C488.101 105.127 488.281 104.38 488.281 103.5C488.281 102.62 488.108 101.873 487.761 101.26C487.415 100.647 486.961 100.193 486.401 99.9C485.841 99.5933 485.235 99.44 484.581 99.44C483.915 99.44 483.301 99.5933 482.741 99.9C482.195 100.193 481.755 100.647 481.421 101.26C481.088 101.873 480.921 102.62 480.921 103.5C480.921 104.393 481.081 105.147 481.401 105.76C481.735 106.373 482.175 106.833 482.721 107.14C483.268 107.433 483.868 107.58 484.521 107.58ZM497.874 97.84C499.207 97.84 500.287 98.2467 501.114 99.06C501.941 99.86 502.354 101.02 502.354 102.54V109H500.554V102.8C500.554 101.707 500.281 100.873 499.734 100.3C499.187 99.7133 498.441 99.42 497.494 99.42C496.534 99.42 495.767 99.72 495.194 100.32C494.634 100.92 494.354 101.793 494.354 102.94V109H492.534V98.04H494.354V99.6C494.714 99.04 495.201 98.6067 495.814 98.3C496.441 97.9933 497.127 97.84 497.874 97.84ZM509.207 109.18C508.367 109.18 507.614 109.04 506.947 108.76C506.28 108.467 505.754 108.067 505.367 107.56C504.98 107.04 504.767 106.447 504.727 105.78H506.607C506.66 106.327 506.914 106.773 507.367 107.12C507.834 107.467 508.44 107.64 509.187 107.64C509.88 107.64 510.427 107.487 510.827 107.18C511.227 106.873 511.427 106.487 511.427 106.02C511.427 105.54 511.214 105.187 510.787 104.96C510.36 104.72 509.7 104.487 508.807 104.26C507.994 104.047 507.327 103.833 506.807 103.62C506.3 103.393 505.86 103.067 505.487 102.64C505.127 102.2 504.947 101.627 504.947 100.92C504.947 100.36 505.114 99.8467 505.447 99.38C505.78 98.9133 506.254 98.5467 506.867 98.28C507.48 98 508.18 97.86 508.967 97.86C510.18 97.86 511.16 98.1667 511.907 98.78C512.654 99.3933 513.054 100.233 513.107 101.3H511.287C511.247 100.727 511.014 100.267 510.587 99.92C510.174 99.5733 509.614 99.4 508.907 99.4C508.254 99.4 507.734 99.54 507.347 99.82C506.96 100.1 506.767 100.467 506.767 100.92C506.767 101.28 506.88 101.58 507.107 101.82C507.347 102.047 507.64 102.233 507.987 102.38C508.347 102.513 508.84 102.667 509.467 102.84C510.254 103.053 510.894 103.267 511.387 103.48C511.88 103.68 512.3 103.987 512.647 104.4C513.007 104.813 513.194 105.353 513.207 106.02C513.207 106.62 513.04 107.16 512.707 107.64C512.374 108.12 511.9 108.5 511.287 108.78C510.687 109.047 509.994 109.18 509.207 109.18ZM430.854 123.16V137H429.034V126.68L424.434 137H423.154L418.534 126.66V137H416.714V123.16H418.674L423.794 134.6L428.914 123.16H430.854ZM438.72 137.18C437.694 137.18 436.76 136.947 435.92 136.48C435.094 136.013 434.44 135.353 433.96 134.5C433.494 133.633 433.26 132.633 433.26 131.5C433.26 130.38 433.5 129.393 433.98 128.54C434.474 127.673 435.14 127.013 435.98 126.56C436.82 126.093 437.76 125.86 438.8 125.86C439.84 125.86 440.78 126.093 441.62 126.56C442.46 127.013 443.12 127.667 443.6 128.52C444.094 129.373 444.34 130.367 444.34 131.5C444.34 132.633 444.087 133.633 443.58 134.5C443.087 135.353 442.414 136.013 441.56 136.48C440.707 136.947 439.76 137.18 438.72 137.18ZM438.72 135.58C439.374 135.58 439.987 135.427 440.56 135.12C441.134 134.813 441.594 134.353 441.94 133.74C442.3 133.127 442.48 132.38 442.48 131.5C442.48 130.62 442.307 129.873 441.96 129.26C441.614 128.647 441.16 128.193 440.6 127.9C440.04 127.593 439.434 127.44 438.78 127.44C438.114 127.44 437.5 127.593 436.94 127.9C436.394 128.193 435.954 128.647 435.62 129.26C435.287 129.873 435.12 130.62 435.12 131.5C435.12 132.393 435.28 133.147 435.6 133.76C435.934 134.373 436.374 134.833 436.92 135.14C437.467 135.433 438.067 135.58 438.72 135.58ZM446.053 131.48C446.053 130.36 446.28 129.38 446.733 128.54C447.187 127.687 447.807 127.027 448.593 126.56C449.393 126.093 450.287 125.86 451.273 125.86C452.127 125.86 452.92 126.06 453.653 126.46C454.387 126.847 454.947 127.36 455.333 128V122.2H457.173V137H455.333V134.94C454.973 135.593 454.44 136.133 453.733 136.56C453.027 136.973 452.2 137.18 451.253 137.18C450.28 137.18 449.393 136.94 448.593 136.46C447.807 135.98 447.187 135.307 446.733 134.44C446.28 133.573 446.053 132.587 446.053 131.48ZM455.333 131.5C455.333 130.673 455.167 129.953 454.833 129.34C454.5 128.727 454.047 128.26 453.473 127.94C452.913 127.607 452.293 127.44 451.613 127.44C450.933 127.44 450.313 127.6 449.753 127.92C449.193 128.24 448.747 128.707 448.413 129.32C448.08 129.933 447.913 130.653 447.913 131.48C447.913 132.32 448.08 133.053 448.413 133.68C448.747 134.293 449.193 134.767 449.753 135.1C450.313 135.42 450.933 135.58 451.613 135.58C452.293 135.58 452.913 135.42 453.473 135.1C454.047 134.767 454.5 134.293 454.833 133.68C455.167 133.053 455.333 132.327 455.333 131.5ZM469.969 126.04V137H468.149V135.38C467.802 135.94 467.316 136.38 466.689 136.7C466.076 137.007 465.396 137.16 464.649 137.16C463.796 137.16 463.029 136.987 462.349 136.64C461.669 136.28 461.129 135.747 460.729 135.04C460.342 134.333 460.149 133.473 460.149 132.46V126.04H461.949V132.22C461.949 133.3 462.222 134.133 462.769 134.72C463.316 135.293 464.062 135.58 465.009 135.58C465.982 135.58 466.749 135.28 467.309 134.68C467.869 134.08 468.149 133.207 468.149 132.06V126.04H469.969ZM474.862 122.2V137H473.042V122.2H474.862ZM487.964 131.1C487.964 131.447 487.944 131.813 487.904 132.2H479.144C479.21 133.28 479.577 134.127 480.244 134.74C480.924 135.34 481.744 135.64 482.704 135.64C483.49 135.64 484.144 135.46 484.664 135.1C485.197 134.727 485.57 134.233 485.784 133.62H487.744C487.45 134.673 486.864 135.533 485.984 136.2C485.104 136.853 484.01 137.18 482.704 137.18C481.664 137.18 480.73 136.947 479.904 136.48C479.09 136.013 478.45 135.353 477.984 134.5C477.517 133.633 477.284 132.633 477.284 131.5C477.284 130.367 477.51 129.373 477.964 128.52C478.417 127.667 479.05 127.013 479.864 126.56C480.69 126.093 481.637 125.86 482.704 125.86C483.744 125.86 484.664 126.087 485.464 126.54C486.264 126.993 486.877 127.62 487.304 128.42C487.744 129.207 487.964 130.1 487.964 131.1ZM486.084 130.72C486.084 130.027 485.93 129.433 485.624 128.94C485.317 128.433 484.897 128.053 484.364 127.8C483.844 127.533 483.264 127.4 482.624 127.4C481.704 127.4 480.917 127.693 480.264 128.28C479.624 128.867 479.257 129.68 479.164 130.72H486.084Z" fill="white"/>
<rect x="343" y="159" width="217" height="78" rx="8" fill="#C6CFFF"/>
<path d="M428.444 185.48C428.444 184.36 428.671 183.38 429.124 182.54C429.577 181.687 430.197 181.027 430.984 180.56C431.784 180.093 432.677 179.86 433.664 179.86C434.517 179.86 435.311 180.06 436.044 180.46C436.777 180.847 437.337 181.36 437.724 182V176.2H439.564V191H437.724V188.94C437.364 189.593 436.831 190.133 436.124 190.56C435.417 190.973 434.591 191.18 433.644 191.18C432.671 191.18 431.784 190.94 430.984 190.46C430.197 189.98 429.577 189.307 429.124 188.44C428.671 187.573 428.444 186.587 428.444 185.48ZM437.724 185.5C437.724 184.673 437.557 183.953 437.224 183.34C436.891 182.727 436.437 182.26 435.864 181.94C435.304 181.607 434.684 181.44 434.004 181.44C433.324 181.44 432.704 181.6 432.144 181.92C431.584 182.24 431.137 182.707 430.804 183.32C430.471 183.933 430.304 184.653 430.304 185.48C430.304 186.32 430.471 187.053 430.804 187.68C431.137 188.293 431.584 188.767 432.144 189.1C432.704 189.42 433.324 189.58 434.004 189.58C434.684 189.58 435.304 189.42 435.864 189.1C436.437 188.767 436.891 188.293 437.224 187.68C437.557 187.053 437.724 186.327 437.724 185.5ZM441.96 185.48C441.96 184.36 442.186 183.38 442.64 182.54C443.093 181.687 443.713 181.027 444.5 180.56C445.3 180.093 446.186 179.86 447.16 179.86C448.12 179.86 448.953 180.067 449.66 180.48C450.366 180.893 450.893 181.413 451.24 182.04V180.04H453.08V191H451.24V188.96C450.88 189.6 450.34 190.133 449.62 190.56C448.913 190.973 448.086 191.18 447.14 191.18C446.166 191.18 445.286 190.94 444.5 190.46C443.713 189.98 443.093 189.307 442.64 188.44C442.186 187.573 441.96 186.587 441.96 185.48ZM451.24 185.5C451.24 184.673 451.073 183.953 450.74 183.34C450.406 182.727 449.953 182.26 449.38 181.94C448.82 181.607 448.2 181.44 447.52 181.44C446.84 181.44 446.22 181.6 445.66 181.92C445.1 182.24 444.653 182.707 444.32 183.32C443.986 183.933 443.82 184.653 443.82 185.48C443.82 186.32 443.986 187.053 444.32 187.68C444.653 188.293 445.1 188.767 445.66 189.1C446.22 189.42 446.84 189.58 447.52 189.58C448.2 189.58 448.82 189.42 449.38 189.1C449.953 188.767 450.406 188.293 450.74 187.68C451.073 187.053 451.24 186.327 451.24 185.5ZM458.375 181.54V188C458.375 188.533 458.489 188.913 458.715 189.14C458.942 189.353 459.335 189.46 459.895 189.46H461.235V191H459.595C458.582 191 457.822 190.767 457.315 190.3C456.809 189.833 456.555 189.067 456.555 188V181.54H455.135V180.04H456.555V177.28H458.375V180.04H461.235V181.54H458.375ZM462.76 185.48C462.76 184.36 462.987 183.38 463.44 182.54C463.894 181.687 464.514 181.027 465.3 180.56C466.1 180.093 466.987 179.86 467.96 179.86C468.92 179.86 469.754 180.067 470.46 180.48C471.167 180.893 471.694 181.413 472.04 182.04V180.04H473.88V191H472.04V188.96C471.68 189.6 471.14 190.133 470.42 190.56C469.714 190.973 468.887 191.18 467.94 191.18C466.967 191.18 466.087 190.94 465.3 190.46C464.514 189.98 463.894 189.307 463.44 188.44C462.987 187.573 462.76 186.587 462.76 185.48ZM472.04 185.5C472.04 184.673 471.874 183.953 471.54 183.34C471.207 182.727 470.754 182.26 470.18 181.94C469.62 181.607 469 181.44 468.32 181.44C467.64 181.44 467.02 181.6 466.46 181.92C465.9 182.24 465.454 182.707 465.12 183.32C464.787 183.933 464.62 184.653 464.62 185.48C464.62 186.32 464.787 187.053 465.12 187.68C465.454 188.293 465.9 188.767 466.46 189.1C467.02 189.42 467.64 189.58 468.32 189.58C469 189.58 469.62 189.42 470.18 189.1C470.754 188.767 471.207 188.293 471.54 187.68C471.874 187.053 472.04 186.327 472.04 185.5ZM400.563 209.54V216C400.563 216.533 400.676 216.913 400.903 217.14C401.129 217.353 401.523 217.46 402.083 217.46H403.423V219H401.783C400.769 219 400.009 218.767 399.503 218.3C398.996 217.833 398.743 217.067 398.743 216V209.54H397.323V208.04H398.743V205.28H400.563V208.04H403.423V209.54H400.563ZM407.448 209.82C407.768 209.193 408.221 208.707 408.808 208.36C409.408 208.013 410.135 207.84 410.988 207.84V209.72H410.508C408.468 209.72 407.448 210.827 407.448 213.04V219H405.628V208.04H407.448V209.82ZM412.409 213.48C412.409 212.36 412.635 211.38 413.089 210.54C413.542 209.687 414.162 209.027 414.949 208.56C415.749 208.093 416.635 207.86 417.609 207.86C418.569 207.86 419.402 208.067 420.109 208.48C420.815 208.893 421.342 209.413 421.689 210.04V208.04H423.529V219H421.689V216.96C421.329 217.6 420.789 218.133 420.069 218.56C419.362 218.973 418.535 219.18 417.589 219.18C416.615 219.18 415.735 218.94 414.949 218.46C414.162 217.98 413.542 217.307 413.089 216.44C412.635 215.573 412.409 214.587 412.409 213.48ZM421.689 213.5C421.689 212.673 421.522 211.953 421.189 211.34C420.855 210.727 420.402 210.26 419.829 209.94C419.269 209.607 418.649 209.44 417.969 209.44C417.289 209.44 416.669 209.6 416.109 209.92C415.549 210.24 415.102 210.707 414.769 211.32C414.435 211.933 414.269 212.653 414.269 213.48C414.269 214.32 414.435 215.053 414.769 215.68C415.102 216.293 415.549 216.767 416.109 217.1C416.669 217.42 417.289 217.58 417.969 217.58C418.649 217.58 419.269 217.42 419.829 217.1C420.402 216.767 420.855 216.293 421.189 215.68C421.522 215.053 421.689 214.327 421.689 213.5ZM431.944 207.84C433.278 207.84 434.358 208.247 435.184 209.06C436.011 209.86 436.424 211.02 436.424 212.54V219H434.624V212.8C434.624 211.707 434.351 210.873 433.804 210.3C433.258 209.713 432.511 209.42 431.564 209.42C430.604 209.42 429.838 209.72 429.264 210.32C428.704 210.92 428.424 211.793 428.424 212.94V219H426.604V208.04H428.424V209.6C428.784 209.04 429.271 208.607 429.884 208.3C430.511 207.993 431.198 207.84 431.944 207.84ZM443.277 219.18C442.437 219.18 441.684 219.04 441.017 218.76C440.351 218.467 439.824 218.067 439.437 217.56C439.051 217.04 438.837 216.447 438.797 215.78H440.677C440.731 216.327 440.984 216.773 441.437 217.12C441.904 217.467 442.511 217.64 443.257 217.64C443.951 217.64 444.497 217.487 444.897 217.18C445.297 216.873 445.497 216.487 445.497 216.02C445.497 215.54 445.284 215.187 444.857 214.96C444.431 214.72 443.771 214.487 442.877 214.26C442.064 214.047 441.397 213.833 440.877 213.62C440.371 213.393 439.931 213.067 439.557 212.64C439.197 212.2 439.017 211.627 439.017 210.92C439.017 210.36 439.184 209.847 439.517 209.38C439.851 208.913 440.324 208.547 440.937 208.28C441.551 208 442.251 207.86 443.037 207.86C444.251 207.86 445.231 208.167 445.977 208.78C446.724 209.393 447.124 210.233 447.177 211.3H445.357C445.317 210.727 445.084 210.267 444.657 209.92C444.244 209.573 443.684 209.4 442.977 209.4C442.324 209.4 441.804 209.54 441.417 209.82C441.031 210.1 440.837 210.467 440.837 210.92C440.837 211.28 440.951 211.58 441.177 211.82C441.417 212.047 441.711 212.233 442.057 212.38C442.417 212.513 442.911 212.667 443.537 212.84C444.324 213.053 444.964 213.267 445.457 213.48C445.951 213.68 446.371 213.987 446.717 214.4C447.077 214.813 447.264 215.353 447.277 216.02C447.277 216.62 447.111 217.16 446.777 217.64C446.444 218.12 445.971 218.5 445.357 218.78C444.757 219.047 444.064 219.18 443.277 219.18ZM454.307 209.54H452.007V219H450.187V209.54H448.767V208.04H450.187V207.26C450.187 206.033 450.5 205.14 451.127 204.58C451.767 204.007 452.787 203.72 454.187 203.72V205.24C453.387 205.24 452.82 205.4 452.487 205.72C452.167 206.027 452.007 206.54 452.007 207.26V208.04H454.307V209.54ZM461.209 219.18C460.182 219.18 459.249 218.947 458.409 218.48C457.582 218.013 456.929 217.353 456.449 216.5C455.982 215.633 455.749 214.633 455.749 213.5C455.749 212.38 455.989 211.393 456.469 210.54C456.962 209.673 457.629 209.013 458.469 208.56C459.309 208.093 460.249 207.86 461.289 207.86C462.329 207.86 463.269 208.093 464.109 208.56C464.949 209.013 465.609 209.667 466.089 210.52C466.582 211.373 466.829 212.367 466.829 213.5C466.829 214.633 466.575 215.633 466.069 216.5C465.575 217.353 464.902 218.013 464.049 218.48C463.195 218.947 462.249 219.18 461.209 219.18ZM461.209 217.58C461.862 217.58 462.475 217.427 463.049 217.12C463.622 216.813 464.082 216.353 464.429 215.74C464.789 215.127 464.969 214.38 464.969 213.5C464.969 212.62 464.795 211.873 464.449 211.26C464.102 210.647 463.649 210.193 463.089 209.9C462.529 209.593 461.922 209.44 461.269 209.44C460.602 209.44 459.989 209.593 459.429 209.9C458.882 210.193 458.442 210.647 458.109 211.26C457.775 211.873 457.609 212.62 457.609 213.5C457.609 214.393 457.769 215.147 458.089 215.76C458.422 216.373 458.862 216.833 459.409 217.14C459.955 217.433 460.555 217.58 461.209 217.58ZM471.042 209.82C471.362 209.193 471.815 208.707 472.402 208.36C473.002 208.013 473.728 207.84 474.582 207.84V209.72H474.102C472.062 209.72 471.042 210.827 471.042 213.04V219H469.222V208.04H471.042V209.82ZM489.863 207.84C490.716 207.84 491.476 208.02 492.143 208.38C492.809 208.727 493.336 209.253 493.723 209.96C494.109 210.667 494.303 211.527 494.303 212.54V219H492.503V212.8C492.503 211.707 492.229 210.873 491.683 210.3C491.149 209.713 490.423 209.42 489.503 209.42C488.556 209.42 487.803 209.727 487.243 210.34C486.683 210.94 486.403 211.813 486.403 212.96V219H484.603V212.8C484.603 211.707 484.329 210.873 483.783 210.3C483.249 209.713 482.523 209.42 481.603 209.42C480.656 209.42 479.903 209.727 479.343 210.34C478.783 210.94 478.503 211.813 478.503 212.96V219H476.683V208.04H478.503V209.62C478.863 209.047 479.343 208.607 479.943 208.3C480.556 207.993 481.229 207.84 481.963 207.84C482.883 207.84 483.696 208.047 484.403 208.46C485.109 208.873 485.636 209.48 485.983 210.28C486.289 209.507 486.796 208.907 487.503 208.48C488.209 208.053 488.996 207.84 489.863 207.84ZM501.168 219.18C500.328 219.18 499.575 219.04 498.908 218.76C498.241 218.467 497.715 218.067 497.328 217.56C496.941 217.04 496.728 216.447 496.688 215.78H498.568C498.621 216.327 498.875 216.773 499.328 217.12C499.795 217.467 500.401 217.64 501.148 217.64C501.841 217.64 502.388 217.487 502.788 217.18C503.188 216.873 503.388 216.487 503.388 216.02C503.388 215.54 503.175 215.187 502.748 214.96C502.321 214.72 501.661 214.487 500.768 214.26C499.955 214.047 499.288 213.833 498.768 213.62C498.261 213.393 497.821 213.067 497.448 212.64C497.088 212.2 496.908 211.627 496.908 210.92C496.908 210.36 497.075 209.847 497.408 209.38C497.741 208.913 498.215 208.547 498.828 208.28C499.441 208 500.141 207.86 500.928 207.86C502.141 207.86 503.121 208.167 503.868 208.78C504.615 209.393 505.015 210.233 505.068 211.3H503.248C503.208 210.727 502.975 210.267 502.548 209.92C502.135 209.573 501.575 209.4 500.868 209.4C500.215 209.4 499.695 209.54 499.308 209.82C498.921 210.1 498.728 210.467 498.728 210.92C498.728 211.28 498.841 211.58 499.068 211.82C499.308 212.047 499.601 212.233 499.948 212.38C500.308 212.513 500.801 212.667 501.428 212.84C502.215 213.053 502.855 213.267 503.348 213.48C503.841 213.68 504.261 213.987 504.608 214.4C504.968 214.813 505.155 215.353 505.168 216.02C505.168 216.62 505.001 217.16 504.668 217.64C504.335 218.12 503.861 218.5 503.248 218.78C502.648 219.047 501.955 219.18 501.168 219.18Z" fill="#001A85"/>
<rect x="343" y="252" width="217" height="78" rx="8" fill="#C6CFFF"/>
<path d="M399.698 272.84C401.032 272.84 402.112 273.247 402.938 274.06C403.765 274.86 404.178 276.02 404.178 277.54V284H402.378V277.8C402.378 276.707 402.105 275.873 401.558 275.3C401.012 274.713 400.265 274.42 399.318 274.42C398.358 274.42 397.592 274.72 397.018 275.32C396.458 275.92 396.178 276.793 396.178 277.94V284H394.358V273.04H396.178V274.6C396.538 274.04 397.025 273.607 397.638 273.3C398.265 272.993 398.952 272.84 399.698 272.84ZM411.931 284.18C410.905 284.18 409.971 283.947 409.131 283.48C408.305 283.013 407.651 282.353 407.171 281.5C406.705 280.633 406.471 279.633 406.471 278.5C406.471 277.38 406.711 276.393 407.191 275.54C407.685 274.673 408.351 274.013 409.191 273.56C410.031 273.093 410.971 272.86 412.011 272.86C413.051 272.86 413.991 273.093 414.831 273.56C415.671 274.013 416.331 274.667 416.811 275.52C417.305 276.373 417.551 277.367 417.551 278.5C417.551 279.633 417.298 280.633 416.791 281.5C416.298 282.353 415.625 283.013 414.771 283.48C413.918 283.947 412.971 284.18 411.931 284.18ZM411.931 282.58C412.585 282.58 413.198 282.427 413.771 282.12C414.345 281.813 414.805 281.353 415.151 280.74C415.511 280.127 415.691 279.38 415.691 278.5C415.691 277.62 415.518 276.873 415.171 276.26C414.825 275.647 414.371 275.193 413.811 274.9C413.251 274.593 412.645 274.44 411.991 274.44C411.325 274.44 410.711 274.593 410.151 274.9C409.605 275.193 409.165 275.647 408.831 276.26C408.498 276.873 408.331 277.62 408.331 278.5C408.331 279.393 408.491 280.147 408.811 280.76C409.145 281.373 409.585 281.833 410.131 282.14C410.678 282.433 411.278 282.58 411.931 282.58ZM421.764 274.82C422.084 274.193 422.538 273.707 423.124 273.36C423.724 273.013 424.451 272.84 425.304 272.84V274.72H424.824C422.784 274.72 421.764 275.827 421.764 278.04V284H419.944V273.04H421.764V274.82ZM440.585 272.84C441.439 272.84 442.199 273.02 442.865 273.38C443.532 273.727 444.059 274.253 444.445 274.96C444.832 275.667 445.025 276.527 445.025 277.54V284H443.225V277.8C443.225 276.707 442.952 275.873 442.405 275.3C441.872 274.713 441.145 274.42 440.225 274.42C439.279 274.42 438.525 274.727 437.965 275.34C437.405 275.94 437.125 276.813 437.125 277.96V284H435.325V277.8C435.325 276.707 435.052 275.873 434.505 275.3C433.972 274.713 433.245 274.42 432.325 274.42C431.379 274.42 430.625 274.727 430.065 275.34C429.505 275.94 429.225 276.813 429.225 277.96V284H427.405V273.04H429.225V274.62C429.585 274.047 430.065 273.607 430.665 273.3C431.279 272.993 431.952 272.84 432.685 272.84C433.605 272.84 434.419 273.047 435.125 273.46C435.832 273.873 436.359 274.48 436.705 275.28C437.012 274.507 437.519 273.907 438.225 273.48C438.932 273.053 439.719 272.84 440.585 272.84ZM447.331 278.48C447.331 277.36 447.557 276.38 448.011 275.54C448.464 274.687 449.084 274.027 449.871 273.56C450.671 273.093 451.557 272.86 452.531 272.86C453.491 272.86 454.324 273.067 455.031 273.48C455.737 273.893 456.264 274.413 456.611 275.04V273.04H458.451V284H456.611V281.96C456.251 282.6 455.711 283.133 454.991 283.56C454.284 283.973 453.457 284.18 452.511 284.18C451.537 284.18 450.657 283.94 449.871 283.46C449.084 282.98 448.464 282.307 448.011 281.44C447.557 280.573 447.331 279.587 447.331 278.48ZM456.611 278.5C456.611 277.673 456.444 276.953 456.111 276.34C455.777 275.727 455.324 275.26 454.751 274.94C454.191 274.607 453.571 274.44 452.891 274.44C452.211 274.44 451.591 274.6 451.031 274.92C450.471 275.24 450.024 275.707 449.691 276.32C449.357 276.933 449.191 277.653 449.191 278.48C449.191 279.32 449.357 280.053 449.691 280.68C450.024 281.293 450.471 281.767 451.031 282.1C451.591 282.42 452.211 282.58 452.891 282.58C453.571 282.58 454.191 282.42 454.751 282.1C455.324 281.767 455.777 281.293 456.111 280.68C456.444 280.053 456.611 279.327 456.611 278.5ZM463.346 269.2V284H461.526V269.2H463.346ZM467.388 271.26C467.042 271.26 466.748 271.14 466.508 270.9C466.268 270.66 466.148 270.367 466.148 270.02C466.148 269.673 466.268 269.38 466.508 269.14C466.748 268.9 467.042 268.78 467.388 268.78C467.722 268.78 468.002 268.9 468.228 269.14C468.468 269.38 468.588 269.673 468.588 270.02C468.588 270.367 468.468 270.66 468.228 270.9C468.002 271.14 467.722 271.26 467.388 271.26ZM468.268 273.04V284H466.448V273.04H468.268ZM472.73 282.5H478.11V284H470.65V282.5L475.97 274.52H470.69V273.04H478.07V274.52L472.73 282.5ZM490.472 278.1C490.472 278.447 490.452 278.813 490.412 279.2H481.652C481.718 280.28 482.085 281.127 482.752 281.74C483.432 282.34 484.252 282.64 485.212 282.64C485.998 282.64 486.652 282.46 487.172 282.1C487.705 281.727 488.078 281.233 488.292 280.62H490.252C489.958 281.673 489.372 282.533 488.492 283.2C487.612 283.853 486.518 284.18 485.212 284.18C484.172 284.18 483.238 283.947 482.412 283.48C481.598 283.013 480.958 282.353 480.492 281.5C480.025 280.633 479.792 279.633 479.792 278.5C479.792 277.367 480.018 276.373 480.472 275.52C480.925 274.667 481.558 274.013 482.372 273.56C483.198 273.093 484.145 272.86 485.212 272.86C486.252 272.86 487.172 273.087 487.972 273.54C488.772 273.993 489.385 274.62 489.812 275.42C490.252 276.207 490.472 277.1 490.472 278.1ZM488.592 277.72C488.592 277.027 488.438 276.433 488.132 275.94C487.825 275.433 487.405 275.053 486.872 274.8C486.352 274.533 485.772 274.4 485.132 274.4C484.212 274.4 483.425 274.693 482.772 275.28C482.132 275.867 481.765 276.68 481.672 277.72H488.592ZM492.194 278.48C492.194 277.36 492.421 276.38 492.874 275.54C493.327 274.687 493.947 274.027 494.734 273.56C495.534 273.093 496.427 272.86 497.414 272.86C498.267 272.86 499.061 273.06 499.794 273.46C500.527 273.847 501.087 274.36 501.474 275V269.2H503.314V284H501.474V281.94C501.114 282.593 500.581 283.133 499.874 283.56C499.167 283.973 498.341 284.18 497.394 284.18C496.421 284.18 495.534 283.94 494.734 283.46C493.947 282.98 493.327 282.307 492.874 281.44C492.421 280.573 492.194 279.587 492.194 278.48ZM501.474 278.5C501.474 277.673 501.307 276.953 500.974 276.34C500.641 275.727 500.187 275.26 499.614 274.94C499.054 274.607 498.434 274.44 497.754 274.44C497.074 274.44 496.454 274.6 495.894 274.92C495.334 275.24 494.887 275.707 494.554 276.32C494.221 276.933 494.054 277.653 494.054 278.48C494.054 279.32 494.221 280.053 494.554 280.68C494.887 281.293 495.334 281.767 495.894 282.1C496.454 282.42 497.074 282.58 497.754 282.58C498.434 282.58 499.054 282.42 499.614 282.1C500.187 281.767 500.641 281.293 500.974 280.68C501.307 280.053 501.474 279.327 501.474 278.5ZM393.659 306.48C393.659 305.36 393.885 304.38 394.339 303.54C394.792 302.687 395.412 302.027 396.199 301.56C396.999 301.093 397.892 300.86 398.879 300.86C399.732 300.86 400.525 301.06 401.259 301.46C401.992 301.847 402.552 302.36 402.939 303V297.2H404.779V312H402.939V309.94C402.579 310.593 402.045 311.133 401.339 311.56C400.632 311.973 399.805 312.18 398.859 312.18C397.885 312.18 396.999 311.94 396.199 311.46C395.412 310.98 394.792 310.307 394.339 309.44C393.885 308.573 393.659 307.587 393.659 306.48ZM402.939 306.5C402.939 305.673 402.772 304.953 402.439 304.34C402.105 303.727 401.652 303.26 401.079 302.94C400.519 302.607 399.899 302.44 399.219 302.44C398.539 302.44 397.919 302.6 397.359 302.92C396.799 303.24 396.352 303.707 396.019 304.32C395.685 304.933 395.519 305.653 395.519 306.48C395.519 307.32 395.685 308.053 396.019 308.68C396.352 309.293 396.799 309.767 397.359 310.1C397.919 310.42 398.539 310.58 399.219 310.58C399.899 310.58 400.519 310.42 401.079 310.1C401.652 309.767 402.105 309.293 402.439 308.68C402.772 308.053 402.939 307.327 402.939 306.5ZM407.174 306.48C407.174 305.36 407.401 304.38 407.854 303.54C408.308 302.687 408.928 302.027 409.714 301.56C410.514 301.093 411.401 300.86 412.374 300.86C413.334 300.86 414.168 301.067 414.874 301.48C415.581 301.893 416.108 302.413 416.454 303.04V301.04H418.294V312H416.454V309.96C416.094 310.6 415.554 311.133 414.834 311.56C414.128 311.973 413.301 312.18 412.354 312.18C411.381 312.18 410.501 311.94 409.714 311.46C408.928 310.98 408.308 310.307 407.854 309.44C407.401 308.573 407.174 307.587 407.174 306.48ZM416.454 306.5C416.454 305.673 416.288 304.953 415.954 304.34C415.621 303.727 415.168 303.26 414.594 302.94C414.034 302.607 413.414 302.44 412.734 302.44C412.054 302.44 411.434 302.6 410.874 302.92C410.314 303.24 409.868 303.707 409.534 304.32C409.201 304.933 409.034 305.653 409.034 306.48C409.034 307.32 409.201 308.053 409.534 308.68C409.868 309.293 410.314 309.767 410.874 310.1C411.434 310.42 412.054 310.58 412.734 310.58C413.414 310.58 414.034 310.42 414.594 310.1C415.168 309.767 415.621 309.293 415.954 308.68C416.288 308.053 416.454 307.327 416.454 306.5ZM423.59 302.54V309C423.59 309.533 423.703 309.913 423.93 310.14C424.157 310.353 424.55 310.46 425.11 310.46H426.45V312H424.81C423.797 312 423.037 311.767 422.53 311.3C422.023 310.833 421.77 310.067 421.77 309V302.54H420.35V301.04H421.77V298.28H423.59V301.04H426.45V302.54H423.59ZM427.975 306.48C427.975 305.36 428.202 304.38 428.655 303.54C429.109 302.687 429.729 302.027 430.515 301.56C431.315 301.093 432.202 300.86 433.175 300.86C434.135 300.86 434.969 301.067 435.675 301.48C436.382 301.893 436.909 302.413 437.255 303.04V301.04H439.095V312H437.255V309.96C436.895 310.6 436.355 311.133 435.635 311.56C434.929 311.973 434.102 312.18 433.155 312.18C432.182 312.18 431.302 311.94 430.515 311.46C429.729 310.98 429.109 310.307 428.655 309.44C428.202 308.573 427.975 307.587 427.975 306.48ZM437.255 306.5C437.255 305.673 437.089 304.953 436.755 304.34C436.422 303.727 435.969 303.26 435.395 302.94C434.835 302.607 434.215 302.44 433.535 302.44C432.855 302.44 432.235 302.6 431.675 302.92C431.115 303.24 430.669 303.707 430.335 304.32C430.002 304.933 429.835 305.653 429.835 306.48C429.835 307.32 430.002 308.053 430.335 308.68C430.669 309.293 431.115 309.767 431.675 310.1C432.235 310.42 432.855 310.58 433.535 310.58C434.215 310.58 434.835 310.42 435.395 310.1C435.969 309.767 436.422 309.293 436.755 308.68C437.089 308.053 437.255 307.327 437.255 306.5ZM460.683 300.84C461.536 300.84 462.296 301.02 462.963 301.38C463.63 301.727 464.156 302.253 464.543 302.96C464.93 303.667 465.123 304.527 465.123 305.54V312H463.323V305.8C463.323 304.707 463.05 303.873 462.503 303.3C461.97 302.713 461.243 302.42 460.323 302.42C459.376 302.42 458.623 302.727 458.063 303.34C457.503 303.94 457.223 304.813 457.223 305.96V312H455.423V305.8C455.423 304.707 455.15 303.873 454.603 303.3C454.07 302.713 453.343 302.42 452.423 302.42C451.476 302.42 450.723 302.727 450.163 303.34C449.603 303.94 449.323 304.813 449.323 305.96V312H447.503V301.04H449.323V302.62C449.683 302.047 450.163 301.607 450.763 301.3C451.376 300.993 452.05 300.84 452.783 300.84C453.703 300.84 454.516 301.047 455.223 301.46C455.93 301.873 456.456 302.48 456.803 303.28C457.11 302.507 457.616 301.907 458.323 301.48C459.03 301.053 459.816 300.84 460.683 300.84ZM472.888 312.18C471.862 312.18 470.928 311.947 470.088 311.48C469.262 311.013 468.608 310.353 468.128 309.5C467.662 308.633 467.428 307.633 467.428 306.5C467.428 305.38 467.668 304.393 468.148 303.54C468.642 302.673 469.308 302.013 470.148 301.56C470.988 301.093 471.928 300.86 472.968 300.86C474.008 300.86 474.948 301.093 475.788 301.56C476.628 302.013 477.288 302.667 477.768 303.52C478.262 304.373 478.508 305.367 478.508 306.5C478.508 307.633 478.255 308.633 477.748 309.5C477.255 310.353 476.582 311.013 475.728 311.48C474.875 311.947 473.928 312.18 472.888 312.18ZM472.888 310.58C473.542 310.58 474.155 310.427 474.728 310.12C475.302 309.813 475.762 309.353 476.108 308.74C476.468 308.127 476.648 307.38 476.648 306.5C476.648 305.62 476.475 304.873 476.128 304.26C475.782 303.647 475.328 303.193 474.768 302.9C474.208 302.593 473.602 302.44 472.948 302.44C472.282 302.44 471.668 302.593 471.108 302.9C470.562 303.193 470.122 303.647 469.788 304.26C469.455 304.873 469.288 305.62 469.288 306.5C469.288 307.393 469.448 308.147 469.768 308.76C470.102 309.373 470.542 309.833 471.088 310.14C471.635 310.433 472.235 310.58 472.888 310.58ZM480.221 306.48C480.221 305.36 480.448 304.38 480.901 303.54C481.355 302.687 481.975 302.027 482.761 301.56C483.561 301.093 484.455 300.86 485.441 300.86C486.295 300.86 487.088 301.06 487.821 301.46C488.555 301.847 489.115 302.36 489.501 303V297.2H491.341V312H489.501V309.94C489.141 310.593 488.608 311.133 487.901 311.56C487.195 311.973 486.368 312.18 485.421 312.18C484.448 312.18 483.561 311.94 482.761 311.46C481.975 310.98 481.355 310.307 480.901 309.44C480.448 308.573 480.221 307.587 480.221 306.48ZM489.501 306.5C489.501 305.673 489.335 304.953 489.001 304.34C488.668 303.727 488.215 303.26 487.641 302.94C487.081 302.607 486.461 302.44 485.781 302.44C485.101 302.44 484.481 302.6 483.921 302.92C483.361 303.24 482.915 303.707 482.581 304.32C482.248 304.933 482.081 305.653 482.081 306.48C482.081 307.32 482.248 308.053 482.581 308.68C482.915 309.293 483.361 309.767 483.921 310.1C484.481 310.42 485.101 310.58 485.781 310.58C486.461 310.58 487.081 310.42 487.641 310.1C488.215 309.767 488.668 309.293 489.001 308.68C489.335 308.053 489.501 307.327 489.501 306.5ZM504.417 306.1C504.417 306.447 504.397 306.813 504.357 307.2H495.597C495.664 308.28 496.03 309.127 496.697 309.74C497.377 310.34 498.197 310.64 499.157 310.64C499.944 310.64 500.597 310.46 501.117 310.1C501.65 309.727 502.024 309.233 502.237 308.62H504.197C503.904 309.673 503.317 310.533 502.437 311.2C501.557 311.853 500.464 312.18 499.157 312.18C498.117 312.18 497.184 311.947 496.357 311.48C495.544 311.013 494.904 310.353 494.437 309.5C493.97 308.633 493.737 307.633 493.737 306.5C493.737 305.367 493.964 304.373 494.417 303.52C494.87 302.667 495.504 302.013 496.317 301.56C497.144 301.093 498.09 300.86 499.157 300.86C500.197 300.86 501.117 301.087 501.917 301.54C502.717 301.993 503.33 302.62 503.757 303.42C504.197 304.207 504.417 305.1 504.417 306.1ZM502.537 305.72C502.537 305.027 502.384 304.433 502.077 303.94C501.77 303.433 501.35 303.053 500.817 302.8C500.297 302.533 499.717 302.4 499.077 302.4C498.157 302.4 497.37 302.693 496.717 303.28C496.077 303.867 495.71 304.68 495.617 305.72H502.537ZM508.639 297.2V312H506.819V297.2H508.639Z" fill="#001A85"/>
<rect x="120" y="423" width="100" height="80" rx="8" fill="#4C5CE5"/>
<path d="M148.653 463.02C148.653 461.66 148.96 460.44 149.573 459.36C150.186 458.267 151.02 457.413 152.073 456.8C153.14 456.187 154.32 455.88 155.613 455.88C157.133 455.88 158.46 456.247 159.593 456.98C160.726 457.713 161.553 458.753 162.073 460.1H159.893C159.506 459.26 158.946 458.613 158.213 458.16C157.493 457.707 156.626 457.48 155.613 457.48C154.64 457.48 153.766 457.707 152.993 458.16C152.22 458.613 151.613 459.26 151.173 460.1C150.733 460.927 150.513 461.9 150.513 463.02C150.513 464.127 150.733 465.1 151.173 465.94C151.613 466.767 152.22 467.407 152.993 467.86C153.766 468.313 154.64 468.54 155.613 468.54C156.626 468.54 157.493 468.32 158.213 467.88C158.946 467.427 159.506 466.78 159.893 465.94H162.073C161.553 467.273 160.726 468.307 159.593 469.04C158.46 469.76 157.133 470.12 155.613 470.12C154.32 470.12 153.14 469.82 152.073 469.22C151.02 468.607 150.186 467.76 149.573 466.68C148.96 465.6 148.653 464.38 148.653 463.02ZM178.922 456.16V470H177.102V459.68L172.502 470H171.222L166.602 459.66V470H164.782V456.16H166.742L171.862 467.6L176.982 456.16H178.922ZM186.429 470.14C185.509 470.14 184.682 469.98 183.949 469.66C183.229 469.327 182.662 468.873 182.249 468.3C181.835 467.713 181.622 467.04 181.609 466.28H183.549C183.615 466.933 183.882 467.487 184.349 467.94C184.829 468.38 185.522 468.6 186.429 468.6C187.295 468.6 187.975 468.387 188.469 467.96C188.975 467.52 189.229 466.96 189.229 466.28C189.229 465.747 189.082 465.313 188.789 464.98C188.495 464.647 188.129 464.393 187.689 464.22C187.249 464.047 186.655 463.86 185.909 463.66C184.989 463.42 184.249 463.18 183.689 462.94C183.142 462.7 182.669 462.327 182.269 461.82C181.882 461.3 181.689 460.607 181.689 459.74C181.689 458.98 181.882 458.307 182.269 457.72C182.655 457.133 183.195 456.68 183.889 456.36C184.595 456.04 185.402 455.88 186.309 455.88C187.615 455.88 188.682 456.207 189.509 456.86C190.349 457.513 190.822 458.38 190.929 459.46H188.929C188.862 458.927 188.582 458.46 188.089 458.06C187.595 457.647 186.942 457.44 186.129 457.44C185.369 457.44 184.749 457.64 184.269 458.04C183.789 458.427 183.549 458.973 183.549 459.68C183.549 460.187 183.689 460.6 183.969 460.92C184.262 461.24 184.615 461.487 185.029 461.66C185.455 461.82 186.049 462.007 186.809 462.22C187.729 462.473 188.469 462.727 189.029 462.98C189.589 463.22 190.069 463.6 190.469 464.12C190.869 464.627 191.069 465.32 191.069 466.2C191.069 466.88 190.889 467.52 190.529 468.12C190.169 468.72 189.635 469.207 188.929 469.58C188.222 469.953 187.389 470.14 186.429 470.14Z" fill="white"/>
<rect x="401" y="423" width="100" height="80" rx="8" fill="#4C5CE5"/>
<path d="M429.438 463.02C429.438 461.66 429.745 460.44 430.358 459.36C430.971 458.267 431.805 457.413 432.858 456.8C433.925 456.187 435.105 455.88 436.398 455.88C437.918 455.88 439.245 456.247 440.378 456.98C441.511 457.713 442.338 458.753 442.858 460.1H440.678C440.291 459.26 439.731 458.613 438.998 458.16C438.278 457.707 437.411 457.48 436.398 457.48C435.425 457.48 434.551 457.707 433.778 458.16C433.005 458.613 432.398 459.26 431.958 460.1C431.518 460.927 431.298 461.9 431.298 463.02C431.298 464.127 431.518 465.1 431.958 465.94C432.398 466.767 433.005 467.407 433.778 467.86C434.551 468.313 435.425 468.54 436.398 468.54C437.411 468.54 438.278 468.32 438.998 467.88C439.731 467.427 440.291 466.78 440.678 465.94H442.858C442.338 467.273 441.511 468.307 440.378 469.04C439.245 469.76 437.918 470.12 436.398 470.12C435.105 470.12 433.925 469.82 432.858 469.22C431.805 468.607 430.971 467.76 430.358 466.68C429.745 465.6 429.438 464.38 429.438 463.02ZM452.907 470L449.587 464.3H447.387V470H445.567V456.06H450.067C451.121 456.06 452.007 456.24 452.727 456.6C453.461 456.96 454.007 457.447 454.367 458.06C454.727 458.673 454.907 459.373 454.907 460.16C454.907 461.12 454.627 461.967 454.067 462.7C453.521 463.433 452.694 463.92 451.587 464.16L455.087 470H452.907ZM447.387 462.84H450.067C451.054 462.84 451.794 462.6 452.287 462.12C452.781 461.627 453.027 460.973 453.027 460.16C453.027 459.333 452.781 458.693 452.287 458.24C451.807 457.787 451.067 457.56 450.067 457.56H447.387V462.84ZM471.875 456.16V470H470.055V459.68L465.455 470H464.175L459.555 459.66V470H457.735V456.16H459.695L464.815 467.6L469.935 456.16H471.875Z" fill="white"/>
<path d="M172.293 415.707C172.683 416.098 173.317 416.098 173.707 415.707L180.071 409.343C180.462 408.953 180.462 408.319 180.071 407.929C179.681 407.538 179.047 407.538 178.657 407.929L173 413.586L167.343 407.929C166.953 407.538 166.319 407.538 165.929 407.929C165.538 408.319 165.538 408.953 165.929 409.343L172.293 415.707ZM172 345L172 415L174 415L174 345L172 345Z" fill="#4C5CE5"/>
<path d="M452.293 415.707C452.683 416.098 453.317 416.098 453.707 415.707L460.071 409.343C460.462 408.953 460.462 408.319 460.071 407.929C459.681 407.538 459.047 407.538 458.657 407.929L453 413.586L447.343 407.929C446.953 407.538 446.319 407.538 445.929 407.929C445.538 408.319 445.538 408.953 445.929 409.343L452.293 415.707ZM452 345L452 415L454 415L454 345L452 345Z" fill="#4C5CE5"/>
</svg>
