<svg width="774" height="601" viewBox="0 0 774 601" fill="none" xmlns="http://www.w3.org/2000/svg">
<rect x="1" y="38" width="772" height="427" rx="19" fill="url(#paint0_linear_1312_1030)"/>
<rect x="1" y="38" width="772" height="427" rx="19" stroke="url(#paint1_linear_1312_1030)" stroke-width="2" stroke-linecap="round" stroke-linejoin="round" stroke-dasharray="14 14"/>
<path d="M258.873 124.224C256.782 124.224 254.862 123.733 253.113 122.752C251.364 121.771 249.977 120.416 248.953 118.688C247.929 116.939 247.417 114.965 247.417 112.768C247.417 110.592 247.929 108.64 248.953 106.912C249.977 105.163 251.364 103.797 253.113 102.816C254.862 101.835 256.782 101.344 258.873 101.344C260.985 101.344 262.905 101.835 264.633 102.816C266.382 103.797 267.758 105.163 268.761 106.912C269.785 108.64 270.297 110.592 270.297 112.768C270.297 114.965 269.785 116.939 268.761 118.688C267.758 120.416 266.382 121.771 264.633 122.752C262.884 123.733 260.964 124.224 258.873 124.224ZM258.873 120.224C260.217 120.224 261.401 119.925 262.425 119.328C263.449 118.709 264.249 117.835 264.825 116.704C265.401 115.573 265.689 114.261 265.689 112.768C265.689 111.275 265.401 109.973 264.825 108.864C264.249 107.733 263.449 106.869 262.425 106.272C261.401 105.675 260.217 105.376 258.873 105.376C257.529 105.376 256.334 105.675 255.289 106.272C254.265 106.869 253.465 107.733 252.889 108.864C252.313 109.973 252.025 111.275 252.025 112.768C252.025 114.261 252.313 115.573 252.889 116.704C253.465 117.835 254.265 118.709 255.289 119.328C256.334 119.925 257.529 120.224 258.873 120.224ZM278.11 108.832C278.686 108.021 279.475 107.349 280.478 106.816C281.502 106.261 282.665 105.984 283.966 105.984C285.481 105.984 286.846 106.357 288.062 107.104C289.299 107.851 290.27 108.917 290.974 110.304C291.699 111.669 292.062 113.259 292.062 115.072C292.062 116.885 291.699 118.496 290.974 119.904C290.27 121.291 289.299 122.368 288.062 123.136C286.846 123.904 285.481 124.288 283.966 124.288C282.665 124.288 281.513 124.021 280.51 123.488C279.529 122.955 278.729 122.283 278.11 121.472V132.448H273.63V106.272H278.11V108.832ZM287.486 115.072C287.486 114.005 287.262 113.088 286.814 112.32C286.387 111.531 285.811 110.933 285.086 110.528C284.382 110.123 283.614 109.92 282.782 109.92C281.971 109.92 281.203 110.133 280.478 110.56C279.774 110.965 279.198 111.563 278.75 112.352C278.323 113.141 278.11 114.069 278.11 115.136C278.11 116.203 278.323 117.131 278.75 117.92C279.198 118.709 279.774 119.317 280.478 119.744C281.203 120.149 281.971 120.352 282.782 120.352C283.614 120.352 284.382 120.139 285.086 119.712C285.811 119.285 286.387 118.677 286.814 117.888C287.262 117.099 287.486 116.16 287.486 115.072ZM311.797 114.752C311.797 115.392 311.755 115.968 311.669 116.48H298.709C298.816 117.76 299.264 118.763 300.053 119.488C300.843 120.213 301.813 120.576 302.965 120.576C304.629 120.576 305.813 119.861 306.517 118.432H311.349C310.837 120.139 309.856 121.547 308.405 122.656C306.955 123.744 305.173 124.288 303.061 124.288C301.355 124.288 299.819 123.915 298.453 123.168C297.109 122.4 296.053 121.323 295.285 119.936C294.539 118.549 294.165 116.949 294.165 115.136C294.165 113.301 294.539 111.691 295.285 110.304C296.032 108.917 297.077 107.851 298.421 107.104C299.765 106.357 301.312 105.984 303.061 105.984C304.747 105.984 306.251 106.347 307.573 107.072C308.917 107.797 309.952 108.832 310.677 110.176C311.424 111.499 311.797 113.024 311.797 114.752ZM307.157 113.472C307.136 112.32 306.72 111.403 305.909 110.72C305.099 110.016 304.107 109.664 302.933 109.664C301.824 109.664 300.885 110.005 300.117 110.688C299.371 111.349 298.912 112.277 298.741 113.472H307.157ZM324.891 106.016C327.003 106.016 328.71 106.688 330.011 108.032C331.313 109.355 331.963 111.211 331.963 113.6V124H327.483V114.208C327.483 112.8 327.131 111.723 326.427 110.976C325.723 110.208 324.763 109.824 323.547 109.824C322.31 109.824 321.329 110.208 320.603 110.976C319.899 111.723 319.547 112.8 319.547 114.208V124H315.067V106.272H319.547V108.48C320.145 107.712 320.902 107.115 321.819 106.688C322.758 106.24 323.782 106.016 324.891 106.016ZM351.561 124.224C350.003 124.224 348.595 123.957 347.337 123.424C346.099 122.891 345.118 122.123 344.393 121.12C343.667 120.117 343.294 118.933 343.273 117.568H348.073C348.137 118.485 348.457 119.211 349.033 119.744C349.63 120.277 350.441 120.544 351.465 120.544C352.51 120.544 353.331 120.299 353.929 119.808C354.526 119.296 354.825 118.635 354.825 117.824C354.825 117.163 354.622 116.619 354.217 116.192C353.811 115.765 353.299 115.435 352.681 115.2C352.083 114.944 351.251 114.667 350.185 114.368C348.734 113.941 347.55 113.525 346.633 113.12C345.737 112.693 344.958 112.064 344.297 111.232C343.657 110.379 343.337 109.248 343.337 107.84C343.337 106.517 343.667 105.365 344.329 104.384C344.99 103.403 345.918 102.656 347.113 102.144C348.307 101.611 349.673 101.344 351.209 101.344C353.513 101.344 355.379 101.909 356.809 103.04C358.259 104.149 359.059 105.707 359.209 107.712H354.281C354.238 106.944 353.907 106.315 353.289 105.824C352.691 105.312 351.891 105.056 350.889 105.056C350.014 105.056 349.31 105.28 348.777 105.728C348.265 106.176 348.009 106.827 348.009 107.68C348.009 108.277 348.201 108.779 348.585 109.184C348.99 109.568 349.481 109.888 350.057 110.144C350.654 110.379 351.486 110.656 352.553 110.976C354.003 111.403 355.187 111.829 356.105 112.256C357.022 112.683 357.811 113.323 358.473 114.176C359.134 115.029 359.465 116.149 359.465 117.536C359.465 118.731 359.155 119.84 358.537 120.864C357.918 121.888 357.011 122.709 355.817 123.328C354.622 123.925 353.203 124.224 351.561 124.224ZM379.829 114.752C379.829 115.392 379.786 115.968 379.701 116.48H366.741C366.847 117.76 367.295 118.763 368.085 119.488C368.874 120.213 369.845 120.576 370.997 120.576C372.661 120.576 373.845 119.861 374.549 118.432H379.381C378.869 120.139 377.887 121.547 376.437 122.656C374.986 123.744 373.205 124.288 371.093 124.288C369.386 124.288 367.85 123.915 366.485 123.168C365.141 122.4 364.085 121.323 363.317 119.936C362.57 118.549 362.197 116.949 362.197 115.136C362.197 113.301 362.57 111.691 363.317 110.304C364.063 108.917 365.109 107.851 366.453 107.104C367.797 106.357 369.343 105.984 371.093 105.984C372.778 105.984 374.282 106.347 375.605 107.072C376.949 107.797 377.983 108.832 378.709 110.176C379.455 111.499 379.829 113.024 379.829 114.752ZM375.189 113.472C375.167 112.32 374.751 111.403 373.941 110.72C373.13 110.016 372.138 109.664 370.965 109.664C369.855 109.664 368.917 110.005 368.149 110.688C367.402 111.349 366.943 112.277 366.773 113.472H375.189ZM387.579 100.32V124H383.099V100.32H387.579ZM400.133 109.952H397.029V124H392.485V109.952H390.469V106.272H392.485V105.376C392.485 103.2 393.104 101.6 394.341 100.576C395.578 99.552 397.445 99.072 399.941 99.136V102.912C398.853 102.891 398.096 103.072 397.669 103.456C397.242 103.84 397.029 104.533 397.029 105.536V106.272H400.133V109.952ZM418.373 124.224C416.816 124.224 415.408 123.957 414.149 123.424C412.912 122.891 411.93 122.123 411.205 121.12C410.48 120.117 410.106 118.933 410.085 117.568H414.885C414.949 118.485 415.269 119.211 415.845 119.744C416.442 120.277 417.253 120.544 418.277 120.544C419.322 120.544 420.144 120.299 420.741 119.808C421.338 119.296 421.637 118.635 421.637 117.824C421.637 117.163 421.434 116.619 421.029 116.192C420.624 115.765 420.112 115.435 419.493 115.2C418.896 114.944 418.064 114.667 416.997 114.368C415.546 113.941 414.362 113.525 413.445 113.12C412.549 112.693 411.77 112.064 411.109 111.232C410.469 110.379 410.149 109.248 410.149 107.84C410.149 106.517 410.48 105.365 411.141 104.384C411.802 103.403 412.73 102.656 413.925 102.144C415.12 101.611 416.485 101.344 418.021 101.344C420.325 101.344 422.192 101.909 423.621 103.04C425.072 104.149 425.872 105.707 426.021 107.712H421.093C421.05 106.944 420.72 106.315 420.101 105.824C419.504 105.312 418.704 105.056 417.701 105.056C416.826 105.056 416.122 105.28 415.589 105.728C415.077 106.176 414.821 106.827 414.821 107.68C414.821 108.277 415.013 108.779 415.397 109.184C415.802 109.568 416.293 109.888 416.869 110.144C417.466 110.379 418.298 110.656 419.365 110.976C420.816 111.403 422 111.829 422.917 112.256C423.834 112.683 424.624 113.323 425.285 114.176C425.946 115.029 426.277 116.149 426.277 117.536C426.277 118.731 425.968 119.84 425.349 120.864C424.73 121.888 423.824 122.709 422.629 123.328C421.434 123.925 420.016 124.224 418.373 124.224ZM446.641 114.752C446.641 115.392 446.598 115.968 446.513 116.48H433.553C433.66 117.76 434.108 118.763 434.897 119.488C435.686 120.213 436.657 120.576 437.809 120.576C439.473 120.576 440.657 119.861 441.361 118.432H446.193C445.681 120.139 444.7 121.547 443.249 122.656C441.798 123.744 440.017 124.288 437.905 124.288C436.198 124.288 434.662 123.915 433.297 123.168C431.953 122.4 430.897 121.323 430.129 119.936C429.382 118.549 429.009 116.949 429.009 115.136C429.009 113.301 429.382 111.691 430.129 110.304C430.876 108.917 431.921 107.851 433.265 107.104C434.609 106.357 436.156 105.984 437.905 105.984C439.59 105.984 441.094 106.347 442.417 107.072C443.761 107.797 444.796 108.832 445.521 110.176C446.268 111.499 446.641 113.024 446.641 114.752ZM442.001 113.472C441.98 112.32 441.564 111.403 440.753 110.72C439.942 110.016 438.95 109.664 437.777 109.664C436.668 109.664 435.729 110.005 434.961 110.688C434.214 111.349 433.756 112.277 433.585 113.472H442.001ZM454.391 109.024C454.967 108.085 455.714 107.349 456.631 106.816C457.57 106.283 458.636 106.016 459.831 106.016V110.72H458.647C457.239 110.72 456.172 111.051 455.447 111.712C454.743 112.373 454.391 113.525 454.391 115.168V124H449.911V106.272H454.391V109.024ZM470.241 119.872L474.721 106.272H479.489L472.929 124H467.489L460.961 106.272H465.761L470.241 119.872ZM484.277 104.16C483.488 104.16 482.826 103.915 482.293 103.424C481.781 102.912 481.525 102.283 481.525 101.536C481.525 100.789 481.781 100.171 482.293 99.68C482.826 99.168 483.488 98.912 484.277 98.912C485.066 98.912 485.717 99.168 486.229 99.68C486.762 100.171 487.029 100.789 487.029 101.536C487.029 102.283 486.762 102.912 486.229 103.424C485.717 103.915 485.066 104.16 484.277 104.16ZM486.485 106.272V124H482.005V106.272H486.485ZM489.759 115.136C489.759 113.301 490.132 111.701 490.879 110.336C491.626 108.949 492.66 107.883 493.983 107.136C495.306 106.368 496.82 105.984 498.527 105.984C500.724 105.984 502.538 106.539 503.967 107.648C505.418 108.736 506.388 110.272 506.879 112.256H502.047C501.791 111.488 501.354 110.891 500.735 110.464C500.138 110.016 499.391 109.792 498.495 109.792C497.215 109.792 496.202 110.261 495.455 111.2C494.708 112.117 494.335 113.429 494.335 115.136C494.335 116.821 494.708 118.133 495.455 119.072C496.202 119.989 497.215 120.448 498.495 120.448C500.308 120.448 501.492 119.637 502.047 118.016H506.879C506.388 119.936 505.418 121.461 503.967 122.592C502.516 123.723 500.703 124.288 498.527 124.288C496.82 124.288 495.306 123.915 493.983 123.168C492.66 122.4 491.626 121.333 490.879 119.968C490.132 118.581 489.759 116.971 489.759 115.136ZM526.641 114.752C526.641 115.392 526.598 115.968 526.513 116.48H513.553C513.66 117.76 514.108 118.763 514.897 119.488C515.686 120.213 516.657 120.576 517.809 120.576C519.473 120.576 520.657 119.861 521.361 118.432H526.193C525.681 120.139 524.7 121.547 523.249 122.656C521.798 123.744 520.017 124.288 517.905 124.288C516.198 124.288 514.662 123.915 513.297 123.168C511.953 122.4 510.897 121.323 510.129 119.936C509.382 118.549 509.009 116.949 509.009 115.136C509.009 113.301 509.382 111.691 510.129 110.304C510.876 108.917 511.921 107.851 513.265 107.104C514.609 106.357 516.156 105.984 517.905 105.984C519.59 105.984 521.094 106.347 522.417 107.072C523.761 107.797 524.796 108.832 525.521 110.176C526.268 111.499 526.641 113.024 526.641 114.752ZM522.001 113.472C521.98 112.32 521.564 111.403 520.753 110.72C519.942 110.016 518.95 109.664 517.777 109.664C516.668 109.664 515.729 110.005 514.961 110.688C514.214 111.349 513.756 112.277 513.585 113.472H522.001Z" fill="white"/>
<rect x="74" y="162" width="626" height="151" rx="8" fill="#4C5CE5"/>
<path d="M324.553 184.06V185.54H318.493V190.24H323.413V191.72H318.493V198H316.673V184.06H324.553ZM328.571 188.82C328.891 188.193 329.344 187.707 329.931 187.36C330.531 187.013 331.258 186.84 332.111 186.84V188.72H331.631C329.591 188.72 328.571 189.827 328.571 192.04V198H326.751V187.04H328.571V188.82ZM338.992 198.18C337.965 198.18 337.032 197.947 336.192 197.48C335.365 197.013 334.712 196.353 334.232 195.5C333.765 194.633 333.532 193.633 333.532 192.5C333.532 191.38 333.772 190.393 334.252 189.54C334.745 188.673 335.412 188.013 336.252 187.56C337.092 187.093 338.032 186.86 339.072 186.86C340.112 186.86 341.052 187.093 341.892 187.56C342.732 188.013 343.392 188.667 343.872 189.52C344.365 190.373 344.612 191.367 344.612 192.5C344.612 193.633 344.359 194.633 343.852 195.5C343.359 196.353 342.685 197.013 341.832 197.48C340.979 197.947 340.032 198.18 338.992 198.18ZM338.992 196.58C339.645 196.58 340.259 196.427 340.832 196.12C341.405 195.813 341.865 195.353 342.212 194.74C342.572 194.127 342.752 193.38 342.752 192.5C342.752 191.62 342.579 190.873 342.232 190.26C341.885 189.647 341.432 189.193 340.872 188.9C340.312 188.593 339.705 188.44 339.052 188.44C338.385 188.44 337.772 188.593 337.212 188.9C336.665 189.193 336.225 189.647 335.892 190.26C335.559 190.873 335.392 191.62 335.392 192.5C335.392 193.393 335.552 194.147 335.872 194.76C336.205 195.373 336.645 195.833 337.192 196.14C337.739 196.433 338.339 196.58 338.992 196.58ZM352.345 186.84C353.678 186.84 354.758 187.247 355.585 188.06C356.412 188.86 356.825 190.02 356.825 191.54V198H355.025V191.8C355.025 190.707 354.752 189.873 354.205 189.3C353.658 188.713 352.912 188.42 351.965 188.42C351.005 188.42 350.238 188.72 349.665 189.32C349.105 189.92 348.825 190.793 348.825 191.94V198H347.005V187.04H348.825V188.6C349.185 188.04 349.672 187.607 350.285 187.3C350.912 186.993 351.598 186.84 352.345 186.84ZM362.018 188.54V195C362.018 195.533 362.131 195.913 362.358 196.14C362.584 196.353 362.978 196.46 363.538 196.46H364.878V198H363.238C362.224 198 361.464 197.767 360.958 197.3C360.451 196.833 360.198 196.067 360.198 195V188.54H358.778V187.04H360.198V184.28H362.018V187.04H364.878V188.54H362.018ZM377.083 192.1C377.083 192.447 377.063 192.813 377.023 193.2H368.263C368.33 194.28 368.696 195.127 369.363 195.74C370.043 196.34 370.863 196.64 371.823 196.64C372.61 196.64 373.263 196.46 373.783 196.1C374.316 195.727 374.69 195.233 374.903 194.62H376.863C376.57 195.673 375.983 196.533 375.103 197.2C374.223 197.853 373.13 198.18 371.823 198.18C370.783 198.18 369.85 197.947 369.023 197.48C368.21 197.013 367.57 196.353 367.103 195.5C366.636 194.633 366.403 193.633 366.403 192.5C366.403 191.367 366.63 190.373 367.083 189.52C367.536 188.667 368.17 188.013 368.983 187.56C369.81 187.093 370.756 186.86 371.823 186.86C372.863 186.86 373.783 187.087 374.583 187.54C375.383 187.993 375.996 188.62 376.423 189.42C376.863 190.207 377.083 191.1 377.083 192.1ZM375.203 191.72C375.203 191.027 375.05 190.433 374.743 189.94C374.436 189.433 374.016 189.053 373.483 188.8C372.963 188.533 372.383 188.4 371.743 188.4C370.823 188.4 370.036 188.693 369.383 189.28C368.743 189.867 368.376 190.68 368.283 191.72H375.203ZM384.825 186.84C386.159 186.84 387.239 187.247 388.065 188.06C388.892 188.86 389.305 190.02 389.305 191.54V198H387.505V191.8C387.505 190.707 387.232 189.873 386.685 189.3C386.139 188.713 385.392 188.42 384.445 188.42C383.485 188.42 382.719 188.72 382.145 189.32C381.585 189.92 381.305 190.793 381.305 191.94V198H379.485V187.04H381.305V188.6C381.665 188.04 382.152 187.607 382.765 187.3C383.392 186.993 384.079 186.84 384.825 186.84ZM391.598 192.48C391.598 191.36 391.825 190.38 392.278 189.54C392.732 188.687 393.352 188.027 394.138 187.56C394.938 187.093 395.832 186.86 396.818 186.86C397.672 186.86 398.465 187.06 399.198 187.46C399.932 187.847 400.492 188.36 400.878 189V183.2H402.718V198H400.878V195.94C400.518 196.593 399.985 197.133 399.278 197.56C398.572 197.973 397.745 198.18 396.798 198.18C395.825 198.18 394.938 197.94 394.138 197.46C393.352 196.98 392.732 196.307 392.278 195.44C391.825 194.573 391.598 193.587 391.598 192.48ZM400.878 192.5C400.878 191.673 400.712 190.953 400.378 190.34C400.045 189.727 399.592 189.26 399.018 188.94C398.458 188.607 397.838 188.44 397.158 188.44C396.478 188.44 395.858 188.6 395.298 188.92C394.738 189.24 394.292 189.707 393.958 190.32C393.625 190.933 393.458 191.653 393.458 192.48C393.458 193.32 393.625 194.053 393.958 194.68C394.292 195.293 394.738 195.767 395.298 196.1C395.858 196.42 396.478 196.58 397.158 196.58C397.838 196.58 398.458 196.42 399.018 196.1C399.592 195.767 400.045 195.293 400.378 194.68C400.712 194.053 400.878 193.327 400.878 192.5ZM412.946 196.52H417.826V198H411.126V184.06H412.946V196.52ZM419.079 192.48C419.079 191.36 419.305 190.38 419.759 189.54C420.212 188.687 420.832 188.027 421.619 187.56C422.419 187.093 423.305 186.86 424.279 186.86C425.239 186.86 426.072 187.067 426.779 187.48C427.485 187.893 428.012 188.413 428.359 189.04V187.04H430.199V198H428.359V195.96C427.999 196.6 427.459 197.133 426.739 197.56C426.032 197.973 425.205 198.18 424.259 198.18C423.285 198.18 422.405 197.94 421.619 197.46C420.832 196.98 420.212 196.307 419.759 195.44C419.305 194.573 419.079 193.587 419.079 192.48ZM428.359 192.5C428.359 191.673 428.192 190.953 427.859 190.34C427.525 189.727 427.072 189.26 426.499 188.94C425.939 188.607 425.319 188.44 424.639 188.44C423.959 188.44 423.339 188.6 422.779 188.92C422.219 189.24 421.772 189.707 421.439 190.32C421.105 190.933 420.939 191.653 420.939 192.48C420.939 193.32 421.105 194.053 421.439 194.68C421.772 195.293 422.219 195.767 422.779 196.1C423.339 196.42 423.959 196.58 424.639 196.58C425.319 196.58 425.939 196.42 426.499 196.1C427.072 195.767 427.525 195.293 427.859 194.68C428.192 194.053 428.359 193.327 428.359 192.5ZM442.714 187.04L436.114 203.16H434.234L436.394 197.88L431.974 187.04H433.994L437.434 195.92L440.834 187.04H442.714ZM454.544 192.1C454.544 192.447 454.524 192.813 454.484 193.2H445.724C445.791 194.28 446.157 195.127 446.824 195.74C447.504 196.34 448.324 196.64 449.284 196.64C450.071 196.64 450.724 196.46 451.244 196.1C451.777 195.727 452.151 195.233 452.364 194.62H454.324C454.031 195.673 453.444 196.533 452.564 197.2C451.684 197.853 450.591 198.18 449.284 198.18C448.244 198.18 447.311 197.947 446.484 197.48C445.671 197.013 445.031 196.353 444.564 195.5C444.097 194.633 443.864 193.633 443.864 192.5C443.864 191.367 444.091 190.373 444.544 189.52C444.997 188.667 445.631 188.013 446.444 187.56C447.271 187.093 448.217 186.86 449.284 186.86C450.324 186.86 451.244 187.087 452.044 187.54C452.844 187.993 453.457 188.62 453.884 189.42C454.324 190.207 454.544 191.1 454.544 192.1ZM452.664 191.72C452.664 191.027 452.511 190.433 452.204 189.94C451.897 189.433 451.477 189.053 450.944 188.8C450.424 188.533 449.844 188.4 449.204 188.4C448.284 188.4 447.497 188.693 446.844 189.28C446.204 189.867 445.837 190.68 445.744 191.72H452.664ZM458.766 188.82C459.086 188.193 459.54 187.707 460.126 187.36C460.726 187.013 461.453 186.84 462.306 186.84V188.72H461.826C459.786 188.72 458.766 189.827 458.766 192.04V198H456.946V187.04H458.766V188.82Z" fill="white"/>
<rect x="145" y="217" width="217" height="78" rx="8" fill="#C6CFFF"/>
<path d="M195.44 249.06V250.54H189.38V255.24H194.3V256.72H189.38V263H187.56V249.06H195.44ZM199.458 253.82C199.778 253.193 200.231 252.707 200.818 252.36C201.418 252.013 202.144 251.84 202.998 251.84V253.72H202.518C200.478 253.72 199.458 254.827 199.458 257.04V263H197.638V252.04H199.458V253.82ZM209.879 263.18C208.852 263.18 207.919 262.947 207.079 262.48C206.252 262.013 205.599 261.353 205.119 260.5C204.652 259.633 204.419 258.633 204.419 257.5C204.419 256.38 204.659 255.393 205.139 254.54C205.632 253.673 206.299 253.013 207.139 252.56C207.979 252.093 208.919 251.86 209.959 251.86C210.999 251.86 211.939 252.093 212.779 252.56C213.619 253.013 214.279 253.667 214.759 254.52C215.252 255.373 215.499 256.367 215.499 257.5C215.499 258.633 215.245 259.633 214.739 260.5C214.245 261.353 213.572 262.013 212.719 262.48C211.865 262.947 210.919 263.18 209.879 263.18ZM209.879 261.58C210.532 261.58 211.145 261.427 211.719 261.12C212.292 260.813 212.752 260.353 213.099 259.74C213.459 259.127 213.639 258.38 213.639 257.5C213.639 256.62 213.465 255.873 213.119 255.26C212.772 254.647 212.319 254.193 211.759 253.9C211.199 253.593 210.592 253.44 209.939 253.44C209.272 253.44 208.659 253.593 208.099 253.9C207.552 254.193 207.112 254.647 206.779 255.26C206.445 255.873 206.279 256.62 206.279 257.5C206.279 258.393 206.439 259.147 206.759 259.76C207.092 260.373 207.532 260.833 208.079 261.14C208.625 261.433 209.225 261.58 209.879 261.58ZM223.232 251.84C224.565 251.84 225.645 252.247 226.472 253.06C227.298 253.86 227.712 255.02 227.712 256.54V263H225.912V256.8C225.912 255.707 225.638 254.873 225.092 254.3C224.545 253.713 223.798 253.42 222.852 253.42C221.892 253.42 221.125 253.72 220.552 254.32C219.992 254.92 219.712 255.793 219.712 256.94V263H217.892V252.04H219.712V253.6C220.072 253.04 220.558 252.607 221.172 252.3C221.798 251.993 222.485 251.84 223.232 251.84ZM232.905 253.54V260C232.905 260.533 233.018 260.913 233.245 261.14C233.471 261.353 233.865 261.46 234.425 261.46H235.765V263H234.125C233.111 263 232.351 262.767 231.845 262.3C231.338 261.833 231.085 261.067 231.085 260V253.54H229.665V252.04H231.085V249.28H232.905V252.04H235.765V253.54H232.905ZM247.97 257.1C247.97 257.447 247.95 257.813 247.91 258.2H239.15C239.216 259.28 239.583 260.127 240.25 260.74C240.93 261.34 241.75 261.64 242.71 261.64C243.496 261.64 244.15 261.46 244.67 261.1C245.203 260.727 245.576 260.233 245.79 259.62H247.75C247.456 260.673 246.87 261.533 245.99 262.2C245.11 262.853 244.016 263.18 242.71 263.18C241.67 263.18 240.736 262.947 239.91 262.48C239.096 262.013 238.456 261.353 237.99 260.5C237.523 259.633 237.29 258.633 237.29 257.5C237.29 256.367 237.516 255.373 237.97 254.52C238.423 253.667 239.056 253.013 239.87 252.56C240.696 252.093 241.643 251.86 242.71 251.86C243.75 251.86 244.67 252.087 245.47 252.54C246.27 252.993 246.883 253.62 247.31 254.42C247.75 255.207 247.97 256.1 247.97 257.1ZM246.09 256.72C246.09 256.027 245.936 255.433 245.63 254.94C245.323 254.433 244.903 254.053 244.37 253.8C243.85 253.533 243.27 253.4 242.63 253.4C241.71 253.4 240.923 253.693 240.27 254.28C239.63 254.867 239.263 255.68 239.17 256.72H246.09ZM255.712 251.84C257.045 251.84 258.125 252.247 258.952 253.06C259.779 253.86 260.192 255.02 260.192 256.54V263H258.392V256.8C258.392 255.707 258.119 254.873 257.572 254.3C257.025 253.713 256.279 253.42 255.332 253.42C254.372 253.42 253.605 253.72 253.032 254.32C252.472 254.92 252.192 255.793 252.192 256.94V263H250.372V252.04H252.192V253.6C252.552 253.04 253.039 252.607 253.652 252.3C254.279 251.993 254.965 251.84 255.712 251.84ZM262.485 257.48C262.485 256.36 262.712 255.38 263.165 254.54C263.618 253.687 264.238 253.027 265.025 252.56C265.825 252.093 266.718 251.86 267.705 251.86C268.558 251.86 269.352 252.06 270.085 252.46C270.818 252.847 271.378 253.36 271.765 254V248.2H273.605V263H271.765V260.94C271.405 261.593 270.872 262.133 270.165 262.56C269.458 262.973 268.632 263.18 267.685 263.18C266.712 263.18 265.825 262.94 265.025 262.46C264.238 261.98 263.618 261.307 263.165 260.44C262.712 259.573 262.485 258.587 262.485 257.48ZM271.765 257.5C271.765 256.673 271.598 255.953 271.265 255.34C270.932 254.727 270.478 254.26 269.905 253.94C269.345 253.607 268.725 253.44 268.045 253.44C267.365 253.44 266.745 253.6 266.185 253.92C265.625 254.24 265.178 254.707 264.845 255.32C264.512 255.933 264.345 256.653 264.345 257.48C264.345 258.32 264.512 259.053 264.845 259.68C265.178 260.293 265.625 260.767 266.185 261.1C266.745 261.42 267.365 261.58 268.045 261.58C268.725 261.58 269.345 261.42 269.905 261.1C270.478 260.767 270.932 260.293 271.265 259.68C271.598 259.053 271.765 258.327 271.765 257.5ZM290.253 259.9H284.173L283.053 263H281.133L286.173 249.14H288.273L293.293 263H291.373L290.253 259.9ZM289.733 258.42L287.213 251.38L284.693 258.42H289.733ZM297.309 254.06C297.669 253.433 298.203 252.913 298.909 252.5C299.629 252.073 300.463 251.86 301.409 251.86C302.383 251.86 303.263 252.093 304.049 252.56C304.849 253.027 305.476 253.687 305.929 254.54C306.383 255.38 306.609 256.36 306.609 257.48C306.609 258.587 306.383 259.573 305.929 260.44C305.476 261.307 304.849 261.98 304.049 262.46C303.263 262.94 302.383 263.18 301.409 263.18C300.476 263.18 299.649 262.973 298.929 262.56C298.223 262.133 297.683 261.607 297.309 260.98V268.2H295.489V252.04H297.309V254.06ZM304.749 257.48C304.749 256.653 304.583 255.933 304.249 255.32C303.916 254.707 303.463 254.24 302.889 253.92C302.329 253.6 301.709 253.44 301.029 253.44C300.363 253.44 299.743 253.607 299.169 253.94C298.609 254.26 298.156 254.733 297.809 255.36C297.476 255.973 297.309 256.687 297.309 257.5C297.309 258.327 297.476 259.053 297.809 259.68C298.156 260.293 298.609 260.767 299.169 261.1C299.743 261.42 300.363 261.58 301.029 261.58C301.709 261.58 302.329 261.42 302.889 261.1C303.463 260.767 303.916 260.293 304.249 259.68C304.583 259.053 304.749 258.32 304.749 257.48ZM310.825 254.06C311.185 253.433 311.718 252.913 312.425 252.5C313.145 252.073 313.978 251.86 314.925 251.86C315.898 251.86 316.778 252.093 317.565 252.56C318.365 253.027 318.992 253.687 319.445 254.54C319.898 255.38 320.125 256.36 320.125 257.48C320.125 258.587 319.898 259.573 319.445 260.44C318.992 261.307 318.365 261.98 317.565 262.46C316.778 262.94 315.898 263.18 314.925 263.18C313.992 263.18 313.165 262.973 312.445 262.56C311.738 262.133 311.198 261.607 310.825 260.98V268.2H309.005V252.04H310.825V254.06ZM318.265 257.48C318.265 256.653 318.098 255.933 317.765 255.32C317.432 254.707 316.978 254.24 316.405 253.92C315.845 253.6 315.225 253.44 314.545 253.44C313.878 253.44 313.258 253.607 312.685 253.94C312.125 254.26 311.672 254.733 311.325 255.36C310.992 255.973 310.825 256.687 310.825 257.5C310.825 258.327 310.992 259.053 311.325 259.68C311.672 260.293 312.125 260.767 312.685 261.1C313.258 261.42 313.878 261.58 314.545 261.58C315.225 261.58 315.845 261.42 316.405 261.1C316.978 260.767 317.432 260.293 317.765 259.68C318.098 259.053 318.265 258.32 318.265 257.48Z" fill="#001A85"/>
<rect x="412" y="217" width="217" height="78" rx="8" fill="#C6CFFF"/>
<path d="M478.556 249.06V257.88C478.556 259.12 478.856 260.04 479.456 260.64C480.07 261.24 480.916 261.54 481.996 261.54C483.063 261.54 483.896 261.24 484.496 260.64C485.11 260.04 485.416 259.12 485.416 257.88V249.06H487.236V257.86C487.236 259.02 487.003 260 486.536 260.8C486.07 261.587 485.436 262.173 484.636 262.56C483.85 262.947 482.963 263.14 481.976 263.14C480.99 263.14 480.096 262.947 479.296 262.56C478.51 262.173 477.883 261.587 477.416 260.8C476.963 260 476.736 259.02 476.736 257.86V249.06H478.556ZM492.092 249.06V263H490.272V249.06H492.092ZM502.346 261.52H507.226V263H500.526V249.06H502.346V261.52ZM510.099 250.26C509.752 250.26 509.459 250.14 509.219 249.9C508.979 249.66 508.859 249.367 508.859 249.02C508.859 248.673 508.979 248.38 509.219 248.14C509.459 247.9 509.752 247.78 510.099 247.78C510.432 247.78 510.712 247.9 510.939 248.14C511.179 248.38 511.299 248.673 511.299 249.02C511.299 249.367 511.179 249.66 510.939 249.9C510.712 250.14 510.432 250.26 510.099 250.26ZM510.979 252.04V263H509.159V252.04H510.979ZM515.901 254.08C516.274 253.427 516.821 252.893 517.541 252.48C518.261 252.067 519.081 251.86 520.001 251.86C520.988 251.86 521.874 252.093 522.661 252.56C523.448 253.027 524.068 253.687 524.521 254.54C524.974 255.38 525.201 256.36 525.201 257.48C525.201 258.587 524.974 259.573 524.521 260.44C524.068 261.307 523.441 261.98 522.641 262.46C521.854 262.94 520.974 263.18 520.001 263.18C519.054 263.18 518.221 262.973 517.501 262.56C516.794 262.147 516.261 261.62 515.901 260.98V263H514.081V248.2H515.901V254.08ZM523.341 257.48C523.341 256.653 523.174 255.933 522.841 255.32C522.508 254.707 522.054 254.24 521.481 253.92C520.921 253.6 520.301 253.44 519.621 253.44C518.954 253.44 518.334 253.607 517.761 253.94C517.201 254.26 516.748 254.733 516.401 255.36C516.068 255.973 515.901 256.687 515.901 257.5C515.901 258.327 516.068 259.053 516.401 259.68C516.748 260.293 517.201 260.767 517.761 261.1C518.334 261.42 518.954 261.58 519.621 261.58C520.301 261.58 520.921 261.42 521.481 261.1C522.054 260.767 522.508 260.293 522.841 259.68C523.174 259.053 523.341 258.32 523.341 257.48ZM529.417 253.82C529.737 253.193 530.19 252.707 530.777 252.36C531.377 252.013 532.103 251.84 532.957 251.84V253.72H532.477C530.437 253.72 529.417 254.827 529.417 257.04V263H527.597V252.04H529.417V253.82ZM534.378 257.48C534.378 256.36 534.604 255.38 535.058 254.54C535.511 253.687 536.131 253.027 536.918 252.56C537.718 252.093 538.604 251.86 539.578 251.86C540.538 251.86 541.371 252.067 542.078 252.48C542.784 252.893 543.311 253.413 543.658 254.04V252.04H545.498V263H543.658V260.96C543.298 261.6 542.758 262.133 542.038 262.56C541.331 262.973 540.504 263.18 539.558 263.18C538.584 263.18 537.704 262.94 536.918 262.46C536.131 261.98 535.511 261.307 535.058 260.44C534.604 259.573 534.378 258.587 534.378 257.48ZM543.658 257.5C543.658 256.673 543.491 255.953 543.158 255.34C542.824 254.727 542.371 254.26 541.798 253.94C541.238 253.607 540.618 253.44 539.938 253.44C539.258 253.44 538.638 253.6 538.078 253.92C537.518 254.24 537.071 254.707 536.738 255.32C536.404 255.933 536.238 256.653 536.238 257.48C536.238 258.32 536.404 259.053 536.738 259.68C537.071 260.293 537.518 260.767 538.078 261.1C538.638 261.42 539.258 261.58 539.938 261.58C540.618 261.58 541.238 261.42 541.798 261.1C542.371 260.767 542.824 260.293 543.158 259.68C543.491 259.053 543.658 258.327 543.658 257.5ZM550.393 253.82C550.713 253.193 551.167 252.707 551.753 252.36C552.353 252.013 553.08 251.84 553.933 251.84V253.72H553.453C551.413 253.72 550.393 254.827 550.393 257.04V263H548.573V252.04H550.393V253.82ZM565.474 252.04L558.874 268.16H556.994L559.154 262.88L554.734 252.04H556.754L560.194 260.92L563.594 252.04H565.474Z" fill="#001A85"/>
<rect x="74" y="343" width="626" height="77" rx="8" fill="#21D99A"/>
<path d="M271.946 385.9H265.866L264.746 389H262.826L267.866 375.14H269.966L274.986 389H273.066L271.946 385.9ZM271.426 384.42L268.906 377.38L266.386 384.42H271.426ZM286.503 379.14C286.503 380.3 286.103 381.267 285.303 382.04C284.516 382.8 283.309 383.18 281.683 383.18H279.003V389H277.183V375.06H281.683C283.256 375.06 284.449 375.44 285.263 376.2C286.089 376.96 286.503 377.94 286.503 379.14ZM281.683 381.68C282.696 381.68 283.443 381.46 283.923 381.02C284.403 380.58 284.643 379.953 284.643 379.14C284.643 377.42 283.656 376.56 281.683 376.56H279.003V381.68H281.683ZM290.585 375.06V389H288.765V375.06H290.585ZM309.759 375.06V389H307.939V382.68H300.839V389H299.019V375.06H300.839V381.18H307.939V375.06H309.759ZM312.186 383.48C312.186 382.36 312.413 381.38 312.866 380.54C313.32 379.687 313.94 379.027 314.726 378.56C315.526 378.093 316.413 377.86 317.386 377.86C318.346 377.86 319.18 378.067 319.886 378.48C320.593 378.893 321.12 379.413 321.466 380.04V378.04H323.306V389H321.466V386.96C321.106 387.6 320.566 388.133 319.846 388.56C319.14 388.973 318.313 389.18 317.366 389.18C316.393 389.18 315.513 388.94 314.726 388.46C313.94 387.98 313.32 387.307 312.866 386.44C312.413 385.573 312.186 384.587 312.186 383.48ZM321.466 383.5C321.466 382.673 321.3 381.953 320.966 381.34C320.633 380.727 320.18 380.26 319.606 379.94C319.046 379.607 318.426 379.44 317.746 379.44C317.066 379.44 316.446 379.6 315.886 379.92C315.326 380.24 314.88 380.707 314.546 381.32C314.213 381.933 314.046 382.653 314.046 383.48C314.046 384.32 314.213 385.053 314.546 385.68C314.88 386.293 315.326 386.767 315.886 387.1C316.446 387.42 317.066 387.58 317.746 387.58C318.426 387.58 319.046 387.42 319.606 387.1C320.18 386.767 320.633 386.293 320.966 385.68C321.3 385.053 321.466 384.327 321.466 383.5ZM328.202 379.82C328.522 379.193 328.975 378.707 329.562 378.36C330.162 378.013 330.888 377.84 331.742 377.84V379.72H331.262C329.222 379.72 328.202 380.827 328.202 383.04V389H326.382V378.04H328.202V379.82ZM347.023 377.84C347.876 377.84 348.636 378.02 349.303 378.38C349.969 378.727 350.496 379.253 350.883 379.96C351.269 380.667 351.463 381.527 351.463 382.54V389H349.663V382.8C349.663 381.707 349.389 380.873 348.843 380.3C348.309 379.713 347.583 379.42 346.663 379.42C345.716 379.42 344.963 379.727 344.403 380.34C343.843 380.94 343.563 381.813 343.563 382.96V389H341.763V382.8C341.763 381.707 341.489 380.873 340.943 380.3C340.409 379.713 339.683 379.42 338.763 379.42C337.816 379.42 337.063 379.727 336.503 380.34C335.943 380.94 335.663 381.813 335.663 382.96V389H333.843V378.04H335.663V379.62C336.023 379.047 336.503 378.607 337.103 378.3C337.716 377.993 338.389 377.84 339.123 377.84C340.043 377.84 340.856 378.047 341.563 378.46C342.269 378.873 342.796 379.48 343.143 380.28C343.449 379.507 343.956 378.907 344.663 378.48C345.369 378.053 346.156 377.84 347.023 377.84ZM359.228 389.18C358.202 389.18 357.268 388.947 356.428 388.48C355.602 388.013 354.948 387.353 354.468 386.5C354.002 385.633 353.768 384.633 353.768 383.5C353.768 382.38 354.008 381.393 354.488 380.54C354.982 379.673 355.648 379.013 356.488 378.56C357.328 378.093 358.268 377.86 359.308 377.86C360.348 377.86 361.288 378.093 362.128 378.56C362.968 379.013 363.628 379.667 364.108 380.52C364.602 381.373 364.848 382.367 364.848 383.5C364.848 384.633 364.595 385.633 364.088 386.5C363.595 387.353 362.922 388.013 362.068 388.48C361.215 388.947 360.268 389.18 359.228 389.18ZM359.228 387.58C359.882 387.58 360.495 387.427 361.068 387.12C361.642 386.813 362.102 386.353 362.448 385.74C362.808 385.127 362.988 384.38 362.988 383.5C362.988 382.62 362.815 381.873 362.468 381.26C362.122 380.647 361.668 380.193 361.108 379.9C360.548 379.593 359.942 379.44 359.288 379.44C358.622 379.44 358.008 379.593 357.448 379.9C356.902 380.193 356.462 380.647 356.128 381.26C355.795 381.873 355.628 382.62 355.628 383.5C355.628 384.393 355.788 385.147 356.108 385.76C356.442 386.373 356.882 386.833 357.428 387.14C357.975 387.433 358.575 387.58 359.228 387.58ZM372.581 377.84C373.915 377.84 374.995 378.247 375.821 379.06C376.648 379.86 377.061 381.02 377.061 382.54V389H375.261V382.8C375.261 381.707 374.988 380.873 374.441 380.3C373.895 379.713 373.148 379.42 372.201 379.42C371.241 379.42 370.475 379.72 369.901 380.32C369.341 380.92 369.061 381.793 369.061 382.94V389H367.241V378.04H369.061V379.6C369.421 379.04 369.908 378.607 370.521 378.3C371.148 377.993 371.835 377.84 372.581 377.84ZM380.974 376.26C380.627 376.26 380.334 376.14 380.094 375.9C379.854 375.66 379.734 375.367 379.734 375.02C379.734 374.673 379.854 374.38 380.094 374.14C380.334 373.9 380.627 373.78 380.974 373.78C381.307 373.78 381.587 373.9 381.814 374.14C382.054 374.38 382.174 374.673 382.174 375.02C382.174 375.367 382.054 375.66 381.814 375.9C381.587 376.14 381.307 376.26 380.974 376.26ZM381.854 378.04V389H380.034V378.04H381.854ZM386.316 387.5H391.696V389H384.236V387.5L389.556 379.52H384.276V378.04H391.656V379.52L386.316 387.5ZM393.378 383.48C393.378 382.36 393.604 381.38 394.058 380.54C394.511 379.687 395.131 379.027 395.918 378.56C396.718 378.093 397.604 377.86 398.578 377.86C399.538 377.86 400.371 378.067 401.078 378.48C401.784 378.893 402.311 379.413 402.658 380.04V378.04H404.498V389H402.658V386.96C402.298 387.6 401.758 388.133 401.038 388.56C400.331 388.973 399.504 389.18 398.558 389.18C397.584 389.18 396.704 388.94 395.918 388.46C395.131 387.98 394.511 387.307 394.058 386.44C393.604 385.573 393.378 384.587 393.378 383.48ZM402.658 383.5C402.658 382.673 402.491 381.953 402.158 381.34C401.824 380.727 401.371 380.26 400.798 379.94C400.238 379.607 399.618 379.44 398.938 379.44C398.258 379.44 397.638 379.6 397.078 379.92C396.518 380.24 396.071 380.707 395.738 381.32C395.404 381.933 395.238 382.653 395.238 383.48C395.238 384.32 395.404 385.053 395.738 385.68C396.071 386.293 396.518 386.767 397.078 387.1C397.638 387.42 398.258 387.58 398.938 387.58C399.618 387.58 400.238 387.42 400.798 387.1C401.371 386.767 401.824 386.293 402.158 385.68C402.491 385.053 402.658 384.327 402.658 383.5ZM409.793 379.54V386C409.793 386.533 409.907 386.913 410.133 387.14C410.36 387.353 410.753 387.46 411.313 387.46H412.653V389H411.013C410 389 409.24 388.767 408.733 388.3C408.227 387.833 407.973 387.067 407.973 386V379.54H406.553V378.04H407.973V375.28H409.793V378.04H412.653V379.54H409.793ZM415.798 376.26C415.452 376.26 415.158 376.14 414.918 375.9C414.678 375.66 414.558 375.367 414.558 375.02C414.558 374.673 414.678 374.38 414.918 374.14C415.158 373.9 415.452 373.78 415.798 373.78C416.132 373.78 416.412 373.9 416.638 374.14C416.878 374.38 416.998 374.673 416.998 375.02C416.998 375.367 416.878 375.66 416.638 375.9C416.412 376.14 416.132 376.26 415.798 376.26ZM416.678 378.04V389H414.858V378.04H416.678ZM424.56 389.18C423.534 389.18 422.6 388.947 421.76 388.48C420.934 388.013 420.28 387.353 419.8 386.5C419.334 385.633 419.1 384.633 419.1 383.5C419.1 382.38 419.34 381.393 419.82 380.54C420.314 379.673 420.98 379.013 421.82 378.56C422.66 378.093 423.6 377.86 424.64 377.86C425.68 377.86 426.62 378.093 427.46 378.56C428.3 379.013 428.96 379.667 429.44 380.52C429.934 381.373 430.18 382.367 430.18 383.5C430.18 384.633 429.927 385.633 429.42 386.5C428.927 387.353 428.254 388.013 427.4 388.48C426.547 388.947 425.6 389.18 424.56 389.18ZM424.56 387.58C425.214 387.58 425.827 387.427 426.4 387.12C426.974 386.813 427.434 386.353 427.78 385.74C428.14 385.127 428.32 384.38 428.32 383.5C428.32 382.62 428.147 381.873 427.8 381.26C427.454 380.647 427 380.193 426.44 379.9C425.88 379.593 425.274 379.44 424.62 379.44C423.954 379.44 423.34 379.593 422.78 379.9C422.234 380.193 421.794 380.647 421.46 381.26C421.127 381.873 420.96 382.62 420.96 383.5C420.96 384.393 421.12 385.147 421.44 385.76C421.774 386.373 422.214 386.833 422.76 387.14C423.307 387.433 423.907 387.58 424.56 387.58ZM437.913 377.84C439.247 377.84 440.327 378.247 441.153 379.06C441.98 379.86 442.393 381.02 442.393 382.54V389H440.593V382.8C440.593 381.707 440.32 380.873 439.773 380.3C439.227 379.713 438.48 379.42 437.533 379.42C436.573 379.42 435.807 379.72 435.233 380.32C434.673 380.92 434.393 381.793 434.393 382.94V389H432.573V378.04H434.393V379.6C434.753 379.04 435.24 378.607 435.853 378.3C436.48 377.993 437.167 377.84 437.913 377.84ZM455.118 389.14C454.198 389.14 453.372 388.98 452.638 388.66C451.918 388.327 451.352 387.873 450.938 387.3C450.525 386.713 450.312 386.04 450.298 385.28H452.238C452.305 385.933 452.572 386.487 453.038 386.94C453.518 387.38 454.212 387.6 455.118 387.6C455.985 387.6 456.665 387.387 457.158 386.96C457.665 386.52 457.918 385.96 457.918 385.28C457.918 384.747 457.772 384.313 457.478 383.98C457.185 383.647 456.818 383.393 456.378 383.22C455.938 383.047 455.345 382.86 454.598 382.66C453.678 382.42 452.938 382.18 452.378 381.94C451.832 381.7 451.358 381.327 450.958 380.82C450.572 380.3 450.378 379.607 450.378 378.74C450.378 377.98 450.572 377.307 450.958 376.72C451.345 376.133 451.885 375.68 452.578 375.36C453.285 375.04 454.092 374.88 454.998 374.88C456.305 374.88 457.372 375.207 458.198 375.86C459.038 376.513 459.512 377.38 459.618 378.46H457.618C457.552 377.927 457.272 377.46 456.778 377.06C456.285 376.647 455.632 376.44 454.818 376.44C454.058 376.44 453.438 376.64 452.958 377.04C452.478 377.427 452.238 377.973 452.238 378.68C452.238 379.187 452.378 379.6 452.658 379.92C452.952 380.24 453.305 380.487 453.718 380.66C454.145 380.82 454.738 381.007 455.498 381.22C456.418 381.473 457.158 381.727 457.718 381.98C458.278 382.22 458.758 382.6 459.158 383.12C459.558 383.627 459.758 384.32 459.758 385.2C459.758 385.88 459.578 386.52 459.218 387.12C458.858 387.72 458.325 388.207 457.618 388.58C456.912 388.953 456.078 389.14 455.118 389.14ZM472.436 383.1C472.436 383.447 472.416 383.813 472.376 384.2H463.616C463.683 385.28 464.05 386.127 464.716 386.74C465.396 387.34 466.216 387.64 467.176 387.64C467.963 387.64 468.616 387.46 469.136 387.1C469.67 386.727 470.043 386.233 470.256 385.62H472.216C471.923 386.673 471.336 387.533 470.456 388.2C469.576 388.853 468.483 389.18 467.176 389.18C466.136 389.18 465.203 388.947 464.376 388.48C463.563 388.013 462.923 387.353 462.456 386.5C461.99 385.633 461.756 384.633 461.756 383.5C461.756 382.367 461.983 381.373 462.436 380.52C462.89 379.667 463.523 379.013 464.336 378.56C465.163 378.093 466.11 377.86 467.176 377.86C468.216 377.86 469.136 378.087 469.936 378.54C470.736 378.993 471.35 379.62 471.776 380.42C472.216 381.207 472.436 382.1 472.436 383.1ZM470.556 382.72C470.556 382.027 470.403 381.433 470.096 380.94C469.79 380.433 469.37 380.053 468.836 379.8C468.316 379.533 467.736 379.4 467.096 379.4C466.176 379.4 465.39 379.693 464.736 380.28C464.096 380.867 463.73 381.68 463.636 382.72H470.556ZM476.659 379.82C476.979 379.193 477.432 378.707 478.019 378.36C478.619 378.013 479.345 377.84 480.199 377.84V379.72H479.719C477.679 379.72 476.659 380.827 476.659 383.04V389H474.839V378.04H476.659V379.82ZM486.38 387.32L489.78 378.04H491.72L487.42 389H485.3L481 378.04H482.96L486.38 387.32ZM503.511 383.1C503.511 383.447 503.491 383.813 503.451 384.2H494.691C494.757 385.28 495.124 386.127 495.791 386.74C496.471 387.34 497.291 387.64 498.251 387.64C499.037 387.64 499.691 387.46 500.211 387.1C500.744 386.727 501.117 386.233 501.331 385.62H503.291C502.997 386.673 502.411 387.533 501.531 388.2C500.651 388.853 499.557 389.18 498.251 389.18C497.211 389.18 496.277 388.947 495.451 388.48C494.637 388.013 493.997 387.353 493.531 386.5C493.064 385.633 492.831 384.633 492.831 383.5C492.831 382.367 493.057 381.373 493.511 380.52C493.964 379.667 494.597 379.013 495.411 378.56C496.237 378.093 497.184 377.86 498.251 377.86C499.291 377.86 500.211 378.087 501.011 378.54C501.811 378.993 502.424 379.62 502.851 380.42C503.291 381.207 503.511 382.1 503.511 383.1ZM501.631 382.72C501.631 382.027 501.477 381.433 501.171 380.94C500.864 380.433 500.444 380.053 499.911 379.8C499.391 379.533 498.811 379.4 498.171 379.4C497.251 379.4 496.464 379.693 495.811 380.28C495.171 380.867 494.804 381.68 494.711 382.72H501.631ZM507.733 379.82C508.053 379.193 508.506 378.707 509.093 378.36C509.693 378.013 510.42 377.84 511.273 377.84V379.72H510.793C508.753 379.72 507.733 380.827 507.733 383.04V389H505.913V378.04H507.733V379.82Z" fill="#001A85"/>
<rect x="126" y="521" width="100" height="80" rx="8" fill="#4C5CE5"/>
<path d="M154.653 561.02C154.653 559.66 154.96 558.44 155.573 557.36C156.186 556.267 157.02 555.413 158.073 554.8C159.14 554.187 160.32 553.88 161.613 553.88C163.133 553.88 164.46 554.247 165.593 554.98C166.726 555.713 167.553 556.753 168.073 558.1H165.893C165.506 557.26 164.946 556.613 164.213 556.16C163.493 555.707 162.626 555.48 161.613 555.48C160.64 555.48 159.766 555.707 158.993 556.16C158.22 556.613 157.613 557.26 157.173 558.1C156.733 558.927 156.513 559.9 156.513 561.02C156.513 562.127 156.733 563.1 157.173 563.94C157.613 564.767 158.22 565.407 158.993 565.86C159.766 566.313 160.64 566.54 161.613 566.54C162.626 566.54 163.493 566.32 164.213 565.88C164.946 565.427 165.506 564.78 165.893 563.94H168.073C167.553 565.273 166.726 566.307 165.593 567.04C164.46 567.76 163.133 568.12 161.613 568.12C160.32 568.12 159.14 567.82 158.073 567.22C157.02 566.607 156.186 565.76 155.573 564.68C154.96 563.6 154.653 562.38 154.653 561.02ZM184.922 554.16V568H183.102V557.68L178.502 568H177.222L172.602 557.66V568H170.782V554.16H172.742L177.862 565.6L182.982 554.16H184.922ZM192.429 568.14C191.509 568.14 190.682 567.98 189.949 567.66C189.229 567.327 188.662 566.873 188.249 566.3C187.835 565.713 187.622 565.04 187.609 564.28H189.549C189.615 564.933 189.882 565.487 190.349 565.94C190.829 566.38 191.522 566.6 192.429 566.6C193.295 566.6 193.975 566.387 194.469 565.96C194.975 565.52 195.229 564.96 195.229 564.28C195.229 563.747 195.082 563.313 194.789 562.98C194.495 562.647 194.129 562.393 193.689 562.22C193.249 562.047 192.655 561.86 191.909 561.66C190.989 561.42 190.249 561.18 189.689 560.94C189.142 560.7 188.669 560.327 188.269 559.82C187.882 559.3 187.689 558.607 187.689 557.74C187.689 556.98 187.882 556.307 188.269 555.72C188.655 555.133 189.195 554.68 189.889 554.36C190.595 554.04 191.402 553.88 192.309 553.88C193.615 553.88 194.682 554.207 195.509 554.86C196.349 555.513 196.822 556.38 196.929 557.46H194.929C194.862 556.927 194.582 556.46 194.089 556.06C193.595 555.647 192.942 555.44 192.129 555.44C191.369 555.44 190.749 555.64 190.269 556.04C189.789 556.427 189.549 556.973 189.549 557.68C189.549 558.187 189.689 558.6 189.969 558.92C190.262 559.24 190.615 559.487 191.029 559.66C191.455 559.82 192.049 560.007 192.809 560.22C193.729 560.473 194.469 560.727 195.029 560.98C195.589 561.22 196.069 561.6 196.469 562.12C196.869 562.627 197.069 563.32 197.069 564.2C197.069 564.88 196.889 565.52 196.529 566.12C196.169 566.72 195.635 567.207 194.929 567.58C194.222 567.953 193.389 568.14 192.429 568.14Z" fill="white"/>
<rect x="267" y="521" width="100" height="80" rx="8" fill="#4C5CE5"/>
<path d="M302.548 554.06V568H300.728V554.06H302.548ZM313.889 564.9H307.809L306.689 568H304.769L309.809 554.14H311.909L316.929 568H315.009L313.889 564.9ZM313.369 563.42L310.849 556.38L308.329 563.42H313.369ZM333.266 554.16V568H331.446V557.68L326.846 568H325.566L320.946 557.66V568H319.126V554.16H321.086L326.206 565.6L331.326 554.16H333.266Z" fill="white"/>
<rect x="408" y="521" width="100" height="80" rx="8" fill="#4C5CE5"/>
<path d="M428.931 568.14C428.011 568.14 427.184 567.98 426.451 567.66C425.731 567.327 425.164 566.873 424.751 566.3C424.337 565.713 424.124 565.04 424.111 564.28H426.051C426.117 564.933 426.384 565.487 426.851 565.94C427.331 566.38 428.024 566.6 428.931 566.6C429.797 566.6 430.477 566.387 430.971 565.96C431.477 565.52 431.731 564.96 431.731 564.28C431.731 563.747 431.584 563.313 431.291 562.98C430.997 562.647 430.631 562.393 430.191 562.22C429.751 562.047 429.157 561.86 428.411 561.66C427.491 561.42 426.751 561.18 426.191 560.94C425.644 560.7 425.171 560.327 424.771 559.82C424.384 559.3 424.191 558.607 424.191 557.74C424.191 556.98 424.384 556.307 424.771 555.72C425.157 555.133 425.697 554.68 426.391 554.36C427.097 554.04 427.904 553.88 428.811 553.88C430.117 553.88 431.184 554.207 432.011 554.86C432.851 555.513 433.324 556.38 433.431 557.46H431.431C431.364 556.927 431.084 556.46 430.591 556.06C430.097 555.647 429.444 555.44 428.631 555.44C427.871 555.44 427.251 555.64 426.771 556.04C426.291 556.427 426.051 556.973 426.051 557.68C426.051 558.187 426.191 558.6 426.471 558.92C426.764 559.24 427.117 559.487 427.531 559.66C427.957 559.82 428.551 560.007 429.311 560.22C430.231 560.473 430.971 560.727 431.531 560.98C432.091 561.22 432.571 561.6 432.971 562.12C433.371 562.627 433.571 563.32 433.571 564.2C433.571 564.88 433.391 565.52 433.031 566.12C432.671 566.72 432.137 567.207 431.431 567.58C430.724 567.953 429.891 568.14 428.931 568.14ZM446.249 562.1C446.249 562.447 446.229 562.813 446.189 563.2H437.429C437.496 564.28 437.862 565.127 438.529 565.74C439.209 566.34 440.029 566.64 440.989 566.64C441.776 566.64 442.429 566.46 442.949 566.1C443.482 565.727 443.856 565.233 444.069 564.62H446.029C445.736 565.673 445.149 566.533 444.269 567.2C443.389 567.853 442.296 568.18 440.989 568.18C439.949 568.18 439.016 567.947 438.189 567.48C437.376 567.013 436.736 566.353 436.269 565.5C435.802 564.633 435.569 563.633 435.569 562.5C435.569 561.367 435.796 560.373 436.249 559.52C436.702 558.667 437.336 558.013 438.149 557.56C438.976 557.093 439.922 556.86 440.989 556.86C442.029 556.86 442.949 557.087 443.749 557.54C444.549 557.993 445.162 558.62 445.589 559.42C446.029 560.207 446.249 561.1 446.249 562.1ZM444.369 561.72C444.369 561.027 444.216 560.433 443.909 559.94C443.602 559.433 443.182 559.053 442.649 558.8C442.129 558.533 441.549 558.4 440.909 558.4C439.989 558.4 439.202 558.693 438.549 559.28C437.909 559.867 437.542 560.68 437.449 561.72H444.369ZM447.971 562.48C447.971 561.36 448.198 560.38 448.651 559.54C449.105 558.687 449.725 558.027 450.511 557.56C451.311 557.093 452.198 556.86 453.171 556.86C454.131 556.86 454.965 557.067 455.671 557.48C456.378 557.893 456.905 558.413 457.251 559.04V557.04H459.091V568H457.251V565.96C456.891 566.6 456.351 567.133 455.631 567.56C454.925 567.973 454.098 568.18 453.151 568.18C452.178 568.18 451.298 567.94 450.511 567.46C449.725 566.98 449.105 566.307 448.651 565.44C448.198 564.573 447.971 563.587 447.971 562.48ZM457.251 562.5C457.251 561.673 457.085 560.953 456.751 560.34C456.418 559.727 455.965 559.26 455.391 558.94C454.831 558.607 454.211 558.44 453.531 558.44C452.851 558.44 452.231 558.6 451.671 558.92C451.111 559.24 450.665 559.707 450.331 560.32C449.998 560.933 449.831 561.653 449.831 562.48C449.831 563.32 449.998 564.053 450.331 564.68C450.665 565.293 451.111 565.767 451.671 566.1C452.231 566.42 452.851 566.58 453.531 566.58C454.211 566.58 454.831 566.42 455.391 566.1C455.965 565.767 456.418 565.293 456.751 564.68C457.085 564.053 457.251 563.327 457.251 562.5ZM463.987 558.82C464.307 558.193 464.76 557.707 465.347 557.36C465.947 557.013 466.674 556.84 467.527 556.84V558.72H467.047C465.007 558.72 463.987 559.827 463.987 562.04V568H462.167V557.04H463.987V558.82ZM468.948 562.5C468.948 561.367 469.175 560.38 469.628 559.54C470.081 558.687 470.708 558.027 471.508 557.56C472.321 557.093 473.248 556.86 474.288 556.86C475.635 556.86 476.741 557.187 477.608 557.84C478.488 558.493 479.068 559.4 479.348 560.56H477.388C477.201 559.893 476.835 559.367 476.288 558.98C475.755 558.593 475.088 558.4 474.288 558.4C473.248 558.4 472.408 558.76 471.768 559.48C471.128 560.187 470.808 561.193 470.808 562.5C470.808 563.82 471.128 564.84 471.768 565.56C472.408 566.28 473.248 566.64 474.288 566.64C475.088 566.64 475.755 566.453 476.288 566.08C476.821 565.707 477.188 565.173 477.388 564.48H479.348C479.055 565.6 478.468 566.5 477.588 567.18C476.708 567.847 475.608 568.18 474.288 568.18C473.248 568.18 472.321 567.947 471.508 567.48C470.708 567.013 470.081 566.353 469.628 565.5C469.175 564.647 468.948 563.647 468.948 562.5ZM487.216 556.84C488.043 556.84 488.79 557.02 489.456 557.38C490.123 557.727 490.643 558.253 491.016 558.96C491.403 559.667 491.596 560.527 491.596 561.54V568H489.796V561.8C489.796 560.707 489.523 559.873 488.976 559.3C488.43 558.713 487.683 558.42 486.736 558.42C485.776 558.42 485.01 558.72 484.436 559.32C483.876 559.92 483.596 560.793 483.596 561.94V568H481.776V553.2H483.596V558.6C483.956 558.04 484.45 557.607 485.076 557.3C485.716 556.993 486.43 556.84 487.216 556.84Z" fill="white"/>
<rect x="549" y="521" width="100" height="80" rx="8" fill="#4C5CE5"/>
<path d="M577.438 561.02C577.438 559.66 577.745 558.44 578.358 557.36C578.971 556.267 579.805 555.413 580.858 554.8C581.925 554.187 583.105 553.88 584.398 553.88C585.918 553.88 587.245 554.247 588.378 554.98C589.511 555.713 590.338 556.753 590.858 558.1H588.678C588.291 557.26 587.731 556.613 586.998 556.16C586.278 555.707 585.411 555.48 584.398 555.48C583.425 555.48 582.551 555.707 581.778 556.16C581.005 556.613 580.398 557.26 579.958 558.1C579.518 558.927 579.298 559.9 579.298 561.02C579.298 562.127 579.518 563.1 579.958 563.94C580.398 564.767 581.005 565.407 581.778 565.86C582.551 566.313 583.425 566.54 584.398 566.54C585.411 566.54 586.278 566.32 586.998 565.88C587.731 565.427 588.291 564.78 588.678 563.94H590.858C590.338 565.273 589.511 566.307 588.378 567.04C587.245 567.76 585.918 568.12 584.398 568.12C583.105 568.12 581.925 567.82 580.858 567.22C579.805 566.607 578.971 565.76 578.358 564.68C577.745 563.6 577.438 562.38 577.438 561.02ZM600.907 568L597.587 562.3H595.387V568H593.567V554.06H598.067C599.121 554.06 600.007 554.24 600.727 554.6C601.461 554.96 602.007 555.447 602.367 556.06C602.727 556.673 602.907 557.373 602.907 558.16C602.907 559.12 602.627 559.967 602.067 560.7C601.521 561.433 600.694 561.92 599.587 562.16L603.087 568H600.907ZM595.387 560.84H598.067C599.054 560.84 599.794 560.6 600.287 560.12C600.781 559.627 601.027 558.973 601.027 558.16C601.027 557.333 600.781 556.693 600.287 556.24C599.807 555.787 599.067 555.56 598.067 555.56H595.387V560.84ZM619.875 554.16V568H618.055V557.68L613.455 568H612.175L607.555 557.66V568H605.735V554.16H607.695L612.815 565.6L617.935 554.16H619.875Z" fill="white"/>
<path d="M175.293 516.707C175.683 517.098 176.317 517.098 176.707 516.707L183.071 510.343C183.462 509.953 183.462 509.319 183.071 508.929C182.681 508.538 182.047 508.538 181.657 508.929L176 514.586L170.343 508.929C169.953 508.538 169.319 508.538 168.929 508.929C168.538 509.319 168.538 509.953 168.929 510.343L175.293 516.707ZM175 420L175 516L177 516L177 420L175 420Z" fill="url(#paint2_linear_1312_1030)"/>
<path d="M316.293 516.707C316.683 517.098 317.317 517.098 317.707 516.707L324.071 510.343C324.462 509.953 324.462 509.319 324.071 508.929C323.681 508.538 323.047 508.538 322.657 508.929L317 514.586L311.343 508.929C310.953 508.538 310.319 508.538 309.929 508.929C309.538 509.319 309.538 509.953 309.929 510.343L316.293 516.707ZM316 420L316 516L318 516L318 420L316 420Z" fill="url(#paint3_linear_1312_1030)"/>
<path d="M457.293 516.707C457.683 517.098 458.317 517.098 458.707 516.707L465.071 510.343C465.462 509.953 465.462 509.319 465.071 508.929C464.681 508.538 464.047 508.538 463.657 508.929L458 514.586L452.343 508.929C451.953 508.538 451.319 508.538 450.929 508.929C450.538 509.319 450.538 509.953 450.929 510.343L457.293 516.707ZM457 420L457 516L459 516L459 420L457 420Z" fill="url(#paint4_linear_1312_1030)"/>
<path d="M598.293 516.707C598.683 517.098 599.317 517.098 599.707 516.707L606.071 510.343C606.462 509.953 606.462 509.319 606.071 508.929C605.681 508.538 605.047 508.538 604.657 508.929L599 514.586L593.343 508.929C592.953 508.538 592.319 508.538 591.929 508.929C591.538 509.319 591.538 509.953 591.929 510.343L598.293 516.707ZM598 420L598 516L600 516L600 420L598 420Z" fill="url(#paint5_linear_1312_1030)"/>
<circle cx="387.5" cy="41.5" r="41.5" fill="url(#paint6_linear_1312_1030)"/>
<path d="M421.515 41.3749C421.515 28.8863 415.261 17.901 405.844 11.6027L405.882 11.5437C405.626 11.3865 405.381 11.2686 405.126 11.131C399.978 7.87868 393.951 6.00195 387.509 6.00195C368.758 6.00195 353.503 21.8706 353.503 41.3749C353.503 60.8791 368.758 76.7478 387.509 76.7478C388.727 76.7478 389.927 76.679 391.108 76.5513C391.42 76.5218 391.712 76.4825 391.986 76.4334C391.996 76.4334 392.005 76.4334 392.015 76.4334C408.64 74.1341 421.505 59.2972 421.505 41.3847L421.515 41.3749ZM387.509 11.8974C388.246 11.8974 388.973 11.9367 389.691 11.9957C388.576 12.88 387.594 13.9019 386.782 15.0417C382.389 21.2516 381.832 31.8831 390.976 40.5495C399.024 48.1743 402.547 55.75 400.903 61.8814C399.732 66.2342 395.944 69.575 391.061 70.6165C390.843 70.646 390.626 70.6755 390.409 70.7049C388.406 70.8425 384.524 70.1252 382.011 67.5508C379.81 65.2909 379.026 61.96 379.688 57.6464C380.963 49.324 377.827 40.127 369.344 38.6237C365.84 38.0145 362.033 39.1149 359.161 42.0332C359.161 41.817 359.142 41.6009 359.142 41.3749C359.142 25.123 371.857 11.8974 387.481 11.8974H387.509ZM360.748 51.0533C361.919 45.767 365.396 43.9001 368.418 44.4405C371.97 45.0694 375.276 49.1766 374.114 56.713C373.349 61.675 374.143 65.3695 375.456 68.0421C368.607 64.6817 363.261 58.5504 360.748 51.0435V51.0533ZM406.411 63.3061C407.676 58.3932 407.771 48.4691 394.801 36.1869C388.246 29.9769 388.416 22.6862 391.353 18.5397C393.394 15.6509 397.286 13.617 402.216 16.1913C410.387 21.3695 415.847 30.7237 415.847 41.3749C415.847 50.0806 412.201 57.9117 406.411 63.3061Z" fill="white"/>
<path d="M386.293 338.707C386.683 339.098 387.317 339.098 387.707 338.707L394.071 332.343C394.462 331.953 394.462 331.319 394.071 330.929C393.681 330.538 393.047 330.538 392.657 330.929L387 336.586L381.343 330.929C380.953 330.538 380.319 330.538 379.929 330.929C379.538 331.319 379.538 331.953 379.929 332.343L386.293 338.707ZM386 313L386 338L388 338L388 313L386 313Z" fill="#2C3A9B"/>
<path d="M367.293 256.293C366.902 256.683 366.902 257.317 367.293 257.707L373.657 264.071C374.047 264.462 374.681 264.462 375.071 264.071C375.462 263.681 375.462 263.047 375.071 262.657L369.414 257L375.071 251.343C375.462 250.953 375.462 250.319 375.071 249.929C374.681 249.538 374.047 249.538 373.657 249.929L367.293 256.293ZM412 256H368V258H412V256Z" fill="#C6CFFF"/>
<defs>
<linearGradient id="paint0_linear_1312_1030" x1="0" y1="37" x2="166.3" y2="634.998" gradientUnits="userSpaceOnUse">
<stop stop-color="#001A85"/>
<stop offset="0.651042" stop-color="#16182B"/>
</linearGradient>
<linearGradient id="paint1_linear_1312_1030" x1="326.768" y1="-17.4128" x2="639.811" y2="337.284" gradientUnits="userSpaceOnUse">
<stop stop-color="#4C5CE5"/>
<stop offset="0.346406" stop-color="#2563EB"/>
<stop offset="1" stop-color="#34D399"/>
</linearGradient>
<linearGradient id="paint2_linear_1312_1030" x1="176.502" y1="435.092" x2="170.453" y2="435.977" gradientUnits="userSpaceOnUse">
<stop stop-color="#34D399"/>
<stop offset="0.49" stop-color="#2563EB"/>
<stop offset="1" stop-color="#4C5CE5"/>
</linearGradient>
<linearGradient id="paint3_linear_1312_1030" x1="317.502" y1="435.092" x2="311.453" y2="435.977" gradientUnits="userSpaceOnUse">
<stop stop-color="#34D399"/>
<stop offset="0.49" stop-color="#2563EB"/>
<stop offset="1" stop-color="#4C5CE5"/>
</linearGradient>
<linearGradient id="paint4_linear_1312_1030" x1="458.502" y1="435.092" x2="452.453" y2="435.977" gradientUnits="userSpaceOnUse">
<stop stop-color="#34D399"/>
<stop offset="0.49" stop-color="#2563EB"/>
<stop offset="1" stop-color="#4C5CE5"/>
</linearGradient>
<linearGradient id="paint5_linear_1312_1030" x1="599.502" y1="435.092" x2="593.453" y2="435.977" gradientUnits="userSpaceOnUse">
<stop stop-color="#34D399"/>
<stop offset="0.49" stop-color="#2563EB"/>
<stop offset="1" stop-color="#4C5CE5"/>
</linearGradient>
<linearGradient id="paint6_linear_1312_1030" x1="346" y1="0" x2="395.961" y2="99.5767" gradientUnits="userSpaceOnUse">
<stop stop-color="#001A85"/>
<stop offset="0.651042" stop-color="#16182B"/>
</linearGradient>
</defs>
</svg>
