<svg width="20" height="20" viewBox="0 0 20 20" fill="none" xmlns="http://www.w3.org/2000/svg">
	<path d="M16.9313 3.24429C15.6346 2.65834 14.2661 2.24038 12.8601 2.00085C12.8473 1.99874 12.8343 2.00057 12.8226 2.00607C12.811 2.01158 12.8014 2.0205 12.7951 2.0316C12.6188 2.33908 12.4238 2.74126 12.2876 3.05612C10.7721 2.83001 9.23062 2.83001 7.71513 3.05612C7.56379 2.70508 7.39183 2.363 7.20014 2.0316C7.19386 2.0205 7.18424 2.01158 7.1726 2.00607C7.16096 2.00057 7.14787 1.99874 7.13514 2.00085C5.7289 2.23946 4.36017 2.65763 3.06393 3.24429C3.05278 3.24837 3.04348 3.25622 3.03768 3.26643C0.445207 7.07792 -0.266036 10.7959 0.0827103 14.4672C0.0852102 14.4853 0.0939601 14.5004 0.10896 14.5127C1.61891 15.6125 3.30738 16.4526 5.10266 16.9971C5.11533 17.0011 5.12896 17.0009 5.14154 16.9967C5.15413 16.9925 5.16503 16.9845 5.17266 16.9738C5.55849 16.4572 5.89932 15.9124 6.19515 15.3392C6.20129 15.3274 6.2034 15.314 6.20115 15.3009C6.19889 15.2878 6.1924 15.2758 6.18265 15.2667L6.16015 15.2531C5.62185 15.0489 5.10032 14.8043 4.60016 14.5213C4.5862 14.5136 4.57582 14.5008 4.57116 14.4857C4.56651 14.4706 4.56794 14.4543 4.57516 14.4402L4.59391 14.4168C4.69974 14.3389 4.80308 14.259 4.90391 14.177C4.91274 14.17 4.92334 14.1655 4.93457 14.164C4.9458 14.1625 4.95724 14.164 4.96766 14.1684C8.24137 15.6393 11.7851 15.6393 15.0188 14.1684C15.0295 14.1635 15.0415 14.1617 15.0532 14.1632C15.0649 14.1647 15.076 14.1695 15.0851 14.177C15.1859 14.259 15.2892 14.3389 15.395 14.4168C15.4038 14.4227 15.411 14.4308 15.4157 14.4401C15.4205 14.4495 15.4227 14.46 15.4222 14.4704C15.4217 14.4809 15.4185 14.4911 15.4128 14.5C15.4072 14.5089 15.3994 14.5163 15.39 14.5213C14.892 14.8088 14.3697 15.0532 13.8288 15.2519C13.8202 15.255 13.8124 15.2599 13.8059 15.2662C13.7994 15.2726 13.7944 15.2803 13.7913 15.2888C13.7883 15.297 13.787 15.3057 13.7877 15.3144C13.7883 15.3231 13.7908 15.3316 13.7951 15.3392C14.0951 15.9111 14.4388 16.4572 14.8163 16.9738C14.8239 16.9845 14.8348 16.9925 14.8474 16.9967C14.86 17.0009 14.8736 17.0011 14.8863 16.9971C16.6851 16.4556 18.3766 15.6153 19.8875 14.5127C19.895 14.5075 19.9013 14.5007 19.9058 14.4929C19.9103 14.485 19.913 14.4762 19.9138 14.4672C20.3312 10.2228 19.215 6.53553 16.9563 3.26766C16.9543 3.26208 16.951 3.25705 16.9467 3.25298C16.9423 3.24892 16.937 3.24594 16.9313 3.24429ZM6.68389 12.2312C5.69765 12.2312 4.88641 11.3408 4.88641 10.2486C4.88641 9.15647 5.68265 8.26479 6.68389 8.26479C7.69263 8.26479 8.49637 9.16262 8.48137 10.2486C8.48137 11.3408 7.68513 12.2312 6.68389 12.2312ZM13.3288 12.2312C12.3438 12.2312 11.5313 11.3408 11.5313 10.2486C11.5313 9.15647 12.3276 8.26479 13.3288 8.26479C14.3376 8.26479 15.1426 9.16262 15.1263 10.2486C15.1263 11.3408 14.3376 12.2312 13.3288 12.2312Z" stroke="white" stroke-width="2" stroke-linecap="round" stroke-linejoin="round"/>
</svg>
