<svg xmlns="http://www.w3.org/2000/svg" width="20" height="20" viewBox="0 0 20 20" fill="none">
    <path d="M16.6667 5.83341H14.1667C13.7246 5.83341 13.3007 5.65782 12.9882 5.34526C12.6756 5.0327 12.5 4.60878 12.5 4.16675V1.66675M2.5 6.3335V17.0002C2.5 17.3538 2.64048 17.6929 2.89052 17.943C3.14057 18.193 3.47971 18.3335 3.83333 18.3335H12M7.5 15.0001C7.05797 15.0001 6.63405 14.8245 6.32149 14.5119C6.00893 14.1994 5.83333 13.7754 5.83333 13.3334V3.33341C5.83333 2.89139 6.00893 2.46746 6.32149 2.1549C6.63405 1.84234 7.05797 1.66675 7.5 1.66675H13.3333L16.6667 5.00008V13.3334C16.6667 13.7754 16.4911 14.1994 16.1785 14.5119C15.866 14.8245 15.442 15.0001 15 15.0001H7.5Z" stroke="white" stroke-width="2" stroke-linecap="round" stroke-linejoin="round"/>
</svg>
