<svg xmlns="http://www.w3.org/2000/svg" width="20" height="20" viewBox="0 0 20 20" fill="none">
    <path d="M12.5004 18.3334V15.0001C12.6163 13.9562 12.317 12.9085 11.667 12.0834C14.167 12.0834 16.667 10.4167 16.667 7.50008C16.7337 6.45841 16.442 5.43341 15.8337 4.58341C16.067 3.62508 16.067 2.62508 15.8337 1.66675C15.8337 1.66675 15.0004 1.66675 13.3337 2.91675C11.1337 2.50008 8.86702 2.50008 6.66702 2.91675C5.00036 1.66675 4.16702 1.66675 4.16702 1.66675C3.91702 2.62508 3.91702 3.62508 4.16702 4.58341C3.56025 5.42998 3.26575 6.46074 3.33369 7.50008C3.33369 10.4167 5.83369 12.0834 8.33369 12.0834C8.00869 12.4917 7.76702 12.9584 7.62536 13.4584C7.48369 13.9584 7.44202 14.4834 7.50036 15.0001M7.50036 15.0001V18.3334M7.50036 15.0001C3.74202 16.6667 3.33366 13.3334 1.66699 13.3334" stroke="white" stroke-width="2" stroke-linecap="round" stroke-linejoin="round"/>
</svg>
