<svg width="116" height="30" viewBox="0 0 116 30" fill="none" xmlns="http://www.w3.org/2000/svg">
<g clip-path="url(#clip0_939_649)">
<path d="M30.3633 15C30.3633 9.70417 27.6049 5.04583 23.4508 2.375L23.4674 2.35C23.3549 2.28333 23.2466 2.23333 23.1341 2.175C20.8633 0.795833 18.2049 0 15.3633 0C7.09245 0 0.363281 6.72917 0.363281 15C0.363281 23.2708 7.09245 30 15.3633 30C15.9008 30 16.4299 29.9708 16.9508 29.9167C17.0883 29.9042 17.2174 29.8875 17.3383 29.8667C17.3424 29.8667 17.3466 29.8667 17.3508 29.8667C24.6841 28.8917 30.3591 22.6 30.3591 15.0042L30.3633 15ZM15.3633 2.5C15.6883 2.5 16.0091 2.51667 16.3258 2.54167C15.8341 2.91667 15.4008 3.35 15.0424 3.83333C13.1049 6.46667 12.8591 10.975 16.8924 14.65C20.4424 17.8833 21.9966 21.0958 21.2716 23.6958C20.7549 25.5417 19.0841 26.9583 16.9299 27.4C16.8341 27.4125 16.7383 27.425 16.6424 27.4375C15.7591 27.4958 14.0466 27.1917 12.9383 26.1C11.9674 25.1417 11.6216 23.7292 11.9133 21.9C12.4758 18.3708 11.0924 14.4708 7.35078 13.8333C5.80495 13.575 4.12578 14.0417 2.85911 15.2792C2.85911 15.1875 2.85078 15.0958 2.85078 15C2.85078 8.10833 8.45911 2.5 15.3508 2.5H15.3633ZM3.55911 19.1042C4.07578 16.8625 5.60911 16.0708 6.94245 16.3C8.50911 16.5667 9.96745 18.3083 9.45495 21.5042C9.11745 23.6083 9.46745 25.175 10.0466 26.3083C7.02578 24.8833 4.66745 22.2833 3.55911 19.1V19.1042ZM23.7008 24.3C24.2591 22.2167 24.3008 18.0083 18.5799 12.8C15.6883 10.1667 15.7633 7.075 17.0591 5.31667C17.9591 4.09167 19.6758 3.22917 21.8508 4.32083C25.4549 6.51667 27.8633 10.4833 27.8633 15C27.8633 18.6917 26.2549 22.0125 23.7008 24.3Z" fill="white"/>
<path d="M39.6563 10.8583C38.923 10.45 38.3396 9.87913 37.9105 9.1458C37.4771 8.41247 37.2646 7.58747 37.2646 6.6708C37.2646 5.75413 37.4813 4.9333 37.9105 4.20413C38.3396 3.47497 38.923 2.90413 39.6563 2.4958C40.3896 2.08747 41.198 1.8833 42.0771 1.8833C42.9563 1.8833 43.7646 2.08747 44.498 2.4958C45.2313 2.90413 45.8105 3.47497 46.2313 4.20413C46.6521 4.9333 46.8646 5.75413 46.8646 6.6708C46.8646 7.58747 46.6521 8.41247 46.223 9.1458C45.798 9.87913 45.2188 10.45 44.4896 10.8583C43.7605 11.2666 42.9563 11.4708 42.0771 11.4708C41.198 11.4708 40.3896 11.2666 39.6563 10.8583ZM43.873 8.6458C44.323 8.14997 44.548 7.49163 44.548 6.6708C44.548 5.84997 44.323 5.1833 43.873 4.69163C43.423 4.19997 42.8271 3.94997 42.0813 3.94997C41.3355 3.94997 40.723 4.1958 40.273 4.6833C39.823 5.1708 39.598 5.8333 39.598 6.6708C39.598 7.5083 39.823 8.1583 40.273 8.64997C40.723 9.14163 41.323 9.39163 42.0813 9.39163C42.8396 9.39163 43.4271 9.14163 43.873 8.6458Z" fill="white"/>
<path d="M51.3311 4.14994C51.7228 3.93744 52.1811 3.8291 52.7061 3.8291C53.3186 3.8291 53.8727 3.98327 54.3727 4.29577C54.8686 4.60827 55.2644 5.04994 55.5519 5.6291C55.8394 6.20827 55.9853 6.8791 55.9853 7.6416C55.9853 8.4041 55.8394 9.0791 55.5519 9.66244C55.2644 10.2458 54.8686 10.6916 54.3727 11.0083C53.8727 11.3249 53.3186 11.4833 52.7061 11.4833C52.1894 11.4833 51.7353 11.3749 51.3394 11.1624C50.9436 10.9499 50.6353 10.6749 50.4144 10.3374V14.9249H48.1353V3.93743H50.4144V4.9916C50.6353 4.64577 50.9436 4.3666 51.3353 4.14994H51.3311ZM53.1894 6.3041C52.8728 5.9791 52.4852 5.8166 52.0227 5.8166C51.5603 5.8166 51.1853 5.98327 50.8686 6.30827C50.5519 6.63744 50.3936 7.08744 50.3936 7.6541C50.3936 8.22077 50.5519 8.67077 50.8686 8.99994C51.1853 9.3291 51.5686 9.4916 52.0227 9.4916C52.4769 9.4916 52.8644 9.32493 53.1811 8.9916C53.5019 8.65827 53.6603 8.20827 53.6603 7.63743C53.6603 7.0666 53.5019 6.62077 53.1853 6.29577L53.1894 6.3041Z" fill="white"/>
<path d="M64.3476 8.20384H59.1893C59.2226 8.66634 59.3726 9.02051 59.6351 9.26218C59.8976 9.50801 60.2185 9.62884 60.6018 9.62884C61.1726 9.62884 61.5685 9.38718 61.7893 8.90801H64.2143C64.0893 9.39551 63.8643 9.83717 63.5393 10.2288C63.2143 10.6205 62.8101 10.9247 62.3185 11.1497C61.831 11.3705 61.281 11.483 60.6768 11.483C59.9476 11.483 59.2976 11.3288 58.731 11.0163C58.1601 10.7038 57.7185 10.2622 57.3976 9.68301C57.0768 9.10384 56.9185 8.42884 56.9185 7.65801C56.9185 6.88717 57.0768 6.20801 57.3935 5.63301C57.7101 5.05384 58.1518 4.61217 58.7185 4.29967C59.2893 3.98717 59.9393 3.83301 60.6768 3.83301C61.4143 3.83301 62.0351 3.98301 62.5976 4.28717C63.156 4.59134 63.5935 5.02051 63.9101 5.57884C64.2268 6.13718 64.3851 6.79134 64.3851 7.53718C64.3851 7.74968 64.3726 7.97051 64.3435 8.20384H64.3476ZM62.0518 6.93717C62.0518 6.54551 61.9185 6.23717 61.6518 6.00384C61.3851 5.77467 61.0518 5.65801 60.6518 5.65801C60.2518 5.65801 59.9476 5.77051 59.6851 5.99134C59.4226 6.21217 59.2601 6.52884 59.1976 6.93717H62.0518Z" fill="white"/>
<path d="M72.2065 4.70423C72.7274 5.2709 72.9857 6.0459 72.9857 7.02923V11.3751H70.719V7.3334C70.719 6.83757 70.5899 6.45007 70.3315 6.17507C70.0732 5.90007 69.7274 5.76257 69.2899 5.76257C68.8524 5.76257 68.5065 5.90007 68.2482 6.17507C67.9899 6.45007 67.8607 6.83757 67.8607 7.3334V11.3751H65.5815V3.93756H67.8607V4.92507C68.0899 4.5959 68.4024 4.33756 68.794 4.1459C69.1857 3.95423 69.6232 3.8584 70.1149 3.8584C70.9857 3.8584 71.6815 4.14173 72.2024 4.70423H72.2065Z" fill="white"/>
<path d="M39.1982 27.1375C38.6566 26.9166 38.2232 26.5875 37.8982 26.15C37.5732 25.7166 37.4024 25.1916 37.3857 24.575H39.8107C39.8441 24.9208 39.9649 25.1875 40.1691 25.3666C40.3732 25.55 40.6399 25.6416 40.9691 25.6416C41.2982 25.6416 41.5732 25.5625 41.7691 25.4083C41.9649 25.2541 42.0607 25.0375 42.0607 24.7625C42.0607 24.5333 41.9816 24.3416 41.8274 24.1875C41.6732 24.0375 41.4816 23.9125 41.2524 23.8125C41.0274 23.7166 40.7024 23.6041 40.2857 23.4791C39.6816 23.2916 39.1857 23.1041 38.8066 22.9208C38.4232 22.7333 38.0941 22.4583 37.8191 22.0958C37.5441 21.7333 37.4066 21.2541 37.4066 20.6708C37.4066 19.8 37.7232 19.1166 38.3524 18.625C38.9816 18.1333 39.8066 17.8833 40.8191 17.8833C41.8316 17.8833 42.6816 18.1291 43.3107 18.625C43.9399 19.1208 44.2816 19.8041 44.3232 20.6833H41.8566C41.8399 20.3791 41.7274 20.1416 41.5232 19.9708C41.3191 19.7958 41.0566 19.7125 40.7357 19.7125C40.4607 19.7125 40.2357 19.7875 40.0691 19.9333C39.8982 20.0791 39.8149 20.2916 39.8149 20.5666C39.8149 20.8708 39.9566 21.1041 40.2399 21.275C40.5232 21.4458 40.9691 21.625 41.5732 21.8208C42.1774 22.025 42.6691 22.2208 43.0482 22.4083C43.4274 22.5958 43.7524 22.8666 44.0274 23.2208C44.3024 23.575 44.4399 24.0333 44.4399 24.5958C44.4399 25.1583 44.3024 25.6125 44.0316 26.05C43.7607 26.4875 43.3691 26.8333 42.8524 27.0916C42.3357 27.35 41.7274 27.4791 41.0274 27.4791C40.3274 27.4791 39.7274 27.3666 39.1857 27.1458L39.1982 27.1375Z" fill="white"/>
<path d="M52.8227 24.2043H47.6644C47.6977 24.6668 47.8477 25.021 48.1102 25.2627C48.3727 25.5085 48.6936 25.6293 49.0769 25.6293C49.6477 25.6293 50.0436 25.3877 50.2644 24.9085H52.6894C52.5644 25.396 52.3394 25.8377 52.0144 26.2293C51.6894 26.621 51.2852 26.9252 50.7936 27.1502C50.3061 27.371 49.7561 27.4835 49.1519 27.4835C48.4227 27.4835 47.7727 27.3293 47.2061 27.0168C46.6352 26.7043 46.1936 26.2627 45.8727 25.6835C45.5519 25.1043 45.3936 24.4293 45.3936 23.6585C45.3936 22.8877 45.5519 22.2085 45.8686 21.6335C46.1852 21.0543 46.6269 20.6127 47.1936 20.3002C47.7644 19.9877 48.4144 19.8335 49.1519 19.8335C49.8894 19.8335 50.5102 19.9835 51.0727 20.2877C51.6311 20.5918 52.0686 21.021 52.3852 21.5793C52.7019 22.1377 52.8602 22.7918 52.8602 23.5377C52.8602 23.7502 52.8477 23.9752 52.8186 24.2043H52.8227ZM50.5311 22.9377C50.5311 22.546 50.3977 22.2335 50.1311 22.0043C49.8644 21.7752 49.5311 21.6585 49.1311 21.6585C48.7311 21.6585 48.4269 21.771 48.1644 21.9918C47.9019 22.2127 47.7394 22.5293 47.6769 22.9377H50.5311Z" fill="white"/>
<path d="M56.4022 17.5122V27.3789H54.123V17.5122H56.4022Z" fill="white"/>
<path d="M62.0523 21.829H60.8273V27.3748H58.5481V21.829H57.7231V19.9373H58.5481V19.7248C58.5481 18.8081 58.8106 18.1123 59.3356 17.6373C59.8606 17.1623 60.6273 16.9248 61.644 16.9248C61.8148 16.9248 61.9356 16.929 62.019 16.9373V18.8706C61.5856 18.8456 61.2773 18.9081 61.0981 19.0581C60.919 19.2081 60.8315 19.479 60.8315 19.8706V19.9373H62.0565V21.829H62.0523Z" fill="white"/>
<path d="M67.4565 27.1375C66.9149 26.9166 66.4815 26.5875 66.1565 26.15C65.8315 25.7166 65.6607 25.1916 65.644 24.575H68.069C68.1024 24.9208 68.2232 25.1875 68.4274 25.3666C68.6315 25.55 68.8982 25.6416 69.2274 25.6416C69.5565 25.6416 69.8315 25.5625 70.0274 25.4083C70.2232 25.2541 70.319 25.0375 70.319 24.7625C70.319 24.5333 70.2399 24.3416 70.0857 24.1875C69.9315 24.0375 69.7399 23.9125 69.5107 23.8125C69.2857 23.7166 68.9607 23.6041 68.544 23.4791C67.9399 23.2916 67.444 23.1041 67.0649 22.9208C66.6815 22.7333 66.3524 22.4583 66.0774 22.0958C65.8024 21.7333 65.6649 21.2541 65.6649 20.6708C65.6649 19.8 65.9815 19.1166 66.6107 18.625C67.2399 18.1333 68.0649 17.8833 69.0774 17.8833C70.0899 17.8833 70.9399 18.1291 71.569 18.625C72.1982 19.1208 72.5399 19.8041 72.5815 20.6833H70.1149C70.0982 20.3791 69.9857 20.1416 69.7815 19.9708C69.5774 19.7958 69.3149 19.7125 68.994 19.7125C68.719 19.7125 68.494 19.7875 68.3274 19.9333C68.1565 20.0791 68.0732 20.2916 68.0732 20.5666C68.0732 20.8708 68.2149 21.1041 68.4982 21.275C68.7815 21.4458 69.2274 21.625 69.8315 21.8208C70.4357 22.025 70.9274 22.2208 71.3065 22.4083C71.6857 22.5958 72.0107 22.8666 72.2857 23.2208C72.5607 23.575 72.6982 24.0333 72.6982 24.5958C72.6982 25.1583 72.5607 25.6125 72.2899 26.05C72.019 26.4875 71.6274 26.8333 71.1107 27.0916C70.594 27.35 69.9857 27.4791 69.2857 27.4791C68.5857 27.4791 67.9857 27.3666 67.444 27.1458L67.4565 27.1375Z" fill="white"/>
<path d="M81.0815 24.2043H75.9232C75.9565 24.6668 76.1065 25.021 76.369 25.2627C76.6315 25.5085 76.9523 25.6293 77.3357 25.6293C77.9065 25.6293 78.3023 25.3877 78.5232 24.9085H80.9482C80.8232 25.396 80.5982 25.8377 80.2732 26.2293C79.9482 26.621 79.544 26.9252 79.0523 27.1502C78.5648 27.371 78.0148 27.4835 77.4107 27.4835C76.6815 27.4835 76.0315 27.3293 75.4648 27.0168C74.894 26.7043 74.4523 26.2627 74.1315 25.6835C73.8107 25.1043 73.6523 24.4293 73.6523 23.6585C73.6523 22.8877 73.8107 22.2085 74.1273 21.6335C74.444 21.0543 74.8857 20.6127 75.4523 20.3002C76.0232 19.9877 76.6732 19.8335 77.4107 19.8335C78.1482 19.8335 78.769 19.9835 79.3315 20.2877C79.8898 20.5918 80.3273 21.021 80.644 21.5793C80.9607 22.1377 81.119 22.7918 81.119 23.5377C81.119 23.7502 81.1065 23.9752 81.0773 24.2043H81.0815ZM78.7898 22.9377C78.7898 22.546 78.6565 22.2335 78.3898 22.0043C78.1232 21.7752 77.7898 21.6585 77.3898 21.6585C76.9898 21.6585 76.6857 21.771 76.4232 21.9918C76.1607 22.2127 75.9982 22.5293 75.9357 22.9377H78.7898Z" fill="white"/>
<path d="M85.6021 20.2082C86.0021 19.9748 86.448 19.854 86.9355 19.854V22.2665H86.3105C85.7396 22.2665 85.3146 22.3873 85.0313 22.6332C84.748 22.879 84.6063 23.3082 84.6063 23.9207V27.3748H82.3271V19.9332H84.6063V21.1748C84.873 20.7665 85.2063 20.4457 85.6063 20.2082H85.6021Z" fill="white"/>
<path d="M91.6399 25.2414L93.2524 19.9331H95.6774L93.0357 27.3748H90.2232L87.5815 19.9331H90.0232L91.6357 25.2414H91.6399Z" fill="white"/>
<path d="M96.8059 18.8125C96.5518 18.575 96.4268 18.2875 96.4268 17.9375C96.4268 17.5875 96.5518 17.2875 96.8059 17.05C97.0601 16.8166 97.3851 16.6958 97.7851 16.6958C98.1851 16.6958 98.4976 16.8125 98.7518 17.05C99.0059 17.2875 99.1309 17.5833 99.1309 17.9375C99.1309 18.2916 99.0059 18.575 98.7518 18.8125C98.4976 19.05 98.1768 19.1666 97.7851 19.1666C97.3934 19.1666 97.0601 19.05 96.8059 18.8125ZM98.9184 19.9375V27.3791H96.6393V19.9375H98.9184Z" fill="white"/>
<path d="M100.594 21.6291C100.91 21.0499 101.348 20.6083 101.914 20.2958C102.477 19.9833 103.127 19.8291 103.856 19.8291C104.789 19.8291 105.569 20.0749 106.198 20.5624C106.827 21.0499 107.235 21.7416 107.431 22.6291H105.006C104.802 22.0583 104.406 21.7749 103.819 21.7749C103.402 21.7749 103.069 21.9374 102.819 22.2624C102.569 22.5874 102.444 23.0499 102.444 23.6541C102.444 24.2583 102.569 24.7249 102.819 25.0458C103.069 25.3708 103.402 25.5333 103.819 25.5333C104.406 25.5333 104.802 25.2499 105.006 24.6791H107.431C107.235 25.5499 106.823 26.2333 106.189 26.7333C105.56 27.2333 104.781 27.4791 103.856 27.4791C103.127 27.4791 102.481 27.3249 101.914 27.0124C101.348 26.6999 100.91 26.2583 100.594 25.6791C100.277 25.0999 100.119 24.4249 100.119 23.6541C100.119 22.8833 100.277 22.2041 100.594 21.6291Z" fill="white"/>
<path d="M115.615 24.2043H110.456C110.49 24.6668 110.64 25.021 110.902 25.2627C111.165 25.5085 111.486 25.6293 111.869 25.6293C112.44 25.6293 112.836 25.3877 113.056 24.9085H115.481C115.356 25.396 115.131 25.8377 114.806 26.2293C114.481 26.621 114.077 26.9252 113.586 27.1502C113.098 27.371 112.548 27.4835 111.944 27.4835C111.215 27.4835 110.565 27.3293 109.998 27.0168C109.427 26.7043 108.986 26.2627 108.665 25.6835C108.344 25.1043 108.186 24.4293 108.186 23.6585C108.186 22.8877 108.344 22.2085 108.661 21.6335C108.977 21.0543 109.419 20.6127 109.986 20.3002C110.556 19.9877 111.206 19.8335 111.944 19.8335C112.681 19.8335 113.302 19.9835 113.865 20.2877C114.423 20.5918 114.861 21.021 115.177 21.5793C115.494 22.1377 115.652 22.7918 115.652 23.5377C115.652 23.7502 115.64 23.9752 115.611 24.2043H115.615ZM113.319 22.9377C113.319 22.546 113.186 22.2335 112.919 22.0043C112.652 21.7752 112.319 21.6585 111.919 21.6585C111.519 21.6585 111.215 21.771 110.952 21.9918C110.69 22.2127 110.527 22.5293 110.465 22.9377H113.319Z" fill="white"/>
</g>
<defs>
<clipPath id="clip0_939_649">
<rect width="115.714" height="30" fill="white"/>
</clipPath>
</defs>
</svg>
