<svg xmlns="http://www.w3.org/2000/svg" version="1.1" xmlns:xlink="http://www.w3.org/1999/xlink" xmlns:svgjs="http://svgjs.dev/svgjs" width="71" height="71"><svg width="71" height="71" viewBox="0 0 71 71" fill="none" xmlns="http://www.w3.org/2000/svg">
<path d="M70.7246 35.6963C70.7246 23.3393 64.2885 12.4699 54.5954 6.23796L54.6343 6.17962C54.3718 6.02407 54.1191 5.9074 53.8566 5.77129C48.5579 2.55323 42.3552 0.696289 35.7246 0.696289C16.426 0.696289 0.724609 16.3977 0.724609 35.6963C0.724609 54.9949 16.426 70.6963 35.7246 70.6963C36.9788 70.6963 38.2135 70.6282 39.4288 70.5018C39.7496 70.4727 40.051 70.4338 40.3329 70.3852C40.3427 70.3852 40.3524 70.3852 40.3621 70.3852C57.4732 68.1102 70.7149 53.4296 70.7149 35.706L70.7246 35.6963ZM35.7246 6.52962C36.4829 6.52962 37.2316 6.56851 37.9704 6.62684C36.8232 7.50184 35.8121 8.51296 34.976 9.64073C30.4552 15.7852 29.8815 26.3046 39.2927 34.8796C47.576 42.4241 51.2024 49.9199 49.5107 55.9866C48.3052 60.2935 44.4066 63.5991 39.3802 64.6296C39.1566 64.6588 38.9329 64.688 38.7093 64.7171C36.6482 64.8532 32.6524 64.1435 30.0663 61.5963C27.801 59.3602 26.9941 56.0643 27.6746 51.7963C28.9871 43.5616 25.7593 34.4616 17.0288 32.9741C13.4218 32.3713 9.50377 33.4602 6.54822 36.3477C6.54822 36.1338 6.52878 35.9199 6.52878 35.6963C6.52878 19.6157 19.6149 6.52962 35.6954 6.52962H35.7246ZM8.18155 45.2727C9.38711 40.0421 12.9649 38.1949 16.076 38.7296C19.7316 39.3518 23.1343 43.4157 21.9385 50.8727C21.151 55.7824 21.9677 59.438 23.3191 62.0824C16.2704 58.7574 10.7677 52.6907 8.18155 45.263V45.2727ZM55.1788 57.3963C56.4815 52.5352 56.5788 42.7157 43.2302 30.563C36.4829 24.4185 36.6579 17.2046 39.6816 13.1018C41.7816 10.2435 45.7871 8.23101 50.8621 10.7782C59.2718 15.9018 64.8913 25.1574 64.8913 35.6963C64.8913 44.3102 61.1385 52.0588 55.1788 57.3963Z" fill="#001360"></path>
</svg><style>@media (prefers-color-scheme: light) { :root { filter: none; } }
@media (prefers-color-scheme: dark) { :root { filter: none; } }
</style></svg>