<svg width="15" height="16" viewBox="0 0 15 16" fill="none" xmlns="http://www.w3.org/2000/svg">
<path fill-rule="evenodd" clip-rule="evenodd" d="M14.085 2.56604L2.50338 11.3772C1.08118 8.79852 0.588564 5.68779 0.551758 3.82207V2.68012C0.551758 2.51401 0.731961 2.41713 0.822083 2.38943C2.72822 1.815 6.59874 0.649494 6.83164 0.583052C7.06452 0.51661 7.26134 0.5 7.33073 0.5H7.33702C7.40634 0.5 7.60316 0.51661 7.8361 0.583052C8.06898 0.649494 11.9395 1.815 13.8456 2.38943C13.9127 2.41003 14.0295 2.46891 14.085 2.56604Z" fill="white" fill-opacity="0.7"/>
<path d="M7.79799 0.583218C7.56499 0.516644 7.36804 0.5 7.29865 0.5L7.27783 15.5H7.31947C7.41933 15.5 7.58301 15.4446 7.65234 15.4168C12.6454 13.7524 14.0185 6.99791 14.0809 3.82872V2.68447C14.0809 2.51804 13.9006 2.42094 13.8104 2.39321C11.9034 1.81762 8.03099 0.649792 7.79799 0.583218Z" fill="white" fill-opacity="0.36"/>
<path fill-rule="evenodd" clip-rule="evenodd" d="M2.50342 11.3912L14.085 2.58008C14.1042 2.61359 14.116 2.65159 14.116 2.69415V3.83611C14.0536 6.99902 12.6812 13.7401 7.69054 15.4011C7.62128 15.4288 7.45767 15.4842 7.35787 15.4842H7.30994C7.21014 15.4842 7.04652 15.4288 6.97723 15.4011C4.93044 14.7199 3.49222 13.1842 2.50342 11.3912Z" fill="url(#paint0_linear_595_2498)"/>
<defs>
<linearGradient id="paint0_linear_595_2498" x1="5.33681" y1="9.82003" x2="11.6198" y2="12.8783" gradientUnits="userSpaceOnUse">
<stop stop-color="#E5E7FE"/>
<stop offset="0.552228" stop-color="white"/>
</linearGradient>
</defs>
</svg>
