<svg width="51" height="23" viewBox="0 0 51 23" fill="none" xmlns="http://www.w3.org/2000/svg">
<path id="Hycom-logo" d="M38.0827 13.8104V14.24V18.0538C38.0827 18.6005 37.6071 19.056 37.0673 19.004C36.5789 18.9779 36.1933 18.5224 36.1933 18.0277V15.6718V14.24V13.9536C36.1933 13.4069 35.7178 12.9513 35.178 13.0034C34.6896 13.0294 34.304 13.485 34.304 13.9796V14.24V15.6718V18.0538C34.304 18.6005 33.8284 19.056 33.2886 19.004C32.8002 18.9779 32.4146 18.5224 32.4146 18.0277V15.6718V14.24V13.9536C32.4146 13.4069 31.9391 12.9513 31.3993 13.0034C30.9109 13.0294 30.5253 13.485 30.5253 13.9796V15.6718V18.0538C30.5253 18.1449 30.4996 18.249 30.4739 18.3401C30.3582 18.7436 29.9855 19.004 29.5613 19.004C29.0472 19.004 28.6488 18.5484 28.6488 18.0277V12.3786C28.6488 11.884 29.0472 11.4284 29.5613 11.4024C29.9083 11.4024 30.2168 11.5716 30.3839 11.858C30.4096 11.91 30.4739 11.91 30.5253 11.884C30.7181 11.7408 31.1808 11.4024 31.9391 11.4024C32.6717 11.4024 33.3272 11.7408 33.7513 12.2615C33.777 12.3135 33.8413 12.3135 33.8927 12.2615C34.0084 12.1183 34.1498 12.0011 34.2911 11.884C34.6639 11.5976 35.1651 11.4024 35.6792 11.4024C37.0159 11.4024 38.0827 12.5218 38.0827 13.8104ZM26.798 14.5003V16.4007C26.798 17.9757 25.5256 19.2513 23.9832 19.2513C22.4281 19.2513 21.1685 17.9626 21.1685 16.4007V14.5003C21.1685 12.9253 22.4409 11.6497 23.9832 11.6497C25.5256 11.6367 26.798 12.9253 26.798 14.5003ZM24.9215 16.4007V14.5003C24.9215 13.9796 24.4973 13.5501 23.9832 13.5501C23.4691 13.5501 23.045 13.9796 23.045 14.5003V16.4007C23.045 16.9213 23.4691 17.3509 23.9832 17.3509C24.4973 17.3509 24.9215 16.9213 24.9215 16.4007ZM17.8653 13.446C18.0324 13.446 18.1995 13.498 18.3409 13.5631C18.7907 13.8234 19.3691 13.6802 19.639 13.2117C19.8961 12.7561 19.7547 12.1703 19.292 11.897C18.8678 11.6367 18.3794 11.5195 17.8782 11.5195C16.323 11.5195 15.0634 12.8081 15.0634 14.3701V16.2705C15.0634 17.8455 16.3358 19.1211 17.8782 19.1211C18.3666 19.1211 18.8678 18.9779 19.292 18.7436C19.7418 18.4833 19.9089 17.8845 19.639 17.429C19.3819 16.9734 18.7907 16.8042 18.3409 17.0775C18.1995 17.1686 18.0324 17.1947 17.8653 17.1947C17.3512 17.1947 16.9271 16.7651 16.9271 16.2445V14.3441C16.9271 13.8755 17.3512 13.446 17.8653 13.446ZM46.3085 0C45.7943 0 45.3702 0.429542 45.3702 0.950198V5.7142C45.3702 6.23486 45.7943 6.6644 46.3085 6.6644C46.8226 6.6644 47.2467 6.23486 47.2467 5.7142V0.950198C47.2467 0.429542 46.8226 0 46.3085 0ZM46.3085 8.5648C45.7943 8.5648 45.3702 8.99434 45.3702 9.515V14.279C45.3702 14.7997 45.7943 15.2292 46.3085 15.2292C46.8226 15.2292 47.2467 14.7997 47.2467 14.279V9.52801C47.2467 8.99434 46.8226 8.5648 46.3085 8.5648ZM50.0615 1.9004C49.5474 1.9004 49.1232 2.32994 49.1232 2.85059V12.4697C49.1232 12.9904 49.5474 13.4199 50.0615 13.4199C50.5756 13.4199 50.9997 12.9904 50.9997 12.4697V2.85059C51.0126 2.32994 50.5884 1.9004 50.0615 1.9004ZM42.5426 1.9004C42.0285 1.9004 41.6044 2.32994 41.6044 2.85059V12.4697C41.6044 12.9904 42.0285 13.4199 42.5426 13.4199C43.0567 13.4199 43.4809 12.9904 43.4809 12.4697V2.85059C43.4809 2.32994 43.0567 1.9004 42.5426 1.9004ZM3.2646 11.3763C2.81475 11.3763 2.37776 11.5195 2.01788 11.7538C1.95362 11.7799 1.8765 11.7278 1.8765 11.6627V8.53877C1.8765 8.04414 1.50377 7.58857 1.00251 7.56253C0.475552 7.52349 0 7.97906 0 8.52575V18.0277C0 18.5224 0.37273 18.9779 0.873987 19.004C1.4138 19.056 1.88935 18.6005 1.88935 18.0538V15.6718V13.9796C1.88935 13.485 2.26208 13.0294 2.76334 13.0034C3.30316 12.9513 3.77871 13.4069 3.77871 13.9536V14.24V15.6718V18.0277C3.77871 18.5224 4.15144 18.9779 4.6527 19.004C5.19251 19.056 5.66806 18.6005 5.66806 18.0538V14.24V13.8104C5.64236 12.4958 4.58843 11.3503 3.2646 11.3763ZM12.1458 11.6627C11.6574 11.6887 11.2719 12.1443 11.2719 12.6389V16.4267V16.687C11.2719 17.1817 10.8991 17.6372 10.3979 17.6633C9.85806 17.7153 9.38251 17.2598 9.38251 16.7131V16.4267V14.9949V12.6389C9.38251 12.1443 9.00978 11.6887 8.50852 11.6627C7.96871 11.6106 7.49315 12.0662 7.49315 12.6129V16.4267V16.8563C7.49315 18.1839 8.54708 19.3033 9.87091 19.2903C10.3208 19.2903 10.7578 19.1471 11.1176 18.9128C11.1819 18.8608 11.259 18.9128 11.259 18.9779V20.1885C11.259 20.6831 10.8349 21.1647 10.3465 21.1647C10.1794 21.1647 10.0123 21.1126 9.85806 21.0475C9.52389 20.8523 9.09975 20.8523 8.80413 21.1126C8.23861 21.5682 8.35429 22.3752 8.8941 22.7136C9.34395 22.974 9.83235 23 10.3336 23C11.9145 22.974 13.1484 21.7114 13.1484 20.1624V16.4007V12.5869C13.1612 12.0402 12.7114 11.6106 12.1458 11.6627Z" fill="white"/>
</svg>
