<svg width="15" height="16" viewBox="0 0 15 16" fill="none" xmlns="http://www.w3.org/2000/svg">
<g clip-path="url(#clip0_595_2703)">
<path fill-rule="evenodd" clip-rule="evenodd" d="M8.83188 0.528934C8.72381 0.528934 8.62282 0.551966 8.53069 0.582085C8.72824 0.714961 8.83631 0.887701 8.89123 1.08524C8.89478 1.11182 8.90275 1.13131 8.90629 1.15877C8.90984 1.18623 8.91515 1.20483 8.91515 1.22964C8.9311 1.57069 8.82657 1.61321 8.75216 1.81429C8.63965 2.07385 8.67066 2.35289 8.80531 2.57612C8.81763 2.606 8.83307 2.63451 8.85137 2.66116C8.70432 1.68142 9.52195 1.53348 9.67255 1.22787C9.68406 0.96034 9.46349 0.782285 9.28898 0.658267C9.12244 0.557281 8.97007 0.525391 8.83188 0.525391V0.528934ZM10.0632 0.750395C10.0473 0.838979 10.0597 0.815948 10.0543 0.862897L10.0455 0.963884L10.0189 1.0569C10.0101 1.0879 9.99942 1.11891 9.98791 1.14991L9.94539 1.2385C9.93387 1.25444 9.9259 1.2695 9.91438 1.28456L9.89135 1.31999L9.83289 1.39706C9.80985 1.42009 9.79037 1.44755 9.76202 1.46793C9.73367 1.4883 9.71595 1.51399 9.68849 1.53348C9.607 1.59549 9.51398 1.64155 9.42894 1.70002C9.40237 1.71951 9.37579 1.73545 9.35187 1.75849C9.32565 1.77704 9.30105 1.79778 9.27835 1.82049C9.25177 1.84353 9.23228 1.86656 9.20748 1.89402C9.18268 1.92148 9.16496 1.94451 9.14901 1.97109L9.09586 2.05259L9.05334 2.14117L9.02234 2.22975L8.99576 2.3272C8.99222 2.34314 8.99222 2.36263 8.98691 2.37769C8.98159 2.39275 8.98336 2.4087 8.97805 2.42375L8.9745 2.5212C8.9745 2.54423 8.9745 2.56726 8.97805 2.59207C8.97805 2.62307 8.98159 2.65407 8.98956 2.68951C8.99753 2.72494 9.00108 2.75152 9.00905 2.78252L9.04006 2.87554C9.04891 2.89502 9.05954 2.91451 9.06663 2.92869L8.17547 2.58321L7.72635 2.46805L7.48186 2.40958C7.24868 2.36311 7.01335 2.32822 6.77672 2.30505C6.76786 2.30505 6.76521 2.30151 6.75723 2.30151L6.06362 2.26607L5.55603 2.28556C5.31951 2.30151 5.08299 2.33163 4.84735 2.3706L4.67284 2.40161L4.32382 2.47868L4.14931 2.52474L3.98277 2.59827L3.85521 2.65673C3.84635 2.66028 3.83926 2.66028 3.83572 2.66559L3.72765 2.71874C3.71613 2.72228 3.70816 2.7276 3.70107 2.73026L3.5806 2.79227C3.55402 2.80378 3.52745 2.81884 3.50353 2.83124C3.49201 2.8401 3.47695 2.8463 3.4681 2.85073L3.36711 2.9092C3.33503 2.92692 3.30398 2.94644 3.2741 2.96766L3.19703 3.02081L3.11199 3.08282L3.04643 3.13597C3.03758 3.13952 3.03049 3.14749 3.0234 3.15192L2.96494 3.20241C2.96139 3.21127 2.95342 3.21393 2.94899 3.21836L2.87812 3.28391L2.80105 3.35743L2.7355 3.4283C2.72664 3.43716 2.71601 3.44425 2.70893 3.45133C2.68811 3.47561 2.66624 3.49896 2.64337 3.52132C2.63983 3.53017 2.63186 3.53283 2.62743 3.5408L2.53884 3.63382L2.32979 3.8349C2.25892 3.89691 2.18628 3.95538 2.11275 4.00499L1.88066 4.15204C1.80359 4.19456 1.72121 4.23353 1.63617 4.2672C1.55385 4.30222 1.46989 4.33326 1.38459 4.36021C1.22159 4.39564 1.05506 4.4612 0.911549 4.47271C0.880545 4.47271 0.845997 4.48157 0.814106 4.48423L0.716663 4.50726L0.62365 4.54269C0.591935 4.55526 0.560889 4.56945 0.530636 4.58522C0.504061 4.6047 0.47217 4.62065 0.445595 4.63837C0.41902 4.65608 0.392444 4.68089 0.368527 4.70392C0.344609 4.72695 0.315376 4.74998 0.291458 4.77479L0.225906 4.85185C0.206417 4.88286 0.183385 4.91032 0.16744 4.94044C0.147166 4.96884 0.129101 4.99875 0.113403 5.02991L0.070883 5.1309L0.0354492 5.23188L0.0159606 5.32489C0.00444464 5.37096 0.00444464 5.41791 1.54176e-05 5.44005C-0.0044138 5.4622 1.54176e-05 5.49143 1.54176e-05 5.51889C-0.000737117 5.53581 0.000451772 5.55275 0.00355879 5.56939C0.00710217 5.59596 0.0124172 5.61988 0.019504 5.64291L0.0460793 5.71378C0.0575953 5.74036 0.0726546 5.76427 0.0885998 5.78731L0.139093 5.85817L0.204645 5.92018C0.227353 5.9429 0.25195 5.96364 0.27817 5.98219C0.371184 6.06369 0.39333 6.09026 0.514691 6.15227C0.534179 6.16379 0.553668 6.17176 0.5767 6.18328C0.588216 6.19479 0.588216 6.19834 0.592645 6.20631C0.596189 6.23731 0.604161 6.26832 0.612134 6.29932C0.619531 6.33123 0.629912 6.36237 0.643138 6.39234L0.674143 6.4632C0.677686 6.47206 0.683001 6.47915 0.685659 6.48269L0.731723 6.56773L0.790188 6.64923L0.855741 6.72276C0.878773 6.74579 0.901805 6.76528 0.929266 6.78831L1.00633 6.84678C1.03291 6.86626 1.05948 6.88221 1.09138 6.89727C1.12003 6.91377 1.14995 6.92799 1.18085 6.93979C1.20388 6.9513 1.23134 6.95928 1.25791 6.96636C1.28449 6.97345 1.30841 6.98231 1.32347 6.98585C1.31195 7.19491 1.30752 7.39334 1.33941 7.46244C1.37485 7.53951 1.54493 7.30299 1.71501 7.0328C1.69198 7.30033 1.67603 7.61392 1.71501 7.70604C1.75399 7.79817 1.98962 7.50053 2.19159 7.16745C4.93771 6.5323 7.44465 8.43066 7.70775 11.1112C7.65725 10.6931 7.14258 10.4601 6.90606 10.5177C6.7909 10.8047 6.59247 11.1732 6.27445 11.4009C6.30102 11.144 6.28951 10.8818 6.23547 10.6258C6.14881 10.9824 5.98491 11.3157 5.75534 11.602C5.38772 11.6286 5.02009 11.4514 4.82521 11.1839C4.80926 11.1724 4.80572 11.1484 4.7942 11.1334L4.7632 11.0519C4.75168 11.0253 4.74371 10.9987 4.74017 10.9704C4.73662 10.942 4.73662 10.9172 4.73662 10.8853V10.8269C4.74017 10.8003 4.74814 10.7737 4.75611 10.7454L4.78269 10.6639C4.79863 10.6373 4.80926 10.6107 4.82875 10.5824C4.8943 10.4052 4.8943 10.2458 4.7756 10.1572C4.75257 10.1412 4.72954 10.1306 4.70208 10.1182C4.68613 10.1147 4.66664 10.1067 4.65158 10.1023L4.62058 10.0907L4.53908 10.0712C4.51259 10.0636 4.48516 10.0597 4.45758 10.0597C4.42945 10.0552 4.40104 10.0525 4.37254 10.0518C4.35305 10.0518 4.33356 10.0553 4.31408 10.0553C4.28533 10.0551 4.25669 10.0589 4.22904 10.0668L4.14754 10.0819L4.06604 10.1085L3.98897 10.1439L3.91545 10.1829C3.01189 10.772 3.55225 12.1494 4.16703 12.5498C3.93494 12.5924 3.69753 12.6429 3.63286 12.6933C3.79231 12.8014 3.96594 12.8882 4.14842 12.9609L4.7756 13.138C5.09716 13.2089 5.42227 13.2311 5.7518 13.2116C6.58887 13.1503 7.37993 12.8051 7.99414 12.2331C8.60835 11.6611 9.0089 10.8965 9.12953 10.0659L9.15256 10.1669L9.18799 10.384L9.20394 10.4885L9.21279 10.6036L9.22165 10.7312V10.7932C9.22165 10.8127 9.2252 10.8357 9.2252 10.8552C9.2252 10.8747 9.22165 10.9013 9.22165 10.9261V10.9792C9.22165 11.0058 9.21811 11.0297 9.21811 11.0563C9.21811 11.0714 9.21811 11.0873 9.21457 11.1068L9.21102 11.1918C9.20748 11.2034 9.20748 11.2149 9.20748 11.2273L9.19596 11.3159C9.19596 11.3274 9.19596 11.3389 9.19242 11.3513L9.17736 11.4638V11.4727L9.15433 11.5807L9.1313 11.6959L9.10029 11.8164L9.06929 11.9368L9.03031 12.0609L8.94527 12.2859L8.89921 12.3984L8.84606 12.5064C8.84251 12.5179 8.8372 12.5259 8.83454 12.533C8.57499 13.0521 8.20293 13.4986 7.73786 13.8458C7.70686 13.8653 7.67586 13.8884 7.64485 13.9114C7.63599 13.9202 7.62536 13.9229 7.61828 13.9309L7.53323 13.9893L7.54475 14.0124H7.54829L7.71129 13.9893H7.71483L8.01602 13.9362C8.04259 13.9326 8.07448 13.9247 8.10106 13.9167L8.15421 13.9052L8.23571 13.8901L8.30658 13.8706C8.69369 13.7776 9.0684 13.6492 9.42983 13.4986C8.81417 14.3401 7.98856 15.0169 7.02387 15.4625C7.46945 15.4315 7.91503 15.358 8.34378 15.2339C9.90464 14.7733 11.2183 13.7236 12.005 12.3089C11.8455 13.2058 11.4897 14.0564 10.9632 14.7999C11.3388 14.5518 11.6834 14.2657 11.9979 13.9406C12.8649 13.0353 13.434 11.8863 13.6287 10.6479C13.7616 11.2592 13.7988 11.8917 13.7412 12.5153C16.5378 8.61403 13.9733 4.56927 12.8997 3.50448C12.8961 3.49563 12.8908 3.49297 12.8908 3.485C12.882 3.53106 12.8793 3.57801 12.8758 3.62407C12.8642 3.71266 12.8527 3.79858 12.8368 3.88363C12.8208 3.96867 12.7943 4.05371 12.7712 4.14052C12.7482 4.22733 12.7128 4.30706 12.6782 4.38856C12.6437 4.47006 12.6047 4.54801 12.5631 4.62508C12.5204 4.70085 12.4739 4.77446 12.424 4.84565C12.3735 4.91918 12.3195 4.98916 12.2645 5.05471C12.2067 5.12214 12.1458 5.18688 12.082 5.24871C12.0431 5.28415 12.0085 5.31426 11.9695 5.34616L11.881 5.42322C11.8118 5.4781 11.7393 5.52869 11.6639 5.5747C11.59 5.62242 11.5137 5.66647 11.4354 5.70669C11.3539 5.74567 11.2724 5.78022 11.1909 5.81477C11.1084 5.84598 11.0244 5.87318 10.9393 5.89626C10.8543 5.9193 10.7648 5.93879 10.6798 5.95473C10.5947 5.97068 10.5026 5.97776 10.4167 5.98573C10.3546 5.98928 10.2926 5.99459 10.2395 5.99459C10.1509 5.99459 10.0623 5.98573 9.97639 5.97865C9.89047 5.97156 9.79922 5.95916 9.71241 5.93967C9.6245 5.92377 9.53778 5.90187 9.45286 5.87412H9.44932C9.53436 5.86526 9.6194 5.85817 9.70621 5.84311C9.79302 5.82805 9.88072 5.80768 9.96576 5.78465C10.0508 5.76162 10.1358 5.73415 10.2173 5.70315C10.2988 5.67215 10.3839 5.63228 10.4618 5.59508C10.5412 5.55636 10.6187 5.51379 10.6939 5.46752C10.7675 5.41702 10.841 5.36653 10.911 5.31249C10.9804 5.25848 11.0463 5.2002 11.1085 5.13798C11.1741 5.07952 11.2325 5.01396 11.291 4.94841C11.3495 4.88286 11.4035 4.80933 11.454 4.73935C11.4628 4.72784 11.4699 4.71278 11.477 4.70037L11.5895 4.52321C11.632 4.44614 11.671 4.36818 11.7047 4.28669C11.7383 4.20519 11.7702 4.12369 11.7977 4.03865C11.8251 3.95361 11.8438 3.87211 11.8632 3.78707C11.8827 3.70203 11.8942 3.61256 11.9022 3.52752C11.9102 3.44248 11.9173 3.35035 11.9173 3.26442C11.9173 3.20241 11.9137 3.1404 11.9084 3.08725C11.8996 2.99867 11.8889 2.91274 11.8774 2.8277C11.862 2.74031 11.8425 2.6537 11.8189 2.56815C11.7924 2.48665 11.7658 2.40161 11.7339 2.32011C11.702 2.23861 11.663 2.15712 11.6258 2.08093C11.5886 2.00475 11.5408 1.92591 11.493 1.85239C11.4451 1.77886 11.392 1.70888 11.3379 1.63978L11.1608 1.44224C11.128 1.40909 11.0944 1.37689 11.0598 1.34568C10.8862 1.21077 10.7065 1.08396 10.5212 0.965655C10.4946 0.950596 10.4707 0.93908 10.4441 0.926678C10.3166 0.84518 10.1961 0.80266 10.0765 0.763683L10.0632 0.750395Z" fill="white"/>
</g>
<defs>
<clipPath id="clip0_595_2703">
<rect width="15" height="15" fill="white" transform="translate(0 0.5)"/>
</clipPath>
</defs>
</svg>
