<svg width="15" height="16" viewBox="0 0 15 16" fill="none" xmlns="http://www.w3.org/2000/svg">
<g clip-path="url(#clip0_595_2699)">
<path d="M6.86994 0.700625C7.24494 0.488281 7.72306 0.487344 8.08869 0.700625L13.6874 3.85672C14.0376 4.05359 14.272 4.44406 14.2687 4.84766V11.1758C14.271 11.5962 14.0137 11.9952 13.6443 12.1883L8.07556 15.3298C7.88509 15.4351 7.66992 15.4874 7.45238 15.4814C7.23485 15.4754 7.02289 15.4113 6.83853 15.2956L5.16744 14.33C5.05353 14.262 4.92556 14.2081 4.84494 14.098C4.91619 14.0023 5.04275 13.9902 5.14588 13.948C5.37838 13.8739 5.59119 13.7605 5.80494 13.6405C5.85884 13.603 5.92494 13.617 5.9765 13.6508L7.4015 14.4748C7.50322 14.5334 7.60635 14.4561 7.69353 14.4069L13.1615 11.3211C13.229 11.2883 13.2665 11.217 13.2609 11.143V4.87578C13.2684 4.79141 13.2201 4.71453 13.1437 4.68031L7.589 1.55234C7.55699 1.5302 7.51901 1.5183 7.48009 1.51822C7.44117 1.51814 7.40314 1.52987 7.37103 1.55188L1.82431 4.68641C1.74931 4.72063 1.69775 4.79656 1.70713 4.88094V11.1481C1.70056 11.2222 1.73994 11.292 1.80791 11.3239L3.29009 12.1606C3.56853 12.3106 3.91025 12.395 4.21681 12.2848C4.35097 12.2343 4.46646 12.1439 4.54781 12.0259C4.62916 11.9078 4.67248 11.7677 4.67197 11.6244L4.67338 5.39469C4.66681 5.30234 4.754 5.22594 4.84353 5.23531H5.55603C5.64978 5.23297 5.72338 5.33234 5.71072 5.42516L5.70931 11.6942C5.70978 12.2511 5.48103 12.8567 4.96588 13.13C4.33119 13.4581 3.5465 13.3892 2.91931 13.0737L1.32556 12.1925C0.950563 12.005 0.698844 11.6 0.701188 11.18V4.85188C0.702747 4.6462 0.75929 4.44469 0.864954 4.26822C0.970618 4.09176 1.12156 3.94677 1.30213 3.84828L6.86994 0.700625ZM8.48431 5.08719C9.29385 5.04031 10.1606 5.05625 10.889 5.45516C11.4529 5.76078 11.7656 6.40203 11.7759 7.02922C11.7599 7.11359 11.6718 7.16047 11.5912 7.15438C11.3568 7.15391 11.1215 7.15766 10.8862 7.15297C10.7863 7.15672 10.7287 7.06484 10.716 6.97672C10.6485 6.67672 10.4849 6.38 10.2028 6.23516C9.76963 6.01813 9.26713 6.02891 8.79463 6.03359C8.44963 6.05234 8.07884 6.08188 7.78681 6.28438C7.56181 6.43813 7.49431 6.75313 7.57447 6.99781C7.64947 7.17734 7.85713 7.235 8.02634 7.28844C9.00228 7.54344 10.0359 7.52281 10.9935 7.85422C11.3896 7.99109 11.7773 8.25734 11.9132 8.67219C12.0904 9.22813 12.0131 9.89281 11.6179 10.3391C11.2973 10.7066 10.8304 10.9016 10.364 11.015C9.74384 11.1533 9.10072 11.1566 8.47119 11.0947C7.87916 11.0272 7.26322 10.8716 6.80619 10.4684C6.41525 10.1291 6.22494 9.60031 6.24369 9.09031C6.24838 9.00406 6.33416 8.94406 6.41713 8.95109H7.12025C7.21494 8.94453 7.28431 9.02609 7.289 9.11516C7.33259 9.39641 7.43994 9.70109 7.68931 9.86516C8.17025 10.1755 8.77353 10.1539 9.32384 10.1628C9.77994 10.1427 10.2918 10.1366 10.6645 9.83469C10.8613 9.66266 10.919 9.37531 10.866 9.12781C10.8084 8.91875 10.5848 8.82172 10.3973 8.75281C9.434 8.44812 8.38869 8.55875 7.43478 8.21375C7.0476 8.07687 6.67306 7.81813 6.52447 7.42016C6.31681 6.85766 6.41197 6.16063 6.84931 5.72938C7.27119 5.30047 7.88994 5.135 8.47588 5.07594L8.48431 5.08719Z" fill="white"/>
</g>
<defs>
<clipPath id="clip0_595_2699">
<rect width="15" height="15" fill="white" transform="translate(0 0.5)"/>
</clipPath>
</defs>
</svg>
