<svg width="17" height="16" viewBox="0 0 17 16" fill="none" xmlns="http://www.w3.org/2000/svg">
<path d="M8.30508 6.38867C7.42952 6.38867 6.71973 7.10353 6.71973 7.98535C6.71973 8.86717 7.42952 9.58203 8.30508 9.58203C9.18065 9.58203 9.89044 8.86717 9.89044 7.98535C9.89044 7.10353 9.18065 6.38867 8.30508 6.38867Z" fill="white"/>
<path d="M16.5506 7.99984C16.5506 6.74632 15.398 5.64692 13.5629 4.9234C13.5874 4.76046 13.6096 4.59928 13.6253 4.44105C13.8063 2.63989 13.3754 1.3399 12.4126 0.779907C11.3354 0.153442 9.81379 0.608144 8.27528 1.84813C6.73676 0.608144 5.21518 0.153442 4.13793 0.779907C3.17512 1.3399 2.74422 2.63989 2.92522 4.44105C2.94098 4.59928 2.96259 4.76104 2.98769 4.92457C2.83472 4.98339 2.68466 5.04575 2.54045 5.11104C0.902089 5.8528 0 6.87985 0 7.99984C0 9.25335 1.15257 10.3528 2.98769 11.0763C2.96259 11.2392 2.94098 11.4004 2.92522 11.5586C2.74422 13.3598 3.17512 14.6598 4.13793 15.2198C4.46896 15.4088 4.84405 15.5055 5.22452 15.4998C6.13654 15.4998 7.20153 15.0162 8.27528 14.1515C9.34844 15.0162 10.414 15.4998 11.3272 15.4998C11.7077 15.5054 12.0827 15.4087 12.4138 15.2198C13.3766 14.6598 13.8075 13.3598 13.6265 11.5586C13.6107 11.4004 13.5886 11.2392 13.564 11.0763C15.3992 10.3539 16.5517 9.25276 16.5517 7.99984M11.3202 1.29402C11.5648 1.28807 11.8066 1.34776 12.0208 1.46696C12.6894 1.85578 12.9895 2.91047 12.8435 4.36046C12.8336 4.45928 12.8219 4.55928 12.8079 4.65987C12.0449 4.42836 11.2635 4.26325 10.4724 4.16634C9.99285 3.52414 9.45957 2.92451 8.87842 2.37401C9.79102 1.66343 10.6476 1.29402 11.3196 1.29402M11.0061 9.58805C10.7108 10.1044 10.3892 10.6051 10.0427 11.088C9.45528 11.1488 8.86517 11.1791 8.27469 11.1786C7.68441 11.179 7.0945 11.1488 6.5073 11.088C6.16169 10.6051 5.8411 10.1044 5.54682 9.58805C5.25154 9.07312 4.98317 8.54299 4.74283 7.99984C4.98317 7.45668 5.25154 6.92655 5.54682 6.41162C5.84064 5.89734 6.16024 5.39847 6.50438 4.91692C7.09265 4.85463 7.68377 4.82361 8.27528 4.82398C8.86556 4.82362 9.45547 4.85386 10.0427 4.91457C10.388 5.39686 10.7088 5.89652 11.0037 6.41162C11.2988 6.92667 11.5671 7.45679 11.8077 7.99984C11.5671 8.54288 11.2988 9.073 11.0037 9.58805M12.2094 8.99983C12.3947 9.50889 12.5469 10.0296 12.6649 10.5586C12.1529 10.7194 11.6309 10.8462 11.1024 10.938C11.3033 10.6329 11.4979 10.3155 11.6863 9.9857C11.8725 9.65982 12.0471 9.331 12.2118 9.00218M7.1665 11.9369C7.52967 11.9592 7.90043 11.9721 8.27586 11.9721C8.65129 11.9721 9.02439 11.9592 9.38815 11.9369C9.04325 12.353 8.6717 12.746 8.27586 13.1133C7.88088 12.7461 7.51029 12.3531 7.1665 11.9369ZM5.44873 10.9369C4.92006 10.8454 4.39792 10.7191 3.8857 10.5586C4.00321 10.0304 4.15475 9.51052 4.33937 9.00218C4.50169 9.331 4.67568 9.65982 4.86486 9.9857C5.05403 10.3116 5.24963 10.6328 5.44873 10.938M4.33937 6.9969C4.15541 6.49045 4.00426 5.9725 3.88686 5.44633C4.39782 5.28571 4.91856 5.15859 5.44581 5.06575C5.24613 5.36986 5.05053 5.68515 4.86194 6.01397C4.67335 6.34279 4.5011 6.6675 4.33645 6.9969M9.38464 4.06223C9.02147 4.03987 8.65071 4.02693 8.27236 4.02693C7.89712 4.02693 7.52733 4.0387 7.16299 4.06223C7.50679 3.646 7.87738 3.253 8.27236 2.88577C8.66834 3.25291 9.03991 3.64591 9.38464 4.06223ZM11.6851 6.01397C11.4959 5.68378 11.3003 5.36614 11.0983 5.06104C11.6282 5.1529 12.1515 5.27984 12.6649 5.44104C12.5471 5.96916 12.3955 6.48906 12.2112 6.99749C12.0489 6.66867 11.8743 6.33985 11.6857 6.01456M3.70937 4.36105C3.56165 2.91165 3.86351 1.85637 4.53146 1.46755C4.74574 1.34853 4.9875 1.28886 5.23211 1.29461C5.90416 1.29461 6.7607 1.66402 7.6733 2.3746C7.09176 2.92548 6.5581 3.52551 6.07815 4.16811C5.28729 4.26547 4.50601 4.42997 3.74265 4.65987C3.72922 4.55928 3.71696 4.45987 3.70761 4.36105M2.86391 5.83515C2.95383 5.79594 3.0455 5.75672 3.13892 5.7175C3.32258 6.49812 3.57162 7.26163 3.88336 7.99984C3.57103 8.73949 3.32179 9.5046 3.13833 10.2869C1.65062 9.67217 0.788233 8.82042 0.788233 7.99984C0.788233 7.2222 1.54727 6.43338 2.86391 5.83515ZM4.53146 14.5321C3.86351 14.1433 3.56165 13.088 3.70937 11.6386C3.71871 11.5398 3.73097 11.4404 3.7444 11.3392C4.50747 11.5707 5.28883 11.7358 6.0799 11.8327C6.55961 12.4752 7.09287 13.0752 7.67389 13.6263C6.40162 14.6162 5.23912 14.9427 4.53322 14.5321M12.8429 11.6386C12.9889 13.0886 12.6888 14.1433 12.0203 14.5321C11.3149 14.9439 10.1519 14.6162 8.88017 13.6263C9.46099 13.0752 9.99406 12.4752 10.4736 11.8327C11.2647 11.7358 12.046 11.5707 12.8091 11.3392C12.8231 11.4404 12.8348 11.5398 12.8447 11.6386M13.4157 10.2857C13.2318 9.50388 12.9823 8.73919 12.6701 7.99984C12.9822 7.26008 13.2314 6.49499 13.4151 5.7128C14.8999 6.3275 15.7647 7.17926 15.7647 7.99984C15.7647 8.82042 14.9023 9.67217 13.4146 10.2869" fill="white"/>
</svg>
