<svg width="16" height="16" viewBox="0 0 16 16" fill="none" xmlns="http://www.w3.org/2000/svg">
<path fill-rule="evenodd" clip-rule="evenodd" d="M12.9666 7.33709C13.3327 7.7032 13.3327 8.2968 12.9666 8.66291L8.27912 13.3504C7.91301 13.7165 7.31941 13.7165 6.9533 13.3504C6.58718 12.9843 6.58718 12.3907 6.9533 12.0246L11.6408 7.33709C12.0069 6.97097 12.6005 6.97097 12.9666 7.33709Z" fill="white"/>
<path fill-rule="evenodd" clip-rule="evenodd" d="M12.0286 2.18084C12.3947 2.54695 12.3947 3.14055 12.0286 3.50666L3.12239 12.4129C2.75627 12.779 2.16268 12.779 1.79656 12.4129C1.43044 12.0468 1.43044 11.4532 1.79656 11.0871L10.7028 2.18084C11.0689 1.81472 11.6625 1.81472 12.0286 2.18084Z" fill="white"/>
</svg>
