<svg width="15" height="16" viewBox="0 0 15 16" fill="none" xmlns="http://www.w3.org/2000/svg">
<path fill-rule="evenodd" clip-rule="evenodd" d="M1.46484 0.5H13.5352C14.3442 0.5 15 1.15583 15 1.96484V14.0352C15 14.8442 14.3442 15.5 13.5352 15.5H1.46484C0.655833 15.5 0 14.8442 0 14.0352V1.96484C0 1.15583 0.655833 0.5 1.46484 0.5ZM9.28532 13.9029V12.4363C9.55125 12.6593 9.84012 12.8266 10.1519 12.9381C10.4637 13.0496 10.7785 13.1054 11.0964 13.1054C11.2829 13.1054 11.4456 13.0886 11.5847 13.055C11.7238 13.0214 11.84 12.9748 11.9332 12.9152C12.0264 12.8556 12.096 12.7854 12.1418 12.7044C12.1877 12.6234 12.2106 12.5356 12.2106 12.4408C12.2106 12.3125 12.1739 12.1979 12.1006 12.0971C12.0272 11.9963 11.9271 11.9031 11.8002 11.8175C11.6734 11.732 11.5228 11.6495 11.3486 11.57C11.1744 11.4906 10.9864 11.4096 10.7846 11.3271C10.2711 11.1132 9.88825 10.852 9.63609 10.5434C9.38391 10.2348 9.25781 9.86202 9.25781 9.42509C9.25781 9.08287 9.3266 8.78879 9.46415 8.54284C9.6017 8.29686 9.78891 8.09445 10.0258 7.93555C10.2627 7.77667 10.5371 7.6598 10.8488 7.58495C11.1606 7.5101 11.4907 7.47266 11.8392 7.47266C12.1816 7.47266 12.485 7.49328 12.7494 7.53453C13.0138 7.57578 13.2575 7.63918 13.4807 7.72473V9.09512C13.3706 9.01871 13.2507 8.9515 13.1208 8.89344C12.9908 8.8354 12.8571 8.78727 12.7196 8.74906C12.582 8.71089 12.4452 8.68262 12.3092 8.66428C12.1731 8.64597 12.044 8.6368 11.9217 8.6368C11.7536 8.6368 11.6008 8.65282 11.4632 8.6849C11.3257 8.71698 11.2095 8.76207 11.1148 8.82011C11.02 8.87817 10.9467 8.94767 10.8947 9.02864C10.8427 9.10962 10.8167 9.20053 10.8167 9.30134C10.8167 9.41135 10.8458 9.50987 10.9039 9.59697C10.9619 9.68404 11.0445 9.76654 11.1514 9.84447C11.2584 9.92237 11.3883 9.99875 11.5412 10.0736C11.694 10.1485 11.8667 10.2256 12.0593 10.3051C12.3222 10.4151 12.5583 10.5319 12.7677 10.6557C12.9771 10.7794 13.1567 10.9192 13.3064 11.0751C13.4562 11.2309 13.5708 11.4089 13.6503 11.609C13.7298 11.8091 13.7695 12.0421 13.7695 12.3079C13.7695 12.6746 13.7 12.9824 13.5609 13.2314C13.4218 13.4804 13.2331 13.6821 12.9947 13.8364C12.7562 13.9907 12.4788 14.1015 12.1625 14.1687C11.8461 14.2359 11.5121 14.2695 11.1606 14.2695C10.7999 14.2695 10.4568 14.239 10.1313 14.1779C9.80572 14.1167 9.52374 14.0251 9.28532 13.9029ZM8.70117 8.82271H6.81973V14.1816H5.32928V8.82271H3.45703V7.61914H8.70117V8.82271Z" fill="white"/>
</svg>
