<svg width="92" height="24" viewBox="0 0 92 24" fill="none" xmlns="http://www.w3.org/2000/svg">
<g id="Warstwa 1">
<path id="Vector" d="M24.0048 12C24.0048 7.76333 21.7981 4.03667 18.4748 1.9L18.4881 1.88C18.3981 1.82667 18.3114 1.78667 18.2214 1.74C16.4048 0.636667 14.2781 0 12.0048 0C5.38809 0 0.00476074 5.38333 0.00476074 12C0.00476074 18.6167 5.38809 24 12.0048 24C12.4348 24 12.8581 23.9767 13.2748 23.9333C13.3848 23.9233 13.4881 23.91 13.5848 23.8933C13.5881 23.8933 13.5914 23.8933 13.5948 23.8933C19.4614 23.1133 24.0014 18.08 24.0014 12.0033L24.0048 12ZM12.0048 2C12.2648 2 12.5214 2.01333 12.7748 2.03333C12.3814 2.33333 12.0348 2.68 11.7481 3.06667C10.1981 5.17333 10.0014 8.78 13.2281 11.72C16.0681 14.3067 17.3114 16.8767 16.7314 18.9567C16.3181 20.4333 14.9814 21.5667 13.2581 21.92C13.1814 21.93 13.1048 21.94 13.0281 21.95C12.3214 21.9967 10.9514 21.7533 10.0648 20.88C9.28809 20.1133 9.01143 18.9833 9.24476 17.52C9.69476 14.6967 8.58809 11.5767 5.59476 11.0667C4.35809 10.86 3.01476 11.2333 2.00143 12.2233C2.00143 12.15 1.99476 12.0767 1.99476 12C1.99476 6.48667 6.48143 2 11.9948 2H12.0048ZM2.56143 15.2833C2.97476 13.49 4.20143 12.8567 5.26809 13.04C6.52143 13.2533 7.68809 14.6467 7.27809 17.2033C7.00809 18.8867 7.28809 20.14 7.75143 21.0467C5.33476 19.9067 3.44809 17.8267 2.56143 15.28V15.2833ZM18.6748 19.44C19.1214 17.7733 19.1548 14.4067 14.5781 10.24C12.2648 8.13333 12.3248 5.66 13.3614 4.25333C14.0814 3.27333 15.4548 2.58333 17.1948 3.45667C20.0781 5.21333 22.0048 8.38667 22.0048 12C22.0048 14.9533 20.7181 17.61 18.6748 19.44Z" fill="#1E3A8A"/>
<g id="Group">
<path id="Vector_2" d="M31.439 8.68671C30.8524 8.36005 30.3857 7.90338 30.0424 7.31671C29.6957 6.73005 29.5257 6.07005 29.5257 5.33671C29.5257 4.60338 29.699 3.94671 30.0424 3.36338C30.3857 2.78005 30.8524 2.32338 31.439 1.99671C32.0257 1.67005 32.6724 1.50671 33.3757 1.50671C34.079 1.50671 34.7257 1.67005 35.3124 1.99671C35.899 2.32338 36.3624 2.78005 36.699 3.36338C37.0357 3.94671 37.2057 4.60338 37.2057 5.33671C37.2057 6.07005 37.0357 6.73005 36.6924 7.31671C36.3524 7.90338 35.889 8.36005 35.3057 8.68671C34.7224 9.01338 34.079 9.17671 33.3757 9.17671C32.6724 9.17671 32.0257 9.01338 31.439 8.68671ZM34.8124 6.91671C35.1724 6.52005 35.3524 5.99338 35.3524 5.33671C35.3524 4.68005 35.1724 4.14671 34.8124 3.75338C34.4524 3.36005 33.9757 3.16005 33.379 3.16005C32.7824 3.16005 32.2924 3.35671 31.9324 3.74671C31.5724 4.13671 31.3924 4.66671 31.3924 5.33671C31.3924 6.00671 31.5724 6.52671 31.9324 6.92005C32.2924 7.31338 32.7724 7.51338 33.379 7.51338C33.9857 7.51338 34.4557 7.31338 34.8124 6.91671Z" fill="#1E3A8A"/>
<path id="Vector_3" d="M40.779 3.32002C41.0924 3.15002 41.459 3.06335 41.879 3.06335C42.369 3.06335 42.8123 3.18669 43.2123 3.43669C43.609 3.68669 43.9257 4.04002 44.1557 4.50335C44.3857 4.96669 44.5024 5.50335 44.5024 6.11335C44.5024 6.72335 44.3857 7.26335 44.1557 7.73002C43.9257 8.19669 43.609 8.55335 43.2123 8.80669C42.8123 9.06002 42.369 9.18669 41.879 9.18669C41.4657 9.18669 41.1023 9.10002 40.7857 8.93002C40.469 8.76002 40.2223 8.54002 40.0457 8.27002V11.94H38.2224V3.15002H40.0457V3.99335C40.2223 3.71669 40.469 3.49335 40.7824 3.32002H40.779ZM42.2657 5.04335C42.0124 4.78335 41.7023 4.65335 41.3323 4.65335C40.9623 4.65335 40.6624 4.78669 40.409 5.04669C40.1557 5.31002 40.029 5.67002 40.029 6.12335C40.029 6.57669 40.1557 6.93669 40.409 7.20002C40.6624 7.46336 40.969 7.59336 41.3323 7.59336C41.6957 7.59336 42.0057 7.46002 42.259 7.19335C42.5157 6.92669 42.6424 6.56669 42.6424 6.11002C42.6424 5.65335 42.5157 5.29669 42.2624 5.03669L42.2657 5.04335Z" fill="#1E3A8A"/>
<path id="Vector_4" d="M51.1921 6.56332H47.0655C47.0921 6.93332 47.2121 7.21665 47.4221 7.40998C47.6321 7.60665 47.8888 7.70332 48.1955 7.70332C48.6521 7.70332 48.9688 7.50998 49.1454 7.12665H51.0855C50.9855 7.51665 50.8054 7.86998 50.5454 8.18332C50.2854 8.49665 49.9621 8.73998 49.5688 8.91998C49.1788 9.09665 48.7388 9.18665 48.2554 9.18665C47.6721 9.18665 47.1521 9.06332 46.6988 8.81332C46.2421 8.56332 45.8888 8.20998 45.6321 7.74665C45.3754 7.28332 45.2488 6.74332 45.2488 6.12665C45.2488 5.50998 45.3754 4.96665 45.6288 4.50665C45.8821 4.04332 46.2354 3.68998 46.6888 3.43998C47.1454 3.18998 47.6654 3.06665 48.2554 3.06665C48.8454 3.06665 49.3421 3.18665 49.7921 3.42998C50.2388 3.67332 50.5888 4.01665 50.8421 4.46332C51.0954 4.90998 51.2221 5.43332 51.2221 6.02998C51.2221 6.19998 51.2121 6.37665 51.1888 6.56332H51.1921ZM49.3554 5.54998C49.3554 5.23665 49.2488 4.98998 49.0354 4.80332C48.8221 4.61998 48.5554 4.52665 48.2354 4.52665C47.9154 4.52665 47.6721 4.61665 47.4621 4.79332C47.2521 4.96998 47.1221 5.22332 47.0721 5.54998H49.3554Z" fill="#1E3A8A"/>
<path id="Vector_5" d="M57.479 3.76346C57.8957 4.21679 58.1024 4.83679 58.1024 5.62346V9.10012H56.289V5.86679C56.289 5.47013 56.1857 5.16013 55.979 4.94012C55.7723 4.72013 55.4957 4.61013 55.1457 4.61013C54.7957 4.61013 54.519 4.72013 54.3123 4.94012C54.1057 5.16013 54.0024 5.47013 54.0024 5.86679V9.10012H52.179V3.15013H54.0024V3.94013C54.1857 3.67679 54.4357 3.47013 54.749 3.31679C55.0623 3.16346 55.4124 3.08679 55.8057 3.08679C56.5024 3.08679 57.059 3.31346 57.4757 3.76346H57.479Z" fill="#1E3A8A"/>
<path id="Vector_6" d="M31.0724 21.7101C30.6391 21.5334 30.2924 21.2701 30.0324 20.9201C29.7724 20.5734 29.6358 20.1534 29.6224 19.6601H31.5624C31.5891 19.9368 31.6858 20.1501 31.8491 20.2934C32.0124 20.4401 32.2258 20.5134 32.4891 20.5134C32.7524 20.5134 32.9724 20.4501 33.1291 20.3268C33.2858 20.2034 33.3624 20.0301 33.3624 19.8101C33.3624 19.6268 33.2991 19.4734 33.1758 19.3501C33.0524 19.2301 32.8991 19.1301 32.7158 19.0501C32.5358 18.9734 32.2758 18.8834 31.9424 18.7834C31.4591 18.6334 31.0624 18.4834 30.7591 18.3368C30.4524 18.1868 30.1891 17.9668 29.9691 17.6768C29.7491 17.3868 29.6391 17.0034 29.6391 16.5368C29.6391 15.8401 29.8924 15.2934 30.3958 14.9001C30.8991 14.5068 31.5591 14.3068 32.3691 14.3068C33.1791 14.3068 33.8591 14.5034 34.3624 14.9001C34.8658 15.2968 35.1391 15.8434 35.1724 16.5468H33.1991C33.1858 16.3034 33.0958 16.1134 32.9324 15.9768C32.7691 15.8368 32.5591 15.7701 32.3024 15.7701C32.0824 15.7701 31.9024 15.8301 31.7691 15.9468C31.6324 16.0634 31.5658 16.2334 31.5658 16.4534C31.5658 16.6968 31.6791 16.8834 31.9058 17.0201C32.1324 17.1568 32.4891 17.3001 32.9724 17.4568C33.4558 17.6201 33.8491 17.7768 34.1524 17.9268C34.4558 18.0768 34.7158 18.2934 34.9358 18.5768C35.1558 18.8601 35.2658 19.2268 35.2658 19.6768C35.2658 20.1268 35.1558 20.4901 34.9391 20.8401C34.7224 21.1901 34.4091 21.4668 33.9958 21.6734C33.5824 21.8801 33.0958 21.9834 32.5358 21.9834C31.9758 21.9834 31.4958 21.8934 31.0624 21.7168L31.0724 21.7101Z" fill="#1E3A8A"/>
<path id="Vector_7" d="M41.9722 19.3634H37.8455C37.8722 19.7334 37.9922 20.0167 38.2022 20.21C38.4122 20.4067 38.6689 20.5034 38.9755 20.5034C39.4322 20.5034 39.7489 20.31 39.9255 19.9267H41.8655C41.7655 20.3167 41.5855 20.67 41.3255 20.9834C41.0655 21.2967 40.7422 21.54 40.3489 21.72C39.9589 21.8967 39.5189 21.9867 39.0355 21.9867C38.4522 21.9867 37.9322 21.8634 37.4789 21.6134C37.0222 21.3634 36.6689 21.01 36.4122 20.5467C36.1555 20.0834 36.0289 19.5434 36.0289 18.9267C36.0289 18.31 36.1555 17.7667 36.4089 17.3067C36.6622 16.8434 37.0155 16.49 37.4689 16.24C37.9255 15.99 38.4455 15.8667 39.0355 15.8667C39.6255 15.8667 40.1222 15.9867 40.5722 16.23C41.0189 16.4734 41.3689 16.8167 41.6222 17.2634C41.8755 17.71 42.0022 18.2334 42.0022 18.83C42.0022 19 41.9922 19.18 41.9689 19.3634H41.9722ZM40.1389 18.35C40.1389 18.0367 40.0322 17.7867 39.8189 17.6034C39.6055 17.42 39.3389 17.3267 39.0189 17.3267C38.6989 17.3267 38.4555 17.4167 38.2455 17.5934C38.0355 17.77 37.9055 18.0234 37.8555 18.35H40.1389Z" fill="#1E3A8A"/>
<path id="Vector_8" d="M44.8357 14.01V21.9033H43.0124V14.01H44.8357Z" fill="#1E3A8A"/>
<path id="Vector_9" d="M49.3557 17.4635H48.3757V21.9002H46.5523V17.4635H45.8923V15.9502H46.5523V15.7802C46.5523 15.0468 46.7623 14.4902 47.1823 14.1102C47.6023 13.7302 48.2157 13.5402 49.029 13.5402C49.1657 13.5402 49.2623 13.5435 49.329 13.5502V15.0968C48.9823 15.0768 48.7357 15.1268 48.5923 15.2468C48.449 15.3668 48.379 15.5835 48.379 15.8968V15.9502H49.359V17.4635H49.3557Z" fill="#1E3A8A"/>
<path id="Vector_10" d="M53.6791 21.7101C53.2458 21.5334 52.8991 21.2701 52.6391 20.9201C52.3791 20.5734 52.2425 20.1534 52.2291 19.6601H54.1691C54.1958 19.9368 54.2925 20.1501 54.4558 20.2934C54.6191 20.4401 54.8325 20.5134 55.0958 20.5134C55.3591 20.5134 55.5791 20.4501 55.7358 20.3268C55.8925 20.2034 55.9691 20.0301 55.9691 19.8101C55.9691 19.6268 55.9058 19.4734 55.7825 19.3501C55.6591 19.2301 55.5058 19.1301 55.3225 19.0501C55.1425 18.9734 54.8825 18.8834 54.5491 18.7834C54.0658 18.6334 53.6691 18.4834 53.3658 18.3368C53.0591 18.1868 52.7958 17.9668 52.5758 17.6768C52.3558 17.3868 52.2458 17.0034 52.2458 16.5368C52.2458 15.8401 52.4991 15.2934 53.0025 14.9001C53.5058 14.5068 54.1658 14.3068 54.9758 14.3068C55.7858 14.3068 56.4658 14.5034 56.9691 14.9001C57.4725 15.2968 57.7458 15.8434 57.7791 16.5468H55.8058C55.7925 16.3034 55.7025 16.1134 55.5391 15.9768C55.3758 15.8368 55.1658 15.7701 54.9091 15.7701C54.6891 15.7701 54.5091 15.8301 54.3758 15.9468C54.2391 16.0634 54.1725 16.2334 54.1725 16.4534C54.1725 16.6968 54.2858 16.8834 54.5125 17.0201C54.7391 17.1568 55.0958 17.3001 55.5791 17.4568C56.0625 17.6201 56.4558 17.7768 56.7591 17.9268C57.0625 18.0768 57.3225 18.2934 57.5425 18.5768C57.7625 18.8601 57.8725 19.2268 57.8725 19.6768C57.8725 20.1268 57.7625 20.4901 57.5458 20.8401C57.3291 21.1901 57.0158 21.4668 56.6025 21.6734C56.1891 21.8801 55.7025 21.9834 55.1425 21.9834C54.5825 21.9834 54.1025 21.8934 53.6691 21.7168L53.6791 21.7101Z" fill="#1E3A8A"/>
<path id="Vector_11" d="M64.5791 19.3634H60.4525C60.4791 19.7334 60.5991 20.0167 60.8091 20.21C61.0191 20.4067 61.2758 20.5034 61.5825 20.5034C62.0391 20.5034 62.3558 20.31 62.5325 19.9267H64.4725C64.3725 20.3167 64.1925 20.67 63.9325 20.9834C63.6725 21.2967 63.3491 21.54 62.9558 21.72C62.5658 21.8967 62.1258 21.9867 61.6425 21.9867C61.0591 21.9867 60.5391 21.8634 60.0858 21.6134C59.6291 21.3634 59.2758 21.01 59.0191 20.5467C58.7625 20.0834 58.6358 19.5434 58.6358 18.9267C58.6358 18.31 58.7625 17.7667 59.0158 17.3067C59.2691 16.8434 59.6225 16.49 60.0758 16.24C60.5325 15.99 61.0525 15.8667 61.6425 15.8667C62.2325 15.8667 62.7291 15.9867 63.1791 16.23C63.6258 16.4734 63.9758 16.8167 64.2291 17.2634C64.4825 17.71 64.6091 18.2334 64.6091 18.83C64.6091 19 64.5991 19.18 64.5758 19.3634H64.5791ZM62.7458 18.35C62.7458 18.0367 62.6391 17.7867 62.4258 17.6034C62.2125 17.42 61.9458 17.3267 61.6258 17.3267C61.3058 17.3267 61.0625 17.4167 60.8525 17.5934C60.6425 17.77 60.5125 18.0234 60.4625 18.35H62.7458Z" fill="#1E3A8A"/>
<path id="Vector_12" d="M68.1956 16.1666C68.5156 15.98 68.8722 15.8833 69.2622 15.8833V17.8133H68.7622C68.3056 17.8133 67.9656 17.91 67.7389 18.1066C67.5122 18.3033 67.3989 18.6466 67.3989 19.1366V21.9H65.5756V15.9466H67.3989V16.94C67.6122 16.6133 67.8789 16.3566 68.1989 16.1666H68.1956Z" fill="#1E3A8A"/>
<path id="Vector_13" d="M73.0257 20.1933L74.3157 15.9467H76.2557L74.1423 21.9H71.8923L69.779 15.9467H71.7323L73.0223 20.1933H73.0257Z" fill="#1E3A8A"/>
<path id="Vector_14" d="M77.1589 15.05C76.9555 14.86 76.8555 14.63 76.8555 14.35C76.8555 14.07 76.9555 13.83 77.1589 13.64C77.3622 13.4534 77.6222 13.3567 77.9422 13.3567C78.2622 13.3567 78.5122 13.45 78.7155 13.64C78.9189 13.83 79.0189 14.0667 79.0189 14.35C79.0189 14.6334 78.9189 14.86 78.7155 15.05C78.5122 15.24 78.2555 15.3334 77.9422 15.3334C77.6289 15.3334 77.3622 15.24 77.1589 15.05ZM78.8489 15.95V21.9034H77.0255V15.95H78.8489Z" fill="#1E3A8A"/>
<path id="Vector_15" d="M80.1888 17.3032C80.4422 16.8398 80.7922 16.4865 81.2455 16.2365C81.6955 15.9865 82.2155 15.8632 82.7988 15.8632C83.5455 15.8632 84.1688 16.0598 84.6722 16.4498C85.1755 16.8398 85.5022 17.3932 85.6588 18.1032H83.7188C83.5555 17.6465 83.2388 17.4198 82.7688 17.4198C82.4355 17.4198 82.1688 17.5498 81.9688 17.8098C81.7688 18.0698 81.6688 18.4398 81.6688 18.9232C81.6688 19.4065 81.7688 19.7798 81.9688 20.0365C82.1688 20.2965 82.4355 20.4265 82.7688 20.4265C83.2388 20.4265 83.5555 20.1998 83.7188 19.7432H85.6588C85.5022 20.4398 85.1722 20.9865 84.6655 21.3865C84.1622 21.7865 83.5388 21.9832 82.7988 21.9832C82.2155 21.9832 81.6988 21.8598 81.2455 21.6098C80.7922 21.3598 80.4422 21.0065 80.1888 20.5432C79.9355 20.0798 79.8088 19.5398 79.8088 18.9232C79.8088 18.3065 79.9355 17.7632 80.1888 17.3032Z" fill="#1E3A8A"/>
<path id="Vector_16" d="M92.2057 19.3634H88.079C88.1057 19.7334 88.2257 20.0167 88.4357 20.21C88.6457 20.4067 88.9023 20.5034 89.209 20.5034C89.6657 20.5034 89.9823 20.31 90.159 19.9267H92.099C91.999 20.3167 91.819 20.67 91.559 20.9834C91.299 21.2967 90.9757 21.54 90.5823 21.72C90.1923 21.8967 89.7523 21.9867 89.269 21.9867C88.6857 21.9867 88.1657 21.8634 87.7123 21.6134C87.2557 21.3634 86.9023 21.01 86.6457 20.5467C86.389 20.0834 86.2623 19.5434 86.2623 18.9267C86.2623 18.31 86.389 17.7667 86.6423 17.3067C86.8957 16.8434 87.249 16.49 87.7023 16.24C88.159 15.99 88.679 15.8667 89.269 15.8667C89.859 15.8667 90.3557 15.9867 90.8057 16.23C91.2523 16.4734 91.6023 16.8167 91.8557 17.2634C92.109 17.71 92.2357 18.2334 92.2357 18.83C92.2357 19 92.2257 19.18 92.2023 19.3634H92.2057ZM90.369 18.35C90.369 18.0367 90.2623 17.7867 90.049 17.6034C89.8357 17.42 89.569 17.3267 89.249 17.3267C88.929 17.3267 88.6857 17.4167 88.4757 17.5934C88.2657 17.77 88.1357 18.0234 88.0857 18.35H90.369Z" fill="#1E3A8A"/>
</g>
</g>
</svg>
