<svg width="482" height="266" viewBox="0 0 482 266" fill="none" xmlns="http://www.w3.org/2000/svg">
<ellipse cx="240.889" cy="167.778" rx="240.889" ry="97.3333" fill="url(#paint0_radial_349_2936)" fill-opacity="0.57"/>
<path d="M8 108.959C8 104.541 11.5817 100.959 16 100.959C20.4183 100.959 24 104.541 24 108.959C24 113.378 20.4183 116.959 16 116.959C11.5817 116.959 8 113.378 8 108.959ZM236.096 132.269C236.594 131.607 237.535 131.475 238.197 131.973C238.858 132.471 238.991 133.412 238.492 134.074L236.096 132.269ZM16.4133 107.517C22.9259 109.384 27.9554 113.187 32.2783 117.728C36.5678 122.233 40.2649 127.586 43.9864 132.527C51.5118 142.52 59.3195 151.094 73.4988 151.094V154.094C57.7613 154.094 49.163 144.388 41.59 134.332C37.7622 129.25 34.2369 124.136 30.1055 119.797C26.0075 115.492 21.4175 112.073 15.5867 110.401L16.4133 107.517ZM73.4988 151.094C89.2093 151.094 97.0735 140.581 105.416 129.294C113.635 118.173 122.333 106.278 139.745 106.278V109.278C124.035 109.278 116.171 119.79 107.828 131.077C99.6091 142.198 90.9117 154.094 73.4988 154.094V151.094ZM139.745 106.278C157.158 106.278 165.856 118.173 174.075 129.294C182.417 140.581 190.282 151.094 205.992 151.094V154.094C188.579 154.094 179.882 142.198 171.662 131.077C163.32 119.79 155.456 109.278 139.745 109.278V106.278ZM205.992 151.094C220.118 151.094 228.612 142.206 236.096 132.269L238.492 134.074C230.94 144.103 221.658 154.094 205.992 154.094V151.094Z" fill="url(#paint1_linear_349_2936)"/>
<path d="M452.444 156.384C452.444 160.802 448.863 164.384 444.444 164.384C440.026 164.384 436.444 160.802 436.444 156.384C436.444 151.965 440.026 148.384 444.444 148.384C448.863 148.384 452.444 151.965 452.444 156.384ZM268.838 133.151C268.408 133.859 267.485 134.085 266.777 133.655C266.069 133.225 265.843 132.302 266.273 131.594L268.838 133.151ZM443.942 157.797C438.622 155.906 434.561 152.071 431.111 147.575C427.679 143.104 424.723 137.793 421.749 132.895C415.674 122.885 409.511 114.611 398.483 114.611L398.483 111.611C411.369 111.611 418.321 121.465 424.314 131.338C427.375 136.38 430.191 141.449 433.491 145.749C436.772 150.025 440.4 153.354 444.947 154.97L443.942 157.797ZM398.483 114.611C392.356 114.611 387.755 117.157 383.827 121.113C379.845 125.124 376.628 130.507 373.295 136.101C370.009 141.618 366.606 147.346 362.315 151.668C357.968 156.046 352.641 159.056 345.53 159.056L345.53 156.056C351.657 156.056 356.258 153.51 360.186 149.554C364.168 145.543 367.385 140.16 370.718 134.566C374.004 129.049 377.407 123.321 381.698 118.999C386.045 114.621 391.373 111.611 398.483 111.611L398.483 114.611ZM345.53 159.056C338.419 159.056 333.091 156.046 328.745 151.668C324.453 147.346 321.051 141.618 317.765 136.101C314.432 130.507 311.215 125.124 307.233 121.113C303.305 117.157 298.704 114.611 292.576 114.611L292.576 111.611C299.687 111.611 305.015 114.621 309.361 118.999C313.653 123.321 317.055 129.049 320.342 134.566C323.675 140.16 326.891 145.543 330.874 149.554C334.801 153.51 339.402 156.056 345.53 156.056L345.53 159.056ZM292.576 114.611C281.59 114.611 274.878 123.199 268.838 133.151L266.273 131.594C272.252 121.745 279.749 111.611 292.576 111.611L292.576 114.611Z" fill="url(#paint2_linear_349_2936)"/>
<path d="M452.444 107.172C452.444 102.754 448.863 99.1719 444.444 99.1719C440.026 99.1719 436.444 102.754 436.444 107.172C436.444 111.59 440.026 115.172 444.444 115.172C448.863 115.172 452.444 111.59 452.444 107.172ZM259.041 130.374C258.594 129.676 257.666 129.473 256.969 129.92C256.271 130.367 256.068 131.294 256.515 131.992L259.041 130.374ZM443.965 105.75C438.384 107.631 434.108 111.45 430.464 115.949C426.843 120.421 423.723 125.732 420.585 130.63C414.192 140.61 407.67 148.944 395.943 148.944L395.943 151.944C409.451 151.944 416.768 142.151 423.111 132.249C426.341 127.206 429.313 122.137 432.795 117.837C436.255 113.565 440.093 110.221 444.923 108.593L443.965 105.75ZM395.943 148.944C389.421 148.944 384.538 146.374 380.389 142.415C376.183 138.401 372.788 133.017 369.272 127.424C365.803 121.906 362.213 116.179 357.687 111.859C353.105 107.485 347.511 104.5 340.062 104.5L340.062 107.5C346.584 107.5 351.468 110.07 355.616 114.029C359.822 118.043 363.217 123.428 366.733 129.02C370.202 134.539 373.792 140.265 378.318 144.585C382.9 148.959 388.494 151.944 395.943 151.944L395.943 148.944ZM340.062 104.5C332.614 104.5 327.02 107.485 322.437 111.859C317.911 116.179 314.321 121.906 310.852 127.424C307.336 133.017 303.941 138.401 299.736 142.415C295.587 146.374 290.703 148.944 284.182 148.944L284.182 151.944C291.63 151.944 297.224 148.959 301.807 144.585C306.333 140.265 309.923 134.539 313.392 129.02C316.908 123.428 320.303 118.043 324.508 114.029C328.657 110.07 333.541 107.5 340.062 107.5L340.062 104.5ZM284.182 148.944C272.498 148.944 265.397 140.297 259.041 130.374L256.515 131.992C262.842 141.87 270.735 151.944 284.182 151.944L284.182 148.944Z" fill="url(#paint3_linear_349_2936)"/>
<path d="M8 149.776C8 154.194 11.5817 157.776 16 157.776C20.4183 157.776 24 154.194 24 149.776C24 145.358 20.4183 141.776 16 141.776C11.5817 141.776 8 145.358 8 149.776ZM202.108 119.068C202.591 118.395 202.437 117.458 201.764 116.975C201.09 116.492 200.153 116.646 199.67 117.319L202.108 119.068ZM15.6826 151.242C17.823 151.705 20.1016 151.944 22.5284 151.944V148.944C20.2994 148.944 18.2345 148.725 16.3174 148.31L15.6826 151.242ZM22.5284 151.944C40.7413 151.944 49.8075 138.258 58.3667 125.502C67.1038 112.481 75.334 100.389 91.7138 100.389V97.3887C73.5009 97.3887 64.4347 111.074 55.8755 123.831C47.1383 136.852 38.9082 148.944 22.5284 148.944V151.944ZM91.7138 100.389C108.094 100.389 116.324 112.481 125.061 125.502C133.62 138.258 142.686 151.944 160.899 151.944V148.944C144.519 148.944 136.289 136.852 127.552 123.831C118.993 111.074 109.927 97.3887 91.7138 97.3887V100.389ZM160.899 151.944C171.636 151.944 179.354 147.317 185.67 140.895C191.897 134.563 196.919 126.297 202.108 119.068L199.67 117.319C194.285 124.822 189.541 132.68 183.531 138.791C177.609 144.812 170.618 148.944 160.899 148.944V151.944Z" fill="url(#paint4_linear_349_2936)"/>
<line x1="242.5" y1="26.6113" x2="242.5" y2="213.834" stroke="white" stroke-width="3" stroke-linecap="round"/>
<path d="M248.667 13.3337V5.83366C248.667 5.39163 248.491 4.96771 248.179 4.65515C247.866 4.34259 247.442 4.16699 247 4.16699H237C236.558 4.16699 236.134 4.34259 235.822 4.65515C235.509 4.96771 235.334 5.39163 235.334 5.83366V13.3337M248.667 13.3337H235.334M248.667 13.3337L249.734 15.4587C249.798 15.5861 249.828 15.728 249.822 15.8706C249.816 16.0132 249.773 16.1519 249.697 16.2731C249.622 16.3944 249.517 16.4944 249.392 16.5633C249.267 16.6323 249.126 16.668 248.984 16.667H235.017C234.874 16.668 234.734 16.6323 234.609 16.5633C234.484 16.4944 234.378 16.3944 234.303 16.2731C234.228 16.1519 234.185 16.0132 234.179 15.8706C234.172 15.728 234.203 15.5861 234.267 15.4587L235.334 13.3337" stroke="white" stroke-width="2" stroke-linecap="round" stroke-linejoin="round"/>
<path d="M243 235.445H243.009M238.834 222.111H247.167C248.087 222.111 248.834 222.858 248.834 223.778V237.111C248.834 238.032 248.087 238.778 247.167 238.778H238.834C237.913 238.778 237.167 238.032 237.167 237.111V223.778C237.167 222.858 237.913 222.111 238.834 222.111Z" stroke="white" stroke-width="2" stroke-linecap="round" stroke-linejoin="round"/>
<circle cx="241" cy="117.111" r="79" fill="url(#paint5_linear_349_2936)"/>
<circle cx="241" cy="117.111" r="79" stroke="white" stroke-width="2"/>
<circle cx="241" cy="117.111" r="79" stroke="url(#paint6_linear_349_2936)" stroke-width="2"/>
<path d="M303.5 117.111C303.5 95.0454 292.007 75.6356 274.698 64.5072L274.767 64.403C274.299 64.1252 273.847 63.9169 273.378 63.6738C263.917 57.9273 252.84 54.6113 241 54.6113C206.538 54.6113 178.5 82.6495 178.5 117.111C178.5 151.573 206.538 179.611 241 179.611C243.24 179.611 245.444 179.49 247.615 179.264C248.187 179.212 248.726 179.143 249.229 179.056C249.247 179.056 249.264 179.056 249.281 179.056C279.837 174.993 303.483 148.778 303.483 117.129L303.5 117.111ZM241 65.028C242.354 65.028 243.691 65.0974 245.01 65.2016C242.962 66.7641 241.156 68.5697 239.663 70.5835C231.59 81.5558 230.566 100.34 247.372 115.653C262.163 129.125 268.639 142.511 265.618 153.344C263.465 161.035 256.503 166.938 247.528 168.778C247.128 168.83 246.729 168.882 246.33 168.934C242.649 169.177 235.514 167.91 230.896 163.361C226.851 159.368 225.41 153.483 226.625 145.861C228.969 131.156 223.205 114.906 207.615 112.25C201.174 111.174 194.177 113.118 188.899 118.275C188.899 117.893 188.865 117.511 188.865 117.111C188.865 88.396 212.233 65.028 240.948 65.028H241ZM191.816 134.212C193.969 124.872 200.358 121.573 205.913 122.528C212.441 123.639 218.517 130.896 216.382 144.212C214.976 152.979 216.434 159.507 218.847 164.229C206.26 158.292 196.434 147.459 191.816 134.195V134.212ZM275.74 155.861C278.066 147.181 278.24 129.646 254.403 107.945C242.354 96.9724 242.667 84.0905 248.066 76.7641C251.816 71.6599 258.969 68.0662 268.031 72.6148C283.049 81.7641 293.083 98.2919 293.083 117.111C293.083 132.493 286.382 146.33 275.74 155.861Z" fill="white"/>
<defs>
<radialGradient id="paint0_radial_349_2936" cx="0" cy="0" r="1" gradientUnits="userSpaceOnUse" gradientTransform="translate(240.889 167.778) rotate(90) scale(97.3333 240.889)">
<stop stop-color="#4C5CE5"/>
<stop offset="1" stop-color="#1A3888" stop-opacity="0"/>
</radialGradient>
<linearGradient id="paint1_linear_349_2936" x1="126.647" y1="152.594" x2="126.647" y2="107.778" gradientUnits="userSpaceOnUse">
<stop stop-color="#2563EB"/>
<stop offset="1" stop-color="#34D399"/>
</linearGradient>
<linearGradient id="paint2_linear_349_2936" x1="356" y1="113.111" x2="356" y2="157.556" gradientUnits="userSpaceOnUse">
<stop stop-color="#2563EB"/>
<stop offset="1" stop-color="#4C5CE5"/>
</linearGradient>
<linearGradient id="paint3_linear_349_2936" x1="351.111" y1="150.444" x2="351.111" y2="106" gradientUnits="userSpaceOnUse">
<stop stop-color="#2563EB"/>
<stop offset="1" stop-color="#21D99A"/>
</linearGradient>
<linearGradient id="paint4_linear_349_2936" x1="108.444" y1="98.8887" x2="108.444" y2="150.444" gradientUnits="userSpaceOnUse">
<stop stop-color="#2563EB"/>
<stop offset="1" stop-color="#4C5CE5"/>
</linearGradient>
<linearGradient id="paint5_linear_349_2936" x1="161" y1="37.1113" x2="257.311" y2="229.066" gradientUnits="userSpaceOnUse">
<stop stop-color="#001A85"/>
<stop offset="0.651042" stop-color="#16182B"/>
</linearGradient>
<linearGradient id="paint6_linear_349_2936" x1="170.57" y1="26.4684" x2="337.15" y2="44.0437" gradientUnits="userSpaceOnUse">
<stop stop-color="#4C5CE5"/>
<stop offset="0.346406" stop-color="#2563EB"/>
<stop offset="1" stop-color="#34D399"/>
</linearGradient>
</defs>
</svg>
