<svg width="472" height="264" viewBox="0 0 472 264" fill="none" xmlns="http://www.w3.org/2000/svg">
<ellipse cx="236" cy="171" rx="236" ry="93" fill="url(#paint0_radial_536_3809)" fill-opacity="0.57"/>
<path d="M3.01968 106.534C3.02219 102.116 6.60594 98.536 11.0242 98.5385C15.4425 98.541 19.0222 102.125 19.0197 106.543C19.0172 110.961 15.4334 114.541 11.0151 114.539C6.59686 114.536 3.01717 110.952 3.01968 106.534ZM185.689 124.978C186.188 124.317 187.128 124.185 187.79 124.683C188.451 125.182 188.583 126.123 188.084 126.784L185.689 124.978ZM11.4338 105.097C16.6789 106.603 20.7196 109.668 24.1763 113.303C27.5996 116.902 30.5532 121.183 33.4978 125.097C39.4694 133.036 45.5898 139.737 56.6992 139.744L56.6975 142.744C44.0299 142.737 37.1196 134.903 31.1003 126.901C28.0496 122.845 25.2677 118.804 22.0024 115.37C18.7704 111.972 15.169 109.291 10.6056 107.98L11.4338 105.097ZM56.6992 139.744C69.0107 139.751 75.1801 131.541 81.8281 122.557C88.3529 113.739 95.3563 104.147 109.37 104.155L109.369 107.155C97.057 107.148 90.8876 115.358 84.2396 124.342C77.7148 133.159 70.7114 142.752 56.6975 142.744L56.6992 139.744ZM109.37 104.155C123.384 104.163 130.377 113.763 136.891 122.588C143.529 131.58 149.689 139.796 162.001 139.803L161.999 142.803C147.985 142.796 140.993 133.195 134.478 124.37C127.84 115.378 121.68 107.162 109.369 107.155L109.37 104.155ZM162.001 139.803C173.07 139.81 179.744 132.863 185.689 124.978L188.084 126.784C182.07 134.761 174.608 142.811 161.999 142.803L162.001 139.803Z" fill="url(#paint1_linear_536_3809)"/>
<path d="M58.6971 209.253C60.7964 213.141 65.6498 214.591 69.5375 212.491C73.4252 210.392 74.875 205.539 72.7757 201.651C70.6764 197.763 65.823 196.313 61.9353 198.413C58.0476 200.512 56.5978 205.365 58.6971 209.253ZM184.596 113.737C184.701 112.915 184.12 112.164 183.298 112.059C182.477 111.954 181.725 112.534 181.62 113.356L184.596 113.737ZM66.1537 206.893C67.848 206.402 69.552 205.7 71.2669 204.774L69.8415 202.134C68.3006 202.966 66.794 203.584 65.3191 204.011L66.1537 206.893ZM71.2669 204.774C84.1692 197.807 85.3392 184.628 86.5046 172.507C87.7006 160.069 88.8921 148.69 100.181 142.594L98.756 139.954C85.8537 146.921 84.6838 160.1 83.5184 172.22C82.3224 184.659 81.1309 196.038 69.8415 202.134L71.2669 204.774ZM100.181 142.594C111.471 136.498 121.639 141.743 132.696 147.565C143.47 153.238 155.131 159.489 168.033 152.522L166.608 149.882C155.319 155.978 145.15 150.733 134.094 144.91C123.32 139.237 111.658 132.987 98.756 139.954L100.181 142.594ZM168.033 152.522C175.634 148.417 179.325 142.186 181.333 135.255C183.306 128.445 183.702 120.717 184.596 113.737L181.62 113.356C180.683 120.671 180.338 127.908 178.452 134.42C176.6 140.812 173.313 146.261 166.608 149.882L168.033 152.522Z" fill="url(#paint2_linear_536_3809)"/>
<path d="M34.2996 47.8495C35.9678 43.7582 40.6368 41.794 44.728 43.4622C48.8193 45.1304 50.7836 49.7993 49.1154 53.8906C47.4472 57.9818 42.7782 59.9461 38.687 58.2779C34.5957 56.6097 32.6314 51.9407 34.2996 47.8495ZM196.533 133.806C197.244 133.382 198.165 133.614 198.59 134.325C199.015 135.037 198.782 135.958 198.071 136.382L196.533 133.806ZM42.6346 49.6908C46.9246 53.0638 49.5116 57.4256 51.3427 62.0955C53.1562 66.7203 54.2779 71.7983 55.5292 76.5343C58.0669 86.1385 61.2088 94.6531 71.496 98.8476L70.3633 101.626C58.6333 96.8427 55.1867 86.9815 52.6288 77.3006C51.3323 72.394 50.2795 67.602 48.5498 63.1907C46.8377 58.8244 44.5128 54.9838 40.7804 52.0492L42.6346 49.6908ZM71.496 98.8476C82.8962 103.496 91.7056 98.2186 101.25 92.4041C110.618 86.6973 120.721 80.4535 133.698 85.7446L132.565 88.5226C121.165 83.8742 112.356 89.1516 102.811 94.9661C93.4431 100.673 83.3399 106.917 70.3633 101.626L71.496 98.8476ZM133.698 85.7446C146.675 91.0358 149.531 102.564 152.238 113.194C154.996 124.025 157.603 133.958 169.003 138.606L167.871 141.384C154.894 136.093 152.037 124.565 149.331 113.934C146.573 103.104 143.966 93.171 132.565 88.5226L133.698 85.7446ZM169.003 138.606C179.253 142.785 188.054 138.868 196.533 133.806L198.071 136.382C189.493 141.503 179.547 146.145 167.871 141.384L169.003 138.606Z" fill="url(#paint3_linear_536_3809)"/>
<path d="M57.0008 229.843C53.6951 226.911 53.3917 221.855 56.3232 218.549C59.2546 215.244 64.3109 214.94 67.6166 217.872C70.9223 220.803 71.2256 225.86 68.2942 229.165C65.3627 232.471 60.3065 232.774 57.0008 229.843ZM168.431 131.777C168.186 130.986 168.629 130.146 169.421 129.901C170.212 129.656 171.052 130.1 171.297 130.891L168.431 131.777ZM61.5847 222.544C65.5882 220.337 70.0781 219.945 74.5992 220.267C79.0899 220.586 83.8347 221.634 88.2988 222.445C97.4706 224.114 105.465 224.766 111.154 218.35L113.398 220.341C106.477 228.146 96.7769 227.037 87.762 225.397C83.1328 224.555 78.6612 223.563 74.3866 223.259C70.1424 222.957 66.3181 223.36 63.0326 225.171L61.5847 222.544ZM111.154 218.35C114.318 214.782 115.217 210.791 114.94 206.431C114.657 201.993 113.166 197.279 111.594 192.338C110.05 187.484 108.424 182.402 108.114 177.526C107.799 172.572 108.832 167.73 112.649 163.426L114.894 165.416C111.729 168.985 110.831 172.975 111.108 177.336C111.39 181.774 112.881 186.488 114.453 191.429C115.998 196.283 117.623 201.364 117.934 206.241C118.249 211.194 117.215 216.037 113.398 220.341L111.154 218.35ZM112.649 163.426C116.466 159.122 121.15 157.517 126.106 157.237C130.984 156.962 136.223 157.969 141.228 158.922C146.321 159.892 151.179 160.808 155.619 160.558C159.982 160.312 163.837 158.942 167.001 155.374L169.245 157.365C165.429 161.669 160.744 163.274 155.788 163.553C150.91 163.828 145.671 162.822 140.667 161.869C135.573 160.899 130.715 159.982 126.275 160.233C121.913 160.479 118.058 161.848 114.894 165.416L112.649 163.426ZM167.001 155.374C172.669 148.982 171.166 140.629 168.431 131.777L171.297 130.891C173.997 139.628 176.135 149.596 169.245 157.365L167.001 155.374Z" fill="url(#paint4_linear_536_3809)"/>
<path d="M18.7155 169.158C19.3298 173.534 23.3748 176.582 27.7501 175.968C32.1255 175.354 35.1744 171.309 34.5601 166.934C33.9458 162.558 29.9008 159.509 25.5255 160.124C21.1501 160.738 18.1012 164.783 18.7155 169.158ZM169.762 129.497C170.302 130.126 171.249 130.198 171.877 129.659C172.506 129.119 172.578 128.172 172.039 127.543L169.762 129.497ZM27.3098 169.387C31.5679 167.253 34.5489 163.721 36.935 159.751C39.3024 155.812 41.1828 151.261 43.1039 147.075C47.0365 138.505 51.1889 131.385 60.2377 130.114L59.8206 127.143C49.0077 128.661 44.2715 137.338 40.3773 145.823C38.385 150.165 36.6175 154.456 34.3637 158.206C32.1284 161.924 29.5147 164.927 25.9658 166.705L27.3098 169.387ZM60.2377 130.114C65.2761 129.407 69.3259 130.858 72.9786 133.48C76.6951 136.147 79.9375 139.978 83.3286 143.998C86.6629 147.951 90.146 152.094 94.2223 155.02C98.3625 157.992 103.173 159.755 109.13 158.919L108.713 155.948C103.674 156.655 99.6245 155.205 95.9718 152.583C92.2552 149.915 89.0129 146.084 85.6218 142.064C82.2874 138.111 78.8044 133.969 74.728 131.042C70.5878 128.071 65.7773 126.307 59.8206 127.143L60.2377 130.114ZM109.13 158.919C115.087 158.083 119.225 155.062 122.387 151.065C125.5 147.13 127.708 142.188 129.825 137.47C131.977 132.671 134.04 128.096 136.878 124.508C139.667 120.981 143.161 118.471 148.199 117.764L147.782 114.793C141.825 115.629 137.687 118.65 134.525 122.647C131.412 126.582 129.204 131.524 127.087 136.242C124.934 141.041 122.872 145.616 120.034 149.204C117.245 152.731 113.751 155.241 108.713 155.948L109.13 158.919ZM148.199 117.764C157.215 116.498 163.66 122.385 169.762 129.497L172.039 127.543C165.971 120.472 158.545 113.282 147.782 114.793L148.199 117.764Z" fill="url(#paint5_linear_536_3809)"/>
<path d="M79.4991 174.987C81.4296 178.961 86.2163 180.618 90.1905 178.687C94.1647 176.757 95.8216 171.97 93.8912 167.996C91.9607 164.022 87.174 162.365 83.1998 164.295C79.2256 166.226 77.5687 171.012 79.4991 174.987ZM212.917 94.4634C213.668 94.8144 214.56 94.4907 214.911 93.7403C215.262 92.9899 214.939 92.097 214.188 91.746L212.917 94.4634ZM87.6757 172.626C94.6142 166.633 95.8766 157.884 97.6501 150.274C99.4582 142.514 101.785 135.611 110.148 131.549L108.838 128.851C99.1601 133.551 96.5685 141.696 94.7284 149.593C92.8534 157.639 91.7374 165.154 85.7146 170.356L87.6757 172.626ZM110.148 131.549C119.414 127.049 126.816 130.525 134.918 134.406C142.902 138.23 151.586 142.458 162.295 137.256L160.984 134.557C151.718 139.058 144.316 135.581 136.214 131.7C128.231 127.877 119.547 123.649 108.838 128.851L110.148 131.549ZM162.295 137.256C173.004 132.054 175.049 122.615 176.979 113.976C178.937 105.208 180.781 97.2405 190.046 92.74L188.735 90.0415C178.026 95.2433 175.981 104.683 174.051 113.322C172.092 122.09 170.249 130.057 160.984 134.557L162.295 137.256ZM190.046 92.74C198.38 88.692 205.746 91.1088 212.917 94.4634L214.188 91.746C206.858 88.3172 198.367 85.363 188.735 90.0415L190.046 92.74Z" fill="url(#paint6_linear_536_3809)"/>
<path d="M42.4813 100.378C41.3079 104.638 43.8098 109.042 48.0694 110.216C52.329 111.389 56.7333 108.887 57.9067 104.628C59.0802 100.368 56.5783 95.9637 52.3187 94.7903C48.0591 93.6169 43.6547 96.1188 42.4813 100.378ZM199.47 118.496C200.115 117.975 200.215 117.031 199.694 116.386C199.174 115.742 198.229 115.642 197.585 116.162L199.47 118.496ZM49.4987 103.832C51.0617 104.65 52.7778 105.322 54.6568 105.839L55.4536 102.947C53.7653 102.482 52.2499 101.886 50.8894 101.174L49.4987 103.832ZM54.6568 105.839C68.7934 109.733 78.7551 101.026 87.9811 93.0796C97.4491 84.9249 106.181 77.5317 118.551 80.9391L119.348 78.0469C105.211 74.1526 95.2493 82.8603 86.0233 90.8065C76.5553 98.9611 67.8229 106.354 55.4536 102.947L54.6568 105.839ZM118.551 80.9391C130.92 84.3465 134.635 95.1685 138.591 107.021C142.447 118.571 146.544 131.152 160.681 135.046L161.477 132.154C149.108 128.746 145.393 117.924 141.437 106.071C137.581 94.5216 133.484 81.9411 119.348 78.0469L118.551 80.9391ZM160.681 135.046C169.009 137.34 175.984 135.394 182.229 131.778C188.364 128.225 193.996 122.918 199.47 118.496L197.585 116.162C191.848 120.796 186.593 125.784 180.725 129.181C174.967 132.516 168.824 134.177 161.477 132.154L160.681 135.046Z" fill="url(#paint7_linear_536_3809)"/>
<path d="M274 108H452.017" stroke="url(#paint8_linear_536_3809)" stroke-width="3" stroke-miterlimit="10"/>
<path d="M274 118H452.017" stroke="url(#paint9_linear_536_3809)" stroke-width="3" stroke-miterlimit="10"/>
<path d="M274 128H452.017" stroke="url(#paint10_linear_536_3809)" stroke-width="3" stroke-miterlimit="10"/>
<path d="M274 138H452.017" stroke="url(#paint11_linear_536_3809)" stroke-width="3" stroke-miterlimit="10"/>
<path d="M274 148H452.017" stroke="url(#paint12_linear_536_3809)" stroke-width="3" stroke-miterlimit="10"/>
<path d="M274 158H452.017" stroke="url(#paint13_linear_536_3809)" stroke-width="3" stroke-miterlimit="10"/>
<circle cx="236" cy="132" r="79" fill="url(#paint14_linear_536_3809)"/>
<circle cx="236" cy="132" r="79" stroke="white" stroke-width="2"/>
<circle cx="236" cy="132" r="79" stroke="url(#paint15_linear_536_3809)" stroke-width="2"/>
<path d="M296 132.111C296 110.928 284.967 92.2947 268.35 81.6113L268.417 81.5113C267.967 81.2447 267.533 81.0447 267.083 80.8113C258 75.2947 247.367 72.1113 236 72.1113C202.917 72.1113 176 99.028 176 132.111C176 165.195 202.917 192.111 236 192.111C238.15 192.111 240.267 191.995 242.35 191.778C242.9 191.728 243.417 191.661 243.9 191.578C243.917 191.578 243.933 191.578 243.95 191.578C273.283 187.678 295.983 162.511 295.983 132.128L296 132.111ZM236 82.1113C237.3 82.1113 238.583 82.178 239.85 82.278C237.883 83.778 236.15 85.5113 234.717 87.4447C226.967 97.978 225.983 116.011 242.117 130.711C256.317 143.645 262.533 156.495 259.633 166.895C257.567 174.278 250.883 179.945 242.267 181.711C241.883 181.761 241.5 181.811 241.117 181.861C237.583 182.095 230.733 180.878 226.3 176.511C222.417 172.678 221.033 167.028 222.2 159.711C224.45 145.595 218.917 129.995 203.95 127.445C197.767 126.411 191.05 128.278 185.983 133.228C185.983 132.861 185.95 132.495 185.95 132.111C185.95 104.545 208.383 82.1113 235.95 82.1113H236ZM188.783 148.528C190.85 139.561 196.983 136.395 202.317 137.311C208.583 138.378 214.417 145.345 212.367 158.128C211.017 166.545 212.417 172.811 214.733 177.345C202.65 171.645 193.217 161.245 188.783 148.511V148.528ZM269.35 169.311C271.583 160.978 271.75 144.145 248.867 123.311C237.3 112.778 237.6 100.411 242.783 93.378C246.383 88.478 253.25 85.028 261.95 89.3947C276.367 98.178 286 114.045 286 132.111C286 146.878 279.567 160.161 269.35 169.311Z" fill="white"/>
<defs>
<radialGradient id="paint0_radial_536_3809" cx="0" cy="0" r="1" gradientUnits="userSpaceOnUse" gradientTransform="translate(236 171) rotate(90) scale(93 236)">
<stop stop-color="#4C5CE5"/>
<stop offset="1" stop-color="#1A3888" stop-opacity="0"/>
</radialGradient>
<linearGradient id="paint1_linear_536_3809" x1="98.939" y1="141.268" x2="98.9592" y2="105.649" gradientUnits="userSpaceOnUse">
<stop stop-color="#2563EB"/>
<stop offset="1" stop-color="#34D399"/>
</linearGradient>
<linearGradient id="paint2_linear_536_3809" x1="111.169" y1="134.956" x2="130.638" y2="171.01" gradientUnits="userSpaceOnUse">
<stop stop-color="#2563EB"/>
<stop offset="1" stop-color="#4C5CE5"/>
</linearGradient>
<linearGradient id="paint3_linear_536_3809" x1="110.044" y1="116.185" x2="123.492" y2="83.2031" gradientUnits="userSpaceOnUse">
<stop stop-color="#2563EB"/>
<stop offset="1" stop-color="#34D399"/>
</linearGradient>
<linearGradient id="paint4_linear_536_3809" x1="134.679" y1="194.083" x2="108.25" y2="170.647" gradientUnits="userSpaceOnUse">
<stop stop-color="#2563EB"/>
<stop offset="1" stop-color="#4C5CE5"/>
</linearGradient>
<linearGradient id="paint5_linear_536_3809" x1="95.314" y1="123.674" x2="100.225" y2="158.654" gradientUnits="userSpaceOnUse">
<stop stop-color="#2563EB"/>
<stop offset="1" stop-color="#21D99A"/>
</linearGradient>
<linearGradient id="paint6_linear_536_3809" x1="141.543" y1="114.632" x2="153.74" y2="139.743" gradientUnits="userSpaceOnUse">
<stop stop-color="#2563EB"/>
<stop offset="1" stop-color="#21D99A"/>
</linearGradient>
<linearGradient id="paint7_linear_536_3809" x1="131.769" y1="83.0244" x2="120.887" y2="122.528" gradientUnits="userSpaceOnUse">
<stop stop-color="#2563EB"/>
<stop offset="1" stop-color="#4C5CE5"/>
</linearGradient>
<linearGradient id="paint8_linear_536_3809" x1="274" y1="108" x2="452.017" y2="108" gradientUnits="userSpaceOnUse">
<stop offset="0.41" stop-color="#2563EB"/>
<stop offset="1" stop-color="#001A85" stop-opacity="0"/>
</linearGradient>
<linearGradient id="paint9_linear_536_3809" x1="274" y1="118" x2="452.017" y2="118" gradientUnits="userSpaceOnUse">
<stop offset="0.41" stop-color="#2563EB"/>
<stop offset="1" stop-color="#001A85" stop-opacity="0"/>
</linearGradient>
<linearGradient id="paint10_linear_536_3809" x1="274" y1="128" x2="452.017" y2="128" gradientUnits="userSpaceOnUse">
<stop offset="0.41" stop-color="#2563EB"/>
<stop offset="1" stop-color="#001A85" stop-opacity="0"/>
</linearGradient>
<linearGradient id="paint11_linear_536_3809" x1="274" y1="138" x2="452.017" y2="138" gradientUnits="userSpaceOnUse">
<stop offset="0.41" stop-color="#2563EB"/>
<stop offset="1" stop-color="#001A85" stop-opacity="0"/>
</linearGradient>
<linearGradient id="paint12_linear_536_3809" x1="274" y1="148" x2="452.017" y2="148" gradientUnits="userSpaceOnUse">
<stop offset="0.41" stop-color="#2563EB"/>
<stop offset="1" stop-color="#001A85" stop-opacity="0"/>
</linearGradient>
<linearGradient id="paint13_linear_536_3809" x1="274" y1="158" x2="452.017" y2="158" gradientUnits="userSpaceOnUse">
<stop offset="0.41" stop-color="#2563EB"/>
<stop offset="1" stop-color="#001A85" stop-opacity="0"/>
</linearGradient>
<linearGradient id="paint14_linear_536_3809" x1="156" y1="52" x2="252.311" y2="243.955" gradientUnits="userSpaceOnUse">
<stop stop-color="#001A85"/>
<stop offset="0.651042" stop-color="#16182B"/>
</linearGradient>
<linearGradient id="paint15_linear_536_3809" x1="165.57" y1="41.3571" x2="332.15" y2="58.9323" gradientUnits="userSpaceOnUse">
<stop stop-color="#4C5CE5"/>
<stop offset="0.346406" stop-color="#2563EB"/>
<stop offset="1" stop-color="#34D399"/>
</linearGradient>
</defs>
</svg>
