<svg width="472" height="381" viewBox="0 0 472 381" fill="none" xmlns="http://www.w3.org/2000/svg">
<g clip-path="url(#clip0_561_1806)">
<ellipse cx="236" cy="262" rx="236" ry="119" fill="url(#paint0_radial_561_1806)" fill-opacity="0.57"/>
<path d="M56.0093 36.771H415.919V251.882C415.919 262.928 406.964 271.882 395.919 271.882H76.0093C64.9636 271.882 56.0093 262.928 56.0093 251.882V36.771Z" fill="white"/>
<path d="M56.0093 36.771H415.919V20.0001C415.919 8.95438 406.964 8.39233e-05 395.919 8.39233e-05H76.0093C64.9636 8.39233e-05 56.0093 8.95439 56.0093 20.0001V36.771Z" fill="#E5E9FD"/>
<circle cx="80.0719" cy="18.5099" r="6.47813" fill="#D61830"/>
<circle cx="100.431" cy="18.5099" r="6.47813" fill="#FBBF24"/>
<circle cx="120.792" cy="18.5099" r="6.47813" fill="#2DD4BF"/>
<rect x="218.692" y="96" width="83.5703" height="5" rx="2" fill="#C6CFFF"/>
<rect x="218.692" y="104.914" width="83.5703" height="5" rx="2" fill="#C6CFFF"/>
<rect x="218.692" y="113.828" width="83.5703" height="5" rx="2" fill="#C6CFFF"/>
<rect x="218.692" y="122.742" width="83.5703" height="5" rx="2" fill="#C6CFFF"/>
<rect x="307.835" y="96" width="83.5703" height="5" rx="2" fill="#C6CFFF"/>
<rect x="307.835" y="104.914" width="83.5703" height="5" rx="2" fill="#C6CFFF"/>
<rect x="307.835" y="113.828" width="83.5703" height="5" rx="2" fill="#C6CFFF"/>
<rect x="307.835" y="122.742" width="83.5703" height="5" rx="2" fill="#C6CFFF"/>
<rect x="76.0664" y="61.0449" width="122.57" height="61.2849" rx="8" fill="#C6CFFF"/>
<rect x="144" y="69" width="47" height="18" rx="2" fill="white" fill-opacity="0.7"/>
<rect x="144" y="91" width="46.7993" height="5" rx="2" fill="white" fill-opacity="0.7"/>
<rect x="144" y="100" width="46.7993" height="5" rx="2" fill="white" fill-opacity="0.7"/>
<rect x="144" y="109" width="46.7993" height="5" rx="2" fill="white" fill-opacity="0.7"/>
<rect x="82.7949" y="68.2266" width="47.5791" height="47.5791" rx="23.7895" fill="#EEF1FF"/>
<path d="M75.6709 141.367C75.6709 136.949 79.2526 133.367 83.6709 133.367H190.622C195.04 133.367 198.622 136.949 198.622 141.367V166.81H75.6709V141.367Z" fill="#C6CFFF"/>
<path d="M57 167.81H415V252.055C415 262.549 406.493 271.055 396 271.055H76C65.5066 271.055 57 262.549 57 252.055V167.81Z" fill="url(#paint1_linear_561_1806)"/>
<path d="M57 167.81H415V252.055C415 262.549 406.493 271.055 396 271.055H76C65.5066 271.055 57 262.549 57 252.055V167.81Z" stroke="white" stroke-width="2"/>
<path d="M57 167.81H415V252.055C415 262.549 406.493 271.055 396 271.055H76C65.5066 271.055 57 262.549 57 252.055V167.81Z" stroke="url(#paint2_linear_561_1806)" stroke-width="2"/>
<rect x="218.294" y="61.564" width="173.115" height="28.5246" rx="7" fill="#C6CFFF"/>
<path d="M218.294 141.367C218.294 136.949 221.876 133.367 226.294 133.367H264.392C268.811 133.367 272.392 136.949 272.392 141.367V165.826H218.294V141.367Z" fill="#C6CFFF"/>
<path d="M279.277 141.367C279.277 136.949 282.859 133.367 287.277 133.367H324.392C328.81 133.367 332.392 136.949 332.392 141.367V165.826H279.277V141.367Z" fill="#C6CFFF"/>
<path d="M339.277 141.367C339.277 136.949 342.859 133.367 347.277 133.367H384.392C388.81 133.367 392.392 136.949 392.392 141.367V165.826H339.277V141.367Z" fill="#C6CFFF"/>
<path d="M363.868 216.974V196.308C363.868 191.89 360.287 188.308 355.868 188.308H112.196C107.778 188.308 104.196 191.89 104.196 196.308V216.974M235.704 203.192V166.81" stroke="url(#paint3_linear_561_1806)" stroke-width="2"/>
<rect x="82.752" y="202.797" width="44.5708" height="44.5708" rx="8" fill="black"/>
<g clip-path="url(#clip1_561_1806)">
<path d="M105.099 222.169C103.213 222.169 101.684 223.709 101.684 225.609C101.684 227.508 103.213 229.048 105.099 229.048C106.985 229.048 108.514 227.508 108.514 225.609C108.514 223.709 106.985 222.169 105.099 222.169Z" fill="#58C4DC"/>
<path d="M122.862 225.639C122.862 222.939 120.379 220.57 116.426 219.012C116.479 218.661 116.527 218.313 116.56 217.972C116.95 214.092 116.022 211.292 113.948 210.085C111.627 208.736 108.349 209.715 105.035 212.387C101.721 209.715 98.4428 208.736 96.1222 210.085C94.048 211.292 93.1198 214.092 93.5097 217.972C93.5436 218.313 93.5902 218.662 93.6443 219.014C93.3147 219.141 92.9915 219.275 92.6808 219.416C89.1513 221.014 87.208 223.226 87.208 225.639C87.208 228.339 89.6909 230.708 93.6443 232.266C93.5902 232.617 93.5436 232.965 93.5097 233.306C93.1198 237.186 94.048 239.986 96.1222 241.193C96.8353 241.6 97.6433 241.808 98.463 241.796C100.428 241.796 102.722 240.754 105.035 238.891C107.347 240.754 109.642 241.796 111.61 241.796C112.429 241.808 113.237 241.6 113.95 241.193C116.025 239.986 116.953 237.186 116.563 233.306C116.529 232.965 116.481 232.617 116.428 232.266C120.382 230.71 122.865 228.338 122.865 225.639M111.595 211.193C112.122 211.18 112.643 211.309 113.104 211.565C114.544 212.403 115.191 214.675 114.876 217.799C114.855 218.012 114.83 218.227 114.8 218.444C113.156 217.945 111.472 217.589 109.768 217.381C108.735 215.997 107.586 214.705 106.334 213.52C108.3 211.989 110.146 211.193 111.593 211.193M110.918 229.06C110.282 230.173 109.589 231.251 108.842 232.292C107.577 232.423 106.306 232.488 105.034 232.487C103.762 232.488 102.491 232.423 101.226 232.292C100.482 231.251 99.7912 230.173 99.1573 229.06C98.5212 227.951 97.943 226.809 97.4253 225.639C97.943 224.469 98.5212 223.327 99.1573 222.218C99.7902 221.11 100.479 220.035 101.22 218.998C102.487 218.863 103.761 218.797 105.035 218.797C106.307 218.797 107.578 218.862 108.842 218.993C109.586 220.032 110.277 221.108 110.913 222.218C111.548 223.327 112.127 224.469 112.645 225.639C112.127 226.809 111.548 227.951 110.913 229.06M113.51 227.793C113.909 228.89 114.237 230.012 114.491 231.151C113.388 231.498 112.264 231.771 111.125 231.969C111.558 231.311 111.977 230.628 112.383 229.917C112.784 229.215 113.161 228.507 113.515 227.798M102.646 234.12C103.429 234.168 104.228 234.196 105.036 234.196C105.845 234.196 106.649 234.168 107.432 234.12C106.689 235.017 105.889 235.863 105.036 236.655C104.185 235.864 103.387 235.017 102.646 234.12ZM98.946 231.966C97.8071 231.769 96.6823 231.497 95.5788 231.151C95.8319 230.013 96.1584 228.893 96.5561 227.798C96.9058 228.507 97.2806 229.215 97.6882 229.917C98.0957 230.619 98.5171 231.311 98.946 231.969M96.5561 223.478C96.1598 222.387 95.8342 221.272 95.5813 220.138C96.682 219.792 97.8038 219.518 98.9397 219.318C98.5095 219.973 98.0881 220.653 97.6819 221.361C97.2756 222.069 96.9045 222.769 96.5498 223.478M107.425 217.156C106.643 217.108 105.844 217.08 105.029 217.08C104.22 217.08 103.424 217.106 102.639 217.156C103.38 216.26 104.178 215.413 105.029 214.622C105.882 215.413 106.682 216.26 107.425 217.156ZM112.381 221.361C111.973 220.65 111.552 219.965 111.117 219.308C112.258 219.506 113.386 219.779 114.491 220.127C114.238 221.264 113.911 222.384 113.514 223.48C113.164 222.771 112.788 222.063 112.382 221.362M95.1989 217.8C94.8807 214.678 95.531 212.404 96.9699 211.567C97.4315 211.31 97.9524 211.182 98.4793 211.194C99.9271 211.194 101.772 211.99 103.738 213.521C102.485 214.708 101.336 216 100.302 217.384C98.5982 217.594 96.9151 217.949 95.2706 218.444C95.2417 218.227 95.2153 218.013 95.1952 217.8M93.3776 220.976C93.5713 220.891 93.7688 220.807 93.97 220.722C94.3657 222.404 94.9022 224.049 95.5738 225.639C94.9009 227.232 94.364 228.881 93.9688 230.566C90.7639 229.242 88.9061 227.407 88.9061 225.639C88.9061 223.964 90.5412 222.264 93.3776 220.976ZM96.9699 239.711C95.531 238.874 94.8807 236.6 95.1989 233.478C95.2191 233.265 95.2455 233.051 95.2744 232.833C96.9183 233.331 98.6015 233.687 100.306 233.896C101.339 235.28 102.488 236.573 103.74 237.76C100.999 239.892 98.4944 240.596 96.9737 239.711M114.875 233.478C115.189 236.602 114.543 238.874 113.103 239.711C111.583 240.598 109.078 239.892 106.338 237.76C107.589 236.573 108.738 235.28 109.771 233.896C111.475 233.687 113.158 233.332 114.802 232.833C114.832 233.051 114.857 233.265 114.879 233.478M116.109 230.563C115.713 228.879 115.175 227.232 114.503 225.639C115.175 224.045 115.712 222.397 116.108 220.712C119.306 222.036 121.169 223.871 121.169 225.639C121.169 227.407 119.311 229.242 116.106 230.566" fill="#58C4DC"/>
</g>
<rect x="341.265" y="202.796" width="44.5708" height="44.5708" rx="8" fill="black"/>
<g clip-path="url(#clip2_561_1806)">
<path fill-rule="evenodd" clip-rule="evenodd" d="M377.063 223.407C377.988 224.332 377.988 225.831 377.063 226.756L365.224 238.595C364.299 239.52 362.8 239.52 361.875 238.595C360.95 237.67 360.95 236.171 361.875 235.247L373.714 223.407C374.639 222.483 376.138 222.483 377.063 223.407Z" fill="white"/>
<path fill-rule="evenodd" clip-rule="evenodd" d="M374.695 210.384C375.619 211.309 375.619 212.808 374.695 213.733L352.2 236.227C351.276 237.152 349.776 237.152 348.852 236.227C347.927 235.302 347.927 233.803 348.852 232.878L371.346 210.384C372.271 209.459 373.77 209.459 374.695 210.384Z" fill="white"/>
</g>
<rect x="212.008" y="202.797" width="44.5708" height="44.5708" rx="8" fill="black"/>
<mask id="mask0_561_1806" style="mask-type:alpha" maskUnits="userSpaceOnUse" x="206" y="197" width="57" height="56">
<path d="M234.292 252.938C249.677 252.938 262.149 240.466 262.149 225.081C262.149 209.697 249.677 197.225 234.292 197.225C218.907 197.225 206.436 209.697 206.436 225.081C206.436 240.466 218.907 252.938 234.292 252.938Z" fill="black"/>
</mask>
<g mask="url(#mask0_561_1806)">
<path d="M252.71 245.98L227.835 213.938H223.148V236.215H226.898V218.7L249.767 248.247C250.799 247.557 251.782 246.799 252.71 245.98Z" fill="url(#paint4_linear_561_1806)"/>
<path d="M245.743 213.938H242.028V236.224H245.743V213.938Z" fill="url(#paint5_linear_561_1806)"/>
</g>
<g filter="url(#filter0_d_561_1806)">
<line x1="39" y1="167" x2="433" y2="167" stroke="#4C5CE5" stroke-width="6" stroke-linecap="round"/>
</g>
</g>
<defs>
<filter id="filter0_d_561_1806" x="32" y="163" width="408" height="14" filterUnits="userSpaceOnUse" color-interpolation-filters="sRGB">
<feFlood flood-opacity="0" result="BackgroundImageFix"/>
<feColorMatrix in="SourceAlpha" type="matrix" values="0 0 0 0 0 0 0 0 0 0 0 0 0 0 0 0 0 0 127 0" result="hardAlpha"/>
<feOffset dy="3"/>
<feGaussianBlur stdDeviation="2"/>
<feComposite in2="hardAlpha" operator="out"/>
<feColorMatrix type="matrix" values="0 0 0 0 0.0408795 0 0 0 0 0.0652229 0 0 0 0 0.273663 0 0 0 0.78 0"/>
<feBlend mode="normal" in2="BackgroundImageFix" result="effect1_dropShadow_561_1806"/>
<feBlend mode="normal" in="SourceGraphic" in2="effect1_dropShadow_561_1806" result="shape"/>
</filter>
<radialGradient id="paint0_radial_561_1806" cx="0" cy="0" r="1" gradientUnits="userSpaceOnUse" gradientTransform="translate(236 262) rotate(90) scale(119 236)">
<stop stop-color="#4C5CE5"/>
<stop offset="1" stop-color="#1A3888" stop-opacity="0"/>
</radialGradient>
<linearGradient id="paint1_linear_561_1806" x1="56" y1="166.81" x2="78.6951" y2="321.532" gradientUnits="userSpaceOnUse">
<stop stop-color="#001A85"/>
<stop offset="0.787082" stop-color="#16182B"/>
</linearGradient>
<linearGradient id="paint2_linear_561_1806" x1="77.5322" y1="159.809" x2="412.838" y2="280.818" gradientUnits="userSpaceOnUse">
<stop stop-color="#4C5CE5"/>
<stop offset="0.346406" stop-color="#2563EB"/>
<stop offset="1" stop-color="#34D399"/>
</linearGradient>
<linearGradient id="paint3_linear_561_1806" x1="104.196" y1="234.614" x2="368.117" y2="182.832" gradientUnits="userSpaceOnUse">
<stop stop-color="#21D99A"/>
<stop offset="0.710851" stop-color="#4C5CE5"/>
</linearGradient>
<linearGradient id="paint4_linear_561_1806" x1="240.172" y1="233.283" x2="251.16" y2="246.902" gradientUnits="userSpaceOnUse">
<stop stop-color="white"/>
<stop offset="1" stop-color="white" stop-opacity="0"/>
</linearGradient>
<linearGradient id="paint5_linear_561_1806" x1="243.885" y1="213.938" x2="243.823" y2="230.304" gradientUnits="userSpaceOnUse">
<stop stop-color="white"/>
<stop offset="1" stop-color="white" stop-opacity="0"/>
</linearGradient>
<clipPath id="clip0_561_1806">
<rect width="472" height="381" fill="white"/>
</clipPath>
<clipPath id="clip1_561_1806">
<rect width="35.6566" height="32.3138" fill="white" transform="translate(87.208 209.482)"/>
</clipPath>
<clipPath id="clip2_561_1806">
<rect width="37.8852" height="37.8852" fill="white" transform="translate(344.606 206.139)"/>
</clipPath>
</defs>
</svg>
