<svg width="1280" height="653" viewBox="0 0 1280 653" fill="none" xmlns="http://www.w3.org/2000/svg">
<ellipse cx="640" cy="326.5" rx="640" ry="306.5" fill="url(#paint0_radial_657_1937)" fill-opacity="0.57"/>
<g filter="url(#filter0_d_657_1937)">
<path d="M539.06 200.994L1125.61 200.994C1139.44 200.994 1149.1 214.7 1144.44 227.726L1079.74 408.726C1076.9 416.683 1069.36 421.994 1060.91 421.994L473.949 421.994C460.099 421.994 450.442 408.257 455.13 395.224L520.241 214.224C523.096 206.287 530.625 200.994 539.06 200.994Z" fill="url(#paint1_linear_657_1937)"/>
<path d="M539.06 200.994L1125.61 200.994C1139.44 200.994 1149.1 214.7 1144.44 227.726L1079.74 408.726C1076.9 416.683 1069.36 421.994 1060.91 421.994L473.949 421.994C460.099 421.994 450.442 408.257 455.13 395.224L520.241 214.224C523.096 206.287 530.625 200.994 539.06 200.994Z" stroke="white" stroke-width="2"/>
<path d="M539.06 200.994L1125.61 200.994C1139.44 200.994 1149.1 214.7 1144.44 227.726L1079.74 408.726C1076.9 416.683 1069.36 421.994 1060.91 421.994L473.949 421.994C460.099 421.994 450.442 408.257 455.13 395.224L520.241 214.224C523.096 206.287 530.625 200.994 539.06 200.994Z" stroke="url(#paint2_linear_657_1937)" stroke-width="2"/>
</g>
<path d="M491.167 342C491.167 340.527 489.973 339.333 488.5 339.333C487.027 339.333 485.833 340.527 485.833 342C485.833 343.473 487.027 344.667 488.5 344.667C489.973 344.667 491.167 343.473 491.167 342ZM488.5 341.5L242.5 341.5L242.5 342.5L488.5 342.5L488.5 341.5Z" fill="url(#paint3_linear_657_1937)"/>
<path d="M129.484 345.016H125.292L124.62 347H121.756L125.82 335.768H128.988L133.052 347H130.156L129.484 345.016ZM128.78 342.904L127.388 338.792L126.012 342.904H128.78ZM142.849 339.384C142.849 340.035 142.7 340.632 142.401 341.176C142.102 341.709 141.644 342.141 141.025 342.472C140.406 342.803 139.638 342.968 138.721 342.968H137.025V347H134.289V335.768H138.721C139.617 335.768 140.374 335.923 140.993 336.232C141.612 336.541 142.076 336.968 142.385 337.512C142.694 338.056 142.849 338.68 142.849 339.384ZM138.513 340.792C139.036 340.792 139.425 340.669 139.681 340.424C139.937 340.179 140.065 339.832 140.065 339.384C140.065 338.936 139.937 338.589 139.681 338.344C139.425 338.099 139.036 337.976 138.513 337.976H137.025V340.792H138.513ZM147.009 335.768V347H144.273V335.768H147.009ZM162.111 335.768V347H159.375V342.376H155.119V347H152.383V335.768H155.119V340.168H159.375V335.768H162.111ZM163.542 342.52C163.542 341.603 163.712 340.797 164.054 340.104C164.406 339.411 164.88 338.877 165.478 338.504C166.075 338.131 166.742 337.944 167.478 337.944C168.107 337.944 168.656 338.072 169.126 338.328C169.606 338.584 169.974 338.92 170.23 339.336V338.072H172.966V347H170.23V345.736C169.963 346.152 169.59 346.488 169.11 346.744C168.64 347 168.091 347.128 167.462 347.128C166.736 347.128 166.075 346.941 165.478 346.568C164.88 346.184 164.406 345.645 164.054 344.952C163.712 344.248 163.542 343.437 163.542 342.52ZM170.23 342.536C170.23 341.853 170.038 341.315 169.654 340.92C169.28 340.525 168.822 340.328 168.278 340.328C167.734 340.328 167.27 340.525 166.886 340.92C166.512 341.304 166.326 341.837 166.326 342.52C166.326 343.203 166.512 343.747 166.886 344.152C167.27 344.547 167.734 344.744 168.278 344.744C168.822 344.744 169.28 344.547 169.654 344.152C170.038 343.757 170.23 343.219 170.23 342.536ZM177.681 339.56C178.001 339.069 178.401 338.685 178.881 338.408C179.361 338.12 179.894 337.976 180.481 337.976V340.872H179.729C179.046 340.872 178.534 341.021 178.193 341.32C177.852 341.608 177.681 342.12 177.681 342.856V347H174.945V338.072H177.681V339.56ZM193.181 337.976C194.29 337.976 195.17 338.312 195.821 338.984C196.482 339.656 196.813 340.589 196.813 341.784V347H194.093V342.152C194.093 341.576 193.938 341.133 193.629 340.824C193.33 340.504 192.914 340.344 192.381 340.344C191.848 340.344 191.426 340.504 191.117 340.824C190.818 341.133 190.669 341.576 190.669 342.152V347H187.949V342.152C187.949 341.576 187.794 341.133 187.485 340.824C187.186 340.504 186.77 340.344 186.237 340.344C185.704 340.344 185.282 340.504 184.973 340.824C184.674 341.133 184.525 341.576 184.525 342.152V347H181.789V338.072H184.525V339.192C184.802 338.819 185.165 338.525 185.613 338.312C186.061 338.088 186.568 337.976 187.133 337.976C187.805 337.976 188.402 338.12 188.925 338.408C189.458 338.696 189.874 339.107 190.173 339.64C190.482 339.149 190.904 338.749 191.437 338.44C191.97 338.131 192.552 337.976 193.181 337.976ZM202.79 347.128C201.916 347.128 201.126 346.941 200.422 346.568C199.729 346.195 199.18 345.661 198.774 344.968C198.38 344.275 198.182 343.464 198.182 342.536C198.182 341.619 198.385 340.813 198.79 340.12C199.196 339.416 199.75 338.877 200.454 338.504C201.158 338.131 201.948 337.944 202.822 337.944C203.697 337.944 204.486 338.131 205.19 338.504C205.894 338.877 206.449 339.416 206.854 340.12C207.26 340.813 207.462 341.619 207.462 342.536C207.462 343.453 207.254 344.264 206.838 344.968C206.433 345.661 205.873 346.195 205.158 346.568C204.454 346.941 203.665 347.128 202.79 347.128ZM202.79 344.76C203.313 344.76 203.756 344.568 204.118 344.184C204.492 343.8 204.678 343.251 204.678 342.536C204.678 341.821 204.497 341.272 204.134 340.888C203.782 340.504 203.345 340.312 202.822 340.312C202.289 340.312 201.846 340.504 201.494 340.888C201.142 341.261 200.966 341.811 200.966 342.536C200.966 343.251 201.137 343.8 201.478 344.184C201.83 344.568 202.268 344.76 202.79 344.76ZM214.354 337.976C215.399 337.976 216.231 338.317 216.85 339C217.479 339.672 217.794 340.6 217.794 341.784V347H215.074V342.152C215.074 341.555 214.919 341.091 214.61 340.76C214.301 340.429 213.885 340.264 213.362 340.264C212.839 340.264 212.423 340.429 212.114 340.76C211.805 341.091 211.65 341.555 211.65 342.152V347H208.914V338.072H211.65V339.256C211.927 338.861 212.301 338.552 212.77 338.328C213.239 338.093 213.767 337.976 214.354 337.976ZM221.071 337.144C220.591 337.144 220.196 337.005 219.887 336.728C219.588 336.44 219.439 336.088 219.439 335.672C219.439 335.245 219.588 334.893 219.887 334.616C220.196 334.328 220.591 334.184 221.071 334.184C221.54 334.184 221.924 334.328 222.223 334.616C222.532 334.893 222.687 335.245 222.687 335.672C222.687 336.088 222.532 336.44 222.223 336.728C221.924 337.005 221.54 337.144 221.071 337.144ZM222.431 338.072V347H219.695V338.072H222.431ZM226.974 344.744H230.846V347H223.918V344.824L227.63 340.328H223.95V338.072H230.766V340.248L226.974 344.744ZM231.807 342.52C231.807 341.603 231.978 340.797 232.319 340.104C232.671 339.411 233.146 338.877 233.743 338.504C234.341 338.131 235.007 337.944 235.743 337.944C236.373 337.944 236.922 338.072 237.391 338.328C237.871 338.584 238.239 338.92 238.495 339.336V338.072H241.231V347H238.495V345.736C238.229 346.152 237.855 346.488 237.375 346.744C236.906 347 236.357 347.128 235.727 347.128C235.002 347.128 234.341 346.941 233.743 346.568C233.146 346.184 232.671 345.645 232.319 344.952C231.978 344.248 231.807 343.437 231.807 342.52ZM238.495 342.536C238.495 341.853 238.303 341.315 237.919 340.92C237.546 340.525 237.087 340.328 236.543 340.328C235.999 340.328 235.535 340.525 235.151 340.92C234.778 341.304 234.591 341.837 234.591 342.52C234.591 343.203 234.778 343.747 235.151 344.152C235.535 344.547 235.999 344.744 236.543 344.744C237.087 344.744 237.546 344.547 237.919 344.152C238.303 343.757 238.495 343.219 238.495 342.536ZM248.187 344.68V347H246.795C245.803 347 245.029 346.76 244.475 346.28C243.92 345.789 243.643 344.995 243.643 343.896V340.344H242.555V338.072H243.643V335.896H246.379V338.072H248.171V340.344H246.379V343.928C246.379 344.195 246.443 344.387 246.571 344.504C246.699 344.621 246.912 344.68 247.211 344.68H248.187ZM251.087 337.144C250.607 337.144 250.212 337.005 249.903 336.728C249.604 336.44 249.455 336.088 249.455 335.672C249.455 335.245 249.604 334.893 249.903 334.616C250.212 334.328 250.607 334.184 251.087 334.184C251.556 334.184 251.94 334.328 252.239 334.616C252.548 334.893 252.703 335.245 252.703 335.672C252.703 336.088 252.548 336.44 252.239 336.728C251.94 337.005 251.556 337.144 251.087 337.144ZM252.447 338.072V347H249.711V338.072H252.447ZM258.494 347.128C257.619 347.128 256.83 346.941 256.126 346.568C255.432 346.195 254.883 345.661 254.478 344.968C254.083 344.275 253.886 343.464 253.886 342.536C253.886 341.619 254.088 340.813 254.493 340.12C254.899 339.416 255.454 338.877 256.158 338.504C256.862 338.131 257.651 337.944 258.526 337.944C259.4 337.944 260.19 338.131 260.894 338.504C261.598 338.877 262.152 339.416 262.558 340.12C262.963 340.813 263.166 341.619 263.166 342.536C263.166 343.453 262.958 344.264 262.542 344.968C262.136 345.661 261.576 346.195 260.862 346.568C260.158 346.941 259.368 347.128 258.494 347.128ZM258.494 344.76C259.016 344.76 259.459 344.568 259.822 344.184C260.195 343.8 260.382 343.251 260.382 342.536C260.382 341.821 260.2 341.272 259.838 340.888C259.486 340.504 259.048 340.312 258.526 340.312C257.992 340.312 257.55 340.504 257.198 340.888C256.846 341.261 256.67 341.811 256.67 342.536C256.67 343.251 256.84 343.8 257.182 344.184C257.534 344.568 257.971 344.76 258.494 344.76ZM270.057 337.976C271.102 337.976 271.934 338.317 272.553 339C273.182 339.672 273.497 340.6 273.497 341.784V347H270.777V342.152C270.777 341.555 270.622 341.091 270.313 340.76C270.004 340.429 269.588 340.264 269.065 340.264C268.542 340.264 268.126 340.429 267.817 340.76C267.508 341.091 267.353 341.555 267.353 342.152V347H264.617V338.072H267.353V339.256C267.63 338.861 268.004 338.552 268.473 338.328C268.942 338.093 269.47 337.976 270.057 337.976Z" fill="white"/>
<g opacity="0.5" filter="url(#filter1_i_657_1937)">
<path d="M529.577 330.994L665.279 330.994C672.203 330.994 677.032 337.861 674.689 344.377L662.108 379.377C660.681 383.347 656.916 385.994 652.697 385.994L513.214 385.994C505.895 385.994 501.055 378.389 504.155 371.759L520.519 336.759C522.163 333.242 525.695 330.994 529.577 330.994Z" fill="#4C5CE5"/>
</g>
<g opacity="0.5" filter="url(#filter2_i_657_1937)">
<path d="M725.577 330.994L861.279 330.994C868.203 330.994 873.032 337.861 870.689 344.377L858.108 379.377C856.681 383.347 852.916 385.994 848.697 385.994L709.214 385.994C701.895 385.994 697.055 378.389 700.155 371.759L716.519 336.759C718.163 333.242 721.695 330.994 725.577 330.994Z" fill="#4C5CE5"/>
</g>
<g opacity="0.5" filter="url(#filter3_i_657_1937)">
<path d="M949.577 241.994L1085.28 241.994C1092.2 241.994 1097.03 248.861 1094.69 255.377L1082.11 290.377C1080.68 294.347 1076.92 296.994 1072.7 296.994L933.214 296.994C925.895 296.994 921.055 289.389 924.155 282.759L940.519 247.759C942.163 244.242 945.695 241.994 949.577 241.994Z" fill="#4C5CE5"/>
</g>
<g opacity="0.5" filter="url(#filter4_i_657_1937)">
<path d="M921.577 331.994L1057.28 331.994C1064.2 331.994 1069.03 338.861 1066.69 345.377L1054.11 380.377C1052.68 384.347 1048.92 386.994 1044.7 386.994L905.214 386.994C897.895 386.994 893.055 379.389 896.155 372.759L912.519 337.759C914.163 334.242 917.695 331.994 921.577 331.994Z" fill="#4C5CE5"/>
</g>
<path d="M1029.36 284.155C1029.17 285.616 1030.2 286.954 1031.66 287.144C1033.12 287.335 1034.45 286.305 1034.64 284.845C1034.84 283.384 1033.81 282.046 1032.35 281.856C1030.88 281.665 1029.55 282.695 1029.36 284.155ZM967.968 456.599L1032.47 284.676L1031.53 284.324L967.032 456.248L967.968 456.599Z" fill="#4C5CE5"/>
<path d="M587.833 267.994C587.833 269.467 589.027 270.661 590.5 270.661C591.973 270.661 593.167 269.467 593.167 267.994C593.167 266.521 591.973 265.327 590.5 265.327C589.027 265.327 587.833 266.521 587.833 267.994ZM511.963 461.184L590.963 268.184L590.037 267.805L511.037 460.805L511.963 461.184Z" fill="#4C5CE5"/>
<path d="M388.5 365L388.5 364.5L388.153 364.5L388.032 364.825L388.5 365ZM520.345 364.756C520.21 366.222 521.289 367.521 522.755 367.656C524.222 367.791 525.52 366.712 525.655 365.245C525.79 363.778 524.711 362.48 523.245 362.345C521.778 362.21 520.48 363.289 520.345 364.756ZM350.969 466.533L388.968 365.176L388.032 364.825L350.032 466.182L350.969 466.533ZM388.5 365.5L523 365.5L523 364.5L388.5 364.5L388.5 365.5Z" fill="#4C5CE5"/>
<path d="M857 365V364.5H856.66L856.535 364.816L857 365ZM921.833 365C921.833 366.473 923.027 367.667 924.5 367.667C925.973 367.667 927.167 366.473 927.167 365C927.167 363.527 925.973 362.333 924.5 362.333C923.027 362.333 921.833 363.527 921.833 365ZM820.965 457.179L857.465 365.184L856.535 364.816L820.035 456.81L820.965 457.179ZM857 365.5H924.5V364.5H857V365.5Z" fill="#4C5CE5"/>
<path d="M696 365V364.5H695.66L695.535 364.816L696 365ZM722.833 365C722.833 366.473 724.027 367.667 725.5 367.667C726.973 367.667 728.167 366.473 728.167 365C728.167 363.527 726.973 362.333 725.5 362.333C724.027 362.333 722.833 363.527 722.833 365ZM659.965 457.179L696.465 365.184L695.535 364.816L659.035 456.81L659.965 457.179ZM696 365.5H725.5V364.5H696V365.5Z" fill="#4C5CE5"/>
<path d="M553.5 528L273.5 528.293" stroke="#2563EB" stroke-miterlimit="10" stroke-dasharray="6 6"/>
<path d="M1026 528L746 528.293" stroke="#2563EB" stroke-miterlimit="10" stroke-dasharray="6 6"/>
<path d="M602.959 522.77L602.954 534.002L600.218 534.001L600.223 522.769L602.959 522.77ZM610.381 524.981C611.426 524.982 612.258 525.323 612.877 526.006C613.506 526.679 613.82 527.607 613.819 528.791L613.817 534.007L611.097 534.005L611.099 529.157C611.099 528.56 610.945 528.096 610.636 527.765C610.327 527.434 609.911 527.269 609.388 527.269C608.865 527.268 608.449 527.434 608.14 527.764C607.83 528.095 607.675 528.559 607.675 529.156L607.673 534.004L604.937 534.003L604.941 525.075L607.677 525.076L607.676 526.26C607.954 525.865 608.327 525.556 608.797 525.332C609.266 525.098 609.794 524.981 610.381 524.981ZM620.695 531.69L620.694 534.01L619.302 534.009C618.31 534.009 617.537 533.768 616.983 533.288C616.428 532.797 616.151 532.002 616.152 530.904L616.153 527.352L615.065 527.351L615.066 525.079L616.154 525.08L616.155 522.904L618.891 522.905L618.89 525.081L620.682 525.082L620.681 527.354L618.889 527.353L618.888 530.937C618.888 531.204 618.951 531.396 619.079 531.513C619.207 531.63 619.421 531.689 619.719 531.689L620.695 531.69ZM630.636 529.406C630.636 529.662 630.62 529.929 630.588 530.206L624.396 530.203C624.438 530.758 624.614 531.185 624.923 531.484C625.243 531.772 625.633 531.916 626.091 531.916C626.774 531.917 627.249 531.629 627.516 531.053L630.428 531.054C630.278 531.641 630.006 532.169 629.611 532.638C629.227 533.107 628.741 533.475 628.154 533.741C627.568 534.008 626.912 534.141 626.186 534.14C625.312 534.14 624.533 533.953 623.85 533.579C623.168 533.206 622.635 532.672 622.251 531.978C621.867 531.285 621.676 530.474 621.676 529.546C621.677 528.618 621.864 527.808 622.237 527.114C622.622 526.421 623.155 525.888 623.838 525.515C624.521 525.142 625.305 524.956 626.19 524.956C627.054 524.957 627.822 525.138 628.494 525.501C629.166 525.864 629.688 526.382 630.061 527.054C630.445 527.726 630.637 528.51 630.636 529.406ZM627.837 528.685C627.837 528.216 627.677 527.842 627.357 527.565C627.037 527.287 626.637 527.148 626.157 527.148C625.699 527.148 625.309 527.281 624.989 527.548C624.68 527.814 624.488 528.193 624.413 528.683L627.837 528.685ZM635.474 524.96C636.103 524.961 636.652 525.089 637.122 525.345C637.601 525.601 637.969 525.938 638.225 526.354L638.226 525.09L640.962 525.091L640.958 534.003C640.957 534.824 640.792 535.566 640.461 536.227C640.14 536.899 639.644 537.432 638.972 537.826C638.31 538.22 637.484 538.417 636.492 538.417C635.169 538.416 634.097 538.101 633.276 537.471C632.455 536.852 631.986 536.01 631.869 534.943L634.573 534.944C634.658 535.285 634.861 535.552 635.181 535.744C635.501 535.947 635.895 536.049 636.365 536.049C636.93 536.049 637.378 535.884 637.709 535.553C638.05 535.234 638.221 534.716 638.222 534.002L638.222 532.738C637.955 533.154 637.587 533.495 637.118 533.761C636.648 534.017 636.099 534.145 635.47 534.144C634.734 534.144 634.067 533.957 633.47 533.584C632.873 533.199 632.398 532.66 632.047 531.967C631.706 531.263 631.535 530.452 631.536 529.535C631.536 528.617 631.707 527.812 632.049 527.119C632.401 526.426 632.876 525.893 633.473 525.52C634.071 525.146 634.738 524.96 635.474 524.96ZM638.224 529.554C638.224 528.871 638.032 528.332 637.648 527.937C637.275 527.543 636.817 527.345 636.273 527.345C635.729 527.345 635.265 527.542 634.88 527.936C634.507 528.32 634.32 528.853 634.32 529.536C634.319 530.219 634.506 530.763 634.879 531.168C635.263 531.563 635.727 531.761 636.271 531.761C636.815 531.761 637.273 531.564 637.647 531.169C638.031 530.775 638.223 530.236 638.224 529.554ZM645.676 526.581C645.997 526.091 646.397 525.707 646.877 525.43C647.357 525.142 647.89 524.998 648.477 524.998L648.476 527.894L647.724 527.894C647.041 527.894 646.529 528.043 646.188 528.341C645.846 528.629 645.675 529.141 645.675 529.877L645.673 534.021L642.937 534.02L642.941 525.092L645.677 525.093L645.676 526.581ZM649.239 529.543C649.239 528.625 649.41 527.82 649.752 527.127C650.104 526.434 650.579 525.901 651.177 525.528C651.774 525.154 652.441 524.968 653.177 524.968C653.806 524.969 654.355 525.097 654.825 525.353C655.305 525.609 655.672 525.946 655.928 526.362L655.929 525.098L658.665 525.099L658.661 534.027L655.925 534.026L655.925 532.762C655.658 533.178 655.285 533.513 654.805 533.769C654.335 534.025 653.786 534.153 653.157 534.152C652.431 534.152 651.77 533.965 651.173 533.592C650.576 533.207 650.101 532.668 649.75 531.975C649.409 531.271 649.238 530.46 649.239 529.543ZM655.927 529.562C655.927 528.879 655.735 528.34 655.351 527.945C654.978 527.551 654.52 527.353 653.976 527.353C653.432 527.353 652.968 527.55 652.583 527.944C652.21 528.328 652.023 528.861 652.023 529.544C652.022 530.227 652.209 530.771 652.582 531.176C652.966 531.571 653.43 531.769 653.974 531.769C654.518 531.769 654.977 531.572 655.35 531.177C655.734 530.783 655.926 530.244 655.927 529.562ZM665.617 531.71L665.616 534.03L664.224 534.029C663.232 534.029 662.459 533.789 661.904 533.308C661.35 532.817 661.073 532.023 661.074 530.924L661.075 527.372L659.987 527.372L659.988 525.1L661.076 525.1L661.077 522.924L663.813 522.925L663.812 525.101L665.604 525.102L665.603 527.374L663.811 527.373L663.81 530.957C663.809 531.224 663.873 531.416 664.001 531.533C664.129 531.651 664.343 531.709 664.641 531.71L665.617 531.71ZM668.521 524.175C668.041 524.175 667.646 524.036 667.337 523.759C667.038 523.471 666.889 523.119 666.889 522.703C666.889 522.276 667.039 521.924 667.338 521.647C667.647 521.359 668.042 521.215 668.522 521.215C668.991 521.216 669.375 521.36 669.674 521.648C669.983 521.925 670.137 522.277 670.137 522.704C670.137 523.12 669.982 523.472 669.673 523.76C669.374 524.037 668.99 524.176 668.521 524.175ZM669.88 525.104L669.876 534.032L667.14 534.031L667.144 525.103L669.88 525.104ZM675.923 534.163C675.048 534.162 674.259 533.975 673.555 533.602C672.862 533.228 672.313 532.694 671.908 532.001C671.513 531.307 671.316 530.497 671.317 529.569C671.317 528.651 671.52 527.846 671.926 527.153C672.332 526.449 672.887 525.911 673.591 525.538C674.295 525.165 675.084 524.978 675.959 524.979C676.834 524.979 677.623 525.166 678.327 525.54C679.031 525.913 679.585 526.452 679.99 527.157C680.395 527.85 680.597 528.655 680.597 529.573C680.596 530.49 680.388 531.301 679.972 532.005C679.566 532.698 679.006 533.231 678.291 533.604C677.587 533.977 676.797 534.163 675.923 534.163ZM675.924 531.795C676.447 531.795 676.889 531.603 677.252 531.219C677.626 530.835 677.813 530.286 677.813 529.572C677.813 528.857 677.632 528.307 677.27 527.923C676.918 527.539 676.481 527.347 675.958 527.347C675.425 527.346 674.982 527.538 674.63 527.922C674.277 528.295 674.101 528.845 674.101 529.57C674.101 530.285 674.271 530.834 674.612 531.218C674.964 531.602 675.401 531.794 675.924 531.795ZM687.49 525.016C688.536 525.016 689.368 525.358 689.986 526.041C690.615 526.713 690.929 527.641 690.929 528.825L690.926 534.041L688.206 534.04L688.209 529.192C688.209 528.595 688.054 528.131 687.745 527.8C687.436 527.469 687.02 527.304 686.497 527.303C685.975 527.303 685.559 527.468 685.249 527.799C684.94 528.129 684.785 528.593 684.785 529.191L684.782 534.039L682.046 534.037L682.05 525.109L684.786 525.111L684.786 526.295C685.063 525.9 685.437 525.591 685.906 525.367C686.376 525.133 686.904 525.016 687.49 525.016ZM696.46 534.172C695.681 534.172 694.988 534.038 694.38 533.771C693.772 533.504 693.292 533.141 692.94 532.682C692.588 532.213 692.391 531.69 692.349 531.114L695.053 531.115C695.085 531.425 695.229 531.675 695.485 531.868C695.741 532.06 696.055 532.156 696.428 532.156C696.77 532.156 697.031 532.092 697.213 531.964C697.405 531.826 697.501 531.65 697.501 531.436C697.501 531.18 697.368 530.994 697.101 530.876C696.834 530.748 696.403 530.609 695.805 530.46C695.165 530.31 694.632 530.155 694.205 529.995C693.779 529.824 693.411 529.563 693.102 529.21C692.793 528.848 692.638 528.362 692.638 527.754C692.639 527.242 692.778 526.778 693.055 526.362C693.343 525.936 693.759 525.6 694.304 525.355C694.858 525.11 695.514 524.988 696.272 524.988C697.392 524.988 698.272 525.266 698.911 525.821C699.562 526.376 699.935 527.112 700.03 528.03L697.502 528.028C697.46 527.719 697.321 527.474 697.087 527.292C696.863 527.111 696.564 527.02 696.191 527.02C695.871 527.02 695.625 527.084 695.455 527.212C695.284 527.329 695.199 527.494 695.198 527.707C695.198 527.963 695.332 528.155 695.598 528.284C695.875 528.412 696.302 528.54 696.878 528.668C697.539 528.839 698.078 529.01 698.494 529.181C698.91 529.341 699.272 529.608 699.581 529.981C699.901 530.344 700.066 530.835 700.077 531.454C700.077 531.976 699.927 532.446 699.628 532.861C699.34 533.267 698.918 533.586 698.364 533.821C697.82 534.055 697.185 534.172 696.46 534.172Z" fill="white"/>
<g filter="url(#filter5_d_657_1937)">
<path d="M360.06 82L946.611 82C960.444 82 970.1 95.7063 965.444 108.732L900.743 289.732C897.898 297.689 890.36 303 881.91 303L294.949 303C281.099 303 271.442 289.263 276.13 276.23L341.241 95.2301C344.096 87.2926 351.625 82 360.06 82Z" fill="white"/>
</g>
<g filter="url(#filter6_d_657_1937)">
<path opacity="0.6" d="M609.5 235L920.5 235L901.21 289.656C898.387 297.653 890.829 303 882.35 303L585.5 303L609.5 235Z" fill="#4C5CE5"/>
<path d="M653 113L964 113L920.5 235L609.5 235L653 113Z" fill="#4C5CE5"/>
</g>
<g filter="url(#filter7_d_657_1937)">
<path d="M363.19 73.0003L949.92 73C963.759 73 973.416 86.717 968.749 99.7451L964 113L335 113L344.312 86.3933C347.12 78.3715 354.691 73.0003 363.19 73.0003Z" fill="#E5E9FD"/>
</g>
<ellipse cx="6.395" cy="7.805" rx="6.395" ry="7.805" transform="matrix(0.87462 0.48481 -0.497966 0.867197 399.557 83)" fill="#FBBF24"/>
<ellipse cx="6.395" cy="7.805" rx="6.395" ry="7.805" transform="matrix(0.87462 0.48481 -0.497966 0.867197 377.773 83)" fill="#D61830"/>
<ellipse cx="6.395" cy="7.805" rx="6.395" ry="7.805" transform="matrix(0.87462 0.48481 -0.497966 0.867197 421.773 83)" fill="#2DD4BF"/>
<path d="M393.805 131L587.493 131C590.942 131 593.355 134.41 592.209 137.663L567.176 208.663C566.471 210.662 564.581 212 562.461 212L363.563 212C359.979 212 357.558 208.339 358.963 205.041L389.205 134.041C389.99 132.197 391.801 131 393.805 131Z" fill="#E5E9FD"/>
<path opacity="0.68" d="M471.962 225L555.889 225C559.351 225 561.766 228.433 560.595 231.691L544.418 276.691C543.705 278.676 541.822 280 539.713 280L455.832 280C452.372 280 449.958 276.57 451.126 273.313L467.255 228.313C467.967 226.326 469.851 225 471.962 225Z" fill="#E5E9FD"/>
<path d="M665.532 172L722.922 172C726.375 172 728.789 175.417 727.635 178.671L711.68 223.671C710.973 225.666 709.085 227 706.968 227L649.578 227C646.125 227 643.711 223.583 644.865 220.329L660.82 175.329C661.527 173.334 663.415 172 665.532 172Z" fill="white"/>
<path d="M766.532 136L823.922 136C827.375 136 829.789 139.417 828.635 142.671L812.68 187.671C811.973 189.666 810.085 191 807.968 191L750.578 191C747.125 191 744.711 187.583 745.865 184.329L761.82 139.329C762.527 137.334 764.415 136 766.532 136Z" fill="white"/>
<path d="M845.532 172L902.922 172C906.375 172 908.789 175.417 907.635 178.671L891.68 223.671C890.973 225.666 889.085 227 886.968 227L829.578 227C826.125 227 823.711 223.583 824.865 220.329L840.82 175.329C841.527 173.334 843.415 172 845.532 172Z" fill="white"/>
<path d="M679.031 136L735.92 136C739.374 136 741.787 139.418 740.632 142.672L733.181 163.672C732.473 165.667 730.586 167 728.469 167L671.58 167C668.126 167 665.713 163.582 666.867 160.328L674.319 139.328C675.027 137.333 676.914 136 679.031 136Z" fill="white"/>
<path d="M745.531 196L802.42 196C805.874 196 808.287 199.418 807.132 202.672L799.681 223.672C798.973 225.667 797.086 227 794.969 227L738.08 227C734.626 227 732.213 223.582 733.367 220.328L740.819 199.328C741.527 197.333 743.414 196 745.531 196Z" fill="white"/>
<path d="M634.031 258L690.92 258C694.374 258 696.787 261.418 695.632 264.672L688.181 285.672C687.473 287.667 685.586 289 683.469 289L626.58 289C623.126 289 620.713 285.582 621.867 282.328L629.319 261.328C630.027 259.333 631.914 258 634.031 258Z" fill="white"/>
<path d="M723.031 258L779.92 258C783.374 258 785.787 261.418 784.632 264.672L777.181 285.672C776.473 287.667 774.586 289 772.469 289L715.58 289C712.126 289 709.713 285.582 710.867 282.328L718.319 261.328C719.027 259.333 720.914 258 723.031 258Z" fill="white"/>
<path d="M814.031 258L870.92 258C874.374 258 876.787 261.418 875.632 264.672L868.181 285.672C867.473 287.667 865.586 289 863.469 289L806.58 289C803.126 289 800.713 285.582 801.867 282.328L809.319 261.328C810.027 259.333 811.914 258 814.031 258Z" fill="white"/>
<path d="M859.031 136L915.92 136C919.374 136 921.787 139.418 920.632 142.672L913.181 163.672C912.473 165.667 910.586 167 908.469 167L851.58 167C848.126 167 845.713 163.582 846.867 160.328L854.319 139.328C855.027 137.333 856.914 136 859.031 136Z" fill="white"/>
<path opacity="0.68" d="M358.233 225L442.161 225C445.623 225 448.037 228.433 446.866 231.691L430.69 276.691C429.976 278.676 428.094 280 425.985 280L342.104 280C338.644 280 336.23 276.57 337.397 273.313L353.527 228.313C354.239 226.326 356.122 225 358.233 225Z" fill="#E5E9FD"/>
<path d="M768.139 119.242V125.416C768.139 126.284 768.349 126.928 768.769 127.348C769.199 127.768 769.791 127.978 770.547 127.978C771.294 127.978 771.877 127.768 772.297 127.348C772.727 126.928 772.941 126.284 772.941 125.416V119.242H774.215V125.402C774.215 126.214 774.052 126.9 773.725 127.46C773.399 128.011 772.955 128.421 772.395 128.692C771.845 128.963 771.224 129.098 770.533 129.098C769.843 129.098 769.217 128.963 768.657 128.692C768.107 128.421 767.668 128.011 767.341 127.46C767.024 126.9 766.865 126.214 766.865 125.402V119.242H768.139ZM777.615 119.242V129H776.341V119.242H777.615ZM784.792 127.964H788.208V129H783.518V119.242H784.792V127.964ZM790.219 120.082C789.977 120.082 789.771 119.998 789.603 119.83C789.435 119.662 789.351 119.457 789.351 119.214C789.351 118.971 789.435 118.766 789.603 118.598C789.771 118.43 789.977 118.346 790.219 118.346C790.453 118.346 790.649 118.43 790.807 118.598C790.975 118.766 791.059 118.971 791.059 119.214C791.059 119.457 790.975 119.662 790.807 119.83C790.649 119.998 790.453 120.082 790.219 120.082ZM790.835 121.328V129H789.561V121.328H790.835ZM794.281 122.756C794.542 122.299 794.925 121.925 795.429 121.636C795.933 121.347 796.507 121.202 797.151 121.202C797.841 121.202 798.462 121.365 799.013 121.692C799.563 122.019 799.997 122.481 800.315 123.078C800.632 123.666 800.791 124.352 800.791 125.136C800.791 125.911 800.632 126.601 800.315 127.208C799.997 127.815 799.559 128.286 798.999 128.622C798.448 128.958 797.832 129.126 797.151 129.126C796.488 129.126 795.905 128.981 795.401 128.692C794.906 128.403 794.533 128.034 794.281 127.586V129H793.007V118.64H794.281V122.756ZM799.489 125.136C799.489 124.557 799.372 124.053 799.139 123.624C798.905 123.195 798.588 122.868 798.187 122.644C797.795 122.42 797.361 122.308 796.885 122.308C796.418 122.308 795.984 122.425 795.583 122.658C795.191 122.882 794.873 123.213 794.631 123.652C794.397 124.081 794.281 124.581 794.281 125.15C794.281 125.729 794.397 126.237 794.631 126.676C794.873 127.105 795.191 127.437 795.583 127.67C795.984 127.894 796.418 128.006 796.885 128.006C797.361 128.006 797.795 127.894 798.187 127.67C798.588 127.437 798.905 127.105 799.139 126.676C799.372 126.237 799.489 125.724 799.489 125.136ZM803.742 122.574C803.966 122.135 804.283 121.795 804.694 121.552C805.114 121.309 805.622 121.188 806.22 121.188V122.504H805.884C804.456 122.504 803.742 123.279 803.742 124.828V129H802.468V121.328H803.742V122.574ZM807.214 125.136C807.214 124.352 807.373 123.666 807.69 123.078C808.008 122.481 808.442 122.019 808.992 121.692C809.552 121.365 810.173 121.202 810.854 121.202C811.526 121.202 812.11 121.347 812.604 121.636C813.099 121.925 813.468 122.289 813.71 122.728V121.328H814.998V129H813.71V127.572C813.458 128.02 813.08 128.393 812.576 128.692C812.082 128.981 811.503 129.126 810.84 129.126C810.159 129.126 809.543 128.958 808.992 128.622C808.442 128.286 808.008 127.815 807.69 127.208C807.373 126.601 807.214 125.911 807.214 125.136ZM813.71 125.15C813.71 124.571 813.594 124.067 813.36 123.638C813.127 123.209 812.81 122.882 812.408 122.658C812.016 122.425 811.582 122.308 811.106 122.308C810.63 122.308 810.196 122.42 809.804 122.644C809.412 122.868 809.1 123.195 808.866 123.624C808.633 124.053 808.516 124.557 808.516 125.136C808.516 125.724 808.633 126.237 808.866 126.676C809.1 127.105 809.412 127.437 809.804 127.67C810.196 127.894 810.63 128.006 811.106 128.006C811.582 128.006 812.016 127.894 812.408 127.67C812.81 127.437 813.127 127.105 813.36 126.676C813.594 126.237 813.71 125.729 813.71 125.15ZM818.425 122.574C818.649 122.135 818.967 121.795 819.377 121.552C819.797 121.309 820.306 121.188 820.903 121.188V122.504H820.567C819.139 122.504 818.425 123.279 818.425 124.828V129H817.151V121.328H818.425V122.574ZM828.982 121.328L824.362 132.612H823.046L824.558 128.916L821.464 121.328H822.878L825.286 127.544L827.666 121.328H828.982Z" fill="white"/>
<path d="M732.581 248.83H728.325L727.541 251H726.197L729.725 241.298H731.195L734.709 251H733.365L732.581 248.83ZM732.217 247.794L730.453 242.866L728.689 247.794H732.217ZM742.771 244.098C742.771 244.91 742.491 245.587 741.931 246.128C741.38 246.66 740.536 246.926 739.397 246.926H737.521V251H736.247V241.242H739.397C740.498 241.242 741.334 241.508 741.903 242.04C742.482 242.572 742.771 243.258 742.771 244.098ZM739.397 245.876C740.106 245.876 740.629 245.722 740.965 245.414C741.301 245.106 741.469 244.667 741.469 244.098C741.469 242.894 740.778 242.292 739.397 242.292H737.521V245.876H739.397ZM745.628 241.242V251H744.354V241.242H745.628ZM754.626 251.098C753.982 251.098 753.403 250.986 752.89 250.762C752.386 250.529 751.989 250.211 751.7 249.81C751.411 249.399 751.261 248.928 751.252 248.396H752.61C752.657 248.853 752.843 249.241 753.17 249.558C753.506 249.866 753.991 250.02 754.626 250.02C755.233 250.02 755.709 249.871 756.054 249.572C756.409 249.264 756.586 248.872 756.586 248.396C756.586 248.023 756.483 247.719 756.278 247.486C756.073 247.253 755.816 247.075 755.508 246.954C755.2 246.833 754.785 246.702 754.262 246.562C753.618 246.394 753.1 246.226 752.708 246.058C752.325 245.89 751.994 245.629 751.714 245.274C751.443 244.91 751.308 244.425 751.308 243.818C751.308 243.286 751.443 242.815 751.714 242.404C751.985 241.993 752.363 241.676 752.848 241.452C753.343 241.228 753.907 241.116 754.542 241.116C755.457 241.116 756.203 241.345 756.782 241.802C757.37 242.259 757.701 242.866 757.776 243.622H756.376C756.329 243.249 756.133 242.922 755.788 242.642C755.443 242.353 754.985 242.208 754.416 242.208C753.884 242.208 753.45 242.348 753.114 242.628C752.778 242.899 752.61 243.281 752.61 243.776C752.61 244.131 752.708 244.42 752.904 244.644C753.109 244.868 753.357 245.041 753.646 245.162C753.945 245.274 754.36 245.405 754.892 245.554C755.536 245.731 756.054 245.909 756.446 246.086C756.838 246.254 757.174 246.52 757.454 246.884C757.734 247.239 757.874 247.724 757.874 248.34C757.874 248.816 757.748 249.264 757.496 249.684C757.244 250.104 756.871 250.445 756.376 250.706C755.881 250.967 755.298 251.098 754.626 251.098ZM762.787 241.242C763.851 241.242 764.77 241.443 765.545 241.844C766.329 242.236 766.926 242.801 767.337 243.538C767.757 244.275 767.967 245.143 767.967 246.142C767.967 247.141 767.757 248.009 767.337 248.746C766.926 249.474 766.329 250.034 765.545 250.426C764.77 250.809 763.851 251 762.787 251H759.749V241.242H762.787ZM762.787 249.95C764.047 249.95 765.008 249.619 765.671 248.956C766.334 248.284 766.665 247.346 766.665 246.142C766.665 244.929 766.329 243.981 765.657 243.3C764.994 242.619 764.038 242.278 762.787 242.278H761.023V249.95H762.787ZM774.939 251L770.921 246.548V251H769.647V241.242H770.921V245.764L774.953 241.242H776.563L772.139 246.128L776.605 251H774.939ZM780.744 251.126C780.156 251.126 779.629 251.028 779.162 250.832C778.696 250.627 778.327 250.347 778.056 249.992C777.786 249.628 777.636 249.213 777.608 248.746H778.924C778.962 249.129 779.139 249.441 779.456 249.684C779.783 249.927 780.208 250.048 780.73 250.048C781.216 250.048 781.598 249.941 781.878 249.726C782.158 249.511 782.298 249.241 782.298 248.914C782.298 248.578 782.149 248.331 781.85 248.172C781.552 248.004 781.09 247.841 780.464 247.682C779.895 247.533 779.428 247.383 779.064 247.234C778.71 247.075 778.402 246.847 778.14 246.548C777.888 246.24 777.762 245.839 777.762 245.344C777.762 244.952 777.879 244.593 778.112 244.266C778.346 243.939 778.677 243.683 779.106 243.496C779.536 243.3 780.026 243.202 780.576 243.202C781.426 243.202 782.112 243.417 782.634 243.846C783.157 244.275 783.437 244.863 783.474 245.61H782.2C782.172 245.209 782.009 244.887 781.71 244.644C781.421 244.401 781.029 244.28 780.534 244.28C780.077 244.28 779.713 244.378 779.442 244.574C779.172 244.77 779.036 245.027 779.036 245.344C779.036 245.596 779.116 245.806 779.274 245.974C779.442 246.133 779.648 246.263 779.89 246.366C780.142 246.459 780.488 246.567 780.926 246.688C781.477 246.837 781.925 246.987 782.27 247.136C782.616 247.276 782.91 247.491 783.152 247.78C783.404 248.069 783.535 248.447 783.544 248.914C783.544 249.334 783.428 249.712 783.194 250.048C782.961 250.384 782.63 250.65 782.2 250.846C781.78 251.033 781.295 251.126 780.744 251.126Z" fill="white"/>
<path d="M337.667 176C337.667 174.527 336.473 173.333 335 173.333C333.527 173.333 332.333 174.527 332.333 176C332.333 177.473 333.527 178.667 335 178.667C336.473 178.667 337.667 177.473 337.667 176ZM335 175.5L211 175.5L211 176.5L335 176.5L335 175.5Z" fill="url(#paint4_linear_657_1937)"/>
<path d="M117.304 170.768V172.96H112.728V175.328H116.152V177.456H112.728V182H109.992V170.768H117.304ZM121.478 174.56C121.798 174.069 122.198 173.685 122.678 173.408C123.158 173.12 123.691 172.976 124.278 172.976V175.872H123.526C122.843 175.872 122.331 176.021 121.99 176.32C121.649 176.608 121.478 177.12 121.478 177.856V182H118.742V173.072H121.478V174.56ZM129.65 182.128C128.775 182.128 127.986 181.941 127.282 181.568C126.588 181.195 126.039 180.661 125.634 179.968C125.239 179.275 125.042 178.464 125.042 177.536C125.042 176.619 125.244 175.813 125.65 175.12C126.055 174.416 126.61 173.877 127.314 173.504C128.018 173.131 128.807 172.944 129.682 172.944C130.556 172.944 131.346 173.131 132.05 173.504C132.754 173.877 133.308 174.416 133.714 175.12C134.119 175.813 134.322 176.619 134.322 177.536C134.322 178.453 134.114 179.264 133.698 179.968C133.292 180.661 132.732 181.195 132.018 181.568C131.314 181.941 130.524 182.128 129.65 182.128ZM129.65 179.76C130.172 179.76 130.615 179.568 130.978 179.184C131.351 178.8 131.538 178.251 131.538 177.536C131.538 176.821 131.356 176.272 130.994 175.888C130.642 175.504 130.204 175.312 129.682 175.312C129.148 175.312 128.706 175.504 128.354 175.888C128.002 176.261 127.826 176.811 127.826 177.536C127.826 178.251 127.996 178.8 128.338 179.184C128.69 179.568 129.127 179.76 129.65 179.76ZM141.213 172.976C142.259 172.976 143.091 173.317 143.709 174C144.339 174.672 144.653 175.6 144.653 176.784V182H141.933V177.152C141.933 176.555 141.779 176.091 141.469 175.76C141.16 175.429 140.744 175.264 140.221 175.264C139.699 175.264 139.283 175.429 138.973 175.76C138.664 176.091 138.509 176.555 138.509 177.152V182H135.773V173.072H138.509V174.256C138.787 173.861 139.16 173.552 139.629 173.328C140.099 173.093 140.627 172.976 141.213 172.976ZM151.531 179.68V182H150.139C149.147 182 148.373 181.76 147.819 181.28C147.264 180.789 146.987 179.995 146.987 178.896V175.344H145.899V173.072H146.987V170.896H149.723V173.072H151.515V175.344H149.723V178.928C149.723 179.195 149.787 179.387 149.915 179.504C150.043 179.621 150.256 179.68 150.555 179.68H151.531ZM161.47 177.392C161.47 177.648 161.455 177.915 161.423 178.192H155.231C155.273 178.747 155.449 179.173 155.759 179.472C156.079 179.76 156.468 179.904 156.927 179.904C157.609 179.904 158.084 179.616 158.351 179.04H161.263C161.113 179.627 160.841 180.155 160.447 180.624C160.063 181.093 159.577 181.461 158.991 181.728C158.404 181.995 157.748 182.128 157.023 182.128C156.148 182.128 155.369 181.941 154.687 181.568C154.004 181.195 153.471 180.661 153.087 179.968C152.703 179.275 152.511 178.464 152.511 177.536C152.511 176.608 152.697 175.797 153.071 175.104C153.455 174.411 153.988 173.877 154.671 173.504C155.353 173.131 156.137 172.944 157.023 172.944C157.887 172.944 158.655 173.125 159.327 173.488C159.999 173.851 160.521 174.368 160.895 175.04C161.279 175.712 161.47 176.496 161.47 177.392ZM158.671 176.672C158.671 176.203 158.511 175.829 158.191 175.552C157.871 175.275 157.471 175.136 156.991 175.136C156.532 175.136 156.143 175.269 155.823 175.536C155.513 175.803 155.321 176.181 155.247 176.672H158.671ZM168.354 172.976C169.399 172.976 170.231 173.317 170.85 174C171.479 174.672 171.794 175.6 171.794 176.784V182H169.074V177.152C169.074 176.555 168.919 176.091 168.61 175.76C168.301 175.429 167.885 175.264 167.362 175.264C166.839 175.264 166.423 175.429 166.114 175.76C165.805 176.091 165.65 176.555 165.65 177.152V182H162.914V173.072H165.65V174.256C165.927 173.861 166.301 173.552 166.77 173.328C167.239 173.093 167.767 172.976 168.354 172.976ZM173.151 177.52C173.151 176.603 173.322 175.797 173.663 175.104C174.015 174.411 174.49 173.877 175.087 173.504C175.684 173.131 176.351 172.944 177.087 172.944C177.674 172.944 178.207 173.067 178.687 173.312C179.178 173.557 179.562 173.888 179.839 174.304V170.16H182.575V182H179.839V180.72C179.583 181.147 179.215 181.488 178.735 181.744C178.266 182 177.716 182.128 177.087 182.128C176.351 182.128 175.684 181.941 175.087 181.568C174.49 181.184 174.015 180.645 173.663 179.952C173.322 179.248 173.151 178.437 173.151 177.52ZM179.839 177.536C179.839 176.853 179.647 176.315 179.263 175.92C178.89 175.525 178.431 175.328 177.887 175.328C177.343 175.328 176.879 175.525 176.495 175.92C176.122 176.304 175.935 176.837 175.935 177.52C175.935 178.203 176.122 178.747 176.495 179.152C176.879 179.547 177.343 179.744 177.887 179.744C178.431 179.744 178.89 179.547 179.263 179.152C179.647 178.757 179.839 178.219 179.839 177.536ZM194.937 180.016H190.745L190.073 182H187.209L191.273 170.768H194.441L198.505 182H195.609L194.937 180.016ZM194.233 177.904L192.841 173.792L191.465 177.904H194.233ZM202.478 174.336C202.745 173.92 203.113 173.584 203.582 173.328C204.051 173.072 204.601 172.944 205.23 172.944C205.966 172.944 206.633 173.131 207.23 173.504C207.827 173.877 208.297 174.411 208.638 175.104C208.99 175.797 209.166 176.603 209.166 177.52C209.166 178.437 208.99 179.248 208.638 179.952C208.297 180.645 207.827 181.184 207.23 181.568C206.633 181.941 205.966 182.128 205.23 182.128C204.611 182.128 204.062 182 203.582 181.744C203.113 181.488 202.745 181.157 202.478 180.752V186.256H199.742V173.072H202.478V174.336ZM206.382 177.52C206.382 176.837 206.19 176.304 205.806 175.92C205.433 175.525 204.969 175.328 204.414 175.328C203.87 175.328 203.406 175.525 203.022 175.92C202.649 176.315 202.462 176.853 202.462 177.536C202.462 178.219 202.649 178.757 203.022 179.152C203.406 179.547 203.87 179.744 204.414 179.744C204.958 179.744 205.422 179.547 205.806 179.152C206.19 178.747 206.382 178.203 206.382 177.52ZM213.337 174.336C213.604 173.92 213.972 173.584 214.441 173.328C214.911 173.072 215.46 172.944 216.089 172.944C216.825 172.944 217.492 173.131 218.089 173.504C218.687 173.877 219.156 174.411 219.497 175.104C219.849 175.797 220.025 176.603 220.025 177.52C220.025 178.437 219.849 179.248 219.497 179.952C219.156 180.645 218.687 181.184 218.089 181.568C217.492 181.941 216.825 182.128 216.089 182.128C215.471 182.128 214.921 182 214.441 181.744C213.972 181.488 213.604 181.157 213.337 180.752V186.256H210.601V173.072H213.337V174.336ZM217.241 177.52C217.241 176.837 217.049 176.304 216.665 175.92C216.292 175.525 215.828 175.328 215.273 175.328C214.729 175.328 214.265 175.525 213.881 175.92C213.508 176.315 213.321 176.853 213.321 177.536C213.321 178.219 213.508 178.757 213.881 179.152C214.265 179.547 214.729 179.744 215.273 179.744C215.817 179.744 216.281 179.547 216.665 179.152C217.049 178.747 217.241 178.203 217.241 177.52Z" fill="white"/>
<g filter="url(#filter8_d_657_1937)">
<path d="M761.547 451L876.354 451C883.257 451 888.084 457.828 885.781 464.336L875.165 494.336C873.751 498.33 869.974 501 865.737 501L750.734 501C743.806 501 738.977 494.126 741.326 487.609L752.139 457.609C753.568 453.644 757.331 451 761.547 451Z" fill="#4C5CE5"/>
</g>
<g filter="url(#filter9_d_657_1937)">
<path d="M915.498 451L1030.26 451C1037.19 451 1042.02 457.878 1039.66 464.396L1029.19 493.396C1027.76 497.359 1024 500 1019.79 500L904.833 500C897.878 500 893.047 493.076 895.447 486.548L906.113 457.548C907.56 453.614 911.307 451 915.498 451Z" fill="#4C5CE5"/>
</g>
<g filter="url(#filter10_d_657_1937)">
<path d="M453.498 451L568.257 451C575.187 451 580.016 457.878 577.663 464.396L567.191 493.396C565.76 497.359 561.999 500 557.785 500L442.833 500C435.878 500 431.047 493.076 433.447 486.548L444.113 457.548C445.56 453.614 449.307 451 453.498 451Z" fill="#4C5CE5"/>
</g>
<g filter="url(#filter11_d_657_1937)">
<path d="M607.547 451L722.354 451C729.257 451 734.084 457.828 731.781 464.336L721.165 494.336C719.751 498.33 715.974 501 711.737 501L596.734 501C589.806 501 584.977 494.126 587.326 487.609L598.139 457.609C599.568 453.644 603.331 451 607.547 451Z" fill="#4C5CE5"/>
</g>
<g filter="url(#filter12_d_657_1937)">
<path d="M298.6 451L414.226 451C421.165 451 425.994 457.894 423.624 464.416L413.084 493.416C411.648 497.369 407.892 500 403.686 500L287.865 500C280.901 500 276.069 493.059 278.487 486.528L289.222 457.529C290.674 453.605 294.416 451 298.6 451Z" fill="#4C5CE5"/>
</g>
<path d="M334.407 476.114C334.407 475.162 334.621 474.308 335.051 473.552C335.48 472.787 336.063 472.189 336.801 471.76C337.547 471.331 338.373 471.116 339.279 471.116C340.343 471.116 341.271 471.373 342.065 471.886C342.858 472.399 343.437 473.127 343.801 474.07H342.275C342.004 473.482 341.612 473.029 341.099 472.712C340.595 472.395 339.988 472.236 339.279 472.236C338.597 472.236 337.986 472.395 337.445 472.712C336.903 473.029 336.479 473.482 336.171 474.07C335.863 474.649 335.709 475.33 335.709 476.114C335.709 476.889 335.863 477.57 336.171 478.158C336.479 478.737 336.903 479.185 337.445 479.502C337.986 479.819 338.597 479.978 339.279 479.978C339.988 479.978 340.595 479.824 341.099 479.516C341.612 479.199 342.004 478.746 342.275 478.158H343.801C343.437 479.091 342.858 479.815 342.065 480.328C341.271 480.832 340.343 481.084 339.279 481.084C338.373 481.084 337.547 480.874 336.801 480.454C336.063 480.025 335.48 479.432 335.051 478.676C334.621 477.92 334.407 477.066 334.407 476.114ZM350.835 481L348.511 477.01H346.971V481H345.697V471.242H348.847C349.584 471.242 350.205 471.368 350.709 471.62C351.222 471.872 351.605 472.213 351.857 472.642C352.109 473.071 352.235 473.561 352.235 474.112C352.235 474.784 352.039 475.377 351.647 475.89C351.264 476.403 350.686 476.744 349.911 476.912L352.361 481H350.835ZM346.971 475.988H348.847C349.538 475.988 350.056 475.82 350.401 475.484C350.746 475.139 350.919 474.681 350.919 474.112C350.919 473.533 350.746 473.085 350.401 472.768C350.065 472.451 349.547 472.292 348.847 472.292H346.971V475.988ZM364.113 471.312V481H362.839V473.776L359.619 481H358.723L355.489 473.762V481H354.215V471.312H355.587L359.171 479.32L362.755 471.312H364.113Z" fill="white"/>
<path d="M485.151 481.098C484.507 481.098 483.929 480.986 483.415 480.762C482.911 480.529 482.515 480.211 482.225 479.81C481.936 479.399 481.787 478.928 481.777 478.396H483.135C483.182 478.853 483.369 479.241 483.695 479.558C484.031 479.866 484.517 480.02 485.151 480.02C485.758 480.02 486.234 479.871 486.579 479.572C486.934 479.264 487.111 478.872 487.111 478.396C487.111 478.023 487.009 477.719 486.803 477.486C486.598 477.253 486.341 477.075 486.033 476.954C485.725 476.833 485.31 476.702 484.787 476.562C484.143 476.394 483.625 476.226 483.233 476.058C482.851 475.89 482.519 475.629 482.239 475.274C481.969 474.91 481.833 474.425 481.833 473.818C481.833 473.286 481.969 472.815 482.239 472.404C482.51 471.993 482.888 471.676 483.373 471.452C483.868 471.228 484.433 471.116 485.067 471.116C485.982 471.116 486.729 471.345 487.307 471.802C487.895 472.259 488.227 472.866 488.301 473.622H486.901C486.855 473.249 486.659 472.922 486.313 472.642C485.968 472.353 485.511 472.208 484.941 472.208C484.409 472.208 483.975 472.348 483.639 472.628C483.303 472.899 483.135 473.281 483.135 473.776C483.135 474.131 483.233 474.42 483.429 474.644C483.635 474.868 483.882 475.041 484.171 475.162C484.47 475.274 484.885 475.405 485.417 475.554C486.061 475.731 486.579 475.909 486.971 476.086C487.363 476.254 487.699 476.52 487.979 476.884C488.259 477.239 488.399 477.724 488.399 478.34C488.399 478.816 488.273 479.264 488.021 479.684C487.769 480.104 487.396 480.445 486.901 480.706C486.407 480.967 485.823 481.098 485.151 481.098ZM497.274 476.87C497.274 477.113 497.26 477.369 497.232 477.64H491.1C491.147 478.396 491.404 478.989 491.87 479.418C492.346 479.838 492.92 480.048 493.592 480.048C494.143 480.048 494.6 479.922 494.964 479.67C495.338 479.409 495.599 479.063 495.748 478.634H497.12C496.915 479.371 496.504 479.973 495.888 480.44C495.272 480.897 494.507 481.126 493.592 481.126C492.864 481.126 492.211 480.963 491.632 480.636C491.063 480.309 490.615 479.847 490.288 479.25C489.962 478.643 489.798 477.943 489.798 477.15C489.798 476.357 489.957 475.661 490.274 475.064C490.592 474.467 491.035 474.009 491.604 473.692C492.183 473.365 492.846 473.202 493.592 473.202C494.32 473.202 494.964 473.361 495.524 473.678C496.084 473.995 496.514 474.434 496.812 474.994C497.12 475.545 497.274 476.17 497.274 476.87ZM495.958 476.604C495.958 476.119 495.851 475.703 495.636 475.358C495.422 475.003 495.128 474.737 494.754 474.56C494.39 474.373 493.984 474.28 493.536 474.28C492.892 474.28 492.342 474.485 491.884 474.896C491.436 475.307 491.18 475.876 491.114 476.604H495.958ZM498.48 477.136C498.48 476.352 498.639 475.666 498.956 475.078C499.273 474.481 499.707 474.019 500.258 473.692C500.818 473.365 501.439 473.202 502.12 473.202C502.792 473.202 503.375 473.347 503.87 473.636C504.365 473.925 504.733 474.289 504.976 474.728V473.328H506.264V481H504.976V479.572C504.724 480.02 504.346 480.393 503.842 480.692C503.347 480.981 502.769 481.126 502.106 481.126C501.425 481.126 500.809 480.958 500.258 480.622C499.707 480.286 499.273 479.815 498.956 479.208C498.639 478.601 498.48 477.911 498.48 477.136ZM504.976 477.15C504.976 476.571 504.859 476.067 504.626 475.638C504.393 475.209 504.075 474.882 503.674 474.658C503.282 474.425 502.848 474.308 502.372 474.308C501.896 474.308 501.462 474.42 501.07 474.644C500.678 474.868 500.365 475.195 500.132 475.624C499.899 476.053 499.782 476.557 499.782 477.136C499.782 477.724 499.899 478.237 500.132 478.676C500.365 479.105 500.678 479.437 501.07 479.67C501.462 479.894 501.896 480.006 502.372 480.006C502.848 480.006 503.282 479.894 503.674 479.67C504.075 479.437 504.393 479.105 504.626 478.676C504.859 478.237 504.976 477.729 504.976 477.15ZM509.691 474.574C509.915 474.135 510.232 473.795 510.643 473.552C511.063 473.309 511.572 473.188 512.169 473.188V474.504H511.833C510.405 474.504 509.691 475.279 509.691 476.828V481H508.417V473.328H509.691V474.574ZM513.164 477.15C513.164 476.357 513.322 475.666 513.64 475.078C513.957 474.481 514.396 474.019 514.956 473.692C515.525 473.365 516.174 473.202 516.902 473.202C517.844 473.202 518.619 473.431 519.226 473.888C519.842 474.345 520.248 474.98 520.444 475.792H519.072C518.941 475.325 518.684 474.957 518.302 474.686C517.928 474.415 517.462 474.28 516.902 474.28C516.174 474.28 515.586 474.532 515.138 475.036C514.69 475.531 514.466 476.235 514.466 477.15C514.466 478.074 514.69 478.788 515.138 479.292C515.586 479.796 516.174 480.048 516.902 480.048C517.462 480.048 517.928 479.917 518.302 479.656C518.675 479.395 518.932 479.021 519.072 478.536H520.444C520.238 479.32 519.828 479.95 519.212 480.426C518.596 480.893 517.826 481.126 516.902 481.126C516.174 481.126 515.525 480.963 514.956 480.636C514.396 480.309 513.957 479.847 513.64 479.25C513.322 478.653 513.164 477.953 513.164 477.15ZM525.951 473.188C526.53 473.188 527.053 473.314 527.519 473.566C527.986 473.809 528.35 474.177 528.611 474.672C528.882 475.167 529.017 475.769 529.017 476.478V481H527.757V476.66C527.757 475.895 527.566 475.311 527.183 474.91C526.801 474.499 526.278 474.294 525.615 474.294C524.943 474.294 524.407 474.504 524.005 474.924C523.613 475.344 523.417 475.955 523.417 476.758V481H522.143V470.64H523.417V474.42C523.669 474.028 524.015 473.725 524.453 473.51C524.901 473.295 525.401 473.188 525.951 473.188Z" fill="white"/>
<path d="M643.057 475.114C643.057 474.162 643.272 473.308 643.701 472.552C644.13 471.787 644.714 471.189 645.451 470.76C646.198 470.331 647.024 470.116 647.929 470.116C648.993 470.116 649.922 470.373 650.715 470.886C651.508 471.399 652.087 472.127 652.451 473.07H650.925C650.654 472.482 650.262 472.029 649.749 471.712C649.245 471.395 648.638 471.236 647.929 471.236C647.248 471.236 646.636 471.395 646.095 471.712C645.554 472.029 645.129 472.482 644.821 473.07C644.513 473.649 644.359 474.33 644.359 475.114C644.359 475.889 644.513 476.57 644.821 477.158C645.129 477.737 645.554 478.185 646.095 478.502C646.636 478.819 647.248 478.978 647.929 478.978C648.638 478.978 649.245 478.824 649.749 478.516C650.262 478.199 650.654 477.746 650.925 477.158H652.451C652.087 478.091 651.508 478.815 650.715 479.328C649.922 479.832 648.993 480.084 647.929 480.084C647.024 480.084 646.198 479.874 645.451 479.454C644.714 479.025 644.13 478.432 643.701 477.676C643.272 476.92 643.057 476.066 643.057 475.114ZM664.246 470.312V480H662.972V472.776L659.752 480H658.856L655.622 472.762V480H654.348V470.312H655.72L659.304 478.32L662.888 470.312H664.246ZM669.5 480.098C668.856 480.098 668.277 479.986 667.764 479.762C667.26 479.529 666.863 479.211 666.574 478.81C666.285 478.399 666.135 477.928 666.126 477.396H667.484C667.531 477.853 667.717 478.241 668.044 478.558C668.38 478.866 668.865 479.02 669.5 479.02C670.107 479.02 670.583 478.871 670.928 478.572C671.283 478.264 671.46 477.872 671.46 477.396C671.46 477.023 671.357 476.719 671.152 476.486C670.947 476.253 670.69 476.075 670.382 475.954C670.074 475.833 669.659 475.702 669.136 475.562C668.492 475.394 667.974 475.226 667.582 475.058C667.199 474.89 666.868 474.629 666.588 474.274C666.317 473.91 666.182 473.425 666.182 472.818C666.182 472.286 666.317 471.815 666.588 471.404C666.859 470.993 667.237 470.676 667.722 470.452C668.217 470.228 668.781 470.116 669.416 470.116C670.331 470.116 671.077 470.345 671.656 470.802C672.244 471.259 672.575 471.866 672.65 472.622H671.25C671.203 472.249 671.007 471.922 670.662 471.642C670.317 471.353 669.859 471.208 669.29 471.208C668.758 471.208 668.324 471.348 667.988 471.628C667.652 471.899 667.484 472.281 667.484 472.776C667.484 473.131 667.582 473.42 667.778 473.644C667.983 473.868 668.231 474.041 668.52 474.162C668.819 474.274 669.234 474.405 669.766 474.554C670.41 474.731 670.928 474.909 671.32 475.086C671.712 475.254 672.048 475.52 672.328 475.884C672.608 476.239 672.748 476.724 672.748 477.34C672.748 477.816 672.622 478.264 672.37 478.684C672.118 479.104 671.745 479.445 671.25 479.706C670.755 479.967 670.172 480.098 669.5 480.098Z" fill="white"/>
<path d="M803.938 477.83H799.682L798.898 480H797.554L801.082 470.298H802.552L806.066 480H804.722L803.938 477.83ZM803.574 476.794L801.81 471.866L800.046 476.794H803.574ZM814.407 472.328V480H813.133V478.866C812.891 479.258 812.55 479.566 812.111 479.79C811.682 480.005 811.206 480.112 810.683 480.112C810.086 480.112 809.549 479.991 809.073 479.748C808.597 479.496 808.219 479.123 807.939 478.628C807.669 478.133 807.533 477.531 807.533 476.822V472.328H808.793V476.654C808.793 477.41 808.985 477.993 809.367 478.404C809.75 478.805 810.273 479.006 810.935 479.006C811.617 479.006 812.153 478.796 812.545 478.376C812.937 477.956 813.133 477.345 813.133 476.542V472.328H814.407ZM818.112 473.378V477.9C818.112 478.273 818.192 478.539 818.35 478.698C818.509 478.847 818.784 478.922 819.176 478.922H820.114V480H818.966C818.257 480 817.725 479.837 817.37 479.51C817.016 479.183 816.838 478.647 816.838 477.9V473.378H815.844V472.328H816.838V470.396H818.112V472.328H820.114V473.378H818.112ZM825.466 472.188C826.045 472.188 826.567 472.314 827.034 472.566C827.501 472.809 827.865 473.177 828.126 473.672C828.397 474.167 828.532 474.769 828.532 475.478V480H827.272V475.66C827.272 474.895 827.081 474.311 826.698 473.91C826.315 473.499 825.793 473.294 825.13 473.294C824.458 473.294 823.921 473.504 823.52 473.924C823.128 474.344 822.932 474.955 822.932 475.758V480H821.658V469.64H822.932V473.42C823.184 473.028 823.529 472.725 823.968 472.51C824.416 472.295 824.915 472.188 825.466 472.188Z" fill="white"/>
<path d="M957.509 477.83H953.253L952.469 480H951.125L954.653 470.298H956.123L959.637 480H958.293L957.509 477.83ZM957.145 476.794L955.381 471.866L953.617 476.794H957.145ZM967.699 473.098C967.699 473.91 967.419 474.587 966.859 475.128C966.308 475.66 965.463 475.926 964.325 475.926H962.449V480H961.175V470.242H964.325C965.426 470.242 966.261 470.508 966.831 471.04C967.409 471.572 967.699 472.258 967.699 473.098ZM964.325 474.876C965.034 474.876 965.557 474.722 965.893 474.414C966.229 474.106 966.397 473.667 966.397 473.098C966.397 471.894 965.706 471.292 964.325 471.292H962.449V474.876H964.325ZM970.556 470.242V480H969.282V470.242H970.556ZM980.198 472.188C981.131 472.188 981.887 472.473 982.466 473.042C983.045 473.602 983.334 474.414 983.334 475.478V480H982.074V475.66C982.074 474.895 981.883 474.311 981.5 473.91C981.117 473.499 980.595 473.294 979.932 473.294C979.26 473.294 978.723 473.504 978.322 473.924C977.93 474.344 977.734 474.955 977.734 475.758V480H976.46V472.328H977.734V473.42C977.986 473.028 978.327 472.725 978.756 472.51C979.195 472.295 979.675 472.188 980.198 472.188Z" fill="white"/>
<defs>
<filter id="filter0_d_657_1937" x="444.331" y="193.394" width="710.898" height="240.2" filterUnits="userSpaceOnUse" color-interpolation-filters="sRGB">
<feFlood flood-opacity="0" result="BackgroundImageFix"/>
<feColorMatrix in="SourceAlpha" type="matrix" values="0 0 0 0 0 0 0 0 0 0 0 0 0 0 0 0 0 0 127 0" result="hardAlpha"/>
<feOffset dy="2"/>
<feGaussianBlur stdDeviation="4.3"/>
<feComposite in2="hardAlpha" operator="out"/>
<feColorMatrix type="matrix" values="0 0 0 0 0 0 0 0 0 0 0 0 0 0 0 0 0 0 0.15 0"/>
<feBlend mode="normal" in2="BackgroundImageFix" result="effect1_dropShadow_657_1937"/>
<feBlend mode="normal" in="SourceGraphic" in2="effect1_dropShadow_657_1937" result="shape"/>
</filter>
<filter id="filter1_i_657_1937" x="503.202" y="330.994" width="173.085" height="57" filterUnits="userSpaceOnUse" color-interpolation-filters="sRGB">
<feFlood flood-opacity="0" result="BackgroundImageFix"/>
<feBlend mode="normal" in="SourceGraphic" in2="BackgroundImageFix" result="shape"/>
<feColorMatrix in="SourceAlpha" type="matrix" values="0 0 0 0 0 0 0 0 0 0 0 0 0 0 0 0 0 0 127 0" result="hardAlpha"/>
<feOffset dx="1" dy="2"/>
<feGaussianBlur stdDeviation="2.75"/>
<feComposite in2="hardAlpha" operator="arithmetic" k2="-1" k3="1"/>
<feColorMatrix type="matrix" values="0 0 0 0 0.000115271 0 0 0 0 0.0234534 0 0 0 0 0.226632 0 0 0 0.58 0"/>
<feBlend mode="normal" in2="shape" result="effect1_innerShadow_657_1937"/>
</filter>
<filter id="filter2_i_657_1937" x="699.202" y="330.994" width="173.085" height="57" filterUnits="userSpaceOnUse" color-interpolation-filters="sRGB">
<feFlood flood-opacity="0" result="BackgroundImageFix"/>
<feBlend mode="normal" in="SourceGraphic" in2="BackgroundImageFix" result="shape"/>
<feColorMatrix in="SourceAlpha" type="matrix" values="0 0 0 0 0 0 0 0 0 0 0 0 0 0 0 0 0 0 127 0" result="hardAlpha"/>
<feOffset dx="1" dy="2"/>
<feGaussianBlur stdDeviation="2.75"/>
<feComposite in2="hardAlpha" operator="arithmetic" k2="-1" k3="1"/>
<feColorMatrix type="matrix" values="0 0 0 0 0.000115271 0 0 0 0 0.0234534 0 0 0 0 0.226632 0 0 0 0.58 0"/>
<feBlend mode="normal" in2="shape" result="effect1_innerShadow_657_1937"/>
</filter>
<filter id="filter3_i_657_1937" x="923.202" y="241.994" width="173.085" height="57" filterUnits="userSpaceOnUse" color-interpolation-filters="sRGB">
<feFlood flood-opacity="0" result="BackgroundImageFix"/>
<feBlend mode="normal" in="SourceGraphic" in2="BackgroundImageFix" result="shape"/>
<feColorMatrix in="SourceAlpha" type="matrix" values="0 0 0 0 0 0 0 0 0 0 0 0 0 0 0 0 0 0 127 0" result="hardAlpha"/>
<feOffset dx="1" dy="2"/>
<feGaussianBlur stdDeviation="2.75"/>
<feComposite in2="hardAlpha" operator="arithmetic" k2="-1" k3="1"/>
<feColorMatrix type="matrix" values="0 0 0 0 0.000115271 0 0 0 0 0.0234534 0 0 0 0 0.226632 0 0 0 0.58 0"/>
<feBlend mode="normal" in2="shape" result="effect1_innerShadow_657_1937"/>
</filter>
<filter id="filter4_i_657_1937" x="895.202" y="331.994" width="173.085" height="57" filterUnits="userSpaceOnUse" color-interpolation-filters="sRGB">
<feFlood flood-opacity="0" result="BackgroundImageFix"/>
<feBlend mode="normal" in="SourceGraphic" in2="BackgroundImageFix" result="shape"/>
<feColorMatrix in="SourceAlpha" type="matrix" values="0 0 0 0 0 0 0 0 0 0 0 0 0 0 0 0 0 0 127 0" result="hardAlpha"/>
<feOffset dx="1" dy="2"/>
<feGaussianBlur stdDeviation="2.75"/>
<feComposite in2="hardAlpha" operator="arithmetic" k2="-1" k3="1"/>
<feColorMatrix type="matrix" values="0 0 0 0 0.000115271 0 0 0 0 0.0234534 0 0 0 0 0.226632 0 0 0 0.58 0"/>
<feBlend mode="normal" in2="shape" result="effect1_innerShadow_657_1937"/>
</filter>
<filter id="filter5_d_657_1937" x="266.332" y="75.4" width="708.896" height="238.2" filterUnits="userSpaceOnUse" color-interpolation-filters="sRGB">
<feFlood flood-opacity="0" result="BackgroundImageFix"/>
<feColorMatrix in="SourceAlpha" type="matrix" values="0 0 0 0 0 0 0 0 0 0 0 0 0 0 0 0 0 0 127 0" result="hardAlpha"/>
<feOffset dy="2"/>
<feGaussianBlur stdDeviation="4.3"/>
<feComposite in2="hardAlpha" operator="out"/>
<feColorMatrix type="matrix" values="0 0 0 0 0 0 0 0 0 0 0 0 0 0 0 0 0 0 0.15 0"/>
<feBlend mode="normal" in2="BackgroundImageFix" result="effect1_dropShadow_657_1937"/>
<feBlend mode="normal" in="SourceGraphic" in2="effect1_dropShadow_657_1937" result="shape"/>
</filter>
<filter id="filter6_d_657_1937" x="576.9" y="105.4" width="395.7" height="207.2" filterUnits="userSpaceOnUse" color-interpolation-filters="sRGB">
<feFlood flood-opacity="0" result="BackgroundImageFix"/>
<feColorMatrix in="SourceAlpha" type="matrix" values="0 0 0 0 0 0 0 0 0 0 0 0 0 0 0 0 0 0 127 0" result="hardAlpha"/>
<feOffset dy="1"/>
<feGaussianBlur stdDeviation="4.3"/>
<feComposite in2="hardAlpha" operator="out"/>
<feColorMatrix type="matrix" values="0 0 0 0 0.011609 0 0 0 0 0.0979129 0 0 0 0 0.287225 0 0 0 0.37 0"/>
<feBlend mode="normal" in2="BackgroundImageFix" result="effect1_dropShadow_657_1937"/>
<feBlend mode="normal" in="SourceGraphic" in2="effect1_dropShadow_657_1937" result="shape"/>
</filter>
<filter id="filter7_d_657_1937" x="326.4" y="66.4" width="652.138" height="57.2005" filterUnits="userSpaceOnUse" color-interpolation-filters="sRGB">
<feFlood flood-opacity="0" result="BackgroundImageFix"/>
<feColorMatrix in="SourceAlpha" type="matrix" values="0 0 0 0 0 0 0 0 0 0 0 0 0 0 0 0 0 0 127 0" result="hardAlpha"/>
<feOffset dy="2"/>
<feGaussianBlur stdDeviation="4.3"/>
<feComposite in2="hardAlpha" operator="out"/>
<feColorMatrix type="matrix" values="0 0 0 0 0 0 0 0 0 0 0 0 0 0 0 0 0 0 0.07 0"/>
<feBlend mode="normal" in2="BackgroundImageFix" result="effect1_dropShadow_657_1937"/>
<feBlend mode="normal" in="SourceGraphic" in2="effect1_dropShadow_657_1937" result="shape"/>
</filter>
<filter id="filter8_d_657_1937" x="734.526" y="444.8" width="166.037" height="70.4" filterUnits="userSpaceOnUse" color-interpolation-filters="sRGB">
<feFlood flood-opacity="0" result="BackgroundImageFix"/>
<feColorMatrix in="SourceAlpha" type="matrix" values="0 0 0 0 0 0 0 0 0 0 0 0 0 0 0 0 0 0 127 0" result="hardAlpha"/>
<feOffset dx="4" dy="4"/>
<feGaussianBlur stdDeviation="5.1"/>
<feComposite in2="hardAlpha" operator="out"/>
<feColorMatrix type="matrix" values="0 0 0 0 0 0 0 0 0 0 0 0 0 0 0 0 0 0 0.12 0"/>
<feBlend mode="normal" in2="BackgroundImageFix" result="effect1_dropShadow_657_1937"/>
<feBlend mode="normal" in="SourceGraphic" in2="effect1_dropShadow_657_1937" result="shape"/>
</filter>
<filter id="filter9_d_657_1937" x="888.624" y="444.8" width="165.841" height="69.4" filterUnits="userSpaceOnUse" color-interpolation-filters="sRGB">
<feFlood flood-opacity="0" result="BackgroundImageFix"/>
<feColorMatrix in="SourceAlpha" type="matrix" values="0 0 0 0 0 0 0 0 0 0 0 0 0 0 0 0 0 0 127 0" result="hardAlpha"/>
<feOffset dx="4" dy="4"/>
<feGaussianBlur stdDeviation="5.1"/>
<feComposite in2="hardAlpha" operator="out"/>
<feColorMatrix type="matrix" values="0 0 0 0 0 0 0 0 0 0 0 0 0 0 0 0 0 0 0.12 0"/>
<feBlend mode="normal" in2="BackgroundImageFix" result="effect1_dropShadow_657_1937"/>
<feBlend mode="normal" in="SourceGraphic" in2="effect1_dropShadow_657_1937" result="shape"/>
</filter>
<filter id="filter10_d_657_1937" x="426.624" y="444.8" width="165.842" height="69.4" filterUnits="userSpaceOnUse" color-interpolation-filters="sRGB">
<feFlood flood-opacity="0" result="BackgroundImageFix"/>
<feColorMatrix in="SourceAlpha" type="matrix" values="0 0 0 0 0 0 0 0 0 0 0 0 0 0 0 0 0 0 127 0" result="hardAlpha"/>
<feOffset dx="4" dy="4"/>
<feGaussianBlur stdDeviation="5.1"/>
<feComposite in2="hardAlpha" operator="out"/>
<feColorMatrix type="matrix" values="0 0 0 0 0 0 0 0 0 0 0 0 0 0 0 0 0 0 0.12 0"/>
<feBlend mode="normal" in2="BackgroundImageFix" result="effect1_dropShadow_657_1937"/>
<feBlend mode="normal" in="SourceGraphic" in2="effect1_dropShadow_657_1937" result="shape"/>
</filter>
<filter id="filter11_d_657_1937" x="580.526" y="444.8" width="166.036" height="70.4" filterUnits="userSpaceOnUse" color-interpolation-filters="sRGB">
<feFlood flood-opacity="0" result="BackgroundImageFix"/>
<feColorMatrix in="SourceAlpha" type="matrix" values="0 0 0 0 0 0 0 0 0 0 0 0 0 0 0 0 0 0 127 0" result="hardAlpha"/>
<feOffset dx="4" dy="4"/>
<feGaussianBlur stdDeviation="5.1"/>
<feComposite in2="hardAlpha" operator="out"/>
<feColorMatrix type="matrix" values="0 0 0 0 0 0 0 0 0 0 0 0 0 0 0 0 0 0 0.12 0"/>
<feBlend mode="normal" in2="BackgroundImageFix" result="effect1_dropShadow_657_1937"/>
<feBlend mode="normal" in="SourceGraphic" in2="effect1_dropShadow_657_1937" result="shape"/>
</filter>
<filter id="filter12_d_657_1937" x="271.656" y="444.8" width="166.778" height="69.4" filterUnits="userSpaceOnUse" color-interpolation-filters="sRGB">
<feFlood flood-opacity="0" result="BackgroundImageFix"/>
<feColorMatrix in="SourceAlpha" type="matrix" values="0 0 0 0 0 0 0 0 0 0 0 0 0 0 0 0 0 0 127 0" result="hardAlpha"/>
<feOffset dx="4" dy="4"/>
<feGaussianBlur stdDeviation="5.1"/>
<feComposite in2="hardAlpha" operator="out"/>
<feColorMatrix type="matrix" values="0 0 0 0 0 0 0 0 0 0 0 0 0 0 0 0 0 0 0.12 0"/>
<feBlend mode="normal" in2="BackgroundImageFix" result="effect1_dropShadow_657_1937"/>
<feBlend mode="normal" in="SourceGraphic" in2="effect1_dropShadow_657_1937" result="shape"/>
</filter>
<radialGradient id="paint0_radial_657_1937" cx="0" cy="0" r="1" gradientUnits="userSpaceOnUse" gradientTransform="translate(640 326.5) rotate(90) scale(306.5 640)">
<stop offset="0.21" stop-color="#4C5CE5"/>
<stop offset="1" stop-color="#1A3888" stop-opacity="0"/>
</radialGradient>
<linearGradient id="paint1_linear_657_1937" x1="1012.7" y1="259.109" x2="750.359" y2="634.846" gradientUnits="userSpaceOnUse">
<stop stop-color="#001A85"/>
<stop offset="0.651042" stop-color="#16182B"/>
</linearGradient>
<linearGradient id="paint2_linear_657_1937" x1="1201.13" y1="214.213" x2="1193.48" y2="446.61" gradientUnits="userSpaceOnUse">
<stop stop-color="#4C5CE5"/>
<stop offset="0.346406" stop-color="#2563EB"/>
<stop offset="1" stop-color="#34D399"/>
</linearGradient>
<linearGradient id="paint3_linear_657_1937" x1="488.5" y1="342" x2="242.5" y2="342" gradientUnits="userSpaceOnUse">
<stop offset="0.32" stop-color="#2DD4BF"/>
<stop offset="1" stop-color="#001A85" stop-opacity="0"/>
</linearGradient>
<linearGradient id="paint4_linear_657_1937" x1="335" y1="176" x2="211" y2="176" gradientUnits="userSpaceOnUse">
<stop offset="0.32" stop-color="#2DD4BF"/>
<stop offset="1" stop-color="#001A85" stop-opacity="0"/>
</linearGradient>
</defs>
</svg>
