<svg width="430" height="468" viewBox="0 0 430 468" fill="none" xmlns="http://www.w3.org/2000/svg">
<g clip-path="url(#clip0_830_2592)">
<ellipse cx="213" cy="297.5" rx="217" ry="170.5" fill="url(#paint0_radial_830_2592)" fill-opacity="0.57"/>
<ellipse cx="215" cy="184" rx="215" ry="184" fill="url(#paint1_radial_830_2592)" fill-opacity="0.48"/>
<g filter="url(#filter0_d_830_2592)">
<path d="M67.9248 375.313L377.805 374.926C384.933 374.917 391.062 369.892 392.467 362.905L426.004 196.119C427.872 186.829 420.761 178.143 411.283 178.138L100.952 177.982C93.7955 177.978 87.6415 183.031 86.2536 190.05L53.1681 357.38C51.3317 366.667 58.456 375.325 67.9248 375.313Z" fill="url(#paint2_linear_830_2592)"/>
</g>
<g filter="url(#filter1_d_830_2592)">
<path fill-rule="evenodd" clip-rule="evenodd" d="M425.024 195.921C426.768 187.25 420.131 179.143 411.285 179.139L100.954 178.982C94.2745 178.979 88.5306 183.695 87.2353 190.246L54.1498 357.576C52.4359 366.244 59.0852 374.325 67.9228 374.313L377.803 373.926C384.456 373.918 390.176 369.227 391.488 362.706L425.024 195.921ZM411.283 177.138C421.392 177.144 428.978 186.409 426.985 196.318L393.448 363.104C391.95 370.556 385.412 375.917 377.808 375.926L67.9284 376.314C57.8284 376.326 50.2291 367.091 52.1879 357.185L85.2734 189.855C86.7538 182.368 93.3181 176.978 100.951 176.982L411.283 177.138Z" fill="white"/>
<path fill-rule="evenodd" clip-rule="evenodd" d="M425.024 195.921C426.768 187.25 420.131 179.143 411.285 179.139L100.954 178.982C94.2745 178.979 88.5306 183.695 87.2353 190.246L54.1498 357.576C52.4359 366.244 59.0852 374.325 67.9228 374.313L377.803 373.926C384.456 373.918 390.176 369.227 391.488 362.706L425.024 195.921ZM411.283 177.138C421.392 177.144 428.978 186.409 426.985 196.318L393.448 363.104C391.95 370.556 385.412 375.917 377.808 375.926L67.9284 376.314C57.8284 376.326 50.2291 367.091 52.1879 357.185L85.2734 189.855C86.7538 182.368 93.3181 176.978 100.951 176.982L411.283 177.138Z" fill="url(#paint3_linear_830_2592)"/>
</g>
<g opacity="0.5" filter="url(#filter2_i_830_2592)">
<path d="M307.461 250.87L316.415 207.764C317.374 203.148 321.428 199.834 326.144 199.813L385.209 199.54C391.568 199.511 396.348 205.348 395.064 211.575L386.088 255.113C385.13 259.763 381.032 263.092 376.284 263.079L317.24 262.919C310.905 262.902 306.173 257.071 307.461 250.87Z" fill="#4C5CE5"/>
</g>
<g opacity="0.5" filter="url(#filter3_i_830_2592)">
<path d="M84.6693 331.612L93.4472 290.398C94.4264 285.8 98.477 282.511 103.179 282.495L162.224 282.301C168.598 282.28 173.374 288.149 172.056 294.384L163.256 336.018C162.277 340.649 158.184 343.953 153.45 343.935L94.4272 343.711C88.0755 343.686 83.3465 337.823 84.6693 331.612Z" fill="#4C5CE5"/>
</g>
<g opacity="0.5" filter="url(#filter4_i_830_2592)">
<path d="M186.653 331.85L195.51 290.639C196.496 286.048 200.545 282.768 205.242 282.755L265.144 282.584C271.524 282.566 276.298 288.448 274.968 294.686L266.088 336.318C265.102 340.941 261.011 344.237 256.283 344.217L196.404 343.966C190.046 343.94 185.318 338.064 186.653 331.85Z" fill="#4C5CE5"/>
</g>
<g opacity="0.5" filter="url(#filter5_i_830_2592)">
<path d="M290.487 332.223L299.274 290.06C300.236 285.446 304.29 282.136 309.003 282.115L367.202 281.857C373.563 281.829 378.343 287.67 377.054 293.898L368.244 336.486C367.283 341.133 363.186 344.459 358.439 344.446L300.263 344.279C293.925 344.261 289.194 338.426 290.487 332.223Z" fill="#4C5CE5"/>
</g>
<path fill-rule="evenodd" clip-rule="evenodd" d="M383.188 230.165C381.717 230.108 380.57 228.869 380.627 227.397C380.683 225.926 381.922 224.779 383.394 224.836C384.659 224.884 385.685 225.807 385.911 227L398.232 227L362.109 401.657L361.13 401.454L397.004 228L385.911 228C385.669 229.275 384.525 230.216 383.188 230.165Z" fill="#4C5CE5"/>
<path fill-rule="evenodd" clip-rule="evenodd" d="M173.065 248.626L141.107 402.508L140.128 402.305L172.086 248.423L173.065 248.626Z" fill="#4C5CE5"/>
<path fill-rule="evenodd" clip-rule="evenodd" d="M298.485 335.968C297.479 335.556 296.788 334.547 296.832 333.397C296.889 331.926 298.128 330.779 299.6 330.835C301.071 330.892 302.218 332.131 302.161 333.603C302.106 335.051 300.905 336.184 299.465 336.167L285.986 402.507L285.006 402.307L298.485 335.968Z" fill="#4C5CE5"/>
<path fill-rule="evenodd" clip-rule="evenodd" d="M224.606 335.968C223.6 335.556 222.909 334.547 222.953 333.397C223.01 331.926 224.249 330.779 225.721 330.835C227.192 330.892 228.339 332.131 228.282 333.603C228.227 335.051 227.026 336.184 225.586 336.167L212.108 402.507L211.128 402.307L224.606 335.968Z" fill="#4C5CE5"/>
<path fill-rule="evenodd" clip-rule="evenodd" d="M94.5019 310.897L80.1968 310.896L64.1268 393.905L65.1086 394.095L81.0218 311.896L94.5016 311.897C94.7281 313.09 95.7534 314.013 97.0187 314.062C98.4904 314.119 99.7295 312.972 99.7863 311.5C99.8431 310.029 98.6961 308.789 97.2244 308.733C95.8882 308.681 94.7437 309.622 94.5019 310.897Z" fill="#4C5CE5"/>
<path d="M16.0461 263.282L325.974 262.893C333.107 262.884 339.239 257.853 340.639 250.86L373.87 84.8998C375.733 75.5926 368.589 66.9038 359.095 66.9317L49.1422 67.8429C42.0213 67.8638 35.9044 72.8892 34.5034 79.8696L1.29834 245.307C-0.568064 254.606 6.55998 263.294 16.0461 263.282Z" fill="white"/>
<g filter="url(#filter6_d_830_2592)">
<path opacity="0.6" d="M180.483 200.31L350.734 200.671L340.643 251.016C339.24 258.013 333.101 263.044 325.964 263.046L167.965 263.091L180.483 200.31Z" fill="#4C5CE5"/>
<path d="M202.287 92.0189L372.481 91.6997L350.732 200.671L180.459 200.885L202.287 92.0189Z" fill="#4C5CE5"/>
</g>
<path d="M32.245 91.9295L372.792 91.5027L374.189 84.3317C375.999 75.0459 368.862 66.4117 359.4 66.4395L49.3759 67.3509C42.2433 67.3718 36.1198 72.4134 34.731 79.4083L32.245 91.9295Z" fill="#E5E9FD"/>
<path d="M70.0377 81.9858C68.7884 84.5758 66.3181 85.7137 64.5202 84.5273C62.7223 83.341 62.2777 80.2796 63.527 77.6896C64.7763 75.0996 67.2465 73.9617 69.0444 75.1481C70.8423 76.3345 71.287 79.3958 70.0377 81.9858Z" fill="#FBBF24"/>
<path d="M57.3599 81.9858C56.1106 84.5758 53.6404 85.7137 51.8425 84.5273C50.0446 83.341 49.5999 80.2796 50.8492 77.6896C52.0986 75.0996 54.5688 73.9617 56.3667 75.1481C58.1646 76.3345 58.6093 79.3958 57.3599 81.9858Z" fill="#D61830"/>
<path d="M82.9674 81.9858C81.718 84.5758 79.2478 85.7137 77.4499 84.5273C75.652 83.341 75.2073 80.2796 76.4567 77.6896C77.706 75.0996 80.1762 73.9617 81.9741 75.1481C83.772 76.3345 84.2167 79.3958 82.9674 81.9858Z" fill="#2DD4BF"/>
<path d="M202.703 149.62L208.822 118.16C209.096 116.753 210.328 115.738 211.762 115.738L251.219 115.738C253.122 115.738 254.547 117.488 254.161 119.352L247.619 150.896C247.33 152.289 246.103 153.285 244.68 153.282L205.646 153.198C203.76 153.194 202.343 151.471 202.703 149.62Z" fill="white"/>
<path d="M38.4557 174.461L48.856 117.828C49.1171 116.406 50.3558 115.374 51.8019 115.374L183.2 115.375C185.1 115.375 186.524 117.118 186.144 118.979L174.535 175.859C174.25 177.256 173.021 178.258 171.595 178.255L41.4051 178.007C39.5319 178.004 38.1174 176.303 38.4557 174.461Z" fill="#E5E9FD"/>
<path d="M96.382 247.87L107.871 192.387C108.159 190.996 109.383 190 110.804 190L167.877 190C169.79 190 171.216 191.765 170.815 193.635L158.872 249.205C158.575 250.587 157.354 251.573 155.94 251.57L99.3195 251.482C97.4182 251.48 95.9965 249.731 96.382 247.87Z" fill="#E5E9FD"/>
<path d="M22.8712 247.87L34.3602 192.387C34.6482 190.996 35.8725 190 37.2931 190L94.3664 190C96.2788 190 97.7056 191.765 97.3039 193.635L85.3618 249.205C85.0647 250.587 83.8428 251.573 82.4288 251.57L25.8087 251.482C23.9074 251.48 22.4858 249.731 22.8712 247.87Z" fill="#E5E9FD"/>
<path d="M251.193 186.907L257.312 155.447C257.586 154.039 258.818 153.024 260.252 153.024L299.709 153.024C301.612 153.024 303.037 154.775 302.651 156.638L296.11 188.182C295.821 189.575 294.593 190.572 293.17 190.569L254.136 190.484C252.25 190.48 250.833 188.758 251.193 186.907Z" fill="white"/>
<path d="M261.904 136.979L265.183 118.495C265.437 117.065 266.68 116.024 268.133 116.024L307.584 116.024C309.476 116.024 310.898 117.754 310.532 119.609L306.871 138.177C306.594 139.584 305.36 140.596 303.926 140.592L264.856 140.508C262.99 140.504 261.578 138.816 261.904 136.979Z" fill="white"/>
<path d="M195.255 185.883L198.535 167.399C198.789 165.969 200.031 164.928 201.484 164.928L240.936 164.928C242.827 164.928 244.249 166.657 243.884 168.513L240.223 187.081C239.945 188.487 238.711 189.499 237.278 189.496L198.207 189.412C196.342 189.408 194.93 187.72 195.255 185.883Z" fill="white"/>
<path d="M182.682 246.622L187.368 225.21C187.669 223.835 188.886 222.855 190.294 222.855L226.321 222.855C228.258 222.855 229.69 224.665 229.245 226.55L224.164 248.046C223.844 249.4 222.634 250.355 221.243 250.351L185.61 250.268C183.696 250.264 182.273 248.492 182.682 246.622Z" fill="white"/>
<path d="M235.307 246.622L239.993 225.21C240.294 223.835 241.511 222.855 242.919 222.855L278.946 222.855C280.883 222.855 282.315 224.665 281.87 226.55L276.789 248.046C276.469 249.4 275.259 250.355 273.868 250.351L238.235 250.268C236.321 250.264 234.898 248.492 235.307 246.622Z" fill="white"/>
<path d="M287.306 246.622L291.992 225.21C292.293 223.835 293.51 222.855 294.918 222.855L330.945 222.855C332.882 222.855 334.314 224.665 333.869 226.55L328.788 248.046C328.468 249.4 327.258 250.355 325.867 250.351L290.234 250.268C288.32 250.264 286.897 248.492 287.306 246.622Z" fill="white"/>
<path d="M308.993 185.927L322.001 118.542C322.273 117.136 323.501 116.119 324.933 116.115L352.645 116.035C354.543 116.029 355.971 117.766 355.6 119.627L342.132 187.092C341.853 188.492 340.624 189.5 339.195 189.5L311.943 189.5C310.056 189.5 308.635 187.779 308.993 185.927Z" fill="white"/>
<path d="M307.379 101.424L303.419 111.096H302.291L303.587 107.928L300.935 101.424H302.147L304.211 106.752L306.251 101.424H307.379Z" fill="white"/>
<path d="M298.33 102.492C298.522 102.116 298.794 101.824 299.146 101.616C299.506 101.408 299.942 101.304 300.454 101.304V102.432H300.166C298.942 102.432 298.33 103.096 298.33 104.424V108H297.238V101.424H298.33V102.492Z" fill="white"/>
<path d="M288.721 104.688C288.721 104.016 288.857 103.428 289.129 102.924C289.401 102.412 289.773 102.016 290.245 101.736C290.725 101.456 291.257 101.316 291.841 101.316C292.417 101.316 292.917 101.44 293.341 101.688C293.765 101.936 294.081 102.248 294.289 102.624V101.424H295.393V108H294.289V106.776C294.073 107.16 293.749 107.48 293.317 107.736C292.893 107.984 292.397 108.108 291.829 108.108C291.245 108.108 290.717 107.964 290.245 107.676C289.773 107.388 289.401 106.984 289.129 106.464C288.857 105.944 288.721 105.352 288.721 104.688ZM294.289 104.7C294.289 104.204 294.189 103.772 293.989 103.404C293.789 103.036 293.517 102.756 293.173 102.564C292.837 102.364 292.465 102.264 292.057 102.264C291.649 102.264 291.277 102.36 290.941 102.552C290.605 102.744 290.337 103.024 290.137 103.392C289.937 103.76 289.837 104.192 289.837 104.688C289.837 105.192 289.937 105.632 290.137 106.008C290.337 106.376 290.605 106.66 290.941 106.86C291.277 107.052 291.649 107.148 292.057 107.148C292.465 107.148 292.837 107.052 293.173 106.86C293.517 106.66 293.789 106.376 293.989 106.008C294.189 105.632 294.289 105.196 294.289 104.7Z" fill="white"/>
<path d="M285.744 102.492C285.936 102.116 286.208 101.824 286.56 101.616C286.92 101.408 287.356 101.304 287.868 101.304V102.432H287.58C286.356 102.432 285.744 103.096 285.744 104.424V108H284.652V101.424H285.744V102.492Z" fill="white"/>
<path d="M277.635 102.648C277.859 102.256 278.187 101.936 278.619 101.688C279.051 101.44 279.543 101.316 280.095 101.316C280.687 101.316 281.219 101.456 281.691 101.736C282.163 102.016 282.535 102.412 282.807 102.924C283.079 103.428 283.215 104.016 283.215 104.688C283.215 105.352 283.079 105.944 282.807 106.464C282.535 106.984 282.159 107.388 281.679 107.676C281.207 107.964 280.679 108.108 280.095 108.108C279.527 108.108 279.027 107.984 278.595 107.736C278.171 107.488 277.851 107.172 277.635 106.788V108H276.543V99.1201H277.635V102.648ZM282.099 104.688C282.099 104.192 281.999 103.76 281.799 103.392C281.599 103.024 281.327 102.744 280.983 102.552C280.647 102.36 280.275 102.264 279.867 102.264C279.467 102.264 279.095 102.364 278.751 102.564C278.415 102.756 278.143 103.04 277.935 103.416C277.735 103.784 277.635 104.212 277.635 104.7C277.635 105.196 277.735 105.632 277.935 106.008C278.143 106.376 278.415 106.66 278.751 106.86C279.095 107.052 279.467 107.148 279.867 107.148C280.275 107.148 280.647 107.052 280.983 106.86C281.327 106.66 281.599 106.376 281.799 106.008C281.999 105.632 282.099 105.192 282.099 104.688Z" fill="white"/>
<path d="M274.153 100.356C273.945 100.356 273.769 100.284 273.625 100.14C273.481 99.9962 273.409 99.8202 273.409 99.6122C273.409 99.4042 273.481 99.2282 273.625 99.0842C273.769 98.9402 273.945 98.8682 274.153 98.8682C274.353 98.8682 274.521 98.9402 274.657 99.0842C274.801 99.2282 274.873 99.4042 274.873 99.6122C274.873 99.8202 274.801 99.9962 274.657 100.14C274.521 100.284 274.353 100.356 274.153 100.356ZM274.681 101.424V108H273.589V101.424H274.681Z" fill="white"/>
<path d="M269.502 107.112H272.43V108H268.41V99.6362H269.502V107.112Z" fill="white"/>
<path d="M263.35 99.6362V108H262.258V99.6362H263.35Z" fill="white"/>
<path d="M255.228 99.6362V104.928C255.228 105.672 255.408 106.224 255.768 106.584C256.136 106.944 256.644 107.124 257.292 107.124C257.932 107.124 258.432 106.944 258.792 106.584C259.16 106.224 259.344 105.672 259.344 104.928V99.6362H260.436V104.916C260.436 105.612 260.296 106.2 260.016 106.68C259.736 107.152 259.356 107.504 258.876 107.736C258.404 107.968 257.872 108.084 257.28 108.084C256.688 108.084 256.152 107.968 255.672 107.736C255.2 107.504 254.824 107.152 254.544 106.68C254.272 106.2 254.136 105.612 254.136 104.916V99.6362H255.228Z" fill="white"/>
<path d="M282.876 216.108C282.372 216.108 281.92 216.024 281.52 215.856C281.12 215.68 280.804 215.44 280.572 215.136C280.34 214.824 280.212 214.468 280.188 214.068H281.316C281.348 214.396 281.5 214.664 281.772 214.872C282.052 215.08 282.416 215.184 282.864 215.184C283.28 215.184 283.608 215.092 283.848 214.908C284.088 214.724 284.208 214.492 284.208 214.212C284.208 213.924 284.08 213.712 283.824 213.576C283.568 213.432 283.172 213.292 282.636 213.156C282.148 213.028 281.748 212.9 281.436 212.772C281.132 212.636 280.868 212.44 280.644 212.184C280.428 211.92 280.32 211.576 280.32 211.152C280.32 210.816 280.42 210.508 280.62 210.228C280.82 209.948 281.104 209.728 281.472 209.568C281.84 209.4 282.26 209.316 282.732 209.316C283.46 209.316 284.048 209.5 284.496 209.868C284.944 210.236 285.184 210.74 285.216 211.38H284.124C284.1 211.036 283.96 210.76 283.704 210.552C283.456 210.344 283.12 210.24 282.696 210.24C282.304 210.24 281.992 210.324 281.76 210.492C281.528 210.66 281.412 210.88 281.412 211.152C281.412 211.368 281.48 211.548 281.616 211.692C281.76 211.828 281.936 211.94 282.144 212.028C282.36 212.108 282.656 212.2 283.032 212.304C283.504 212.432 283.888 212.56 284.184 212.688C284.48 212.808 284.732 212.992 284.94 213.24C285.156 213.488 285.268 213.812 285.276 214.212C285.276 214.572 285.176 214.896 284.976 215.184C284.776 215.472 284.492 215.7 284.124 215.868C283.764 216.028 283.348 216.108 282.876 216.108Z" fill="white"/>
<path d="M277.901 216L274.457 212.184V216H273.365V207.636H274.457V211.512L277.913 207.636H279.293L275.501 211.824L279.329 216H277.901Z" fill="white"/>
<path d="M267.485 207.636C268.397 207.636 269.185 207.808 269.849 208.152C270.521 208.488 271.033 208.972 271.385 209.604C271.745 210.236 271.925 210.98 271.925 211.836C271.925 212.692 271.745 213.436 271.385 214.068C271.033 214.692 270.521 215.172 269.849 215.508C269.185 215.836 268.397 216 267.485 216H264.881V207.636H267.485ZM267.485 215.1C268.565 215.1 269.389 214.816 269.957 214.248C270.525 213.672 270.809 212.868 270.809 211.836C270.809 210.796 270.521 209.984 269.945 209.4C269.377 208.816 268.557 208.524 267.485 208.524H265.973V215.1H267.485Z" fill="white"/>
<path d="M260.49 216.084C259.938 216.084 259.442 215.988 259.002 215.796C258.57 215.596 258.23 215.324 257.982 214.98C257.734 214.628 257.606 214.224 257.598 213.768H258.762C258.802 214.16 258.962 214.492 259.242 214.764C259.53 215.028 259.946 215.16 260.49 215.16C261.01 215.16 261.418 215.032 261.714 214.776C262.018 214.512 262.17 214.176 262.17 213.768C262.17 213.448 262.082 213.188 261.906 212.988C261.73 212.788 261.51 212.636 261.246 212.532C260.982 212.428 260.626 212.316 260.178 212.196C259.626 212.052 259.182 211.908 258.846 211.764C258.518 211.62 258.234 211.396 257.994 211.092C257.762 210.78 257.646 210.364 257.646 209.844C257.646 209.388 257.762 208.984 257.994 208.632C258.226 208.28 258.55 208.008 258.966 207.816C259.39 207.624 259.874 207.528 260.418 207.528C261.202 207.528 261.842 207.724 262.338 208.116C262.842 208.508 263.126 209.028 263.19 209.676H261.99C261.95 209.356 261.782 209.076 261.486 208.836C261.19 208.588 260.798 208.464 260.31 208.464C259.854 208.464 259.482 208.584 259.194 208.824C258.906 209.056 258.762 209.384 258.762 209.808C258.762 210.112 258.846 210.36 259.014 210.552C259.19 210.744 259.402 210.892 259.65 210.996C259.906 211.092 260.262 211.204 260.718 211.332C261.27 211.484 261.714 211.636 262.05 211.788C262.386 211.932 262.674 212.16 262.914 212.472C263.154 212.776 263.274 213.192 263.274 213.72C263.274 214.128 263.166 214.512 262.95 214.872C262.734 215.232 262.414 215.524 261.99 215.748C261.566 215.972 261.066 216.084 260.49 216.084Z" fill="white"/>
<path d="M252.778 207.636V216H251.686V207.636H252.778Z" fill="white"/>
<path d="M250.328 210.084C250.328 210.78 250.088 211.36 249.608 211.824C249.136 212.28 248.412 212.508 247.436 212.508H245.828V216H244.736V207.636H247.436C248.38 207.636 249.096 207.864 249.584 208.32C250.08 208.776 250.328 209.364 250.328 210.084ZM247.436 211.608C248.044 211.608 248.492 211.476 248.78 211.212C249.068 210.948 249.212 210.572 249.212 210.084C249.212 209.052 248.62 208.536 247.436 208.536H245.828V211.608H247.436Z" fill="white"/>
<path d="M241.594 214.141H237.946L237.274 216.001H236.122L239.146 207.685H240.406L243.418 216.001H242.266L241.594 214.141ZM241.282 213.253L239.77 209.029L238.258 213.253H241.282Z" fill="white"/>
<path fill-rule="evenodd" clip-rule="evenodd" d="M392.285 189C392.285 190.473 391.091 191.667 389.618 191.667C388.145 191.667 386.951 190.473 386.951 189C386.951 187.698 387.884 186.614 389.118 186.38L389.118 33.0003L390.118 33.0003L390.118 186.38C391.352 186.614 392.285 187.698 392.285 189Z" fill="url(#paint4_linear_830_2592)"/>
<path d="M425.195 26.2324C425.979 26.2324 426.603 26.4884 427.067 27.0004C427.539 27.5044 427.775 28.2004 427.775 29.0884V33.0004H425.735V29.3644C425.735 28.9164 425.619 28.5684 425.387 28.3204C425.155 28.0724 424.843 27.9484 424.451 27.9484C424.059 27.9484 423.747 28.0724 423.515 28.3204C423.283 28.5684 423.167 28.9164 423.167 29.3644V33.0004H421.115V26.3044H423.167V27.1924C423.375 26.8964 423.655 26.6644 424.007 26.4964C424.359 26.3204 424.755 26.2324 425.195 26.2324Z" fill="white"/>
<path d="M416.522 33.096C415.866 33.096 415.274 32.956 414.746 32.676C414.226 32.396 413.814 31.996 413.51 31.476C413.214 30.956 413.066 30.348 413.066 29.652C413.066 28.964 413.218 28.36 413.522 27.84C413.826 27.312 414.242 26.908 414.77 26.628C415.298 26.348 415.89 26.208 416.546 26.208C417.202 26.208 417.794 26.348 418.322 26.628C418.85 26.908 419.266 27.312 419.57 27.84C419.874 28.36 420.026 28.964 420.026 29.652C420.026 30.34 419.87 30.948 419.558 31.476C419.254 31.996 418.834 32.396 418.298 32.676C417.77 32.956 417.178 33.096 416.522 33.096ZM416.522 31.32C416.914 31.32 417.246 31.176 417.518 30.888C417.798 30.6 417.938 30.188 417.938 29.652C417.938 29.116 417.802 28.704 417.53 28.416C417.266 28.128 416.938 27.984 416.546 27.984C416.146 27.984 415.814 28.128 415.55 28.416C415.286 28.696 415.154 29.108 415.154 29.652C415.154 30.188 415.282 30.6 415.538 30.888C415.802 31.176 416.13 31.32 416.522 31.32Z" fill="white"/>
<path d="M410.968 25.6082C410.608 25.6082 410.312 25.5042 410.08 25.2962C409.856 25.0802 409.744 24.8162 409.744 24.5042C409.744 24.1842 409.856 23.9202 410.08 23.7122C410.312 23.4962 410.608 23.3882 410.968 23.3882C411.32 23.3882 411.608 23.4962 411.832 23.7122C412.064 23.9202 412.18 24.1842 412.18 24.5042C412.18 24.8162 412.064 25.0802 411.832 25.2962C411.608 25.5042 411.32 25.6082 410.968 25.6082ZM411.988 26.3042V33.0002H409.936V26.3042H411.988Z" fill="white"/>
<path d="M408.792 31.2604V33.0004H407.748C407.004 33.0004 406.424 32.8204 406.008 32.4604C405.592 32.0924 405.384 31.4964 405.384 30.6724V28.0084H404.568V26.3044H405.384V24.6724H407.436V26.3044H408.78V28.0084H407.436V30.6964C407.436 30.8964 407.484 31.0404 407.58 31.1284C407.676 31.2164 407.836 31.2604 408.06 31.2604H408.792Z" fill="white"/>
<path d="M396.508 29.64C396.508 28.952 396.636 28.348 396.892 27.828C397.156 27.308 397.512 26.908 397.96 26.628C398.408 26.348 398.908 26.208 399.46 26.208C399.932 26.208 400.344 26.304 400.696 26.496C401.056 26.688 401.332 26.94 401.524 27.252V26.304H403.576V33H401.524V32.052C401.324 32.364 401.044 32.616 400.684 32.808C400.332 33 399.92 33.096 399.448 33.096C398.904 33.096 398.408 32.956 397.96 32.676C397.512 32.388 397.156 31.984 396.892 31.464C396.636 30.936 396.508 30.328 396.508 29.64ZM401.524 29.652C401.524 29.14 401.38 28.736 401.092 28.44C400.812 28.144 400.468 27.996 400.06 27.996C399.652 27.996 399.304 28.144 399.016 28.44C398.736 28.728 398.596 29.128 398.596 29.64C398.596 30.152 398.736 30.56 399.016 30.864C399.304 31.16 399.652 31.308 400.06 31.308C400.468 31.308 400.812 31.16 401.092 30.864C401.38 30.568 401.524 30.164 401.524 29.652Z" fill="white"/>
<path d="M392.883 31.3082H395.787V33.0002H390.591V31.3682L393.375 27.9962H390.615V26.3042H395.727V27.9362L392.883 31.3082Z" fill="white"/>
<path d="M388.456 25.6082C388.096 25.6082 387.8 25.5042 387.568 25.2962C387.344 25.0802 387.232 24.8162 387.232 24.5042C387.232 24.1842 387.344 23.9202 387.568 23.7122C387.8 23.4962 388.096 23.3882 388.456 23.3882C388.808 23.3882 389.096 23.4962 389.32 23.7122C389.552 23.9202 389.668 24.1842 389.668 24.5042C389.668 24.8162 389.552 25.0802 389.32 25.2962C389.096 25.5042 388.808 25.6082 388.456 25.6082ZM389.476 26.3042V33.0002H387.424V26.3042H389.476Z" fill="white"/>
<path d="M383.418 26.2324C384.202 26.2324 384.826 26.4884 385.29 27.0004C385.762 27.5044 385.998 28.2004 385.998 29.0884V33.0004H383.958V29.3644C383.958 28.9164 383.842 28.5684 383.61 28.3204C383.378 28.0724 383.066 27.9484 382.674 27.9484C382.282 27.9484 381.97 28.0724 381.738 28.3204C381.506 28.5684 381.39 28.9164 381.39 29.3644V33.0004H379.338V26.3044H381.39V27.1924C381.598 26.8964 381.878 26.6644 382.23 26.4964C382.582 26.3204 382.978 26.2324 383.418 26.2324Z" fill="white"/>
<path d="M374.745 33.096C374.089 33.096 373.497 32.956 372.969 32.676C372.449 32.396 372.037 31.996 371.733 31.476C371.437 30.956 371.289 30.348 371.289 29.652C371.289 28.964 371.441 28.36 371.745 27.84C372.049 27.312 372.465 26.908 372.993 26.628C373.521 26.348 374.113 26.208 374.769 26.208C375.425 26.208 376.017 26.348 376.545 26.628C377.073 26.908 377.489 27.312 377.793 27.84C378.097 28.36 378.249 28.964 378.249 29.652C378.249 30.34 378.093 30.948 377.781 31.476C377.477 31.996 377.057 32.396 376.521 32.676C375.993 32.956 375.401 33.096 374.745 33.096ZM374.745 31.32C375.137 31.32 375.469 31.176 375.741 30.888C376.021 30.6 376.161 30.188 376.161 29.652C376.161 29.116 376.025 28.704 375.753 28.416C375.489 28.128 375.161 27.984 374.769 27.984C374.369 27.984 374.037 28.128 373.773 28.416C373.509 28.696 373.377 29.108 373.377 29.652C373.377 30.188 373.505 30.6 373.761 30.888C374.025 31.176 374.353 31.32 374.745 31.32Z" fill="white"/>
<path d="M367.538 26.2324C368.37 26.2324 369.03 26.4844 369.518 26.9884C370.014 27.4924 370.262 28.1924 370.262 29.0884V33.0004H368.222V29.3644C368.222 28.9324 368.106 28.6004 367.874 28.3684C367.65 28.1284 367.338 28.0084 366.938 28.0084C366.538 28.0084 366.222 28.1284 365.99 28.3684C365.766 28.6004 365.654 28.9324 365.654 29.3644V33.0004H363.614V29.3644C363.614 28.9324 363.498 28.6004 363.266 28.3684C363.042 28.1284 362.73 28.0084 362.33 28.0084C361.93 28.0084 361.614 28.1284 361.382 28.3684C361.158 28.6004 361.046 28.9324 361.046 29.3644V33.0004H358.994V26.3044H361.046V27.1444C361.254 26.8644 361.526 26.6444 361.862 26.4844C362.198 26.3164 362.578 26.2324 363.002 26.2324C363.506 26.2324 363.954 26.3404 364.346 26.5564C364.746 26.7724 365.058 27.0804 365.282 27.4804C365.514 27.1124 365.83 26.8124 366.23 26.5804C366.63 26.3484 367.066 26.2324 367.538 26.2324Z" fill="white"/>
<path d="M355.913 27.4204C356.153 27.0524 356.453 26.7644 356.813 26.5564C357.173 26.3404 357.573 26.2324 358.013 26.2324V28.4044H357.449C356.937 28.4044 356.553 28.5164 356.297 28.7404C356.041 28.9564 355.913 29.3404 355.913 29.8924V33.0004H353.861V26.3044H355.913V27.4204Z" fill="white"/>
<path d="M345.309 29.64C345.309 28.952 345.437 28.348 345.693 27.828C345.957 27.308 346.313 26.908 346.761 26.628C347.209 26.348 347.709 26.208 348.261 26.208C348.733 26.208 349.145 26.304 349.497 26.496C349.857 26.688 350.133 26.94 350.325 27.252V26.304H352.377V33H350.325V32.052C350.125 32.364 349.845 32.616 349.485 32.808C349.133 33 348.721 33.096 348.249 33.096C347.705 33.096 347.209 32.956 346.761 32.676C346.313 32.388 345.957 31.984 345.693 31.464C345.437 30.936 345.309 30.328 345.309 29.64ZM350.325 29.652C350.325 29.14 350.181 28.736 349.893 28.44C349.613 28.144 349.269 27.996 348.861 27.996C348.453 27.996 348.105 28.144 347.817 28.44C347.537 28.728 347.397 29.128 347.397 29.64C347.397 30.152 347.537 30.56 347.817 30.864C348.105 31.16 348.453 31.308 348.861 31.308C349.269 31.308 349.613 31.16 349.893 30.864C350.181 30.568 350.325 30.164 350.325 29.652Z" fill="white"/>
<path d="M344.235 24.5762V33.0002H342.183V29.5322H338.991V33.0002H336.939V24.5762H338.991V27.8762H342.183V24.5762H344.235Z" fill="white"/>
<path d="M332.909 24.5762V33.0002H330.857V24.5762H332.909Z" fill="white"/>
<path d="M329.789 27.2882C329.789 27.7762 329.677 28.2242 329.453 28.6322C329.229 29.0322 328.885 29.3562 328.421 29.6042C327.957 29.8522 327.381 29.9762 326.693 29.9762H325.421V33.0002H323.369V24.5762H326.693C327.365 24.5762 327.933 24.6922 328.397 24.9242C328.861 25.1562 329.209 25.4762 329.441 25.8842C329.673 26.2922 329.789 26.7602 329.789 27.2882ZM326.537 28.3442C326.929 28.3442 327.221 28.2522 327.413 28.0682C327.605 27.8842 327.701 27.6242 327.701 27.2882C327.701 26.9522 327.605 26.6922 327.413 26.5082C327.221 26.3242 326.929 26.2322 326.537 26.2322H325.421V28.3442H326.537Z" fill="white"/>
<path d="M319.766 31.5122H316.622L316.118 33.0002H313.97L317.018 24.5762H319.394L322.442 33.0002H320.27L319.766 31.5122ZM319.238 29.9282L318.194 26.8442L317.162 29.9282H319.238Z" fill="white"/>
<path d="M204.871 3.25201C205.071 2.94001 205.347 2.68801 205.699 2.49601C206.051 2.30401 206.463 2.20801 206.935 2.20801C207.487 2.20801 207.987 2.34801 208.435 2.62801C208.883 2.90801 209.235 3.30801 209.491 3.82801C209.755 4.34801 209.887 4.95201 209.887 5.64001C209.887 6.32801 209.755 6.93601 209.491 7.46401C209.235 7.98401 208.883 8.38801 208.435 8.67601C207.987 8.95601 207.487 9.09601 206.935 9.09601C206.471 9.09601 206.059 9.00001 205.699 8.80801C205.347 8.61601 205.071 8.36801 204.871 8.06401V12.192H202.819V2.30401H204.871V3.25201ZM207.799 5.64001C207.799 5.12801 207.655 4.72801 207.367 4.44001C207.087 4.14401 206.739 3.99601 206.323 3.99601C205.915 3.99601 205.567 4.14401 205.279 4.44001C204.999 4.73601 204.859 5.14001 204.859 5.65201C204.859 6.16401 204.999 6.56801 205.279 6.86401C205.567 7.16001 205.915 7.30801 206.323 7.30801C206.731 7.30801 207.079 7.16001 207.367 6.86401C207.655 6.56001 207.799 6.15201 207.799 5.64001Z" fill="white"/>
<path d="M196.727 3.25201C196.927 2.94001 197.203 2.68801 197.555 2.49601C197.907 2.30401 198.319 2.20801 198.791 2.20801C199.343 2.20801 199.843 2.34801 200.291 2.62801C200.739 2.90801 201.091 3.30801 201.347 3.82801C201.611 4.34801 201.743 4.95201 201.743 5.64001C201.743 6.32801 201.611 6.93601 201.347 7.46401C201.091 7.98401 200.739 8.38801 200.291 8.67601C199.843 8.95601 199.343 9.09601 198.791 9.09601C198.327 9.09601 197.915 9.00001 197.555 8.80801C197.203 8.61601 196.927 8.36801 196.727 8.06401V12.192H194.675V2.30401H196.727V3.25201ZM199.655 5.64001C199.655 5.12801 199.511 4.72801 199.223 4.44001C198.943 4.14401 198.595 3.99601 198.179 3.99601C197.771 3.99601 197.423 4.14401 197.135 4.44001C196.855 4.73601 196.715 5.14001 196.715 5.65201C196.715 6.16401 196.855 6.56801 197.135 6.86401C197.423 7.16001 197.771 7.30801 198.179 7.30801C198.587 7.30801 198.935 7.16001 199.223 6.86401C199.511 6.56001 199.655 6.15201 199.655 5.64001Z" fill="white"/>
<path d="M191.071 7.51217H187.927L187.423 9.00017H185.275L188.323 0.576172H190.699L193.747 9.00017H191.575L191.071 7.51217ZM190.543 5.92817L189.499 2.84417L188.467 5.92817H190.543Z" fill="white"/>
<path d="M174.731 5.64012C174.731 4.95212 174.859 4.34812 175.115 3.82812C175.379 3.30812 175.735 2.90812 176.183 2.62812C176.631 2.34812 177.131 2.20812 177.683 2.20812C178.123 2.20812 178.523 2.30012 178.883 2.48412C179.251 2.66812 179.539 2.91612 179.747 3.22812V0.120117H181.799V9.00012H179.747V8.04012C179.555 8.36012 179.279 8.61612 178.919 8.80812C178.567 9.00012 178.155 9.09612 177.683 9.09612C177.131 9.09612 176.631 8.95612 176.183 8.67612C175.735 8.38812 175.379 7.98412 175.115 7.46412C174.859 6.93612 174.731 6.32812 174.731 5.64012ZM179.747 5.65212C179.747 5.14012 179.603 4.73612 179.315 4.44012C179.035 4.14412 178.691 3.99612 178.283 3.99612C177.875 3.99612 177.527 4.14412 177.239 4.44012C176.959 4.72812 176.819 5.12812 176.819 5.64012C176.819 6.15212 176.959 6.56012 177.239 6.86412C177.527 7.16012 177.875 7.30812 178.283 7.30812C178.691 7.30812 179.035 7.16012 179.315 6.86412C179.603 6.56812 179.747 6.16412 179.747 5.65212Z" fill="white"/>
<path d="M171.134 2.23193C171.918 2.23193 172.542 2.48793 173.006 2.99993C173.478 3.50393 173.714 4.19993 173.714 5.08793V8.99993H171.674V5.36393C171.674 4.91593 171.558 4.56793 171.326 4.31993C171.094 4.07193 170.782 3.94793 170.39 3.94793C169.998 3.94793 169.686 4.07193 169.454 4.31993C169.222 4.56793 169.106 4.91593 169.106 5.36393V8.99993H167.054V2.30393H169.106V3.19193C169.314 2.89593 169.594 2.66393 169.946 2.49593C170.298 2.31993 170.694 2.23193 171.134 2.23193Z" fill="white"/>
<path d="M165.971 5.54401C165.971 5.73601 165.959 5.93601 165.935 6.14401H161.291C161.323 6.56001 161.455 6.88001 161.687 7.10401C161.927 7.32001 162.219 7.42801 162.563 7.42801C163.075 7.42801 163.431 7.21201 163.631 6.78001H165.815C165.703 7.22001 165.499 7.61601 165.203 7.96801C164.915 8.32001 164.551 8.59601 164.111 8.79601C163.671 8.99601 163.179 9.09601 162.635 9.09601C161.979 9.09601 161.395 8.95601 160.883 8.67601C160.371 8.39601 159.971 7.99601 159.683 7.47601C159.395 6.95601 159.251 6.34801 159.251 5.65201C159.251 4.95601 159.391 4.34801 159.671 3.82801C159.959 3.30801 160.359 2.90801 160.871 2.62801C161.383 2.34801 161.971 2.20801 162.635 2.20801C163.283 2.20801 163.859 2.34401 164.363 2.61601C164.867 2.88801 165.259 3.27601 165.539 3.78001C165.827 4.28401 165.971 4.87201 165.971 5.54401ZM163.871 5.00401C163.871 4.65201 163.751 4.37201 163.511 4.16401C163.271 3.95601 162.971 3.85201 162.611 3.85201C162.267 3.85201 161.975 3.95201 161.735 4.15201C161.503 4.35201 161.359 4.63601 161.303 5.00401H163.871Z" fill="white"/>
<path d="M158.516 7.25988V8.99988H157.472C156.728 8.99988 156.148 8.81987 155.732 8.45988C155.316 8.09188 155.108 7.49587 155.108 6.67188V4.00787H154.292V2.30387H155.108V0.671875H157.16V2.30387H158.504V4.00787H157.16V6.69588C157.16 6.89587 157.208 7.03988 157.304 7.12788C157.4 7.21588 157.56 7.25988 157.784 7.25988H158.516Z" fill="white"/>
<path d="M150.778 2.23193C151.562 2.23193 152.186 2.48793 152.65 2.99993C153.122 3.50393 153.358 4.19993 153.358 5.08793V8.99993H151.318V5.36393C151.318 4.91593 151.202 4.56793 150.97 4.31993C150.738 4.07193 150.426 3.94793 150.034 3.94793C149.642 3.94793 149.33 4.07193 149.098 4.31993C148.866 4.56793 148.75 4.91593 148.75 5.36393V8.99993H146.698V2.30393H148.75V3.19193C148.958 2.89593 149.238 2.66393 149.59 2.49593C149.942 2.31993 150.338 2.23193 150.778 2.23193Z" fill="white"/>
<path d="M142.105 9.09601C141.449 9.09601 140.857 8.95601 140.329 8.67601C139.809 8.39601 139.397 7.99601 139.093 7.47601C138.797 6.95601 138.649 6.34801 138.649 5.65201C138.649 4.96401 138.801 4.36001 139.105 3.84001C139.409 3.31201 139.825 2.90801 140.353 2.62801C140.881 2.34801 141.473 2.20801 142.129 2.20801C142.785 2.20801 143.377 2.34801 143.905 2.62801C144.433 2.90801 144.849 3.31201 145.153 3.84001C145.457 4.36001 145.609 4.96401 145.609 5.65201C145.609 6.34001 145.453 6.94801 145.141 7.47601C144.837 7.99601 144.417 8.39601 143.881 8.67601C143.353 8.95601 142.761 9.09601 142.105 9.09601ZM142.105 7.32001C142.497 7.32001 142.829 7.17601 143.101 6.88801C143.381 6.60001 143.521 6.18801 143.521 5.65201C143.521 5.11601 143.385 4.70401 143.113 4.41601C142.849 4.12801 142.521 3.98401 142.129 3.98401C141.729 3.98401 141.397 4.12801 141.133 4.41601C140.869 4.69601 140.737 5.10801 140.737 5.65201C140.737 6.18801 140.865 6.60001 141.121 6.88801C141.385 7.17601 141.713 7.32001 142.105 7.32001Z" fill="white"/>
<path d="M135.977 3.41993C136.217 3.05193 136.517 2.76393 136.877 2.55593C137.237 2.33993 137.637 2.23193 138.077 2.23193V4.40393H137.513C137.001 4.40393 136.617 4.51593 136.361 4.73993C136.105 4.95593 135.977 5.33993 135.977 5.89193V8.99993H133.925V2.30393H135.977V3.41993Z" fill="white"/>
<path d="M132.846 0.576172V2.22017H129.414V3.99617H131.982V5.59217H129.414V9.00017H127.362V0.576172H132.846Z" fill="white"/>
<path fill-rule="evenodd" clip-rule="evenodd" d="M169.285 79.0003C169.285 80.4731 168.091 81.667 166.618 81.667C165.145 81.667 163.951 80.4731 163.951 79.0003C163.951 77.6985 164.884 76.6145 166.118 76.3805L166.118 7.00033L167.118 7.00033L167.118 76.3805C168.352 76.6145 169.285 77.6985 169.285 79.0003Z" fill="url(#paint5_linear_830_2592)"/>
<g filter="url(#filter7_d_830_2592)">
<path d="M36.1368 427.938L42.0135 399.883C42.9798 395.27 47.0362 391.957 51.7494 391.933L92.1759 391.724C98.5383 391.692 103.313 397.53 102.018 403.76L96.1242 432.109C95.1581 436.756 91.0586 440.084 86.3123 440.074L45.9032 439.988C39.5643 439.975 34.8373 434.142 36.1368 427.938Z" fill="#4C5CE5"/>
</g>
<path d="M82.5904 411.696V420H81.4984V413.808L78.7384 420H77.9704L75.1984 413.796V420H74.1064V411.696H75.2824L78.3544 418.56L81.4264 411.696H82.5904Z" fill="white"/>
<path d="M71.2097 420L69.2177 416.58H67.8977V420H66.8057V411.636H69.5057C70.1377 411.636 70.6697 411.744 71.1017 411.96C71.5417 412.176 71.8697 412.468 72.0857 412.836C72.3017 413.204 72.4097 413.624 72.4097 414.096C72.4097 414.672 72.2417 415.18 71.9057 415.62C71.5777 416.06 71.0817 416.352 70.4177 416.496L72.5177 420H71.2097ZM67.8977 415.704H69.5057C70.0977 415.704 70.5417 415.56 70.8377 415.272C71.1337 414.976 71.2817 414.584 71.2817 414.096C71.2817 413.6 71.1337 413.216 70.8377 412.944C70.5497 412.672 70.1057 412.536 69.5057 412.536H67.8977V415.704Z" fill="white"/>
<path d="M57.1279 415.812C57.1279 414.996 57.3119 414.264 57.6799 413.616C58.0479 412.96 58.5479 412.448 59.1799 412.08C59.8199 411.712 60.5279 411.528 61.3039 411.528C62.2159 411.528 63.0119 411.748 63.6919 412.188C64.3719 412.628 64.8679 413.252 65.1799 414.06H63.8719C63.6399 413.556 63.3039 413.168 62.8639 412.896C62.4319 412.624 61.9119 412.488 61.3039 412.488C60.7199 412.488 60.1959 412.624 59.7319 412.896C59.2679 413.168 58.9039 413.556 58.6399 414.06C58.3759 414.556 58.2439 415.14 58.2439 415.812C58.2439 416.476 58.3759 417.06 58.6399 417.564C58.9039 418.06 59.2679 418.444 59.7319 418.716C60.1959 418.988 60.7199 419.124 61.3039 419.124C61.9119 419.124 62.4319 418.992 62.8639 418.728C63.3039 418.456 63.6399 418.068 63.8719 417.564H65.1799C64.8679 418.364 64.3719 418.984 63.6919 419.424C63.0119 419.856 62.2159 420.072 61.3039 420.072C60.5279 420.072 59.8199 419.892 59.1799 419.532C58.5479 419.164 58.0479 418.656 57.6799 418.008C57.3119 417.36 57.1279 416.628 57.1279 415.812Z" fill="white"/>
<g filter="url(#filter8_d_830_2592)">
<path d="M106.171 427.921L112.117 399.87C113.092 395.265 117.147 391.965 121.854 391.943L163.153 391.756C169.523 391.727 174.296 397.581 172.984 403.814L167.021 432.163C166.045 436.801 161.948 440.116 157.209 440.104L115.927 439.995C109.58 439.978 104.855 434.13 106.171 427.921Z" fill="#4C5CE5"/>
</g>
<path d="M157.537 413.626C158.033 413.626 158.481 413.734 158.881 413.95C159.281 414.158 159.593 414.474 159.817 414.898C160.049 415.322 160.165 415.838 160.165 416.446V420.322H159.085V416.602C159.085 415.946 158.921 415.446 158.593 415.102C158.265 414.75 157.817 414.574 157.249 414.574C156.673 414.574 156.213 414.754 155.869 415.114C155.533 415.474 155.365 415.998 155.365 416.686V420.322H154.273V411.442H155.365V414.682C155.581 414.346 155.877 414.086 156.253 413.902C156.637 413.718 157.065 413.626 157.537 413.626Z" fill="white"/>
<path d="M146.576 417.022C146.576 416.342 146.712 415.75 146.984 415.246C147.256 414.734 147.632 414.338 148.112 414.058C148.6 413.778 149.156 413.638 149.78 413.638C150.588 413.638 151.252 413.834 151.772 414.226C152.3 414.618 152.648 415.162 152.816 415.858H151.64C151.528 415.458 151.308 415.142 150.98 414.91C150.66 414.678 150.26 414.562 149.78 414.562C149.156 414.562 148.652 414.778 148.268 415.21C147.884 415.634 147.692 416.238 147.692 417.022C147.692 417.814 147.884 418.426 148.268 418.858C148.652 419.29 149.156 419.506 149.78 419.506C150.26 419.506 150.66 419.394 150.98 419.17C151.3 418.946 151.52 418.626 151.64 418.21H152.816C152.64 418.882 152.288 419.422 151.76 419.83C151.232 420.23 150.572 420.43 149.78 420.43C149.156 420.43 148.6 420.29 148.112 420.01C147.632 419.73 147.256 419.334 146.984 418.822C146.712 418.31 146.576 417.71 146.576 417.022Z" fill="white"/>
<path d="M143.6 414.814C143.792 414.438 144.064 414.146 144.416 413.938C144.776 413.73 145.212 413.626 145.724 413.626V414.754H145.436C144.212 414.754 143.6 415.418 143.6 416.746V420.322H142.508V413.746H143.6V414.814Z" fill="white"/>
<path d="M133.99 417.01C133.99 416.338 134.126 415.75 134.398 415.246C134.67 414.734 135.042 414.338 135.514 414.058C135.994 413.778 136.526 413.638 137.11 413.638C137.686 413.638 138.186 413.762 138.61 414.01C139.034 414.258 139.35 414.57 139.558 414.946V413.746H140.662V420.322H139.558V419.098C139.342 419.482 139.018 419.802 138.586 420.058C138.162 420.306 137.666 420.43 137.098 420.43C136.514 420.43 135.986 420.286 135.514 419.998C135.042 419.71 134.67 419.306 134.398 418.786C134.126 418.266 133.99 417.674 133.99 417.01ZM139.558 417.022C139.558 416.526 139.458 416.094 139.258 415.726C139.058 415.358 138.786 415.078 138.442 414.886C138.106 414.686 137.734 414.586 137.326 414.586C136.918 414.586 136.546 414.682 136.21 414.874C135.874 415.066 135.606 415.346 135.406 415.714C135.206 416.082 135.106 416.514 135.106 417.01C135.106 417.514 135.206 417.954 135.406 418.33C135.606 418.698 135.874 418.982 136.21 419.182C136.546 419.374 136.918 419.47 137.326 419.47C137.734 419.47 138.106 419.374 138.442 419.182C138.786 418.982 139.058 418.698 139.258 418.33C139.458 417.954 139.558 417.518 139.558 417.022Z" fill="white"/>
<path d="M132.957 416.782C132.957 416.99 132.945 417.21 132.921 417.442H127.665C127.705 418.09 127.925 418.598 128.325 418.966C128.733 419.326 129.225 419.506 129.801 419.506C130.273 419.506 130.665 419.398 130.977 419.182C131.297 418.958 131.521 418.662 131.649 418.294H132.825C132.649 418.926 132.297 419.442 131.769 419.842C131.241 420.234 130.585 420.43 129.801 420.43C129.177 420.43 128.617 420.29 128.121 420.01C127.633 419.73 127.249 419.334 126.969 418.822C126.689 418.302 126.549 417.702 126.549 417.022C126.549 416.342 126.685 415.746 126.957 415.234C127.229 414.722 127.609 414.33 128.097 414.058C128.593 413.778 129.161 413.638 129.801 413.638C130.425 413.638 130.977 413.774 131.457 414.046C131.937 414.318 132.305 414.694 132.561 415.174C132.825 415.646 132.957 416.182 132.957 416.782ZM131.829 416.554C131.829 416.138 131.737 415.782 131.553 415.486C131.369 415.182 131.117 414.954 130.797 414.802C130.485 414.642 130.137 414.562 129.753 414.562C129.201 414.562 128.729 414.738 128.337 415.09C127.953 415.442 127.733 415.93 127.677 416.554H131.829Z" fill="white"/>
<path d="M122.566 420.407C122.014 420.407 121.518 420.311 121.078 420.119C120.646 419.919 120.306 419.647 120.058 419.303C119.81 418.951 119.682 418.547 119.674 418.091H120.838C120.878 418.483 121.038 418.815 121.318 419.087C121.606 419.351 122.022 419.483 122.566 419.483C123.086 419.483 123.494 419.355 123.79 419.099C124.094 418.835 124.246 418.499 124.246 418.091C124.246 417.771 124.158 417.511 123.982 417.311C123.806 417.111 123.586 416.959 123.322 416.855C123.058 416.751 122.702 416.639 122.254 416.519C121.702 416.375 121.258 416.231 120.922 416.087C120.594 415.943 120.31 415.719 120.07 415.415C119.838 415.103 119.722 414.687 119.722 414.167C119.722 413.711 119.838 413.307 120.07 412.955C120.302 412.603 120.626 412.331 121.042 412.139C121.466 411.947 121.95 411.851 122.494 411.851C123.278 411.851 123.918 412.047 124.414 412.439C124.918 412.831 125.202 413.351 125.266 413.999H124.066C124.026 413.679 123.858 413.399 123.562 413.159C123.266 412.911 122.874 412.787 122.386 412.787C121.93 412.787 121.558 412.907 121.27 413.147C120.982 413.379 120.838 413.707 120.838 414.131C120.838 414.435 120.922 414.683 121.09 414.875C121.266 415.067 121.478 415.215 121.726 415.319C121.982 415.415 122.338 415.527 122.794 415.655C123.346 415.807 123.79 415.959 124.126 416.111C124.462 416.255 124.75 416.483 124.99 416.795C125.23 417.099 125.35 417.515 125.35 418.043C125.35 418.451 125.242 418.835 125.026 419.195C124.81 419.555 124.49 419.847 124.066 420.071C123.642 420.295 123.142 420.407 122.566 420.407Z" fill="white"/>
<g filter="url(#filter9_d_830_2592)">
<path d="M177.184 427.916L182.956 400.806C183.935 396.205 187.989 392.909 192.693 392.888L233.107 392.714C239.48 392.687 244.252 398.547 242.934 404.782L237.145 432.18C236.165 436.815 232.069 440.126 227.332 440.113L186.936 439.998C180.587 439.98 175.861 434.126 177.184 427.916Z" fill="#4C5CE5"/>
</g>
<path d="M219.81 420.18C219.258 420.18 218.762 420.084 218.322 419.892C217.89 419.692 217.55 419.42 217.302 419.076C217.054 418.724 216.926 418.32 216.918 417.864H218.082C218.122 418.256 218.282 418.588 218.562 418.86C218.85 419.124 219.266 419.256 219.81 419.256C220.33 419.256 220.738 419.128 221.034 418.872C221.338 418.608 221.49 418.272 221.49 417.864C221.49 417.544 221.402 417.284 221.226 417.084C221.05 416.884 220.83 416.732 220.566 416.628C220.302 416.524 219.946 416.412 219.498 416.292C218.946 416.148 218.502 416.004 218.166 415.86C217.838 415.716 217.554 415.492 217.314 415.188C217.082 414.876 216.966 414.46 216.966 413.94C216.966 413.484 217.082 413.08 217.314 412.728C217.546 412.376 217.87 412.104 218.286 411.912C218.71 411.72 219.194 411.624 219.738 411.624C220.522 411.624 221.162 411.82 221.658 412.212C222.162 412.604 222.446 413.124 222.51 413.772H221.31C221.27 413.452 221.102 413.172 220.806 412.932C220.51 412.684 220.118 412.56 219.63 412.56C219.174 412.56 218.802 412.68 218.514 412.92C218.226 413.152 218.082 413.48 218.082 413.904C218.082 414.208 218.166 414.456 218.334 414.648C218.51 414.84 218.722 414.988 218.97 415.092C219.226 415.188 219.582 415.3 220.038 415.428C220.59 415.58 221.034 415.732 221.37 415.884C221.706 416.028 221.994 416.256 222.234 416.568C222.474 416.872 222.594 417.288 222.594 417.816C222.594 418.224 222.486 418.608 222.27 418.968C222.054 419.328 221.734 419.62 221.31 419.844C220.886 420.068 220.386 420.18 219.81 420.18Z" fill="white"/>
<path d="M215.306 411.792V420.096H214.214V413.904L211.454 420.096H210.686L207.914 413.892V420.096H206.822V411.792H207.998L211.07 418.656L214.142 411.792H215.306Z" fill="white"/>
<path d="M197.145 415.908C197.145 415.092 197.329 414.36 197.697 413.712C198.065 413.056 198.565 412.544 199.197 412.176C199.837 411.808 200.545 411.624 201.321 411.624C202.233 411.624 203.029 411.844 203.709 412.284C204.389 412.724 204.885 413.348 205.197 414.156H203.889C203.657 413.652 203.321 413.264 202.881 412.992C202.449 412.72 201.929 412.584 201.321 412.584C200.737 412.584 200.213 412.72 199.749 412.992C199.285 413.264 198.921 413.652 198.657 414.156C198.393 414.652 198.261 415.236 198.261 415.908C198.261 416.572 198.393 417.156 198.657 417.66C198.921 418.156 199.285 418.54 199.749 418.812C200.213 419.084 200.737 419.22 201.321 419.22C201.929 419.22 202.449 419.088 202.881 418.824C203.321 418.552 203.657 418.164 203.889 417.66H205.197C204.885 418.46 204.389 419.08 203.709 419.52C203.029 419.952 202.233 420.168 201.321 420.168C200.545 420.168 199.837 419.988 199.197 419.628C198.565 419.26 198.065 418.752 197.697 418.104C197.329 417.456 197.145 416.724 197.145 415.908Z" fill="white"/>
<g filter="url(#filter10_d_830_2592)">
<path d="M247.218 427.898L253.058 400.792C254.047 396.2 258.099 392.915 262.797 392.898L304.083 392.745C310.463 392.722 315.233 398.598 313.899 404.836L308.041 432.233C307.052 436.858 302.958 440.158 298.228 440.142L256.96 440.004C250.603 439.983 245.879 434.113 247.218 427.898Z" fill="#4C5CE5"/>
</g>
<path d="M290.813 413.252C291.309 413.252 291.757 413.36 292.157 413.576C292.557 413.784 292.869 414.1 293.093 414.524C293.325 414.948 293.441 415.464 293.441 416.072V419.948H292.361V416.228C292.361 415.572 292.197 415.072 291.869 414.728C291.541 414.376 291.093 414.2 290.525 414.2C289.949 414.2 289.489 414.38 289.145 414.74C288.809 415.1 288.641 415.624 288.641 416.312V419.948H287.549V411.068H288.641V414.308C288.857 413.972 289.153 413.712 289.529 413.528C289.913 413.344 290.341 413.252 290.813 413.252Z" fill="white"/>
<path d="M284.509 414.272V418.148C284.509 418.468 284.577 418.696 284.713 418.832C284.849 418.96 285.085 419.024 285.421 419.024H286.225V419.948H285.241C284.633 419.948 284.177 419.808 283.873 419.528C283.569 419.248 283.417 418.788 283.417 418.148V414.272H282.565V413.372H283.417V411.716H284.509V413.372H286.225V414.272H284.509Z" fill="white"/>
<path d="M281.333 413.373V419.949H280.241V418.977C280.033 419.313 279.741 419.577 279.365 419.769C278.997 419.953 278.589 420.045 278.141 420.045C277.629 420.045 277.169 419.941 276.761 419.733C276.353 419.517 276.029 419.197 275.789 418.773C275.557 418.349 275.441 417.833 275.441 417.225V413.373H276.521V417.081C276.521 417.729 276.685 418.229 277.013 418.581C277.341 418.925 277.789 419.097 278.357 419.097C278.941 419.097 279.401 418.917 279.737 418.557C280.073 418.197 280.241 417.673 280.241 416.985V413.373H281.333Z" fill="white"/>
<path d="M272.36 418.088H268.712L268.04 419.948H266.888L269.912 411.632H271.172L274.184 419.948H273.032L272.36 418.088ZM272.048 417.2L270.536 412.976L269.024 417.2H272.048Z" fill="white"/>
<g filter="url(#filter11_d_830_2592)">
<path d="M318.149 427.933L323.852 400.819C324.822 396.209 328.878 392.901 333.589 392.878L373.13 392.683C379.495 392.652 384.269 398.496 382.968 404.727L377.247 432.126C376.278 436.77 372.179 440.093 367.435 440.082L327.911 439.991C321.57 439.976 316.843 434.138 318.149 427.933Z" fill="#4C5CE5"/>
</g>
<path d="M362.263 412.026C363.063 412.026 363.711 412.27 364.207 412.758C364.703 413.238 364.951 413.934 364.951 414.846V418.722H363.871V415.002C363.871 414.346 363.707 413.846 363.379 413.502C363.051 413.15 362.603 412.974 362.035 412.974C361.459 412.974 360.999 413.154 360.655 413.514C360.319 413.874 360.151 414.398 360.151 415.086V418.722H359.059V412.146H360.151V413.082C360.367 412.746 360.659 412.486 361.027 412.302C361.403 412.118 361.815 412.026 362.263 412.026Z" fill="white"/>
<path d="M353.998 410.358V418.722H352.906V410.358H353.998Z" fill="white"/>
<path d="M351.549 412.806C351.549 413.502 351.309 414.082 350.829 414.546C350.357 415.002 349.633 415.23 348.657 415.23H347.049V418.722H345.957V410.358H348.657C349.601 410.358 350.317 410.586 350.805 411.042C351.301 411.498 351.549 412.086 351.549 412.806ZM348.657 414.33C349.265 414.33 349.713 414.198 350.001 413.934C350.289 413.67 350.433 413.294 350.433 412.806C350.433 411.774 349.841 411.258 348.657 411.258H347.049V414.33H348.657Z" fill="white"/>
<path d="M342.815 416.862H339.167L338.495 418.722H337.343L340.367 410.406H341.627L344.639 418.722H343.487L342.815 416.862ZM342.503 415.974L340.991 411.75L339.479 415.974H342.503Z" fill="white"/>
<path fill-rule="evenodd" clip-rule="evenodd" d="M140.632 459.492H143.618V460.492H140.632V459.492ZM128.688 459.492H134.66V460.492H128.688V459.492ZM116.743 459.492H122.715V460.492H116.743V459.492ZM104.799 459.492H110.771V460.492H104.799V459.492ZM92.8543 459.492H98.8265V460.492H92.8543V459.492ZM80.9098 459.492H86.8821V460.492H80.9098V459.492ZM68.9654 459.492H74.9376V460.492H68.9654V459.492ZM57.021 459.492H62.9932V460.492H57.021V459.492ZM45.0765 459.492H51.0487V460.492H45.0765V459.492ZM36.1182 459.492H39.1043V460.492H36.1182V459.492Z" fill="#2563EB"/>
<path fill-rule="evenodd" clip-rule="evenodd" d="M368.556 459.5H371.618V460.5H368.556V459.5ZM356.306 459.5H362.431V460.5H356.306V459.5ZM344.056 459.5H350.181V460.5H344.056V459.5ZM331.806 459.5H337.931V460.5H331.806V459.5ZM319.556 459.5H325.681V460.5H319.556V459.5ZM307.306 459.5H313.431V460.5H307.306V459.5ZM295.056 459.5H301.181V460.5H295.056V459.5ZM282.806 459.5H288.931V460.5H282.806V459.5ZM273.618 459.5H276.681V460.5H273.618V459.5Z" fill="#2563EB"/>
<path d="M245.34 464.144C244.756 464.144 244.236 464.044 243.78 463.843C243.324 463.643 242.964 463.371 242.7 463.027C242.436 462.675 242.288 462.282 242.256 461.85L244.284 461.852C244.308 462.084 244.416 462.272 244.608 462.416C244.8 462.56 245.036 462.632 245.316 462.632C245.572 462.633 245.768 462.585 245.904 462.489C246.048 462.385 246.12 462.253 246.12 462.093C246.12 461.901 246.02 461.761 245.82 461.673C245.62 461.577 245.296 461.472 244.849 461.36C244.369 461.248 243.969 461.132 243.649 461.011C243.329 460.883 243.053 460.687 242.821 460.423C242.589 460.151 242.473 459.787 242.473 459.331C242.473 458.947 242.577 458.599 242.785 458.287C243.002 457.967 243.314 457.715 243.722 457.531C244.138 457.348 244.63 457.256 245.198 457.256C246.038 457.257 246.698 457.465 247.178 457.882C247.665 458.298 247.945 458.85 248.017 459.538L246.121 459.537C246.089 459.305 245.985 459.121 245.809 458.985C245.641 458.849 245.417 458.78 245.137 458.78C244.897 458.78 244.713 458.828 244.585 458.924C244.457 459.012 244.393 459.136 244.393 459.296C244.393 459.488 244.493 459.632 244.693 459.728C244.901 459.824 245.221 459.92 245.653 460.017C246.149 460.145 246.553 460.273 246.865 460.401C247.177 460.522 247.449 460.722 247.681 461.002C247.921 461.274 248.044 461.642 248.052 462.106C248.052 462.498 247.94 462.85 247.716 463.162C247.5 463.466 247.184 463.706 246.768 463.881C246.36 464.057 245.884 464.145 245.34 464.144Z" fill="white"/>
<path d="M238.611 457.276C239.395 457.277 240.019 457.533 240.483 458.045C240.955 458.55 241.191 459.246 241.19 460.134L241.189 464.046L239.149 464.044L239.15 460.408C239.15 459.96 239.035 459.612 238.803 459.364C238.571 459.116 238.259 458.992 237.867 458.992C237.475 458.991 237.163 459.115 236.931 459.363C236.699 459.611 236.582 459.959 236.582 460.407L236.581 464.043L234.529 464.041L234.531 457.345L236.583 457.347L236.583 458.235C236.791 457.939 237.071 457.707 237.423 457.539C237.775 457.364 238.171 457.276 238.611 457.276Z" fill="white"/>
<path d="M229.936 464.134C229.28 464.134 228.688 463.994 228.16 463.713C227.64 463.433 227.229 463.033 226.925 462.512C226.629 461.992 226.481 461.384 226.481 460.688C226.482 460 226.634 459.396 226.938 458.876C227.242 458.349 227.658 457.945 228.186 457.665C228.714 457.386 229.306 457.246 229.962 457.246C230.618 457.247 231.21 457.387 231.738 457.668C232.266 457.948 232.682 458.352 232.986 458.88C233.29 459.401 233.442 460.005 233.441 460.693C233.441 461.381 233.285 461.989 232.973 462.516C232.669 463.036 232.248 463.436 231.712 463.716C231.184 463.995 230.592 464.135 229.936 464.134ZM229.937 462.358C230.329 462.359 230.661 462.215 230.933 461.927C231.213 461.639 231.353 461.227 231.353 460.691C231.354 460.155 231.218 459.743 230.946 459.455C230.682 459.167 230.354 459.023 229.962 459.022C229.562 459.022 229.23 459.166 228.966 459.454C228.702 459.734 228.57 460.146 228.569 460.69C228.569 461.226 228.697 461.638 228.953 461.926C229.217 462.214 229.545 462.358 229.937 462.358Z" fill="white"/>
<path d="M224.383 456.643C224.023 456.642 223.727 456.538 223.496 456.33C223.272 456.114 223.16 455.85 223.16 455.538C223.16 455.218 223.272 454.954 223.496 454.746C223.728 454.53 224.024 454.422 224.384 454.423C224.736 454.423 225.024 454.531 225.248 454.747C225.48 454.955 225.596 455.219 225.596 455.539C225.596 455.851 225.48 456.115 225.248 456.331C225.023 456.539 224.735 456.643 224.383 456.643ZM225.403 457.339L225.401 464.035L223.349 464.034L223.351 457.338L225.403 457.339Z" fill="white"/>
<path d="M222.207 462.293L222.207 464.033L221.163 464.033C220.419 464.032 219.839 463.852 219.423 463.492C219.007 463.123 218.799 462.527 218.799 461.703L218.8 459.039L217.984 459.039L217.985 457.335L218.801 457.335L218.801 455.703L220.853 455.705L220.853 457.337L222.197 457.337L222.196 459.041L220.852 459.041L220.851 461.729C220.851 461.929 220.899 462.073 220.995 462.161C221.091 462.249 221.251 462.293 221.475 462.293L222.207 462.293Z" fill="white"/>
<path d="M209.923 460.665C209.923 459.977 210.051 459.373 210.307 458.854C210.571 458.334 210.928 457.934 211.376 457.654C211.824 457.375 212.324 457.235 212.876 457.235C213.348 457.236 213.76 457.332 214.112 457.524C214.472 457.716 214.748 457.969 214.94 458.281L214.94 457.333L216.992 457.334L216.99 464.03L214.938 464.029L214.938 463.081C214.738 463.393 214.458 463.644 214.098 463.836C213.746 464.028 213.334 464.124 212.862 464.123C212.318 464.123 211.822 463.983 211.374 463.702C210.926 463.414 210.57 463.01 210.306 462.49C210.05 461.961 209.923 461.353 209.923 460.665ZM214.939 460.681C214.939 460.169 214.795 459.765 214.507 459.468C214.227 459.172 213.883 459.024 213.475 459.024C213.067 459.023 212.719 459.171 212.431 459.467C212.151 459.755 212.011 460.155 212.011 460.667C212.011 461.179 212.15 461.587 212.43 461.891C212.718 462.187 213.066 462.335 213.474 462.336C213.882 462.336 214.226 462.188 214.506 461.892C214.794 461.597 214.939 461.193 214.939 460.681Z" fill="white"/>
<path d="M207.251 458.443C207.491 458.075 207.791 457.788 208.151 457.58C208.511 457.364 208.911 457.256 209.351 457.257L209.351 459.429L208.787 459.428C208.275 459.428 207.891 459.54 207.634 459.764C207.378 459.979 207.25 460.363 207.25 460.915L207.249 464.023L205.197 464.022L205.199 457.326L207.251 457.327L207.251 458.443Z" fill="white"/>
<path d="M199.598 457.227C200.07 457.227 200.482 457.323 200.834 457.515C201.194 457.708 201.47 457.96 201.662 458.272L201.662 457.324L203.714 457.325L203.712 464.009C203.712 464.625 203.588 465.181 203.34 465.677C203.1 466.181 202.728 466.581 202.223 466.876C201.727 467.172 201.107 467.32 200.363 467.319C199.371 467.318 198.567 467.082 197.952 466.609C197.336 466.145 196.984 465.513 196.896 464.713L198.924 464.714C198.988 464.97 199.14 465.17 199.38 465.314C199.62 465.467 199.916 465.543 200.268 465.543C200.692 465.543 201.028 465.419 201.276 465.172C201.532 464.932 201.66 464.544 201.66 464.008L201.661 463.06C201.461 463.372 201.184 463.628 200.832 463.827C200.48 464.019 200.068 464.115 199.596 464.115C199.044 464.114 198.544 463.974 198.096 463.694C197.649 463.405 197.293 463.001 197.029 462.481C196.773 461.953 196.645 461.345 196.645 460.657C196.646 459.969 196.774 459.365 197.03 458.845C197.294 458.325 197.65 457.925 198.098 457.646C198.546 457.366 199.046 457.226 199.598 457.227ZM201.661 460.672C201.662 460.16 201.518 459.756 201.23 459.46C200.95 459.163 200.606 459.015 200.198 459.015C199.79 459.015 199.442 459.162 199.154 459.458C198.874 459.746 198.734 460.146 198.733 460.658C198.733 461.17 198.873 461.578 199.153 461.882C199.441 462.178 199.789 462.327 200.197 462.327C200.605 462.327 200.949 462.179 201.229 461.884C201.517 461.588 201.661 461.184 201.661 460.672Z" fill="white"/>
<path d="M195.971 460.56C195.971 460.752 195.959 460.952 195.935 461.16L191.291 461.157C191.323 461.573 191.454 461.893 191.686 462.117C191.926 462.333 192.218 462.442 192.562 462.442C193.074 462.442 193.43 462.226 193.631 461.795L195.815 461.796C195.702 462.236 195.498 462.632 195.202 462.984C194.914 463.335 194.55 463.611 194.11 463.811C193.67 464.011 193.178 464.11 192.634 464.11C191.978 464.11 191.394 463.969 190.882 463.689C190.37 463.408 189.97 463.008 189.682 462.488C189.394 461.968 189.251 461.36 189.251 460.664C189.251 459.968 189.391 459.36 189.671 458.84C189.96 458.32 190.36 457.92 190.872 457.641C191.384 457.361 191.972 457.222 192.636 457.222C193.284 457.222 193.86 457.359 194.364 457.631C194.868 457.903 195.26 458.292 195.539 458.796C195.827 459.3 195.971 459.888 195.971 460.56ZM193.871 460.019C193.871 459.667 193.751 459.387 193.511 459.179C193.271 458.97 192.971 458.866 192.611 458.866C192.267 458.866 191.975 458.966 191.735 459.165C191.503 459.365 191.359 459.649 191.303 460.017L193.871 460.019Z" fill="white"/>
<path d="M188.516 462.271L188.515 464.011L187.471 464.011C186.727 464.01 186.147 463.83 185.732 463.47C185.316 463.101 185.108 462.505 185.108 461.681L185.109 459.017L184.293 459.017L184.293 457.313L185.109 457.313L185.11 455.681L187.162 455.683L187.161 457.315L188.505 457.315L188.505 459.019L187.161 459.019L187.16 461.707C187.16 461.907 187.208 462.051 187.304 462.139C187.4 462.227 187.56 462.271 187.784 462.271L188.516 462.271Z" fill="white"/>
<path d="M180.779 457.238C181.563 457.239 182.187 457.495 182.651 458.007C183.123 458.512 183.359 459.208 183.358 460.096L183.357 464.008L181.317 464.006L181.318 460.37C181.318 459.922 181.202 459.574 180.971 459.326C180.739 459.078 180.427 458.954 180.035 458.954C179.643 458.953 179.331 459.077 179.099 459.325C178.866 459.573 178.75 459.921 178.75 460.369L178.749 464.005L176.697 464.003L176.699 457.307L178.751 457.309L178.751 458.197C178.959 457.901 179.239 457.669 179.591 457.501C179.943 457.325 180.339 457.238 180.779 457.238Z" fill="white"/>
<path d="M175.213 455.578L175.211 464.002L173.159 464.001L173.161 455.577L175.213 455.578Z" fill="white"/>
</g>
<defs>
<filter id="filter0_d_830_2592" x="44.2779" y="171.382" width="390.626" height="214.532" filterUnits="userSpaceOnUse" color-interpolation-filters="sRGB">
<feFlood flood-opacity="0" result="BackgroundImageFix"/>
<feColorMatrix in="SourceAlpha" type="matrix" values="0 0 0 0 0 0 0 0 0 0 0 0 0 0 0 0 0 0 127 0" result="hardAlpha"/>
<feOffset dy="2"/>
<feGaussianBlur stdDeviation="4.3"/>
<feComposite in2="hardAlpha" operator="out"/>
<feColorMatrix type="matrix" values="0 0 0 0 0 0 0 0 0 0 0 0 0 0 0 0 0 0 0.15 0"/>
<feBlend mode="normal" in2="BackgroundImageFix" result="effect1_dropShadow_830_2592"/>
<feBlend mode="normal" in="SourceGraphic" in2="effect1_dropShadow_830_2592" result="shape"/>
</filter>
<filter id="filter1_d_830_2592" x="43.2789" y="170.382" width="392.626" height="216.532" filterUnits="userSpaceOnUse" color-interpolation-filters="sRGB">
<feFlood flood-opacity="0" result="BackgroundImageFix"/>
<feColorMatrix in="SourceAlpha" type="matrix" values="0 0 0 0 0 0 0 0 0 0 0 0 0 0 0 0 0 0 127 0" result="hardAlpha"/>
<feOffset dy="2"/>
<feGaussianBlur stdDeviation="4.3"/>
<feComposite in2="hardAlpha" operator="out"/>
<feColorMatrix type="matrix" values="0 0 0 0 0 0 0 0 0 0 0 0 0 0 0 0 0 0 0.15 0"/>
<feBlend mode="normal" in2="BackgroundImageFix" result="effect1_dropShadow_830_2592"/>
<feBlend mode="normal" in="SourceGraphic" in2="effect1_dropShadow_830_2592" result="shape"/>
</filter>
<filter id="filter2_i_830_2592" x="307.249" y="199.54" width="89.0244" height="65.5391" filterUnits="userSpaceOnUse" color-interpolation-filters="sRGB">
<feFlood flood-opacity="0" result="BackgroundImageFix"/>
<feBlend mode="normal" in="SourceGraphic" in2="BackgroundImageFix" result="shape"/>
<feColorMatrix in="SourceAlpha" type="matrix" values="0 0 0 0 0 0 0 0 0 0 0 0 0 0 0 0 0 0 127 0" result="hardAlpha"/>
<feOffset dx="1" dy="2"/>
<feGaussianBlur stdDeviation="2.75"/>
<feComposite in2="hardAlpha" operator="arithmetic" k2="-1" k3="1"/>
<feColorMatrix type="matrix" values="0 0 0 0 0.000115271 0 0 0 0 0.0234534 0 0 0 0 0.226632 0 0 0 0.58 0"/>
<feBlend mode="normal" in2="shape" result="effect1_innerShadow_830_2592"/>
</filter>
<filter id="filter3_i_830_2592" x="84.4463" y="282.301" width="88.8301" height="63.6343" filterUnits="userSpaceOnUse" color-interpolation-filters="sRGB">
<feFlood flood-opacity="0" result="BackgroundImageFix"/>
<feBlend mode="normal" in="SourceGraphic" in2="BackgroundImageFix" result="shape"/>
<feColorMatrix in="SourceAlpha" type="matrix" values="0 0 0 0 0 0 0 0 0 0 0 0 0 0 0 0 0 0 127 0" result="hardAlpha"/>
<feOffset dx="1" dy="2"/>
<feGaussianBlur stdDeviation="2.75"/>
<feComposite in2="hardAlpha" operator="arithmetic" k2="-1" k3="1"/>
<feColorMatrix type="matrix" values="0 0 0 0 0.000115271 0 0 0 0 0.0234534 0 0 0 0 0.226632 0 0 0 0.58 0"/>
<feBlend mode="normal" in2="shape" result="effect1_innerShadow_830_2592"/>
</filter>
<filter id="filter4_i_830_2592" x="186.427" y="282.584" width="89.7646" height="63.6328" filterUnits="userSpaceOnUse" color-interpolation-filters="sRGB">
<feFlood flood-opacity="0" result="BackgroundImageFix"/>
<feBlend mode="normal" in="SourceGraphic" in2="BackgroundImageFix" result="shape"/>
<feColorMatrix in="SourceAlpha" type="matrix" values="0 0 0 0 0 0 0 0 0 0 0 0 0 0 0 0 0 0 127 0" result="hardAlpha"/>
<feOffset dx="1" dy="2"/>
<feGaussianBlur stdDeviation="2.75"/>
<feComposite in2="hardAlpha" operator="arithmetic" k2="-1" k3="1"/>
<feColorMatrix type="matrix" values="0 0 0 0 0.000115271 0 0 0 0 0.0234534 0 0 0 0 0.226632 0 0 0 0.58 0"/>
<feBlend mode="normal" in2="shape" result="effect1_innerShadow_830_2592"/>
</filter>
<filter id="filter5_i_830_2592" x="290.272" y="281.857" width="87.9922" height="64.5889" filterUnits="userSpaceOnUse" color-interpolation-filters="sRGB">
<feFlood flood-opacity="0" result="BackgroundImageFix"/>
<feBlend mode="normal" in="SourceGraphic" in2="BackgroundImageFix" result="shape"/>
<feColorMatrix in="SourceAlpha" type="matrix" values="0 0 0 0 0 0 0 0 0 0 0 0 0 0 0 0 0 0 127 0" result="hardAlpha"/>
<feOffset dx="1" dy="2"/>
<feGaussianBlur stdDeviation="2.75"/>
<feComposite in2="hardAlpha" operator="arithmetic" k2="-1" k3="1"/>
<feColorMatrix type="matrix" values="0 0 0 0 0.000115271 0 0 0 0 0.0234534 0 0 0 0 0.226632 0 0 0 0.58 0"/>
<feBlend mode="normal" in2="shape" result="effect1_innerShadow_830_2592"/>
</filter>
<filter id="filter6_d_830_2592" x="159.365" y="84.0997" width="221.717" height="188.592" filterUnits="userSpaceOnUse" color-interpolation-filters="sRGB">
<feFlood flood-opacity="0" result="BackgroundImageFix"/>
<feColorMatrix in="SourceAlpha" type="matrix" values="0 0 0 0 0 0 0 0 0 0 0 0 0 0 0 0 0 0 127 0" result="hardAlpha"/>
<feOffset dy="1"/>
<feGaussianBlur stdDeviation="4.3"/>
<feComposite in2="hardAlpha" operator="out"/>
<feColorMatrix type="matrix" values="0 0 0 0 0.011609 0 0 0 0 0.0979129 0 0 0 0 0.287225 0 0 0 0.37 0"/>
<feBlend mode="normal" in2="BackgroundImageFix" result="effect1_dropShadow_830_2592"/>
<feBlend mode="normal" in="SourceGraphic" in2="effect1_dropShadow_830_2592" result="shape"/>
</filter>
<filter id="filter7_d_830_2592" x="29.7209" y="385.524" width="86.7105" height="68.7496" filterUnits="userSpaceOnUse" color-interpolation-filters="sRGB">
<feFlood flood-opacity="0" result="BackgroundImageFix"/>
<feColorMatrix in="SourceAlpha" type="matrix" values="0 0 0 0 0 0 0 0 0 0 0 0 0 0 0 0 0 0 127 0" result="hardAlpha"/>
<feOffset dx="4" dy="4"/>
<feGaussianBlur stdDeviation="5.1"/>
<feComposite in2="hardAlpha" operator="out"/>
<feColorMatrix type="matrix" values="0 0 0 0 0 0 0 0 0 0 0 0 0 0 0 0 0 0 0.12 0"/>
<feBlend mode="normal" in2="BackgroundImageFix" result="effect1_dropShadow_830_2592"/>
<feBlend mode="normal" in="SourceGraphic" in2="effect1_dropShadow_830_2592" result="shape"/>
</filter>
<filter id="filter8_d_830_2592" x="99.7492" y="385.556" width="87.6529" height="68.7481" filterUnits="userSpaceOnUse" color-interpolation-filters="sRGB">
<feFlood flood-opacity="0" result="BackgroundImageFix"/>
<feColorMatrix in="SourceAlpha" type="matrix" values="0 0 0 0 0 0 0 0 0 0 0 0 0 0 0 0 0 0 127 0" result="hardAlpha"/>
<feOffset dx="4" dy="4"/>
<feGaussianBlur stdDeviation="5.1"/>
<feComposite in2="hardAlpha" operator="out"/>
<feColorMatrix type="matrix" values="0 0 0 0 0 0 0 0 0 0 0 0 0 0 0 0 0 0 0.12 0"/>
<feBlend mode="normal" in2="BackgroundImageFix" result="effect1_dropShadow_830_2592"/>
<feBlend mode="normal" in="SourceGraphic" in2="effect1_dropShadow_830_2592" result="shape"/>
</filter>
<filter id="filter9_d_830_2592" x="170.761" y="386.514" width="86.5934" height="67.7984" filterUnits="userSpaceOnUse" color-interpolation-filters="sRGB">
<feFlood flood-opacity="0" result="BackgroundImageFix"/>
<feColorMatrix in="SourceAlpha" type="matrix" values="0 0 0 0 0 0 0 0 0 0 0 0 0 0 0 0 0 0 127 0" result="hardAlpha"/>
<feOffset dx="4" dy="4"/>
<feGaussianBlur stdDeviation="5.1"/>
<feComposite in2="hardAlpha" operator="out"/>
<feColorMatrix type="matrix" values="0 0 0 0 0 0 0 0 0 0 0 0 0 0 0 0 0 0 0.12 0"/>
<feBlend mode="normal" in2="BackgroundImageFix" result="effect1_dropShadow_830_2592"/>
<feBlend mode="normal" in="SourceGraphic" in2="effect1_dropShadow_830_2592" result="shape"/>
</filter>
<filter id="filter10_d_830_2592" x="240.789" y="386.545" width="87.5348" height="67.7975" filterUnits="userSpaceOnUse" color-interpolation-filters="sRGB">
<feFlood flood-opacity="0" result="BackgroundImageFix"/>
<feColorMatrix in="SourceAlpha" type="matrix" values="0 0 0 0 0 0 0 0 0 0 0 0 0 0 0 0 0 0 127 0" result="hardAlpha"/>
<feOffset dx="4" dy="4"/>
<feGaussianBlur stdDeviation="5.1"/>
<feComposite in2="hardAlpha" operator="out"/>
<feColorMatrix type="matrix" values="0 0 0 0 0 0 0 0 0 0 0 0 0 0 0 0 0 0 0.12 0"/>
<feBlend mode="normal" in2="BackgroundImageFix" result="effect1_dropShadow_830_2592"/>
<feBlend mode="normal" in="SourceGraphic" in2="effect1_dropShadow_830_2592" result="shape"/>
</filter>
<filter id="filter11_d_830_2592" x="311.731" y="386.483" width="85.652" height="67.7994" filterUnits="userSpaceOnUse" color-interpolation-filters="sRGB">
<feFlood flood-opacity="0" result="BackgroundImageFix"/>
<feColorMatrix in="SourceAlpha" type="matrix" values="0 0 0 0 0 0 0 0 0 0 0 0 0 0 0 0 0 0 127 0" result="hardAlpha"/>
<feOffset dx="4" dy="4"/>
<feGaussianBlur stdDeviation="5.1"/>
<feComposite in2="hardAlpha" operator="out"/>
<feColorMatrix type="matrix" values="0 0 0 0 0 0 0 0 0 0 0 0 0 0 0 0 0 0 0.12 0"/>
<feBlend mode="normal" in2="BackgroundImageFix" result="effect1_dropShadow_830_2592"/>
<feBlend mode="normal" in="SourceGraphic" in2="effect1_dropShadow_830_2592" result="shape"/>
</filter>
<radialGradient id="paint0_radial_830_2592" cx="0" cy="0" r="1" gradientUnits="userSpaceOnUse" gradientTransform="translate(213 297.5) rotate(90) scale(170.5 217)">
<stop offset="0.38" stop-color="#4C5CE5"/>
<stop offset="1" stop-color="#1A3888" stop-opacity="0"/>
</radialGradient>
<radialGradient id="paint1_radial_830_2592" cx="0" cy="0" r="1" gradientUnits="userSpaceOnUse" gradientTransform="translate(215 184) rotate(90) scale(184 215)">
<stop offset="0.21" stop-color="#4C5CE5"/>
<stop offset="0.61" stop-color="#4355D3" stop-opacity="0.810127"/>
<stop offset="0.825" stop-color="#354BBA" stop-opacity="0.540084"/>
<stop offset="1" stop-color="#1A3888" stop-opacity="0"/>
</radialGradient>
<linearGradient id="paint2_linear_830_2592" x1="383.779" y1="361.98" x2="352.357" y2="184.393" gradientUnits="userSpaceOnUse">
<stop stop-color="#001A85"/>
<stop offset="0.964334" stop-color="#16182B"/>
</linearGradient>
<linearGradient id="paint3_linear_830_2592" x1="81.8968" y1="150.001" x2="454.844" y2="232.976" gradientUnits="userSpaceOnUse">
<stop stop-color="#4C5CE5"/>
<stop offset="0.346406" stop-color="#2563EB"/>
<stop offset="1" stop-color="#34D399"/>
</linearGradient>
<linearGradient id="paint4_linear_830_2592" x1="389.618" y1="189" x2="389.618" y2="33.0003" gradientUnits="userSpaceOnUse">
<stop offset="0.32" stop-color="#2DD4BF"/>
<stop offset="1" stop-color="#001A85" stop-opacity="0"/>
</linearGradient>
<linearGradient id="paint5_linear_830_2592" x1="166.618" y1="79.0003" x2="166.618" y2="7.00033" gradientUnits="userSpaceOnUse">
<stop offset="0.32" stop-color="#2DD4BF"/>
<stop offset="1" stop-color="#001A85" stop-opacity="0"/>
</linearGradient>
<clipPath id="clip0_830_2592">
<rect width="430" height="468" fill="white"/>
</clipPath>
</defs>
</svg>
