<svg width="170" height="160" viewBox="0 0 170 160" fill="none" xmlns="http://www.w3.org/2000/svg">
<rect x="18.999" y="13.0811" width="143.286" height="125.447" fill="url(#paint0_radial_620_1758)" fill-opacity="0.2"/>
<rect x="170" y="25.7705" width="46.3834" height="170" rx="23.1917" transform="rotate(90 170 25.7705)" fill="url(#paint1_linear_620_1758)"/>
<path d="M44.7856 56L44.7856 41" stroke="url(#paint2_linear_620_1758)" stroke-miterlimit="10"/>
<path d="M58.3569 56L58.3569 41" stroke="url(#paint3_linear_620_1758)" stroke-miterlimit="10"/>
<path d="M71.9287 56L71.9287 41" stroke="url(#paint4_linear_620_1758)" stroke-miterlimit="10"/>
<path d="M85.5 56L85.5 41" stroke="url(#paint5_linear_620_1758)" stroke-miterlimit="10"/>
<path d="M99.0713 56L99.0713 41" stroke="url(#paint6_linear_620_1758)" stroke-miterlimit="10"/>
<path d="M112.643 56L112.643 41" stroke="url(#paint7_linear_620_1758)" stroke-miterlimit="10"/>
<path d="M126.214 56L126.214 41" stroke="url(#paint8_linear_620_1758)" stroke-miterlimit="10"/>
<path d="M31.8385 46.6836L16.8385 39.5233V56.8438L31.8385 49.6836V46.6836ZM146.622 40.1836C142.204 40.1836 138.622 43.7653 138.622 48.1836C138.622 52.6019 142.204 56.1836 146.622 56.1836C151.04 56.1836 154.622 52.6019 154.622 48.1836C154.622 43.7653 151.04 40.1836 146.622 40.1836ZM30.3385 49.6836L146.622 49.6836V46.6836L30.3385 46.6836V49.6836Z" fill="white"/>
<path d="M31.8385 46.6836L16.8385 39.5233V56.8438L31.8385 49.6836V46.6836ZM146.622 40.1836C142.204 40.1836 138.622 43.7653 138.622 48.1836C138.622 52.6019 142.204 56.1836 146.622 56.1836C151.04 56.1836 154.622 52.6019 154.622 48.1836C154.622 43.7653 151.04 40.1836 146.622 40.1836ZM30.3385 49.6836L146.622 49.6836V46.6836L30.3385 46.6836V49.6836Z" fill="url(#paint9_linear_620_1758)"/>
<rect x="170" y="85.334" width="46.3834" height="170" rx="23.1917" transform="rotate(90 170 85.334)" fill="url(#paint10_linear_620_1758)"/>
<path d="M44.8125 116L44.8125 101" stroke="#2563EB" stroke-miterlimit="10"/>
<path d="M58.4375 116L58.4375 101" stroke="#2563EB" stroke-miterlimit="10"/>
<path d="M72.0625 116L72.0625 101" stroke="#2563EB" stroke-miterlimit="10"/>
<path d="M85.6875 116L85.6875 101" stroke="#2563EB" stroke-miterlimit="10"/>
<path d="M99.3125 116L99.3125 101" stroke="#2563EB" stroke-miterlimit="10"/>
<path d="M112.938 116L112.937 101" stroke="#2563EB" stroke-miterlimit="10"/>
<path d="M126.562 116L126.562 101" stroke="#2563EB" stroke-miterlimit="10"/>
<path d="M140.188 116L140.187 101" stroke="#2563EB" stroke-miterlimit="10"/>
<path d="M31.8385 107.025L16.8385 99.8651V117.186L31.8385 110.025V107.025ZM30.3385 110.025H99.0713V107.025H30.3385V110.025Z" fill="white"/>
<path d="M31.8385 107.025L16.8385 99.8651V117.186L31.8385 110.025V107.025ZM30.3385 110.025H99.0713V107.025H30.3385V110.025Z" fill="#4C5CE5"/>
<defs>
<radialGradient id="paint0_radial_620_1758" cx="0" cy="0" r="1" gradientUnits="userSpaceOnUse" gradientTransform="translate(90.6418 75.8047) rotate(90) scale(62.7236 71.6428)">
<stop stop-color="#2563EB"/>
<stop offset="1" stop-color="#2563EB" stop-opacity="0"/>
</radialGradient>
<linearGradient id="paint1_linear_620_1758" x1="170" y1="25.7705" x2="277.145" y2="84.0356" gradientUnits="userSpaceOnUse">
<stop stop-color="#001A85"/>
<stop offset="0.651042" stop-color="#16182B"/>
</linearGradient>
<linearGradient id="paint2_linear_620_1758" x1="44.7856" y1="56" x2="44.7856" y2="41" gradientUnits="userSpaceOnUse">
<stop stop-color="#2563EB"/>
<stop offset="1" stop-color="#2DD4BF"/>
</linearGradient>
<linearGradient id="paint3_linear_620_1758" x1="58.3569" y1="56" x2="58.3569" y2="41" gradientUnits="userSpaceOnUse">
<stop stop-color="#2563EB"/>
<stop offset="1" stop-color="#2DD4BF"/>
</linearGradient>
<linearGradient id="paint4_linear_620_1758" x1="71.9287" y1="56" x2="71.9287" y2="41" gradientUnits="userSpaceOnUse">
<stop stop-color="#2563EB"/>
<stop offset="1" stop-color="#2DD4BF"/>
</linearGradient>
<linearGradient id="paint5_linear_620_1758" x1="85.5" y1="56" x2="85.5" y2="41" gradientUnits="userSpaceOnUse">
<stop stop-color="#2563EB"/>
<stop offset="1" stop-color="#2DD4BF"/>
</linearGradient>
<linearGradient id="paint6_linear_620_1758" x1="99.0713" y1="56" x2="99.0713" y2="41" gradientUnits="userSpaceOnUse">
<stop stop-color="#2563EB"/>
<stop offset="1" stop-color="#2DD4BF"/>
</linearGradient>
<linearGradient id="paint7_linear_620_1758" x1="112.643" y1="56" x2="112.643" y2="41" gradientUnits="userSpaceOnUse">
<stop stop-color="#2563EB"/>
<stop offset="1" stop-color="#2DD4BF"/>
</linearGradient>
<linearGradient id="paint8_linear_620_1758" x1="126.214" y1="56" x2="126.214" y2="41" gradientUnits="userSpaceOnUse">
<stop stop-color="#2563EB"/>
<stop offset="1" stop-color="#2DD4BF"/>
</linearGradient>
<linearGradient id="paint9_linear_620_1758" x1="81.7303" y1="48.1836" x2="121.94" y2="48.1836" gradientUnits="userSpaceOnUse">
<stop stop-color="#4C5CE5"/>
<stop offset="1" stop-color="#2DD4BF"/>
</linearGradient>
<linearGradient id="paint10_linear_620_1758" x1="170" y1="85.334" x2="277.145" y2="143.599" gradientUnits="userSpaceOnUse">
<stop stop-color="#001A85"/>
<stop offset="0.651042" stop-color="#16182B"/>
</linearGradient>
</defs>
</svg>
