<svg width="171" height="170" viewBox="0 0 171 170" fill="none" xmlns="http://www.w3.org/2000/svg">
<rect width="171" height="170" fill="#F6F6F6"/>
<g id="Desktop-V1" clip-path="url(#clip0_1_2)">
<rect width="1440" height="6350" transform="translate(-960 -5095)" fill="url(#paint0_linear_1_2)"/>
<g id="Sections">
<g id="Section_Why Open Self-Service?">
<g id="why-section-1">
<g id="text frame">
<g id="img &#62; Be ready to modernize">
<rect id="Rectangle 1069" x="0.214844" y="15.0215" width="143.286" height="136" fill="url(#paint1_radial_1_2)" fill-opacity="0.3"/>
<path id="image" d="M70.7773 131.021L70.7773 35.0204" stroke="url(#paint2_linear_1_2)" stroke-miterlimit="10"/>
<path id="image_2" d="M20.2148 131.021L20.2148 35.0204" stroke="#2563EB" stroke-miterlimit="10"/>
<path id="image_3" d="M123.5 111.021L123.5 55.0206" stroke="#4C5CE5" stroke-miterlimit="10"/>
<path id="image_4" d="M20.2148 83.0205H123.5" stroke="url(#paint3_linear_1_2)" stroke-miterlimit="10"/>
<path id="image_5" d="M56.5918 35.0205H36.5355" stroke="#2563EB" stroke-miterlimit="10"/>
<path id="image_6" d="M56.5918 131.021H36.5355" stroke="#2563EB" stroke-miterlimit="10"/>
<path id="image_7" d="M103.5 131.021H83.4437" stroke="#2563EB" stroke-miterlimit="10"/>
<path id="image_8" d="M103.5 35.0205H83.4437" stroke="#2563EB" stroke-miterlimit="10"/>
<g id="Rectangle 22457">
<rect x="50.7764" y="63.0205" width="40" height="40" rx="20" fill="url(#paint4_linear_1_2)"/>
<rect x="50.7764" y="63.0205" width="40" height="40" rx="20" fill="#2DD4BF"/>
</g>
<g id="Vector">
<path d="M0 20C0 17.2386 2.23858 15 5 15H35C37.7614 15 40 17.2386 40 20V50C40 52.7614 37.7614 55 35 55H5C2.23858 55 0 52.7614 0 50V20Z" fill="url(#paint5_linear_1_2)"/>
<path d="M0 68C0 65.2386 2.23858 63 5 63H35C37.7614 63 40 65.2386 40 68V98C40 100.761 37.7614 103 35 103H5C2.23858 103 0 100.761 0 98V68Z" fill="url(#paint6_linear_1_2)"/>
<path d="M0 116C0 113.239 2.23858 111 5 111H35C37.7614 111 40 113.239 40 116V146C40 148.761 37.7614 151 35 151H5C2.23858 151 0 148.761 0 146V116Z" fill="url(#paint7_linear_1_2)"/>
<path d="M51.6426 116C51.6426 113.239 53.8812 111 56.6426 111H86.6426C89.404 111 91.6426 113.239 91.6426 116V146C91.6426 148.761 89.404 151 86.6426 151H56.6426C53.8812 151 51.6426 148.761 51.6426 146V116Z" fill="url(#paint8_linear_1_2)"/>
<path d="M50.562 20C50.562 17.2386 52.8006 15 55.562 15H85.562C88.3234 15 90.562 17.2386 90.562 20V50C90.562 52.7614 88.3234 55 85.562 55H55.562C52.8006 55 50.562 52.7614 50.562 50V20Z" fill="url(#paint9_linear_1_2)"/>
<path d="M103.286 68C103.286 65.2386 105.524 63 108.286 63H138.286C141.047 63 143.286 65.2386 143.286 68V98C143.286 100.761 141.047 103 138.286 103H108.286C105.524 103 103.286 100.761 103.286 98V68Z" fill="url(#paint10_linear_1_2)"/>
</g>
<path id="Vector_2" d="M108.5 16.0205H138.5C140.709 16.0205 142.5 17.8114 142.5 20.0205V50.0205C142.5 52.2296 140.709 54.0205 138.5 54.0205H108.5C106.291 54.0205 104.5 52.2296 104.5 50.0205V20.0205C104.5 17.8114 106.291 16.0205 108.5 16.0205Z" stroke="#4C5CE5" stroke-opacity="0.4" stroke-width="2"/>
<path id="Vector_3" d="M108.5 112.021H138.5C140.709 112.021 142.5 113.811 142.5 116.021V146.021C142.5 148.23 140.709 150.021 138.5 150.021H108.5C106.291 150.021 104.5 148.23 104.5 146.021V116.021C104.5 113.811 106.291 112.021 108.5 112.021Z" stroke="#4C5CE5" stroke-opacity="0.4" stroke-width="2"/>
<g id="Rectangle 22459">
<rect x="130" y="0.355469" width="40" height="40" rx="5" fill="#16182B" fill-opacity="0.8"/>
<rect x="130" y="0.355469" width="40" height="40" rx="5" fill="#4C5CE5"/>
</g>
<g id="Rectangle 22460">
<rect x="130.077" y="120.355" width="40" height="40" rx="5" fill="#16182B" fill-opacity="0.8"/>
<rect x="130.077" y="120.355" width="40" height="40" rx="5" fill="#4C5CE5"/>
</g>
<g id="Group 7594">
<path id="Vector_4" d="M159.923 10.3555L159.154 16.2786L153.23 15.5092" stroke="white" stroke-width="1.5" stroke-miterlimit="10" stroke-linecap="round"/>
<path id="Vector_5" d="M140 20.3562C139.997 18.0744 140.776 15.8604 142.207 14.0826C143.637 12.3049 145.634 11.0706 147.863 10.5851C150.093 10.0996 152.421 10.3923 154.462 11.4143C156.502 12.4363 158.131 14.1261 159.077 16.2025" stroke="white" stroke-width="1.5" stroke-miterlimit="10" stroke-linecap="round"/>
<path id="Vector_6" d="M160 20.3555C160.002 22.6373 159.224 24.8513 157.793 26.6291C156.362 28.4068 154.366 29.6411 152.137 30.1266C149.907 30.612 147.578 30.3194 145.538 29.2974C143.498 28.2754 141.869 26.5856 140.923 24.5092" stroke="white" stroke-width="1.5" stroke-miterlimit="10" stroke-linecap="round"/>
<path id="Vector_7" d="M140.077 30.3558L140.847 24.4326L146.77 25.202" stroke="white" stroke-width="1.5" stroke-miterlimit="10" stroke-linecap="round"/>
</g>
<g id="Group 7595">
<path id="Vector_8" d="M160 130.355L159.231 136.279L153.308 135.509" stroke="white" stroke-width="1.5" stroke-miterlimit="10" stroke-linecap="round"/>
<path id="Vector_9" d="M140.077 140.356C140.074 138.074 140.853 135.86 142.284 134.083C143.714 132.305 145.711 131.071 147.94 130.585C150.17 130.1 152.499 130.392 154.539 131.414C156.579 132.436 158.208 134.126 159.154 136.202" stroke="white" stroke-width="1.5" stroke-miterlimit="10" stroke-linecap="round"/>
<path id="Vector_10" d="M160.077 140.355C160.08 142.637 159.301 144.851 157.87 146.629C156.44 148.407 154.443 149.641 152.214 150.127C149.984 150.612 147.655 150.319 145.615 149.297C143.575 148.275 141.946 146.586 141 144.509" stroke="white" stroke-width="1.5" stroke-miterlimit="10" stroke-linecap="round"/>
<path id="Vector_11" d="M140.154 150.356L140.924 144.433L146.847 145.202" stroke="white" stroke-width="1.5" stroke-miterlimit="10" stroke-linecap="round"/>
</g>
</g>
</g>
</g>
</g>
</g>
</g>
<defs>
<linearGradient id="paint0_linear_1_2" x1="0" y1="0" x2="3578.93" y2="1617.58" gradientUnits="userSpaceOnUse">
<stop stop-color="#001A85"/>
<stop offset="0.651042" stop-color="#16182B"/>
</linearGradient>
<radialGradient id="paint1_radial_1_2" cx="0" cy="0" r="1" gradientUnits="userSpaceOnUse" gradientTransform="translate(71.8577 83.0215) rotate(90) scale(68 71.6428)">
<stop stop-color="#2563EB"/>
<stop offset="1" stop-color="#2563EB" stop-opacity="0"/>
</radialGradient>
<linearGradient id="paint2_linear_1_2" x1="70.7773" y1="131.021" x2="70.7773" y2="35.0204" gradientUnits="userSpaceOnUse">
<stop stop-color="#2563EB"/>
<stop offset="1" stop-color="#2DD4BF"/>
</linearGradient>
<linearGradient id="paint3_linear_1_2" x1="20.2148" y1="83.0205" x2="123.5" y2="83.0205" gradientUnits="userSpaceOnUse">
<stop stop-color="#2563EB"/>
<stop offset="0.49" stop-color="#2DD4BF"/>
<stop offset="1" stop-color="#2563EB"/>
</linearGradient>
<linearGradient id="paint4_linear_1_2" x1="53.1688" y1="60.3598" x2="94.8138" y2="64.7536" gradientUnits="userSpaceOnUse">
<stop stop-color="#4C5CE5"/>
<stop offset="0.346406" stop-color="#2563EB"/>
<stop offset="1" stop-color="#2DD4BF"/>
</linearGradient>
<linearGradient id="paint5_linear_1_2" x1="0" y1="15" x2="79.2819" y2="181.48" gradientUnits="userSpaceOnUse">
<stop stop-color="#001A85"/>
<stop offset="0.651042" stop-color="#16182B"/>
</linearGradient>
<linearGradient id="paint6_linear_1_2" x1="0" y1="15" x2="79.2819" y2="181.48" gradientUnits="userSpaceOnUse">
<stop stop-color="#001A85"/>
<stop offset="0.651042" stop-color="#16182B"/>
</linearGradient>
<linearGradient id="paint7_linear_1_2" x1="0" y1="15" x2="79.2819" y2="181.48" gradientUnits="userSpaceOnUse">
<stop stop-color="#001A85"/>
<stop offset="0.651042" stop-color="#16182B"/>
</linearGradient>
<linearGradient id="paint8_linear_1_2" x1="0" y1="15" x2="79.2819" y2="181.48" gradientUnits="userSpaceOnUse">
<stop stop-color="#001A85"/>
<stop offset="0.651042" stop-color="#16182B"/>
</linearGradient>
<linearGradient id="paint9_linear_1_2" x1="0" y1="15" x2="79.2819" y2="181.48" gradientUnits="userSpaceOnUse">
<stop stop-color="#001A85"/>
<stop offset="0.651042" stop-color="#16182B"/>
</linearGradient>
<linearGradient id="paint10_linear_1_2" x1="0" y1="15" x2="79.2819" y2="181.48" gradientUnits="userSpaceOnUse">
<stop stop-color="#001A85"/>
<stop offset="0.651042" stop-color="#16182B"/>
</linearGradient>
<clipPath id="clip0_1_2">
<rect width="1440" height="6350" fill="white" transform="translate(-960 -5095)"/>
</clipPath>
</defs>
</svg>
