<svg width="40" height="40" viewBox="0 0 40 40" fill="none" xmlns="http://www.w3.org/2000/svg">
<path d="M29.9999 10H36.6666M23.3333 6.66671H28.3333C28.7753 6.66671 29.1992 6.8423 29.5118 7.15486C29.8243 7.46742 29.9999 7.89135 29.9999 8.33337V11.6667C29.9999 12.1087 29.8243 12.5327 29.5118 12.8452C29.1992 13.1578 28.7753 13.3334 28.3333 13.3334H23.3333M8.33325 16.6667L4.99992 30M4.99992 30C3.99992 30 3.33325 30.6667 3.33325 31.6667C3.33325 34.5 5.49992 36.6667 8.33325 36.6667H16.6666C17.6666 36.6667 18.3333 36 18.3333 35V31.6667C18.3333 30.6667 17.6666 30 16.6666 30H4.99992ZM19.9999 16.6667V21.6667C19.9999 22.6667 19.3333 23.3334 18.3333 23.3334H13.3333M11.6666 30L14.9999 16.6667M23.3333 15C23.3333 16 22.6666 16.6667 21.6666 16.6667H6.66659C5.78253 16.6667 4.93468 16.3155 4.30956 15.6904C3.68444 15.0653 3.33325 14.2174 3.33325 13.3334V6.66671C3.33325 5.78265 3.68444 4.93481 4.30956 4.30968C4.93468 3.68456 5.78253 3.33337 6.66659 3.33337H21.6666C22.6666 3.33337 23.3333 4.00004 23.3333 5.00004V15Z" stroke="#151619" stroke-width="2" stroke-linecap="round" stroke-linejoin="round"/>
</svg>
