<svg width="40" height="40" viewBox="0 0 40 40" fill="none" xmlns="http://www.w3.org/2000/svg">
<path d="M33.3334 16.6667C33.3334 26.6667 20.0001 36.6667 20.0001 36.6667C20.0001 36.6667 6.66675 26.6667 6.66675 16.6667C6.66675 13.1305 8.07151 9.7391 10.572 7.23862C13.0725 4.73813 16.4639 3.33337 20.0001 3.33337C23.5363 3.33337 26.9277 4.73813 29.4282 7.23862C31.9287 9.7391 33.3334 13.1305 33.3334 16.6667Z" stroke="#151619" stroke-width="2" stroke-linecap="round" stroke-linejoin="round"/>
<path d="M20.0001 21.6667C22.7615 21.6667 25.0001 19.4281 25.0001 16.6667C25.0001 13.9053 22.7615 11.6667 20.0001 11.6667C17.2387 11.6667 15.0001 13.9053 15.0001 16.6667C15.0001 19.4281 17.2387 21.6667 20.0001 21.6667Z" stroke="#151619" stroke-width="2" stroke-linecap="round" stroke-linejoin="round"/>
</svg>
