<svg width="25" height="24" viewBox="0 0 25 24" fill="none" xmlns="http://www.w3.org/2000/svg">
<path d="M9.3335 12L11.3335 14L15.3335 10M20.3335 13C20.3335 18 16.8335 20.5 12.6735 21.95C12.4557 22.0238 12.219 22.0202 12.0035 21.94C7.8335 20.5 4.3335 18 4.3335 13V5.99996C4.3335 5.73474 4.43885 5.48039 4.62639 5.29285C4.81393 5.10532 5.06828 4.99996 5.3335 4.99996C7.3335 4.99996 9.8335 3.79996 11.5735 2.27996C11.7854 2.09896 12.0548 1.99951 12.3335 1.99951C12.6121 1.99951 12.8816 2.09896 13.0935 2.27996C14.8435 3.80996 17.3335 4.99996 19.3335 4.99996C19.5987 4.99996 19.8531 5.10532 20.0406 5.29285C20.2281 5.48039 20.3335 5.73474 20.3335 5.99996V13Z" stroke="#151619" stroke-width="2" stroke-linecap="round" stroke-linejoin="round"/>
</svg>
