<svg width="25" height="24" viewBox="0 0 25 24" fill="none" xmlns="http://www.w3.org/2000/svg">
<path d="M3.3335 6L6.3335 2H18.3335L21.3335 6M3.3335 6V20C3.3335 20.5304 3.54421 21.0391 3.91928 21.4142C4.29436 21.7893 4.80306 22 5.3335 22H19.3335C19.8639 22 20.3726 21.7893 20.7477 21.4142C21.1228 21.0391 21.3335 20.5304 21.3335 20V6M3.3335 6H21.3335M16.3335 10C16.3335 11.0609 15.9121 12.0783 15.1619 12.8284C14.4118 13.5786 13.3944 14 12.3335 14C11.2726 14 10.2552 13.5786 9.50507 12.8284C8.75492 12.0783 8.3335 11.0609 8.3335 10" stroke="#151619" stroke-width="2" stroke-linecap="round" stroke-linejoin="round"/>
</svg>
